<mxfile host="app.diagrams.net" modified="2020-06-10T02:06:42.106Z" agent="5.0 (Windows NT 10.0; Win64; x64) AppleWebKit/537.36 (KHTML, like Gecko) Chrome/83.0.4103.61 Safari/537.36" etag="3kay_FOgMWdMkDF5B5N3" version="13.1.14" type="github">
  <diagram id="zB2qJcApkH-c7RQJ33ha" name="Page-1">
    <mxGraphModel dx="2374" dy="1089" grid="1" gridSize="10" guides="1" tooltips="1" connect="1" arrows="1" fold="1" page="1" pageScale="1" pageWidth="827" pageHeight="1169" math="0" shadow="0">
      <root>
        <mxCell id="0" />
        <mxCell id="1" parent="0" />
        <mxCell id="HRLqc-G_0mREPKBpx3aI-3" style="edgeStyle=orthogonalEdgeStyle;rounded=0;orthogonalLoop=1;jettySize=auto;html=1;exitX=0.5;exitY=1;exitDx=0;exitDy=0;exitPerimeter=0;entryX=0.5;entryY=0;entryDx=0;entryDy=0;" edge="1" parent="1" source="HRLqc-G_0mREPKBpx3aI-1" target="HRLqc-G_0mREPKBpx3aI-2">
          <mxGeometry relative="1" as="geometry" />
        </mxCell>
        <mxCell id="HRLqc-G_0mREPKBpx3aI-1" value="Start" style="strokeWidth=2;html=1;shape=mxgraph.flowchart.start_2;whiteSpace=wrap;fillColor=none;" vertex="1" parent="1">
          <mxGeometry x="200" y="40" width="40" height="40" as="geometry" />
        </mxCell>
        <mxCell id="HRLqc-G_0mREPKBpx3aI-7" style="edgeStyle=orthogonalEdgeStyle;rounded=0;orthogonalLoop=1;jettySize=auto;html=1;exitX=0.5;exitY=1;exitDx=0;exitDy=0;" edge="1" parent="1" source="HRLqc-G_0mREPKBpx3aI-2" target="HRLqc-G_0mREPKBpx3aI-8">
          <mxGeometry relative="1" as="geometry">
            <mxPoint x="220.0000000000001" y="200" as="targetPoint" />
          </mxGeometry>
        </mxCell>
        <mxCell id="HRLqc-G_0mREPKBpx3aI-2" value="从数据库导出数据" style="rounded=1;whiteSpace=wrap;html=1;absoluteArcSize=1;arcSize=14;strokeWidth=2;fillColor=none;" vertex="1" parent="1">
          <mxGeometry x="160" y="120" width="120" height="40" as="geometry" />
        </mxCell>
        <mxCell id="HRLqc-G_0mREPKBpx3aI-5" value="&lt;font color=&quot;#cda2be&quot;&gt;按需过滤：&lt;br&gt;如日期、机型&lt;br&gt;等条件&lt;/font&gt;" style="whiteSpace=wrap;html=1;shape=mxgraph.basic.rectCallout;dx=30;dy=15;boundedLbl=1;fillColor=none;strokeColor=#CDA2BE;" vertex="1" parent="1">
          <mxGeometry x="280" y="60" width="80" height="60" as="geometry" />
        </mxCell>
        <mxCell id="HRLqc-G_0mREPKBpx3aI-10" style="edgeStyle=orthogonalEdgeStyle;rounded=0;orthogonalLoop=1;jettySize=auto;html=1;exitX=0.5;exitY=1;exitDx=0;exitDy=0;exitPerimeter=0;entryX=0.5;entryY=0;entryDx=0;entryDy=0;" edge="1" parent="1" source="HRLqc-G_0mREPKBpx3aI-8" target="HRLqc-G_0mREPKBpx3aI-9">
          <mxGeometry relative="1" as="geometry" />
        </mxCell>
        <mxCell id="HRLqc-G_0mREPKBpx3aI-23" style="edgeStyle=orthogonalEdgeStyle;rounded=0;orthogonalLoop=1;jettySize=auto;html=1;exitX=1;exitY=0.5;exitDx=0;exitDy=0;exitPerimeter=0;" edge="1" parent="1" source="HRLqc-G_0mREPKBpx3aI-8" target="HRLqc-G_0mREPKBpx3aI-22">
          <mxGeometry relative="1" as="geometry" />
        </mxCell>
        <mxCell id="HRLqc-G_0mREPKBpx3aI-8" value="遍历数据" style="strokeWidth=2;html=1;shape=mxgraph.flowchart.decision;whiteSpace=wrap;fillColor=none;" vertex="1" parent="1">
          <mxGeometry x="160" y="200" width="120" height="80" as="geometry" />
        </mxCell>
        <mxCell id="HRLqc-G_0mREPKBpx3aI-13" style="edgeStyle=orthogonalEdgeStyle;rounded=0;orthogonalLoop=1;jettySize=auto;html=1;exitX=0.5;exitY=1;exitDx=0;exitDy=0;entryX=0.5;entryY=0;entryDx=0;entryDy=0;entryPerimeter=0;" edge="1" parent="1" source="HRLqc-G_0mREPKBpx3aI-9" target="HRLqc-G_0mREPKBpx3aI-11">
          <mxGeometry relative="1" as="geometry" />
        </mxCell>
        <mxCell id="HRLqc-G_0mREPKBpx3aI-9" value="以session_id和device_id作为key" style="rounded=1;whiteSpace=wrap;html=1;absoluteArcSize=1;arcSize=14;strokeWidth=2;fillColor=none;" vertex="1" parent="1">
          <mxGeometry x="160" y="320" width="120" height="40" as="geometry" />
        </mxCell>
        <mxCell id="HRLqc-G_0mREPKBpx3aI-14" style="edgeStyle=orthogonalEdgeStyle;rounded=0;orthogonalLoop=1;jettySize=auto;html=1;exitX=0.5;exitY=1;exitDx=0;exitDy=0;exitPerimeter=0;entryX=0.5;entryY=0;entryDx=0;entryDy=0;" edge="1" parent="1" source="HRLqc-G_0mREPKBpx3aI-11" target="HRLqc-G_0mREPKBpx3aI-12">
          <mxGeometry relative="1" as="geometry" />
        </mxCell>
        <mxCell id="HRLqc-G_0mREPKBpx3aI-20" style="edgeStyle=orthogonalEdgeStyle;rounded=0;orthogonalLoop=1;jettySize=auto;html=1;exitX=1;exitY=0.5;exitDx=0;exitDy=0;exitPerimeter=0;" edge="1" parent="1" source="HRLqc-G_0mREPKBpx3aI-11" target="HRLqc-G_0mREPKBpx3aI-19">
          <mxGeometry relative="1" as="geometry" />
        </mxCell>
        <mxCell id="HRLqc-G_0mREPKBpx3aI-11" value="是否已有该key值&lt;br&gt;的记录？" style="strokeWidth=2;html=1;shape=mxgraph.flowchart.decision;whiteSpace=wrap;fillColor=none;" vertex="1" parent="1">
          <mxGeometry x="160" y="400" width="120" height="80" as="geometry" />
        </mxCell>
        <mxCell id="HRLqc-G_0mREPKBpx3aI-17" style="edgeStyle=orthogonalEdgeStyle;rounded=0;orthogonalLoop=1;jettySize=auto;html=1;exitX=0.5;exitY=1;exitDx=0;exitDy=0;entryX=0.5;entryY=0;entryDx=0;entryDy=0;" edge="1" parent="1" source="HRLqc-G_0mREPKBpx3aI-12" target="HRLqc-G_0mREPKBpx3aI-16">
          <mxGeometry relative="1" as="geometry" />
        </mxCell>
        <mxCell id="HRLqc-G_0mREPKBpx3aI-12" value="拿到数据的node_id和time_ms" style="rounded=1;whiteSpace=wrap;html=1;absoluteArcSize=1;arcSize=14;strokeWidth=2;fillColor=none;" vertex="1" parent="1">
          <mxGeometry x="160" y="520" width="120" height="40" as="geometry" />
        </mxCell>
        <mxCell id="HRLqc-G_0mREPKBpx3aI-18" style="edgeStyle=orthogonalEdgeStyle;rounded=0;orthogonalLoop=1;jettySize=auto;html=1;exitX=0;exitY=0.5;exitDx=0;exitDy=0;entryX=0;entryY=0.5;entryDx=0;entryDy=0;entryPerimeter=0;" edge="1" parent="1" source="HRLqc-G_0mREPKBpx3aI-16" target="HRLqc-G_0mREPKBpx3aI-8">
          <mxGeometry relative="1" as="geometry" />
        </mxCell>
        <mxCell id="HRLqc-G_0mREPKBpx3aI-16" value="更新记录中node_id中的时间记录为较小值" style="rounded=1;whiteSpace=wrap;html=1;absoluteArcSize=1;arcSize=14;strokeWidth=2;fillColor=none;" vertex="1" parent="1">
          <mxGeometry x="160" y="600" width="120" height="40" as="geometry" />
        </mxCell>
        <mxCell id="HRLqc-G_0mREPKBpx3aI-21" style="edgeStyle=orthogonalEdgeStyle;rounded=0;orthogonalLoop=1;jettySize=auto;html=1;exitX=0.5;exitY=1;exitDx=0;exitDy=0;entryX=1;entryY=0.5;entryDx=0;entryDy=0;" edge="1" parent="1" source="HRLqc-G_0mREPKBpx3aI-19" target="HRLqc-G_0mREPKBpx3aI-12">
          <mxGeometry relative="1" as="geometry" />
        </mxCell>
        <mxCell id="HRLqc-G_0mREPKBpx3aI-19" value="创建该key值的记录" style="rounded=1;whiteSpace=wrap;html=1;absoluteArcSize=1;arcSize=14;strokeWidth=2;fillColor=none;" vertex="1" parent="1">
          <mxGeometry x="320" y="420" width="120" height="40" as="geometry" />
        </mxCell>
        <mxCell id="HRLqc-G_0mREPKBpx3aI-26" style="edgeStyle=orthogonalEdgeStyle;rounded=0;orthogonalLoop=1;jettySize=auto;html=1;exitX=0.5;exitY=1;exitDx=0;exitDy=0;entryX=0.5;entryY=0;entryDx=0;entryDy=0;" edge="1" parent="1" source="HRLqc-G_0mREPKBpx3aI-22" target="HRLqc-G_0mREPKBpx3aI-31">
          <mxGeometry relative="1" as="geometry" />
        </mxCell>
        <mxCell id="HRLqc-G_0mREPKBpx3aI-22" value="计算每条记录某两个node_id间的时间差值" style="rounded=1;whiteSpace=wrap;html=1;absoluteArcSize=1;arcSize=14;strokeWidth=2;fillColor=none;" vertex="1" parent="1">
          <mxGeometry x="480" y="220" width="120" height="40" as="geometry" />
        </mxCell>
        <mxCell id="HRLqc-G_0mREPKBpx3aI-24" value="&lt;div&gt;&lt;font color=&quot;#cda2be&quot;&gt;&quot;recordMap&quot;: {&lt;/font&gt;&lt;/div&gt;&lt;div&gt;&lt;font color=&quot;#cda2be&quot;&gt;&amp;nbsp; &amp;nbsp; &quot;session_id,device_id&quot;: {&lt;/font&gt;&lt;/div&gt;&lt;div&gt;&lt;font color=&quot;#cda2be&quot;&gt;&amp;nbsp; &amp;nbsp; &amp;nbsp; &amp;nbsp; &quot;node_id&quot;: &quot;time_ms&quot;,&lt;/font&gt;&lt;/div&gt;&lt;div&gt;&lt;font color=&quot;#cda2be&quot;&gt;&amp;nbsp; &amp;nbsp; &amp;nbsp; &amp;nbsp; &quot;node_id&quot;: &quot;time_ms&quot;,&lt;/font&gt;&lt;/div&gt;&lt;div&gt;&lt;font color=&quot;#cda2be&quot;&gt;&amp;nbsp; &amp;nbsp; &amp;nbsp; &amp;nbsp; /* ... */&lt;/font&gt;&lt;/div&gt;&lt;div&gt;&lt;font color=&quot;#cda2be&quot;&gt;&amp;nbsp; &amp;nbsp; &amp;nbsp; &amp;nbsp; &quot;node_id&quot;: &quot;time_ms&quot;&lt;/font&gt;&lt;/div&gt;&lt;div&gt;&lt;font color=&quot;#cda2be&quot;&gt;&amp;nbsp; &amp;nbsp; }&lt;/font&gt;&lt;/div&gt;&lt;div&gt;&lt;font color=&quot;#cda2be&quot;&gt;}&lt;/font&gt;&lt;/div&gt;" style="strokeWidth=2;html=1;shape=mxgraph.flowchart.document2;whiteSpace=wrap;size=0.1936781609195402;fillColor=none;align=left;strokeColor=#CDA2BE;" vertex="1" parent="1">
          <mxGeometry x="300" y="280" width="160" height="120" as="geometry" />
        </mxCell>
        <mxCell id="HRLqc-G_0mREPKBpx3aI-28" style="edgeStyle=orthogonalEdgeStyle;rounded=0;orthogonalLoop=1;jettySize=auto;html=1;exitX=0.5;exitY=1;exitDx=0;exitDy=0;entryX=0.5;entryY=0;entryDx=0;entryDy=0;entryPerimeter=0;" edge="1" parent="1" source="HRLqc-G_0mREPKBpx3aI-25" target="HRLqc-G_0mREPKBpx3aI-27">
          <mxGeometry relative="1" as="geometry" />
        </mxCell>
        <mxCell id="HRLqc-G_0mREPKBpx3aI-25" value="统计差值的出现次数" style="rounded=1;whiteSpace=wrap;html=1;absoluteArcSize=1;arcSize=14;strokeWidth=2;fillColor=none;" vertex="1" parent="1">
          <mxGeometry x="480" y="420" width="120" height="40" as="geometry" />
        </mxCell>
        <mxCell id="HRLqc-G_0mREPKBpx3aI-27" value="End" style="strokeWidth=2;html=1;shape=mxgraph.flowchart.terminator;whiteSpace=wrap;fillColor=none;" vertex="1" parent="1">
          <mxGeometry x="520" y="520" width="40" height="40" as="geometry" />
        </mxCell>
        <mxCell id="HRLqc-G_0mREPKBpx3aI-42" style="edgeStyle=orthogonalEdgeStyle;rounded=0;orthogonalLoop=1;jettySize=auto;html=1;exitX=0.5;exitY=1;exitDx=0;exitDy=0;entryX=0.5;entryY=0;entryDx=0;entryDy=0;" edge="1" parent="1" source="HRLqc-G_0mREPKBpx3aI-31" target="HRLqc-G_0mREPKBpx3aI-25">
          <mxGeometry relative="1" as="geometry" />
        </mxCell>
        <mxCell id="HRLqc-G_0mREPKBpx3aI-31" value="过滤无效差值" style="rounded=1;whiteSpace=wrap;html=1;absoluteArcSize=1;arcSize=14;strokeWidth=2;fillColor=none;" vertex="1" parent="1">
          <mxGeometry x="480" y="320" width="120" height="40" as="geometry" />
        </mxCell>
        <mxCell id="HRLqc-G_0mREPKBpx3aI-43" value="" style="shape=image;verticalLabelPosition=bottom;labelBackgroundColor=#ffffff;verticalAlign=top;aspect=fixed;imageAspect=0;image=data:image/png,iVBORw0KGgoAAAANSUhEUgAABTQAAALyCAYAAADkAVspAAAgAElEQVR4Aezd26st15kodv0Jp5OXkMBp8hBCCOQPyPOBPOQpkBfRpDF0DI1Ik8bBODEizmkMjqHtYOgY+jgty8gR8pFt2d3CooVoxW27fUEWbUva3rpY3rIk637brYstb3mFMZdHrW/XHvXNmjWr5mWtX8GkqsatRv3q28Lrc11uOtnz8m/+zb85qb89T2Xw8JcvXx6sO7SKalnWx7Icg2/ftb9/yNbH4Fv8omndPmTXOrdj8a3zrdZx/5C3j9G371njuazL0t/vtz+m/X1dn2jY396H374c+udaLUp52a7rut1vv4/9Q7CqTtElbu/DpR7zEHzqXFpOtW5f60PwOUSXej0OwafO5RCdDsGn5VLLqt2+1ofgU869esT1vkzicQ/Fp28U57jPbT65/iH51BjKZ7zb2qk+N+12msd5tJ/97GfHOfEjmTXfZS8UX77lfxDGpb8f6w5tW/we2hW5fj6uz6kHh+vjIttjlemcnPDhkwvktYcaPzUxlc9++dpD9Vn+zMcdgU/uxIdPLpDXip9lfCQ0c9dV7WOPPTailSZTBfhOlRvXj+84p6mtjsG3/iFR11PPdR/9jsF3Hy6HckzX5/RKcBgfkaxyKz58coG8VvzwyQXyWvHDJxfIa8UPn1wgr50aPzfdfffdJ34MxIAYEANiQAyIATEgBsSAGBADYkAMiAExIAbEgBg4hhhwh2aeKF7VPvrooyNaaTJVgO9UuXH9+I5zmtqK71S5cf34jnPaVyvX51Sew/gIZJVb8eGTC+S14odPLpDXih8+uUBeK3745AJ57dT4kdDMXVe1U3FHDK3JyckJ32XDgC/fZQWWHV38Luu77eiuz6kgh/GRxCq34sMnF8hrxQ+fXCCvFT98coG8VvzwyQXy2qnxI6GZu65qp+KOGFoTCc3FY0D8LkvMl++yAoc9uvg/vT4cxscpq9yKD59cIK8VP3xygbxW/PDJBfJa8cMnF8hrp8aPhGbuuqqdijtiaE0kNBePAfG7LDFfvssKHPbo4v/0+nAYH6escis+fHKBvFb88MkF8lrxwycXyGvFD59cIK+dGj8SmrnrqnYq7oihNZHQXDwGxO+yxHz5Litw2KOL/9Prw2F8nLLKrfjwyQXyWvHDJxfIa8UPn1wgrxU/fHKBvHZq/Eho5q6r2qm4I4bWREJz8RgQv8sS8+W7rMBhjy7+T68Ph/Fxyiq34sMnF8hrxQ+fXCCvFT98coG8VvzwyQXy2qnxI6GZu65qp+KOGFoTCc3FY0D8LkvMl++yAoc9uvg/vT4cxscpq9yKD59cIK8VP3xygbxW/PDJBfJa8cMnF8hrp8aPhGbuuqqdijtiaE0kNBePAfG7LDFfvssKHPbo4v/0+nAYH6escis+fHKBvFb88MkF8lrxwycXyGvFD59cIK+dGj8SmrnrqnYq7oihNZHQXDwGxO+yxHz5Litw2KOL/9Prw2F8nLLKrfjwyQXyWvHDJxfIa8UPn1wgrxU/fHKBvHZq/Eho5q6r2qm4I4bWREJz8RgQv8sS8+W7rMBhjy7+T68Ph/Fxyiq34sMnF8hrxQ+fXCCvFT98coG8VvzwyQXy2qnxI6GZu65qp+KOGFoTCc3FY0D8LkvMl++yAnsa/f77Tk7+yz88OfnDf3Vy8q//4OTkX5e132iD4vZf/CcnJ3/12T1dwMM9rP9m5teGD59cIK8VP3xygbxW/PDJBfJa8cMnF8hrp8aPhGbuuqqdijtiaE0kNBePAfG7LDFfvssK7GH0ksz8w/9AAnOWBO4fnJx86v/Yw0U83EP6b2Z+bfjwyQXyWvHDJxfIa8UPn1wgrxU/fHKBvHZq/Eho5q6r2qm4I4bWREJz8RgQv8sS8+W7rMAeRv/P/2PJzFmSmb+/o7Ukhy2dgP9mdhTNDT5Nlq6QT0fR3ODTZOkK+XQUzQ0+TZaukE9H0dzg02TpCvl0FM2NqT4Smk3O6wun4l4/ir0hAb5DMvOU853HcWgUvkMy85Tzncdxo1FiMu///LcnJy+/NNjd9TmlucHh+9+5Pik8KHjxKm6wungE6RnzSXlO+PDJBfJa8cMnF8hrxQ+fXCCvFT/L+Eho5q6rWsE3AmmLJny3wBvRle8IpC2a8N0Cb0RXviOQ5m6yem/m7+8ufOvNdHTX55Sn6dC9e/QPUsOLVtm0umgIyfnySXA81ZPj8OGzViBv4L8/fHKBvFb88MkF8tqp8SOhmbuuaqfijhhaE//ja/EYEL/LEvPlu6zAHkaPd2iuObz4PwVqOmzguIb5XFU3rc7VGW53MnxyPz58coG8VvzwyQXyWvHDJxfIa8XPMj4SmrnrqlbwjUDaognfLfBGdOU7AmmLJny3wBvRle8IpLmbbJCIc31O8ZsOGzjOfQkPebym1SFPeMdz45OD8+GTC+S14odPLpDXih8+uUBeK36W8bnpC1/4wokfAzEgBsSAGBADYqDEwElIxImJ6THBcbqduGMnBsSAGBADYkAMiAExsC4G3KGZJ4pXtbLpI5C2aMJ3C7wRXfmOQNqiCd8t8EZ05TsCae4mIaG5bmjX51So6bCB4zrn81TftDpPJ7jlufDJAfnwyQXyWvHDJxfIa8UPn1wgrxU/y/hIaOauq1rBNwJpiyZ8t8Ab0ZXvCKQtmvDdAm9EV74jkOZuskEizvU5xW86bOA49yU85PGaVoc84R3PjU8OzodPLpDXih8+uUBeK3745AJ5rfhZxkdCM3dd1Y4Jvptu2oxyqP1QeTbNTfsMtR8qz449R13Ltz+X/v66427aPo5X+q77xfbZ9qbzaLVvlWXH7NfxPRNpWbbKznqs32r59ntteoxN24893rpx19X3jxP3S991v9h+7PZ5853TaJPr1WrbKltdlw0ScWOuTxlz8FgDgTDUfqh8YJidFTcdgmOZd/ZrTbR1rq2yVt9S1mrbKhvqv1R502qpgx3huHzyi8aHTy6Q14ofPrlAXit++OQCea34WcZnsyxcPodzWzsm+Kb8kdDq0ypbBzumT2wzZnvdMeesb/nGOZZjxf2y3f+15hP71DGm9OuP3R+3Xx/3N2lb5xj7D5X122T7fM90WtejVXbWY/1Wy7ffa9NjxPZle+gXj9PvU+uGymt9XPfbjjlu7d/vW8vrOtbXsjHr8+zbP/8ho03L++OW/dYYrbJV35CIa40Vy8Zcn6Hjx3H6beLchrb7/fe533RoOMZzWTffVttW2dA4rbatsqH+S5U3rZY62BGOyye/aHz45AJ5rfjhkwvkteKHTy6Q14qfZXwkNHPXVW0/+MofBJv+6mGG+sX6uj1mXf84qeusT23TX9c+tbzu72q9iW+ZU3+ecb9st37r+sVzbfXvl8X22XbpN3apbfvHau2PHbO043uqtSvf1rWpx27Vtcpi+7gd27bKa1l/XfvV8rrfX8f6uB3bjS3vt+vvxzGz7X78ttpuOnZsH7fj2K3yWtZf1361vO731/36dfu1f7/duvJaX9e1f1mv+636NBJxdaz+epPrU+fRHyPu1zb9dW1Ty+v+oaybDg3HTebfalvKWr++Q+3batsv6/dder9ptfRBj2h8PvnF4sMnF8hrxQ+fXCCvFT98coG8Vvws4zM+25If/1zXrgu++ofDHAj9PzSysft1/f04n9a4tay2q/t1XcuXXrd8yxziEvfjdmmzbr+OU9r1f7Uurvvjxbqyva4+tp+j7SZjxGPXbb6nEkOOQ+XVb9265dvvU46R/Wr7fptSPjS/fnm/b9zPxq/H6Lfvjx/HqNtxHfsPbcf2Y7fPg2891yGXWF7bxnWpby398v5+7bNpefw6dx1jaL3u+vSP3d+P45a6oV9t16+v5fteNx1GJDTXecTzGmrbKm+VlbGGyuNxlt5uWi190CMan09+sfjwyQXyWvHDJxfIa8UPn1wgrxU/y/i0/0rKj3XharPgK38cZL8hrPpHRV2XdnG7tR/H6retdUPlsb606beL+3G79lty3fLtzyHux+0yr3X7de6btCtts18ds7WOxxna7verx6rldb+1rm3Grs+Db8thXVn0qW1rWd1vrWubseuWb79vOc4mS2zfmmMta41Z6+IYpV3cj9txjFhetod+sc/S2+fJd6pVvC5xjFget/ttYl3ZHvp1/RqJuK6ut5Fdn3jc2G2ovLaJ86tlZR37xe3YZl/bTYeGY3/e/f16nqW8/mrZ0Ln1x4j9at9a1l8PjblkedNqyQMe2dh88gvGh08ukNeKHz65QF4rfvjkAnmt+FnGZ7O/svM5nNvaoeCrfxgMnXipby398rpf17VPf3+ovN+uv9/vV+vrutQPbde+S65bvmU+/V+dQ788zr11LrV+Xb86/rbrerz+XFr7sSzrV+cU29Sydevz5hvPd4xHbVPXpX/c3nS82L5st3z7bYaO129X92P7uF3q+/u1T6yrbeo61vW3W/1bbeJY/T6lbpNf7L9u+zz4bmJT20aXWhbXpb7sx3XsE8tru1g21HZV3kjE9dvX/aHrE49Z28b1UH0t769L31rW347j7mu76dBw3OQcYtt6XuvKan1dZ1axTR1/F+um1S4OfCTH4JNfKD58coG8VvzwyQXyWvHDJxfIa8XPMj7tjFt+rAtX2wq++odAXbdQWnX9srrfX5fxalkdu+z3y1rtallsm23Xuv66HnfpdeZbj13nVs+tlg/tl/axz1C7/ji139h17D/mGK02dYw43+z4tf3Y9Xnyjedcveo61rW2Y7ulffvHj8fu17X2Y/u4Xdr292v/WN7frvv9de1b17W+dZxYV9vHdb9+3X7sm2234rffvn+sfn1/P7aP26Vdf7/2jeX97brfX9e+dV3rx+4PtYvl/TFrXVzHNmV76Nf1aSTiurreRv/61LFLs3jc2K2Wx7b99rVNLa/7/XUcd5/bfYfVXBqOdf5j5jrUtl/e3y9jx7KyPfQbM4+52zSt5j7IEY/HJ794fPjkAnmt+OGTC+S14odPLpDXip9lfCQ0c9dVbT/4xv6hENvFw8TyuF3a1P26jv2GtudqW8ep66HjzV3e9y3jlzn0f/W4/fmt26/jxf517FpW12PGqm37637fUt8qGyqPbeN2PM5QeWzT3z4vvv3zqhZ13a/v78d2cTu2GyqPbfrbY33L2P1ff6y6X9uV/bo9tK596rq0G1pqXV3329VjlPK6PbQe6jvUvpRPWc6j76ZGQ3ZD5X3n2C5ux3bXlTcScbFt3G5dn1p/3Zi1MPnvYm0y1K/U17q6rn32ve47rOYXHMv+ul//HNadY62v69g/lsXtoTaxfOntvtXSxzu28fnkV4wPn1wgrxU/fHKBvFb88MkF8lrxs4zPtL8w87mcu9os+Ib+UCgIY+r6bep+XY/BHNO2tGn94vh1nLqOdUtut3z7c4j7Zbv/m2t+/XHrcYfK63Fru7pf15uUx7at49WyOvbY9XnwbZ1r9arrVptYFttVy9Y69hmzPca3NU6cT62P84lldbusW/1qeexft1t9+2PUtrE8btfx41j97XXt+/X9/kP758G3nlvfYN3+UL915bW+ruNxyvbQr7af66NA8bjd2AvFcBx/H9utOG05Dpm05py1jXVxu44Ty8r20K+23+W6abXLCRz4sfjkF4gPn1wgrxU/fHKBvFb88MkF8lrxs4yPhGbuuqrNgi/+0dAfKqsrbYfqh8r749f9TdrHtnE7zqdfXo+z1Lrl259D3I/bcd51fqV+7K/2qeuhsYfKa7+hdb/fULtSHtvG7dhnqDy26W+fR9++Q3+/b1D2Y5u4HdsOlcc2/e0xvv0+ZT87VqyL2+v69euH+vbL6/xiedzuj1vbx3Vpv+4X24/dPm++U4z616LaDZXX+rqO7eJ2rS/r68rDnYWxTWu7dX1qu+vGrIX9Y4Xyuhn7xe1SX/fruvbZ97rp0HDcZN5Dbfvl/f3o1N+OTq1+sX6p7abVUgc7wnH55BeND59cIK8VP3xygbxW/PDJBfJa8bOMj4Rm7rqqzYKv/EGQ/YaGr39I1HVs1yqL9f3tse1Lu9g2btcxW2W1bql137fOs7Uuc+jPsb/fmueYNnXs/nHreHWMuq7l2Xpq2/4c4n52vFbdefTtu/b3Ww6xTfTsb7f6ZmV939I2Hmuob9Ym1tXtsu7/+mPX+lpe+9b9sm6V1fpYV7fLuv+r7bN17Z+1GVN3nnz75zvWKLYb2u6PHff7fcp+69f1aSTiurreRuv6lCb1mHVdu9X9uq7ldV3KY13cjm3q9qGsmw4Nx9b5DJ1Dy6LVf11ZHae1Hjr2kuVNqyUPeGRj88kvGB8+uUBeK3745AJ5rfjhkwvkteJnGR8Jzdx1VZsFX+sPiTrkUF2/PO7X7bquY2XrTdqWcUr7oT5D5dnxt63LfPtjt+Y3VFbKs19/7LIfx4p9a9tYX8uy9SbtY9u4HccfKo9t+tvnzXfIYKi8esT6uF3ry3qoPLbpb7d8x4yTtal1dd2aW6zrz6nUDdUPlcdjxDZxO7aJxyxtxv5ivzHb58V3rE/fO5r36/r7sW20je3i9lCb1qPSsW3cbl2fUh+P09qOZXG8ul3qh9oMlde++1g3HSYmNLNzb51byyOWxe3Yf6g8tlliu2m1xIGOdEw++YXjwycXyGvFD59cIK8VP3xygbxW/CzjI6GZu65qs+DL/iBo1WVl/br+/tBUx7Yr/Uvb2r6u67h1v65r+dLrlm9/DnW/ruOcWmWxvmyPbVPa1V+/Xx2jrvvHaO1PbTvUb6i8dexadp58151/Vh/r4nZ1Kuuh8timvz3kW8Za9+uPVffrPOq6lMft1n7sW9vWdaxb17dfPzRGHXNo3e831G5d+Xny7Z/rWKPSrtV2SlmrT5nXdeWNRFx/7nV/6PrU+jj2dcfoHzN0KO1q27qu1XW/rmv5vtcth1ZieIl5t8aMZXE7Og2VxzZLbDetljjQkY7JJ79wfPjkAnmt+OGTC+S14odPLpDXip9lfCQ0c9dVbRZ8rT8ISln9jRh+1aQ1TqkYKo/jjm3TalfL6rqO29+v5Uus+75Dx+6Xl/36q/Oq+5usa9/WuoxTlrquber4db+/rvX9fv12cb+2jX2HtmO/ddvnwbc6rDvXUj/UtpTH+tqutR5znNqm71uPUeuH1nU+sb4/l6yu37/2jX3Kdm1X17U+7te+dV3b1P61vK7X1dd2Q+vYf932efQdconl0aWUDy2xT93ut639a322XvXdIqFZjzU0h6y8zmuoTX/s/n6/3y73W3G6dEJzyKucd7WpbbL1Lp3KsZpWu57EAR+PT35x+PDJBfJa8cMnF8hrxQ+fXCCvFT/L+Az/lZQf70LVCr5lLzdfvssKLDu6+OW7rMAeRt8iobmH2R7EIZv/HdjA8SBOYkeTaFrt6NjHcBg++VXiwycXyGvFD59cIK8VP3xygbxW/Czjc1OB9WMgBsSAGBADYkAMlBiIdxaKiekxwXG6nbhjJwbEgBgQA2JADIgBMbAuBtyhmSeKV7UF0bKcAN/lbMvIfPkuK7Ds6OJ3Wd/m6BvcWej6nAo2HTZwbF6Hc1rYtDqn5zrltPjkanz45AJ5rfjhkwvkteKHTy6Q14qfZXwkNHPXVa3gG4G0RRO+W+CN6Mp3BNIWTfhugTeiK98RSHM32SAR5/qc4jcdNnCc+xIe8nhNq0Oe8I7nxicH58MnF8hrxQ+fXCCvFT98coG8Vvws4yOhmbuuagXfCKQtmvDdAm9EV74jkLZowncLvBFd+Y5AmrvJBok41+cUv+mwgePcl/CQx2taHfKEdzw3Pjk4Hz65QF4rfvjkAnmt+OGTC+S14mcZHwnN3HVVK/hGIG3RhO8WeCO68h2BtEUTvlvgjejKdwTS3E02SMS5Pqf4TYcNHOe+hIc8XtPqkCe847nxycH58MkF8lrxwycXyGvFD59cIK8VP8v4SGjmrqtawTcCaYsmfLfAG9GV7wikLZrw3QJvRFe+I5DmbrJBIs71OcVvOmzgOPclPOTxmlaHPOEdz41PDs6HTy6Q14ofPrlAXit++OQCea34WcZHQjN3XdWuC76bbmozlvJ1da02tay/jlONdbH8GLcHfYvrgO0xnue+5tz0rbZ13ZrcOvusb2u8c1rW9D0pobubf//lOOd5yXzHnPdUn22uX5zX1OPHMXa+vUEirnV9ql1dt+a/ziXr2xpv32Uth/iV8/786vn11612/bJN9jPneOxNxty2bdNq20HPUX8++cXkwycXyGvFD59cIK8VP3xygbxW/Czjc77/Es7NRtdmwVf/IOgPFv+IiNulXX+/X7Zpfat9fz6HvN/0jUmauH3IJ3Kgc7vBt+UZy8p2/Q2dU7/9ULsLUH6Db+/feP/fZ3+/EMWyuN3ia9W3ylp9j7Gs71vOtf7Wnc/Ydv1xomfcLu36+7Gs1tV1rOsf46D3t0hoxnOv5xjLynb91fr+ut++X3+I+604XZfQ7J9H/7zXOfX7x/3aN47Zr8/2Y93c232rucc/9vH45FeQD59cIK8VP3xygbxW/PDJBfJa8bOMj4Rm7rqqzYKv/tEQhxn6A6K2adW3yobat9q2ymr/Q1/f4BuTZXXyrbJaZ50KTPYdMm+Vt8rSWZ2fyr7vun+LrfpYFrdbSq36Vlmr7zGW9X3rOYw559JmTLs6Zlmva9+qr2VD6zj+UWwvmNCs51+t6n5dt8pbZbX9oaybcbqB49A5DpWPPe+h/q3yVtnY42zSrmm1yQDnvC2f/ALz4ZML5LXih08ukNeKHz65QF4rfpbxkdDMXVe1Q8FX/8d/Xdeh6n5Z11+tK+tav65sk7atMeP4h7x9g28rOdYqO+STOqC53eDbmlvLt1VW+rbKW2Wt45zDsr5v/bdY/+3X/Xrq/f1T0rP/FMd+dbv2ba1b47XaHWtZ37eex7rzrvV1XfutW9f2ZV1/m/QpbeMY6/oeZP0Gibih6xPPq3qsKyv1m7SN4+17u+kw0rF1zvV8srraJlsP9W+Vt8qysafWNa2mDnYO+/HJLyofPrlAXit++OQCea344ZML5LXiZxmfs7+i8/EvdG0r+OL/8I/bBarst8oiYm1T17EubvfHqeP327TaxTaHvH2Dbys51io75JM6oLnd4Nuf25DtJuVDbfvHOof7fd/Wv+n+v8/apq4jS79tqRsqa5XHsc7Ddt+3nlN27rEubte+2bq07/fp78f+sa5ul3Xcju2PYntkIq6cy9D1qedZHep+XW9SPtS2jnUI66bDSMfs/LK6Mec91L9fXvb7ZWPGn9KmaTVloHPah09+YfnwyQXyWvHDJxfIa8UPn1wgrxU/y/hIaOauq9p+8PX/R/+6/TJI1qZfF6c0VFfK6681fhzj0Lf7vu4AnPeK3eAbh88SkUN1rfJWWTzOOd7u+7b+zfbL4n7cHmLK2mR1Q+MdU3nft8596Lz75f392n9o3WrfKiv9W+W1rKzj9tDxDrJ8ZCKuzH3o+gz51POtNnW/rlvlrbLa/lDWTYeRjtn5ZXVjzj3rX+rqr4yVtR1zrLFtmlZjO1+Adnzyi8yHTy6Q14ofPrlAXit++OQCea34WcZHQjN3XdX2g6/+AdBalw6tPwpiWdyuhx9bVtv3163+/TaHut/3ldCc90rd4FuHX5eEHKpvlbfK6nHO+brv2/q3GMvidqVpldW6st62Po51bNt93zr/IZNSPvSrfbN1a9yxZXXc2r6/rvUHvx6ZiCvnsen1qedebep+XbfKW2W1/aGsmw4jHNed27r6dee/Sf9N2q47blbftMo6XLA6PvkF58MnF8hrxQ+fXCCvFT98coG8Vvws4yOhmbuuatcFX/+PgP5+GSSWxe16+LFltX1/3erfb3Oo+zf4tpJjrbJDPaEDm9cNvmV+YzyH2rTKW2UH5rDUdPq+rX+LsSxu1znFsrg9pb72OS/rvm89r5ZTrYvrse1qn1b7fll/v/at61rfX9f6g1+PSMTVc2hdn3retU1rPdSmVd4qa425z7KWQ/aV8zrXdee2rr6OM7TepP8mbYeON6a8aTWm4wVpwye/0Hz45AJ5rfjhkwvkteKHTy6Q14qfZXwkNHPXVe264Gv9EdAvi/txux5+bFmrfatvbXcM66ZvTJDF7WM4oQOb4w2+Lc+xZfXcYvu4Xesv0PoG397/gVEo4r/RuF2ZYlncnlJf+5yXdcu3nFvLqXXO/XZlv1/W79evj/txu/aLZa3tWFb7HPR6i4Rm61zHllWT2D5u1/pDXDfjdITjuvMbqi/lQ3XRJ2sT6+J27L/EdtNqiQMd6Zh88gvHh08ukNeKHz65QF4rfvjkAnmt+FnGR0Izd13VDgVf+QMg/vpDja0b+kNiqLwep45f9491PeS7uovwgifL5rimN/gW09avHiyrq23KuraLZRdw+wbf3xvUf5+tf8exbon683QZ+r59u5ZfOf9+u2pSy+v+0Lq2648fy+N2HafVvtYdzXpEIq6ey5jrE02iWd2uY8V1VhfbHcp2yyHeoRkN4pyz8mpQ1/1+Q31Lu9onrmP/ul3r6/4u1n2rXRzzmI7BJ79afPjkAnmt+OGTC+S14odPLpDXip9lfCQ0c9dVreAbgbRFE75b4I3oyncE0hZN+G6BN6Ir3xFIczfZIqE591SOZbxmnG7geCznOcc8m1ZzDHxOxuCTX0g+fHKBvFb88MkF8lrxwycXyGvFzzI+Epq566pW8I1A2qIJ3y3wRnTlOwJpiyZ8t8Ab0ZXvCKS5m2yQiHN9TvGbDhs4zn0JD3m8ptUhT3jHc+OTg/PhkwvkteKHTy6Q14ofPrlAXit+lvG5qcD6MRADYkAMiAExIAZKDMRHpcXE9JjgON1O3LETA2JADIgBMSAGxIAYWBcD7tDME8Wr2oJoWU6A73K2ZWS+fJcVWHZ08busb3P0De4sdH1OBZsOGzg2r8M5LWxandNznXJafHI1PnxygbxW/PDJBfJa8bJS6AEAACAASURBVMMnF8hrxc8yPhKaueuqVvCNQNqiCd8t8EZ05TsCaYsmfLfAG9GV7wikuZtskIhzfU7xmw4bOM59CQ95vKbVIU94x3Pjk4Pz4ZML5LXih08ukNeKHz65QF4rfpbxkdDMXVe1gm8E0hZN+G6BN6Ir3xFIWzThuwXeiK58RyDN3aQk4v7wX50+er5mbNfnFKjpsIHjGuZzVd20OldnuN3J8Mn9+PDJBfJa8cMnF8hrxQ+fXCCvFT/L+Eho5q6rWsE3AmmLJny3wBvRle8IpC2a8N0Cb0RXviOQ5m4S7yx89pl0dNfnlOcGh1//+rp3kaaIF6zyBqsLdv7rTpdPLsSHTy6Q14ofPrlAXit++OQCea34WcZHQjN3XdUKvhFIWZMHHzg5+a//q+v/uIt/MNtmcwwxUGL44x85Ofn+d66Ldv99uI5j9h2+s5OuH/A//Q/Df5P+IGz//q7NY/j3uvc59tzWq1+YFv5N55eaD59cIK8VP3xygbxW/PDJBfJa8cMnF8hrp8aPhGbuuqqdijti6IvRRDJTQmDvyYUdJ2JKzN9x28X4973wWfrv78LAreH/1//Zf7Pm/G/Wf//ftpQvbJl/0/ml58MnF8hrxQ+fXCCvFT98coG8VvzwyQXy2qnxI6GZu65qp+KOGPpiNPm//y9/HM/5x7Gxji+eSoLz3/+/F+Pf+8xn6b+/M4OOHe5/+h/Dv7Pe3Yb+GxRssv+z5A9OTv67/2as+IVp5990fqn58MkF8lrxwycXyGvFD59cIK8VP3xygbx2avxIaOauq9qpuCOG1uTk5ITvsmHAdybfx356cvJv/7fpr0/4z/6jmSZysYYRv4d9vV2f0+vDYXycssqt+PDJBfJa8cMnF8hrxQ+fXCCvFT98coG8dmr8SGjmrqvaqbgjhtZEQnPxGBC/yxLf4Fs+BvK/3HLjHVzl/ZuWjQVu8N14BB2WFHB9TnU5jI8yVrkVHz65QF4rfvjkAnmt+OGTC+S14odPLpDXTo0fCc3cdVU7FXfE0JpIaC4eA+J3WWK+fJcVOOzRxf/p9eEwPk5Z5VZ8+OQCea344ZML5LXih08ukNeKHz65QF47NX4kNHPXVe1U3BFDayKhuXgMiN9lifnyXVbgsEcX/6fXh8P4OGWVW/HhkwvkteKHTy6Q14ofPrlAXit++OQCee3U+JHQzF1XtVNxRwytiYTm4jEgfpcl5st3WYHDHl38n14fDuPjlFVuxYdPLpDXih8+uUBeK3745AJ5rfjhkwvktVPjR0Izd13VTsUdMbQmEpqLx4D4XZaYL99lBQ57dPF/en04jI9TVrkVHz65QF4rfvjkAnmt+OGTC+S14odPLpDXTo0fCc3cdVU7FXfE0JpIaC4eA+J3WWK+fJcVOOzRxf/p9eEwPk5Z5VZ8+OQCea344ZML5LXih08ukNeKHz65QF47NX4kNHPXVe1U3BFDayKhuXgMiN9lifnyXVbgsEcX/6fXh8P4OGWVW/HhkwvkteKHTy6Q14ofPrlAXit++OQCee3U+JHQzF1XtVNxRwytiYTm4jEgfpcl5st3WYHDHl38n14fDuPjlFVuxYdPLpDXih8+uUBeK3745AJ5rfjhkwvktVPjR0Izd13VTsUdMbQmEpqLx4D4XZaYL99lBQ57dPF/en04jI9TVrkVHz65QF4rfvjkAnmt+OGTC+S14odPLpDXTo2fm0pHPwZiQAyIATEgBsSAGBADYkAMiAExIAbEgBgQA2JADBxDDLhDM08Ur2rLhbQsJ8B3OdsyMl++ywosO7r4XdZ329Fdn1NBDuMjiVVuxYdPLpDXih8+uUBeK3745AJ5rfjhkwvktVPjR0Izd13VTsUdMbQmEm6Lx4D4XZaYL99lBQ57dPF/en04jI9TVrkVHz65QF4rfvjkAnmt+OGTC+S14odPLpDXTo0fCc3cdVU7FXfE0JpIaC4eA+J3WWK+fJcVOOzRxf/p9eEwPk5Z5VZ8+OQCea344ZML5LXih08ukNeKHz65QF47NX4kNHPXVe1U3BFDayKhuXgMiN9lifnyXVbgsEcX/6fXh8P4OGWVW/HhkwvkteKHTy6Q14ofPrlAXit++OQCee3U+JHQzF1XtVNxRwytiYTm4jEgfpcl5st3WYHDHl38n14fDuPjlFVuxYdPLpDXih8+uUBeK3745AJ5rfjhkwvktVPjR0Izd13VTsUdMbQmEpqLx4D4XZaYL99lBQ57dPF/en04jI9TVrkVHz65QF4rfvjkAnmt+OGTC+S14odPLpDXTo0fCc3cdVU7FXfE0JpIaC4eA+J3WWK+fJcVOOzRxf/p9eEwPk5Z5VZ8+OQCea344ZML5LXih08ukNeKHz65QF47NX4kNHPXVe1U3BFDayKhuXgMiN9lifnyXVbgsEcX/6fXh8P4OGWVW/HhkwvkteKHTy6Q14ofPrlAXit++OQCee3U+JHQzF1XtVNxRwytiYTm4jEgfpcl5st3WYHDHl38n14fDuPjlFVuxYdPLpDXih8+uUBeK3745AJ5rfjhkwvktVPjR0Izd13VTsUdMbQmEpqLx4D4XZaYL99lBQ57dPF/en04jI9TVrkVHz65QF4rfvjkAnmt+OGTC+S14odPLpDXTo0fCc3cdVU7FXfE0JpIaC4eA+J3WWK+fJcVOOzRxf/p9eEwPk5Z5VZ8+OQCea344ZML5LXih08ukNeKHz65QF47NX4kNHPXVe1U3BFDayKhuXgMiN9lifnyXVbgsEcX/6fXh8P4OGWVW/HhkwvkteKHTy6Q14ofPrlAXit++OQCee3U+JHQzF1XtVNxRwytiYTm4jEgfpcl5st3WYHDHl38n14fDuPjlFVuxYdPLpDXih8+uUBeK3745AJ5rfjhkwvktVPjR0Izd13VTsUdMbQmEpqLx4D4XZaYL99lBQ57dPF/en04jI9TVrkVHz65QF4rfvjkAnmt+OGTC+S14odPLpDXTo0fCc3cdVU7FXfE0JpIaC4eA+J3WWK+fJcVOOzRxf/p9eEwPk5Z5VZ8+OQCea344ZML5LXih08ukNeKHz65QF47NX4kNHPXVe1U3BFDayKhuXgMiN9lifnyXVbgsEcX/6fXh8P4OGWVW/HhkwvkteKHTy6Q14ofPrlAXit++OQCee3U+JHQzF1XtVNxRwytiYTm4jEgfpcl5st3WYHDHl38n14fDuPjlFVuxYdPLpDXih8+uUBeK3745AJ5rfjhkwvktVPj56bS0Y+BGBADYkAMiAExIAbEgBgQA2JADIgBMSAGxIAYEAPHEAPu0MwTxavaciEtywnwXc62jMyX77ICy44ufpf13XZ01+dUkMP4SGKVW/HhkwvkteKHTy6Q14ofPrlAXit++OQCee3U+NlrQvMXv/jFyeOPP+7HQAyIATEgBsSAGBADYkAMiAExIAbEgBgQA2JADJzjGCh5wP5ylAnNksy0ECBAgAABAgQIECBAgAABAgQIECBwvgVaeUAJzfN9zZ0dAQIECBAgQIAAAQIECBAgQIAAgaMVkNA82ktn4gQIECBAgAABAgQIECBAgAABAgQunoCE5sW75s6YAAECBAgQIECAAAECBAgQIECAwNEKSGge7aUzcQIECBAgQIAAAQIECBAgQIAAAQIXT0BC8+Jdc2dMgAABAgQIECBAgAABAgQIECBA4GgFJDSP9tKZOAECBAgQIECAAAECBAgQIECAAIGLJyChefGuuTMmQIAAAQIECBAgQIAAAQIECBAgcLQCEppHe+lMnAABAgQIECBAgAABAgQIECBAgMDFE7hwCc0nnnji5Oabbz754he/eN3V/sY3vrEqL3W33HJLV1e2S1n5fec73+nKbRAgQIAAAQIECBAgQIAAAQIECBAgsHuBC5XQLAnJkqAsycyY0CzlJWHZX0qbz3zmM6vi2rffxj4BAgQIECBAgAABAgQIECBAgAABArsTuFAJzcraT2iWpGW5Q7O/lORnvCuz7Jc7PC0ECBAgQIAAAQIECBAgQIAAAQIECOxHQELz5OTk1ltv7R4rL3dq1rsy+wnM0i4mOPdzyRyVAAECBAgQIECAAAECBAgQIECAwMUVkND8fUIzJipLUrPciSmheXH/YThzAgQIECBAgAABAgQIECBAgACBwxSQ0Dw5Wd2RGR85r3dizvnI+auvvnpSsP0YiAExIAbEgBgQA2JADIgBMSAGxIAYEANiQAxc9BgoubKpS7HrL48++mi/aNT+TaXjvn6tExmadf8dmvHjP/Ur6KVvefS8Pn7uo0BDmsoJECBAgAABAgQIECBAgAABAgQI7E6g5AHnykHetLtp33ikMQnNchdmeZw8/upI5W7MWt5//LyW+yBQ1bImQIAAAQIECBAgQIAAAQIECBAgsB+BVh5w8h2a+zmF06O2TmSf83FsAgQIECBAgAABAgQIECBAgAABAgTmF2jlASU053c2IgECBAgQIECAAAECBAgQIECAAAECMwhIaM6AaAgCBAgQIECAAAECBAgQIECAAAECBHYjIKG5G2dHIUCAAAECBAgQIECAAAECBAgQIEBgBgEJzRkQDUGAAAECBAgQIECAAAECBAgQIECAwG4EJDR34+woBAgQIECAAAECBAgQIECAAAECBAjMICChOQOiIQgQIECAAAECBAgQIECAAAECBAgQ2I2AhOZunB2FAAECBAgQIECAAAECBAgQIECAAIEZBCQ0Z0A0BAECBAgQIECAAAECBAgQIECAAAECuxGQ0NyNs6MQIECAAAECBAgQIECAAAECBAgQIDCDgITmDIiGIECAAAECBAgQIECAAAECBAgQIEBgNwISmrtxdhQCBAgQIECAAAECBAgQIECAAAECBGYQkNCcAdEQBAgQIECAAAECBAgQIECAAAECBAjsRkBCczfOjkKAAAECBAgQIECAAAECBAgQIECAwAwCEpozIBqCAAECBAgQIECAAAECBAgQIECAAIHdCEho7sbZUQgQIECAAAECBAgQIECAAAECBAgQmEFg1oTmo48+erKvX+tEZvAxBAECBAgQIECAAAECBAgQIECAAAECByRQ8oBz5SBv2ud5SWjuU9+xCRAgQIAAAQIECBAgQIAAAQIECOxGoJUHLAnOKYuE5hQ1fQgQIECAAAECBAgQIECAAAECBAgQGC0goTmaSkMCBAgQIECAAAECBAgQIECAAAECBPYtIKG57yvg+AQIECBAgAABAgQIECBAgAABAgQIjBaQ0BxNpSEBAgQIECBAgAABAgQIECBAgAABAvsWkNDc9xVwfAIECBAgQIAAAQIECBAgQIAAAQIERgtIaI6m0pAAAQIECBAgQIAAAQIECBAgQIAAgX0LSGju+wo4PgECBAgQIECAAAECBAgQIECAAAECowUkNEdTaUiAAAECBAgQIECAAAECBAgQIECAwL4FJDT3fQUcnwABAgQIECBAgAABAgQIECBAgACB0QISmqOpNCRAgAABAgQIECBAgAABAgQIECBAYN8CEpr7vgKOT4AAAQIECBAgQIAAAQIECBAgQIDAaAEJzdFUGhIgQIAAAQIECBAgQIAAAQIECBAgsG8BCc19XwHHJ0CAAAECBAgQIECAAAECBAgQIEBgtICE5mgqDQkQIECAAAECBAgQIECAAAECBAgQ2LeAhOa+r4DjEyBAgAABAgQIECBAgAABAgQIECAwWkBCczSVhgQIECBAgAABAgQIECBAgAABAgQI7Ftg1oTmo48+erKvX+tE9o3r+AQIECBAgAABAgQIECBAgAABAgQIzCtQ8oBz5SBvmndqm40mobmZl9YECBAgQIAAAQIECBAgQIAAAQIEjlGglQcsCc4pi4TmFDV9CBAgQIAAAQIECBAgQIAAAQIECBAYLSChOZpKQwIECBAgQIAAAQIECBAgQIAAAQIE9i0gobnvK+D4BAgQIECAAAECBAgQIECAAAECBAiMFpDQHE2lIQECBAgQIECAAAECBAgQIECAAAEC+xaQ0Nz3FXB8AgQIECBAgAABAgQIECBAgAABAgRGC0hojqbSkAABAgQIECBAgAABAgQIECBAgACBfQtIaO77Cjg+AQIECBAgQIAAAQIECBAgQIAAAQKjBSQ0R1NpSIAAAQIECBAgQIAAAQIECBAgQIDAvgUkNPd9BRyfAAECBAgQIECAAAECBAgQIECAAIHRAhKao6k0JECAAAECBAgQIECAAAECBAgQIEBg3wISmvu+Ao5PgAABAgQIECBAgAABAgQIECBAgMBoAQnN0VQaEiBAgAABAgQIECBAgAABAgQIECCwbwEJzX1fAccnQIAAAQIECBAgQIAAAQIECBAgQGC0gITmaCoNCRAgQIAAAQIECBAgQIAAAQIECBDYt4CE5r6vgOMTIECAAAECBAgQIECAAAECBAgQIDBaQEJzNJWGBAgQIECAAAECBAgQIECAAAECBAjsW2DWhOajjz56sq9f60T2jev4BAgQIECAAAECBAgQIECAAAECBAjMK1DygHPlIG+ad2qbjSahuZmX1gQIECBAgAABAgQIECBAgAABAgSOUaCVBywJzimLhOYUNX0IECBAgAABAgQIECBAgAABAgQIEBgtIKE5mkpDAgQIECBAgAABAgQIECBAgAABAgT2LSChue8r4PgECBAgQIAAAQIECBAgQIAAAQIECIwWkNAcTaUhAQIECBAgQIAAAQIECBAgQIAAAQL7FpDQ3PcVcHwCBAgQIECAAAECBAgQIECAAAECBEYLSGiOptKQAAECBAgQIECAAAECBAgQIECAAIEpAg9efuPkY1996uS+R16b0v26PhKa13HYIUCAAAECBAgQIECAAAECBAgQIEBgboEPf+nyyR994bGTP73j8tZDS2huTWgAAgQIECBAgAABAgQIECBAgAABAgQygZLMrL+s3Zg6Cc0xStoQIECAAAECBAgQIECAAAECBAgQIDBZoCYz//yuJyaPUTtKaFYJawIECBAgQIAAAQIECBAgQIAAAQIEZhd4893fdndnSmgG3lZmNlTbJECAAAECBAgQIECAAAECBAgQIEBgDwIvX32/S2h+5CtPbj2DVh7w0UcfnTTuTZN6zdSpdSIzDW0YAgQIECBAgAABAgQIECBAgAABAgQmCsSE5ifvvTJxlLNurTyghOaZjy0CBAgQIECAAAECBAgQIECAAAECBLYQuPzCO90dmhKaAbKVmQ3V3eYTTzxxcvPNN5988Ytf7MrqRikrdd/5zndq0cktt9yyKuuXdw1sECBAgAABAgQIECBAgAABAgQIECAwKHDpV293Cc1P3/fMYLuxFa084Lm9Q7MkKkuCsiQuWwnNUnfrrbd2Cc3S5jOf+czKsvYdC6sdAQIECBAgQIAAAQIECBAgQIAAAQInJzGh+dfffn5rkguV0KxarYRmSVyWpGVMaJYEZ/9uzXKHp4UAAQIECBAgQIAAAQIECBAgQIAAgXEC3378je4OzYNLaJZbO/f1a2Vmh0j7Cc2ayCzt+wnNmMCMdUNjKydAgAABAgQIECBAgAABAgQIECBA4EwgJjRv/94LZxUTt0oecK4c5NF85byf0Cx3YtbEZUxaxvLiG+s29X711VdPCrYfAzEgBsSAGBADYkAMiAExIAbEgBgQA2JADIiBixQDd337cneH5r+7/2er/FjJlU1dil1/Obfv0KwnGhOa9SNB5aM/8feNb3xj9b5Nj5xXNWsCBAgQIECAAAECBAgQIECAAAECmwt87ccvdwnNsr3tcuETmn3AeBdmea+mjwL1hewTIECAAAECBAgQIECAAAECBAgQGC8QE5r3PfLa+I4DLS9UQrPcdRnvwizb/SUmNEtdbF8fS+/3sU+AAAECBAgQIECAAAECBAgQIECAQFvgrh+91N2hWd6nue1yoRKa22LpT4AAAQIECBAgQIAAAQIECBAgQIDAZgLly+Z/9IXHVj8JzWDXysyGapsECBAgQIAAAQIECBAgQIAAAQIECOxBICY0H37m6tYzaOUBz/1HgbZWMwABAgQIECBAgAABAgQIECBAgAABAqMEPvfAs90dmpd+9faoPlkjCc1MRx0BAgQIECBAgAABAgQIECBAgAABAlsJfPLeKxKaLcFWZrbVThkBAgQIECBAgAABAgQIECBAgAABArsTiAnN59/49dYHbuUBPXK+NasBCBAgQIAAAQIECBAgQIAAAQIECBAoAh//+s+7OzRfvvr+1igSmlsTGoAAAQIECBAgQIAAAQIECBAgQIAAgSGBP7/rCQnNFk4rM9tqp4wAAQIECBAgQIAAAQIECBAgQIAAgd0JxITmtQ9+t/WBW3lAj5xvzWoAAgQIECBAgAABAgQIECBAgAABAgSKwJ/c/rPuDs05RCQ051A0BgECBAgQIECAAAECBAgQIECAAAECTYE/+sJjEpotmVZmttVOGQECBAgQIECAAAECBAgQIECAAAECuxOoCc3y6PkcSysP6JHzOWSNQYAAAQIECBAgQIAAAQIECBAgQOCCC7z57m+7uzMlNHvB0MrM9prYJUCAAAECBAgQIECAAAECBAgQIEBghwIvX32/S2h+5CtPznLkVh5w8h2apeO+fq0TmUXIIAQIECBAgAABAgQIECBAgAABAgQITBKICc1P3ntl0hj9TiUPOFcO8qb+4Lvcl9DcpbZjESBAgAABAgQIECBAgAABAgQIEFgvcPmFd7o7NOdMaPaPPPkOzf5Au9yX0NyltmMRIECAAAECBAgQIECAAAECBAgQWC9w6VdvdwnNT9/3zPoOI1q08oASmiPgNCFAgAABAgQIECBAgAABAgQIECBAIBeICc2//vbzeeORtRKaI6E0I0CAAAECBAgQIECAAAECBAgQOEyBBy+/cfKxrz51ct8jrx3mBC/wrL79+BvdHZoSmr1AaGVme03sEiBAgAABAgQIECBAgAABAgQInEOBD3/p8ipp9qHbLp3DszvuU4oJzdu/98IsJ9PKA3rkfBZagxAgQIAAAQIECBAgQIAAAQIECOxC4I++8Fh3F+A7v7m2i0M6xkiBcvdsvT5f+/HLI3vlzSQ0cx+1BAgQIECAAAECBAgQIECAAAECByxQEpg1YVbWL199/4Bne/GmVpKY9fpIaPaufysz22tilwABAgQIECBAgAABAgQIECBA4JwJlARmTZiV9bOv//qcneFxn05MaM71jtNWHtAj58cdJ2ZPgAABAgQIECBAgAABAgQIELgwAldefe+6hGb5qrblcATu+tFL3fUp79OcY5HQnEPRGAQIECBAgAABAgQIECBAgAABAnsRKAnMeIfmT579l73Mw0HbAuXL5vX6SGj2jFqZ2V4TuwQIECBAgAABAgQIECBAgAABAudM4KErV7uEWUmczZU0O2dMezudmNB8+Jmrs8yjlQf0yPkstAYhQIAAAQIECBAgQIAAAQIECBBYWqAkMOsdgGX9wKXXlz6k8TcQ+NwDz3bXZ67XAUhobnABNCVAgAABAgQIECBAgAABAgQIEDgsgfKhmZjQnOtL2od1lsc7m0/ee6W7PhKavevYysz2mtglQIAAAQIECBAgQIAAAQIECBA4ZwLxK9olsXn3Qy+dszM87tOJCc3n35jnC/StPKBHzo87TsyeAAECBAgQIECAAAECBAgQIHBhBO74/gvdHYAloVne2Wg5HIGPf/3n3fV5+er7s0xMQnMWRoMQIECAAAECBAgQIECAAAECBAjsQyB+dEZCcx9XID/mn9/1hITmEFErMzvUVjkBAgQIECBAgAABAgQIECBAgMD5EPjs/b/sEmYloVkecbYcjkBMaF774HezTKyVB5z8yHnpuK9f60RmETIIAQIECBAgQIAAAQIECBAgQIDAwQrEdzRKaB7eZfqT23/WJZznml3JA86Vg7xprklNGUdCc4qaPgQIECBAgAABAgQIECBAgACB4xa49Z6nu4RZSWh+5CtPHvcJnbPZl2tSf3OdWisPOPkOzbkmNWWc1olMGUcfAgQIECBAgAABAgQIECBAgACB4xGIjzSXxFnZtxyOQE1mznldWnlACc3DueZmQoAAAQIECBAgQIAAAQIECBAgkAj86R2XuzsAS/LsQ7ddSlqr2qXAm+/+trs2EpoN+VZmttFMEQECBAgQIECAAAECBAgQIECAwDkSqHcAxvU5Or2jPpWXr77fJTTnfBVAKw/oDs2jDhWTJ0CAAAECBAgQIECAAAECBAhcDIH33v+gS5jFhObV965dDIADP8uY0Jzz6/MSmgd+4U2PAAECBAgQIECAAAECBAgQIECgLRATZjGhWcot+xe4/MI7XcJZQrNxPVqZ2UYzRQQIECBAgAABAgQIECBAgAABAudE4NnXf90lzGJC8+lX3j0nZ3jcp3HpV2931+fT9z0z28m08oAeOZ+N10AECBAgQIAAAQIECBAgQIAAAQJLCcSEWUxolnLL/gXi9fnrbz8/24QkNGejNBABAgQIECBAgAABAgQIECBAgMAuBR5+5mp3B2BMaD505eoup+FYAwLffvyN7vpIaDaQWpnZRjNFBAgQIECAAAECBAgQIECAAAEC50QgJsxiQrOUW/YvEK/P7d97YbYJtfKAHjmfjddABAgQIECAAAECBAgQIECAAAECSwnc/9hr3R2AMaFZyi37F3jw8tkdml/78cuzTUhCczZKAxEgQIAAAQIECBAgQIAAAQIECOxSoCTJaiLzQ7dd6rbnTJ7t8nzO27Hi9ZnzmkhonrdIcT4ECBAgQIAAAQIECBAgQIAAgQsicNePXuqSmJ+890q3Xcot+xeICc37HpnvrlkJzf1fWzMgQIAAAQIECBAgQIAAAQIECBCYIFA+NFPv0PzUt84SmnN+gGbCtHT5vUBMOM/5XlMJTSFGgAABAgQIECBAgAABAgQIECBwlAJ/9Q/PdgnNeDfg5x987ijP57xNOiacJTQbhj9gtAAAIABJREFUV7eVmW00U0SAAAECBAgQIECAAAECBAgQIHBOBOJj5vc8/EqX3Czllv0LxITmw89cnW1CrTygr5zPxmsgAgQIECBAgAABAgQIECBAgACBpQQ+8c2nuyTmI8+93W1LaC4lvtm4n3vg7A7aS796e7POSetZE5olE7qvX+tEkvNWRYAAAQIECBAgQIAAAQIECBAgcOQCf37XE10SsyTM6vs0S7ll/wLxDtq5E5pz5SBv2ieThOY+9R2bAAECBAgQIECAAAECBAgQILB7gVu+/HiXxHz/2u+6bQnN3V+L1hFjQvP5N37dajKprJUH9Mj5JEqdCBAgQIAAAQIECBAgQIAAAQIEdilQ78gs67L093c5F8e6UeDjX/95d01evvr+jQ0mlkhoToTTjQABAgQIECBAgAABAgQIECBAYH8CrTsy4x2b+5uZI1eB+EoACc2qEtatzGyotkmAAAECBAgQIECAAAECBAgQIHCOBEqCrN6RWR8xjwm0196e747Ac8S201OJ1+PaB7+b7ditPKBHzmfjNRABAgQIECBAgAABAgQIECBAgMASAuWdjDWhWb9qfus9Z189n/OOwCXmfxHG/JPbf9ZdoznPV0JzTk1jESBAgAABAgQIECBAgAABAgQI7EQgftW8JjTjR2iefOnd2ebx7cffOPnYV586ue+R12Yb8yIMVBPOZT3nIqE5p6axCBAgQIAAAQIECBAgQIAAAQIEdiLwyHNvd3f//fW3n18d87P3/7IrKwnPuZYPf+nyatwP3XZpriEvxDg1oVlfCTDXSUtoziVpHAIECBAgQIAAAQIECBAgQIAAgZ0JlLsma8KsJjTLupb98Om3ZptLHbOsvZtzHOub7/62uxYSmgNmrczsQFPFBAgQIECAAAECBAgQIECAAAECRy7w4OWzhObXfvzy6mxu/94LXRKtJDznWMrHbGJC89nXfz3HsOd+jPjRpo985clZz7eVB/RRoFmJDUaAAAECBAgQIECAAAECBAgQIDC3QEli1kRjTWjGsrnedxkTc+V4cz7KPrfJIY0X3eo7Tuean4TmXJLGIUCAAAECBAgQIECAAAECBAgQ2JnA3Q+91CU0692Yf/vPr3RlNcm57YRiYq4kNL/75JvbDnkh+l9+4Z3uWkhoDlzyVmZ2oKliAgQIECBAgAABAgQIECBAgACBIxeI78usCc34Xs07f/DiLGf49Cvvdom5ktCc687PWSZ3wIPEr9B/+r5nZp1pKw/okfNZiQ1GgAABAgQIECBAgAABAgQIECAwt8DnH3yuSzSWL56Xpdw9WR9Drx8K2va4MTFXxp7rzs9t53Xo/aPbXNeinrOEZpWwJkCAAAECBAgQIECAAAECBAgQOBqB8hhzTV7W91rGJNrnHnh2lnMpydJ6nLKeOzk3yyQPcJB4t+zcZhKaB3jBTYkAAQIECBAgQIAAAQIECBAgQCAX+Iu/+0WXaHzxrd+sGi/x3saYmCsJzc/e/8t8YmpXAtGtfH1+zkVCc05NYxEgQIAAAQIECBAgQIAAAQIECOxE4M/veqJLaJYP95QlfsDnE998epZ5xMRcSWjO/YGbWSZ5gIM8ePmN7vrM/Zj+hUtoPvHEEyc333zzyRe/+MXrLnUpq7/Spi633HJLV/6d73ynFlsTIECAAAECBAgQIECAAAECBAjsUeDP7jxLaF774HermcSEZkl4zrHc+9NXu8RcSWjONe6UuZXk6kfvfuqkfM390JeSxCxe5XfQCc3yNaF9/VqZ2f6FLQnJkqAsycyY0CzbNVlZtm+99dZV17L9mc98ZrVd+/bHtE+AAAECBAgQIECAAAECBAgQILB7gZosK+u41PKS8JxjiYm5MvaHv3R5jmEnjVGOXc/vzXd/O2mMXXWKbnN/Gb7kAefKQd60K5DWccYkNGu/kqgsv9ZSEpc1oVmSnzXRWdqW/Xj3Zqu/MgIECBAgQIAAAQIECBAgQIAAgeUFamKvn7is5WU9x3L3Qy91ScQ6dr0jdI7xx47x3vsfXDePcrfmIS93/ejMbe65tvKAJcE5ZTkXCc1yR2ZNdvYTmCXRGROcU5D0IUCAAAECBAgQIECAAAECBAgQ2E4ge7Q8Poq+3VFOe5cvdNdEZl3Xd3bOMf7YMeI5l3l8/sHnxnbdS7voJqE5cAlamdmBpjc8cl7b9R8rl9CsMtYECBAgQIAAAQIECBAgQIAAgcMRiMm98rXzuLQ+FhTrN92Oibma0Hz6lXc3HWbr9pd+9fZ1idVbvvz41mMuOUB0e/iZq7MeqpUHvJB3aNaPBUXdOR85f/XVV08Kth8DMSAGxIAYEANiQAyIATEgBsSAGBADYkAMbBcD9//o7F2SH//3l67Lt3zsK5e6xN8Pf7Ldccp1+t+/ejZeTWje94PL1x1zF9fza985O+c6j2//ePfzGHuun7znzK1cr36/kiubupSx+suFS2jWZGb//Zjl8XMfBeqHh30CBAgQIECAAAECBAgQIECAwH4F4t2K/UevP3nvlS6hefmFd7aeaByvSyTu4f2V9z/2WndedR6H/LXz6Fau15zLhUpofuMb3zi5+eabr/sVzPJuzH55TW7G8lo25wUwFgECBAgQIECAAAECBAgQIECAwGYC5Z2MNalXHm2Oy+ceeLarmyOR9olvPt2NV49570+n310Y57rJduvjRJ/61pVNhljb9sHLb5x87KtPnTxw6fW1bdc1iAnN59/49brmG9VfqITmRjIaEyBAgAABAgQIECBAgAABAgQIHKRATGiWr2nHJb678Z+eeitWTdqO7+SsCc2SXNz1Es+rzuNDt106ef/a72abyoe/dPpYexl32+XjX/95lwie+yNKEprbXh39CRAgQIAAAQIECBAgQIAAAQIEdirwtR+/3CXLynZc7vj+C13dHF/XbiU0+3eFxuMvtV3uxqyJzLj+ybP/Mssh3/nNtevGv/reta3GjW4SmgOUrczsQFPFBAgQIECAAAECBAgQIECAAAECRywQE5r9x6Nj3RzvmCx3K8YEYtn+9H3P7Fwv3vEYH+e+8wcvzjKX8lh4PM9tk5AxoXntg/nuIi0n28oDnvuPAs1ylQ1CgAABAgQIECBAgAABAgQIECCwF4H4+HX/Lsz7Hjn7eE7/7s0pk41Jvrpd3qs511I+9lOSf2Xe2XLLlx/vEo7lXZd1LuWdl3Msjzz3djdmGfvpV97datg/uf1n3XhbDdToLKHZQFFEgAABAgQIECBAgAABAgQIECBwuAIxodl/5Dq+X/P2772w1UmU91PWxOEf/83ZnZolATnH8ua7vz2p4657H2adR2nXfzy8jLPtEt3Ksbb9oFKdb1nPvUhozi1qPAIECBAgQIAAAQIECBAgQIAAgUUF4iPX/cTbD59+q0tCbvuuy/LYdU3MxUeo5/hoTgEqj8TX8cv62dfbXwN/7e3r51H6xq+v9+9SnYIfH9UvcymO2yz1vOZK/sa5SGhGDdsECBAgQIAAAQIECBAgQIAAAQIHLxATmuXdj3EpCc6aTPvs/b+MVRtvx4TmX/zdL07iY99zfF08JknLnB+6crU5x/L4dz2ncu5lKV9ar2Wff/C5Zr9NCm/77q+68cq42yRJyx2jdW4SmslVaGVmk+aqCBAgQIAAAQIECBAgQIAAAQIEjlTgI195skuY9T9e8+RLNyb/pp5mf6yP3v3U4HHrMcq7MEsS764fvVSLmuvyqHxN+tX10EeMHn7matf2cw88uxovJm5LonXb5S///pfdMcp8huYy5jgxEVyu1dxLKw/oo0BzKxuPAAECBAgQIECAAAECBAgQIEBgNoF4Z2P/TsmYTLv1nu0+3hOThiXhF+8MLcnO/lK+5h2/it5/HD62L4nJmsis6y/84/OxSbcd329Z3wtajhU/vHPl1fe69lM24lfUy3y2+aBSvAb1jtIpcxrqI6E5JKOcAAECBAgQIECAAAECBAgQIEDgIAXqh3RK4q2/tN432W8zdj/eRVnex/lX/3CWhCx3TfaX8g7Mmpws66GEavwYUGxfHmtvLfH9lvc8/ErXJN5Vuc0dlWXA+Dh9mVN5BH3qcvmFdzoHCc1EsZWZTZqrIkCAAAECBAgQIECAAAECBAgQOFKBmgQcetR6Xf3Y0453RpaEZnzPZOsdk//01NkHieocSll/iR8Dio+xD53P0HHvf+y1LnH4qW+dvluzf6wx++Vuzzrfut7mg0rxztZP3/fMmCls1KaVB5z8yHnpuK9f60Q2ktCYAAECBAgQIECAAAECBAgQIEDg4AXG3IFZk3Jlvc0SE5rlIzxDd0rWY9z5gxdvSAyWd0iWhGFc4iPzJeEZHx1/7/0PYtPVdnw8vdw1WpfyQaR6ruVR9/7j97XdunV8RLyOt02CNCY0t0mMDs275AHnykHeNHSQXZRLaO5C2TEIECBAgAABAgQIECBAgAABAvsViMm3oUe6Y8Kwn0zcZPbl8e6a4CvJzAcuvd7tl+Rlf4mPgNd+ZV0+FFSX+Bj7n95xeZWEjO+vLF807y/lUfQ6Xv9dmfFcY7KzP0a2HxOQ9TjbPCoeE8FLJTT75zP5Ds3+QLvcl9DcpbZjESBAgAABAgQIECBAgAABAgT2IzDm/YwxyVcSoFOXeEfmvT999eSHT589Ut5K1MX3UMb3bZbE5Tu/ubaaRrzbsiZFY9vWI+rxfModqnEpHxKqScg6Xqwfs916VH6br5PHhGb9iNGYeYxt08oDSmiO1dOOAAECBAgQIECAAAECBAgQIEBgpwLxbsKSHGwt8Y7GF9/6TavJqLL4CHlJ0sVj9x/JvvretS6xWB4hL4+OxwRneWS9/zGg8sh4WUpdTUrGj/7USWYfQYrJyI999anaZaN1SdbW49d1SaJOXR68/EY3XkkKz71IaM4tajwCBAgQIECAAAECBAgQIECAAIHFBL775Jtdsqx1l2Q5cHlcuibmShJy6lLGr+OUhGZJjtb9/uPujzz39g118RH18o7LO77/QtcmPtIdz+nzDz533XTLnZ31mH92541Jxlhf2pXE6qZLnFc9VkmiTl3ina0SmoliKzObNFdFgAABAgQIECBAgAABAgQIECBwhALxceahR6xLUrAm5uZKaJaEZbwLs38HY3lPZj1m+Sp5Wcr7O8uj27U8ruOj5U++9G7X5hPffPq6qxI//NNPotaG5W7ROna5O3LTJT7yXscp66lLTGjG94dOHa/fr5UH9Mh5X8k+AQIECBAgQIAAAQIECBAgQIDAQQj0P9TTmlT/zspWmzFlMVFYE6NDCb94zPsfO/sI0ENXrnbJxtq3fgyoziEmSj/8pcu1eLWOj7l/+r5nrqurO/ER7/Jhok2X+Ih+nWNZT33/6F0/OnuEviSg514kNOcWNR4BAgQIECBAgAABAgQIECBAgMBiAvHuv5g4jAecK6EWH12vXx8vj33XpF/90E85dvxSeflwUVz6CcPWnaUlyVnHjY+Nx8fRhx6xL+/mrH3Lo+3l/Z2bLPGjQ/GO0qkJzZjcldBMrkQrM5s0V0WAAAECBAgQIECAAAECBAgQIHCEAuVx7pq8G0qWxaRn6yM7Y0+7POJdj1WTe+XDO/2y8mh5SSTW8pjoLMeKX2YvberHgOI8yqPmtX95BL0u8YM92fsoY9I0Ps5ex8nW9bjlvZkxiVvvSs36tupiQvPhZ662mmxV1soDeuR8K1KdCRAgQIAAAQIECBAgQIAAAQIElhIYkywrd27WJF2WBFw3x3jnYk1othJ+z77+6+54/Xdr1mOUu0bLXZjli+atJb73s9yVWZf4pfWhO1JL25j47H9YqI7VWse7O8vc4zzKe0OnLOXr89V/alI0O66EZqajjgABAgQIECBAgAABAgQIECBA4KAEynsk1yXL4oeD6gd6ppxETGjW/jGhWt6PWZZyR2Sd02fv3/wdlmWM+G7QmPSMx/vh02/Vadywjl9g/5Pbf3by/rXf3dCmVVAepa9zL3d5xuMN3QHbGieWtZK+sX7bbQnNbQX1J0CAAAECBAgQIECAAAECBAgQ2JlATJaVOyNbS/wQT0nQTV3KI9g12VfHuOP7L3RlNeEX76KMycjaZ8w6JkXLHY51iefbfzdnbVPX8T2eY++ujFbla+dl/vWcp3wxvcwlzrn1eH2d79S1hOZUOf0IECBAgAABAgQIECBAgAABAgR2LvDRu298h2V/EvHL4FO++l3Hq4m9+OXx+H7O+jh7OUZtm91FWcdtra+8+l43RklM1mXM+da2MRn5hX8cl8h94NLr3XFLYrZ1fnX8seuYWK2P6o/tO6adhOYYJW0IECBAgAABAgQIECBAgAABAgQOQiA+Bt7/+E6dYHyMutwtOGUpXwqvScr4Xsz4OPvt33thNfQtX368azv1jsR4vPLIeF3i18/XPUYek6JlTmOWmAQt7+GM5zf1btN4jSQ0k6vQyswmzVURIECAAAECBAgQIECAAAECBAgcoUD8mvjQ9EsSrSYj492OQ+1b5XGMmNCMj2iXD+hcfe9ad6yYiGyNua4sJkbLx3rK19PrecS7RLNxYjJx3SPqZZz4zszy2HtMaE59XD/OoZzD3EsrD+gr53MrG48AAQIECBAgQIAAAQIECBAgQGAWgTEJvv6Xu6ccOCY0412e8XH2Ul7eVVnndOs9T085VNenfJSnjlWSkXEOH/nKk127bCO+47M8Qr5uie+7LMeM51feqTllKYndeh5T+q/rI6G5Tkg9AQIECBAgQIAAAQIECBAgQIDAQQhskqisCbWxdzb2TzAm9mJCMyYZP/bVp07ue+S1Lnm3zRfVy/HLey/rvMu7LUuCse7HOfTnGvdjnzFJ0P47OmP/sceMxy/bdc5lvcQiobmEqjEJECBAgAABAgQIECBAgAABAgRmF4jJxHWPko95ND2bYExofvb+X3ZN47su/+zOJ657ZPv+x17r2k3ZKO+wrMnAcndl//H2MWOWR7zjezfLezWzJd5NWfpG4098c9odp/Uc4qP62Rw2rZs1oVmeVd/Xr3Uim2JoT4AAAQIECBAgQIAAAQIECBAgcLgCT770bpfwW3f3YHyPY0lCbrrEZGL/XZJ//DeXunnEL3qXuxu3WeIxSxK1/wXysWPHOz3vefiVwW7lo0o1+Vg/IvTa22fvH52SkNzkLtrBia2pKHnAuXKQN6051qLVEpqL8hqcAAECBAgQIECAAAECBAgQILB3gaG7JlsTK49b12Rduetw0yX7OE5MlsY7QYe+uj722M++/utuzuVx9q/9+OVu/2//eTgx2R//4Weudv2yO1nLF9mrUXz/Zy0rd3puusQ7PMc88r7p+KV9Kw/oo0BTJPUhQIAAAQIECBAgQIAAAQIECBBYVOCHT7/VJeD6d032D1zu4KyJuZK423SJCc2SWIxLSf7Vset6yt2Mccyy/f61s6+al0RpvNOyzGfsUsaJj5IPJXTjB43+8u/PHquPd6COPWZtFxOa6+6irX02XUtobiqmPQECBAgQIECAAAECBAgQIECAwF4EYpKxfM07W2JCs9zZuekS747sJzQ/9a2zZGlNaMb3bG56rNi+vJezjlnu0qzbm55D+UJ57Vs+XNRaomf8oFG8A3XTx/Xn+KhQa66xTEIzatgmQIAAAQIECBAgQIAAAQIECBA4WIH40Zx+krE/6XIHZ03olTsRN11iQrOfEIxj12Pc/dBLmx6i2f7T9z3TzbuOXdblcfRNlu8++WY3zl/83S+aXeM5xndt9r983uw8UBhfC1DOZYlFQnMJVWMSIECAAAECBAgQIECAAAECBAjMLhATcP0kY/9gMem4yePadZxyB2hNKPb7ly+Q17q6Lo/Dz7Hc/r2z49axy/rqe9c2Gr7cWVkfHS/r8rGe/lLuyqzHiOcY727dNJEaE5rrXgvQn8/YfQnNsVLaESBAgAABAgQIECBAgAABAgQI7FUgJvtiAq41qXLHZCtZ12rbKosJ0XK3Y1zKB3rq2HU95T2dccy6XRK1dcy6LgnJKcsnvnn2rs+WV3lvZj1GvIs13iW66aPu5Th1TAnNNVetlZld00U1AQIECBAgQIAAAQIECBAgQIDAEQnEJOO6OyLj3Zxle9MlHquf1ItJu5K8Kx/gmWuJXyivicGpHxyKSd3PP/jcDVMsX0Cvx4gJ2XjuD125ekO/rCDalAT0EksrD+gr50tIG5MAAQIECBAgQIAAAQIECBAgQGArgXhHYT/J2B/4gUuvd8m6KQnN+Nh1/1g/efZfurFLQrB89XyupSQWa5KxrsudllOWMu86xi1ffvyGIUpZrY8f/9nkTtj+oA9ePrtDc4p7f7zWvoRmS0UZAQIECBAgQIAAAQIECBAgQIDAwQnEJOPTr7ybzi/eKfiFf3w+bduqjMfqv0fyyZfe7RKBJSEYvxDeGmuTsmsf/K5792VNNk79gnoZq9w9Wse58up73VRKXS3v32Ea725d967SbsDfb8S+Epp9nd5+KzPba2KXAAECBAgQIECAAAECBAgQIEDgiAU+9tWnuiTcy1ffT88kPro95V2O8XHs/rHKfk0GlvX9j72WzmXTyviV8TL+lIRsPWa8q7W8+7Mu8RzK8eKyydfkY7+yHROamyZD+2MN7bfygB45H9JSToAAAQIECBAgQIAAAQIECBAgsDeB8i7Jmkhc99Xv+Lj1p751ZeM5x2O99vb1ydP3r53d3Vjmc/mFdzYeP+sQk5Bl/G3udCzJ1moWHTKfeHfrpu/BvOtH232MKXOpdRKaVcKaAAECBAgQIECAAAECBAgQIEDgYAXKI9Ifuu1Sl5xbN9HymHhN5JXHxzdd/uzOs+Rpq2+dS/kC+Tu/udZqMrnsju+/0M29nEN5L+XUJb6Ts8y5JGPL8k9PvdUdo38Ha/ngUrXr162bR/ygUEmMLrFIaC6hakwCBAgQIECAAAECBAgQIECAAIFZBcr7H2uS7SNfeXLt2Nkj1Ws7n5x0xyrHbC3lsew/vePySXyMu9VuSlm8q7Icvzw+v80S7zYtHzQqS3ysvHwNPS7x7s1yt+gmS0xobjvvoeNKaA7JKCdAgAABAgQIECBAgAABAgQIEDgYge8++WaXZPzcA8+unVe5a7ImQEtCb9Ol9i1Jy10v/a+ol48QbbOUd3DW87nzBy+uhop3gZYvwsclJo83vbu1XJt6rJIYXWKR0FxC1ZgECBAgQIAAAQIECBAgQIAAAQKzCsQE3D0Pn33cJjtITaz1v+Kd9Sl15f2cte+UZOi68dfVl3d21uOXdf+jROv69+vj4+Xlw0pl+at/OEs89u+kjHe31vb9MYf249fhJTSHlH5f3srMrumimgABAgQIECBAgAABAgQIECBA4EgE/uLvftEl+foJuKFTqO+5LEnB+u7IobaxPCb0xjzeHvvOtV3nXt7Rue0S71YtFm+++9uT6Pn0K9ffARrbb5rQjQnN8v7OJZZWHtBXzpeQNiYBAgQIECBAgAABAgQIECBAgMBkgQ9/6XKX0Fz3hfN6kI9//eddn/IY9djlxbd+0/Xb9JHrscdY1668m7M87r7NF87jMT7xzae7cyof64nv1SwJzv5S7xAtidVNlmi+7Z2lQ8edNaFZMqH7+rVOZOiklRMgQIAAAQIECBAgQIAAAQIECByPQEwwbvJOy/hYdXnseuwSP4qzr4Tm2LmObVc+/FOTlJ9/8Llue+gO0OJc2489RmkXE6VLJjTnykHetMnJzd1WQnNuUeMRIECAAAECBAgQIECAAAECBA5D4IdPv9Ul1zb56na5u7Em5e760fVf8s7OLCY0x3yAKBvrUOriOZV3ilaXoUfKY2KydQfn0HnFftc++N1Qs63KW3lAj5xvRaozAQIECBAgQIAAAQIECBAgQIDAnAIlGVkTcOVOw7FLTIR+9v5fju12Evv99befH93vkBuW5GJMZFbP8i7N1nLrPWePqI+907IkPssdn3Xs1rhzlElozqFoDAIECBAgQIAAAQIECBAgQIAAgcUEyl2ZNUlWko1jl2df/3XXb5OvdZd3TNbj3fbdX4093MG3i471/Mpj+a0lftzn8gvvtJrcUFbe+1nHXfJRfQnNG+gVECBAgAABAgQIECBAgAABAgQIHJJAfJ9jeZ/m2KXclVjvGCzrsY9AP3j5LKE510d5xs55yXb3P/Zal3Csicc7f/Bi85DlUfvapjyuPmaJj5tv8s7SMWPHNhKaUcM2AQIECBAgQIAAAQIECBAgQIDAQQmUx5hrYq186XzT5aN3P9X1L3dsjlniuzfPU0Lz+TfO7litpvf+9NUmSXnUvrb57pNvNtvEwp88+y9d+5KAfv/aMu/PLMeU0IzytgkQIECAAAECBAgQIECAAAECBA5K4OFnrnaJsimPMZd3Z9bE3NjH1WNC84FLrx+Ux7aTiXdRFpehOynje0vLI/jrlnhH59Bdn+vGGFsvoTlWSjsCBAgQIECAAAECBAgQIECAAIGdC9zz8Nl7Ge/4/gsbHz8m5spYY5bbv/dClwQdk8wbM+ahtPnCP57deVkSmkPvx4xJ3XVu/Y8BlTtBl1wkNJfUNTYBAgQIECBAgAABAgQIECBAgMBWAvEOyzGPPvcPVu5ArHdoDn0Ap98nPm49dAdjv8+x7EeP4jL0BfNyZ2p1W/fY/a4+BlSNJTSrhDUBAgQIECBAgAABAgQIECBAgMDBCXzkK092ibWx78CMJ3Hl1fe6/h//+s9j1eB2SXzWZN7YD+IMDnZgFe/85lp3btmHkuKX3kuCN1viY+y7SABLaGZXQx0BAgQIECBAgAABAgQIECBAgMDeBGLy7UO3jf9KeZzwe+9/0CXwyhhjlvKuzvOa0CznX+6oLB/uufuhlwY5Hnnu7c4gS2ju8mNAdbISmlXCmgABAgQIECBAgAABAgQIECBA4KAEYlLt1nuenjy3eAfhmPc7xoTmmPaTJ3bAHcudqTWpm32MaZcfA6o+k5x5AAAgAElEQVRcEppVwpoAAQIECBAgQIAAAQIECBAgQGDnAvf+9NWTknBs3S143yOvdUm18qGeqctf/v3Zl87LV9PXLR+9+6nuuEPvmFw3xrHXv/jWbzqDv/i7XzRPZ9cfA6qTkNCsEtYECBAgQIAAAQIECBAgQIAAAQI7FSiPg5f3ONY7Aftf0/78g891dfc/9trkud35gxe7cUoCdd0S7+gsSbuLuJREbr0uxaO17PpjQHUOEppVwpoAAQIECBAgQIAAAQIECBAgQGCnAg9dudolzWryLH5U5mNfPbtT8ulX3p08twcvv9EdJ3sfZD3ALV9+vGtfyy7a+toHv+sM/uzOdkIzJn7jdVvaSkJzaWHjEyBAgAABAgQIECBAgAABAgQINAVu++6vuqRZTWiWD/dcfuGdk/evnSXUyl2cZX/q8uRL73bHGfMuzjqXsr7IS+awj48B1WshoVklrAkQIECAAAECBAgQIECAAAECBJoC5Q7H8l7J8k7LOZePfOXJLtH44S9d7rbLHZLljr+aUCt3am6zxK+l/8ntP1s7VD1umcdFXuIdmOWOzbjs42NA9fgSmlXCmgABAgQIECBAgAABAgQIECBAoClQk43l7sm5lviOxnIH5pVX3zuJj3rHd2uWd2luu8Sxs/dilrqa0Bx6d+S2czmW/jGhGT+OVLbj9dn1l+BnTWg++uijJ/v6tU7kWILDPAkQIECAAAECBAgQIECAAAEChyxQE3xlnSUDNzmHBy693iUOP3nvlVXX8qh5SZrG45XtOe4M/fR9z3Tjlselh5aYaN32ztChYxxLebku9VrEpGX8yNLQF9CXPMeSB5wrB3nTkhNdN7aE5joh9QQIECBAgAABAgQIECBAgACBzQWuvnetS2qV5Fa8U2/z0c56xEeW49fN46PmNZl26Vdvn3WcuHX7917oziNLkJbEXT1uTbROPOTRd/vUt84SmvUalHeZ1jt2i9MuPwZUQVt5wJLgnLIcRULziSeeOLn55ptPvvjFL153jrfccsuqvNR95zvf6eqGyrsGNggQIECAAAECBAgQIECAAAEC51gg3rFYElg1sbXNKZf3McakWPloT1xKgrMmFcujzeUdmNsu9z/2Wjdm+RjR0FLOrx77oic0yxfhq0W9qzXeWVse4++/W3PIdc7yC5XQLInKkqAsycyY0Czbn/nMZ1autU3ZGSqf8wIYiwABAgQIECBAgAABAgQIECBwyALxC+ElufXwM1e3nm4csyQ2W8tdP3pplUwrHySaY4mJyuwx6dhujnd3zjH3fY3xhX88S2h++/HT61Aew69Jznhn7S7neKESmhW2n9AsSc7+XZnlTs6h8jqONQECBAgQIECAAAECBAgQIEDgvAvEBF9JZNXE1jbn/bUfv9wlxf7qH57dZqjRfeOj8396RzuJWgaLj7yXOxQv8hKvU7nD9ZHnzu5eLe86net9qpsaS2ienKwSlyWBWZdbb711leAsCc1WeW1nTYAAAQIECBAgQIAAAQIECBA47wIxwVcSmn/7z69sfcrlDsl6l99cd2COmVRJZNbjlgRnaykJ29qmvHfzIi/x0f+S3Pzs/b/sbPZ596qE5o4Smq+++upJwfZjIAbEgBgQA2JADIgBMSAGxIAYEANiQAwcUwx85ds/65JYJdH37+7/2Vb5jUcuPX7yP/w/j3Vj/vAnu4uHj33l7Avq9//ocvM8vvzg2flue67HdJ1bc43X/pP3XLruuv1/P277tcZplZVc2dSljNdfzvVHgcrJeuS8f8ntEyBAgAABAgQIECBAgAABAgTaAvEuvZLQ3PYx7IeuXO2SmR+9+6n2QRcqLR8DqndflkeoW0t8zLpsX+Slf3dutfvEN5/eK4uE5snJ6oNArY8ClbJW+V6vmIMTIECAAAECBAgQIECAAAECBHYoEBN8JaH1uQe2e+dlTCru+pHu+x45+9L5Hd9vP04ez3eXj8Pv8JKOPlT//ak1oVkSnftcLlRC8xvf+MbJzTfffN2v4sfy+N7MofLaz5oAAQIECBAgQIAAAQIECBAgcJ4F4peuS0Lrk/de2ep0P/KVJ7u7JOf4Yvomk/nJs//SHfvT9z3T7BrPd44PIDUPciSF8Wv0NZl5y5cfP7n2we/2egYXKqG5V2kHJ0CAAAECBAgQIECAAAECBAgcoUB5xLwms8r6Y1+d/pj4y1ff78b647+5dPLe+x/sVOS1t8+OXxJzrSWe7w+f3u+diK357bIsXq8aA+UVBPteJDT3fQUcnwABAgQIECBAgAABAgQIECBwwALljsyazCrrP7/ricmzfeDS691Y297pOXUSf3L72Ud/3vnNjV86L4/U1/Mtj1xf5KV8Cb5alPWHbrt08ua7v907iYTm3i+BCRAgQIAAAQIECBAgQIAAAQIEDlegn9Asia2pS0wW7utOv1vvebpL0pVHqvtLPN+LntAsNjGh+fkHn+tz7WVfQnMv7A5KgAABAgQIECBAgAABAgQIEDgOgXJHZkxqle0pj4qX9y5++EuXu7FaycRdiMRHylvvyIwJzRff+s0upnTQx4h3tD79yo0J4H1MXkJzH+qOSYAAAQIECBAgQIAAAQIECBA4EoE/u/PGhGZ5t+KmS/zATEls7mu596evdknVO3/w4g3TiB8tmnKeNwx45AV/+8+vnJSkZstqX6cmobkvecclQIAAAQIECBAgQIAAAQIECByBQP/uzLI/5U69r/345S6R+Ff/8OzezvyhK1e7efzl3//yhnnEO1Jb79i8oYOCnQtIaO6c3AEJECBAgAABAgQIECBAgAABAschUB4TbyU0p7xb8i/+7hfdWA9efmNvAM+/8etuHq0PHP3pHWePxe9tkg6cCkhopjwqCRAgQIAAAQIECBAgQIAAAQIXV6A8ct1KaLbePZkp/dNTb103zr4f5S5f667nVb7kHZdaXtaWwxSYNaH56KOPnuzr1zqRwyQ3KwIECBAgQIAAAQIECBAgQIDAcQjEuxljou+BS6+PPoHyYZ34YZl9Pm5eJ/2pb13pEpr9u0Xrebbu3qz9rfcrUPKAc+Ugb9rnqUho7lPfsQkQIECAAAECBAgQIECAAIHzKFAeLa8Jvrgu78Mcs7x/7XcnH//6z7sxSpLwEN5LWZKY9XziezRfe/vsjlQJzTFXeD9tWnnAkuCcskhoTlHThwABAgQIECBAgAABAgQIECBwoAI/efZfusRfTQCW9e3fe2HUjG/77q+6/n/8N5cmfUxo1IE2bPTmu7/t5lUeP3/v/Q9WI8RH7Esi1nKYAhKah3ldzIoAAQIECBAgQIAAAQIECBAgsHeB8q7Mmsi85cuPd9t//e3n186t/97M+x55bW2fXTaIHykqcy3LlVff687xk/de2eV0HGsDAQnNDbA0JUCAAAECBAgQIECAAAECBAhcJIH7H3vtugRfTW6uS/b135v52ft/eXBs9/701e7cPv/gc6v5xUfs153jwZ3QBZqQhOYFuthOlQABAgQIECBAgAABAgQIECCwiUB5V2ZNYpa7Muv2J7759OAwh/rezP6ES9K1nk/5aFGZd0xojrkLtT+m/d0ISGjuxtlRCBAgQIAAAQIECBAgQIAAAQJHJ3DnD17skn5/+8+vdNvZB3Pu+P4LXbtDem9mCz9+sOiR594+iY/YS2i2xA6jTELzMK6DWRAgQIAAAQIECBAgQIAAAQIEDk4g3pUZ34lZ7mgcWspHduqdj4f23sz+nO9+6KVurl/4x+evS2iWxKzlMAUkNA/zupgVAQIECBAgQIAAAQIECBAgQGDvAuXdlzU5WR7H/tM7Lnf7rcm99vb7Xf2f3flEq8lBlcWPAJWPHpUEbD3f8ri95TAFJDQP87qYFQECBAgQIECAAAECBAgQIEBg7wLlwzg1wffkS++elEfN635JXvaX8th2rf/Ut47jK+HxnMqc6/wlNPtX93D2JTQP51qYCQECBAgQIECAAAECBAgQIEDgoATiOyZfvvr+yV/83S+6hN/zb/z6hrk+cOn1rv627/7qhvpDLOi/87MmNMv7NC2HKSCheZjXxawIECBAgAABAgQIECBAgAABAnsXiHcvXn3v2smn73umS1iWR9D7S/yI0L0/fbVffZD7l194pzunmswsawnNg7xcq0lJaB7utTEzAgQIECBAgAABAgQIECBAgMBeBcrHf2qSr0wkfiToh0+/dcPc/vLvz965+dCVqzfUH2LBtQ9+d927Qev5PvzMccz/EE2XnpOE5tLCxidAgAABAgQIECBAgAABAgQIHKlATe7Vr5rHx7NbdzB+9O6nugRo65H0Q2UoXziv51rXrTtQD3X+F21eEpoX7Yo7XwIECBAgQIAAAQIECBAgQIDACIHyiHlN7pVHz8tSPpRTy+55+JUbRvnjv7nU1Zc7H49lKXdj1vOq6/IouuUwBSQ0D/O6mBUBAgQIECBAgAABAgQIECBAYK8C5SNANblXPg5Ulgcvv9GV3fWjl66b34tv/aar+8hXnryu7tB33r/2u5P4eH0573L+lsMUkNA8zOtiVgQIECBAgAABAgQIECBAgACBvQo8+dK7XYLyk/deWc3ln556qysr79OMy0+e/Zeurnw86NiWv/qHZ7v5S2ge9tWT0Dzs62N2BAgQIECAAAECBAgQIECAAIG9CJR3SNY7ND97/y9Xc2iV1cnd98hrXfvbv/dCLT6a9XeffLObfznv997/4GjmftEmOmtC89FHHz3Z1691IhftYjpfAgQIECBAgAABAgQIECBAgMBcAq27Ma+8+l6X9Kt3bdbjlSRmTYDe/9hrtfho1iWB+aHbTt8BWtaWwxUoecC5cpA37fM0JTT3qe/YBAgQIECAAAECBAgQIECAwHkTKF8xrwnKO3/w4ur04ns1++/JLI+Z1/bl8fNjXMqHjj78pcsndz90/ftBj/FczvOcW3nAkuCcskhoTlHThwABAgQIECBAgAABAgQIECBwgAIluVcTlOXr5mUpXy6vZbd8+fHrZl0SnLWufCDIQmApAQnNpWSNS4AAAQIECBAgQIAAAQIECBA4UIHytfKP3v3USXnv5dBSkpg1QRkfIf/jvzl9LLvU1SUmOku9hcCSAhKaS+oamwABAgQIECBAgAABAgQIECBwgALlseqSkCzviizJyNbyhX98vktolsfP6/Lndz3Rlb/zm2ur4mdf/3VXVhKlFgJLCkhoLqlrbAIECBAgQIAAAQIECBAgQIDAAQrUOy/LurwXs7X89bfPEprxnZgf//rPu+Rl7fvQlatdWf0iemtMZQTmEJDQnEPRGAQIECBAgAABAgQIECBAgACBIxF47e33u+RjSWhe+tXbzZmXr5j//+zdjY8d1fkneP5N9NMwrBASi4T2JyQULWKFBkWKogG0jLJIEYMxY9aCccL7wOLxYhEgkKxjEdw0je04BtvYxsZvwTY2hrt6Gk710+W6r1113/pzJO/tvrfq1KlP3Wbn98055ynBZz4mv792+ur6uW9+er46thQQauzUmwRaEBBotoCoCwIECBAgQIAAAQIECBAgQIDAogicurixPDwCyw+OXGoceg4u45zSnt5/sgovD538OQzd8cHX1Xv7Vi+UQ70S6ERAoNkJq04JECBAgAABAgQIECBAgAABAvMpELMty8zLeI1q5k0t75VZlpbHcU17a/7mrY3ZnCXkbOrTewTaEBBotqGoDwIECBAgQIAAAQIECBAgQIDAggjk/S4j0IzZlU3tgd0bxX9y4aBc/bxUSb//hS+qkDSWtGsEuhQQaHapq28CBAgQIECAAAECBAgQIECAwJwJRMXyPEPz8Xe+ahxhPiYfECFm+SzCzes3f6x+v2fn5/lQPxPoRECg2QmrTgkQIECAAAECBAgQIECAAAEC8ykQS8xLIBmvv/rD0dsGGjMyyzExUzO3HIjG8vPj569Xx0YFdI1A1wICza6F9U+AAAECBAgQIECAAAECBAgQmCOBPQfOVgFkhJb3Pr922+hiz8wSaMZemrn9/cS/qs+iQNBfjl2ufn9q34l8qJ8JdCIg0OyEVacECBAgQIAAAQIECBAgQIAAgfkU+P17p6oAsoSWsWw8t1wJPaqd57Z2+mp1fnz2+icbMz5f/OvZfKifCXQiINDshFWnBAgQIECAAAECBAgQIECAAIH5FHhy71dVIFkCzRMXvt802FwJvR5o5tmbscQ8B6T71y5u6scvBLoQEGh2oapPAgQIECBAgAABAgQIECBAgMCcCkRAWYLM8hrLyHPLy8ojsMzt6o1b1fmxHP3R145Vvx85ey0f6mcCnQgINDth1SkBAgQIECBAgAABAgQIECBAYD4FHtpztAogS6BZn1lZL/xTv5Ny3t07Vnv37Vqr+rty/Vb9UL8TaF1AoNk6qQ4JECBAgAABAgQIECBAgACB7Syw97NvexEavn3o26kxRCAZ1cpHuWZULS+BZHmNQkG5xT2Uz/74t2/yR+s/3//CF9Xn5bim4kK3negNAi0ItBporqys9Gb1r+lGWvDRBQECBAgQIECAAAECBAgQIEBgLIGYtRghX7zevPXTWOdOenCEieWaw/ooAWR+rS8rjxCzfP7KwXO3dfngS0eqz8txj7xy7LbjvEGgC4HIAdvKIO/oYoCj9inQHFXKcQQIECBAgAABAgQIECBAgEBXApeu/bAp6Itq4V23CE1LqBiv3353s+8lo5p5Prb8XC/8s/vjM9Vxsfy83pr24fzduyfqh/mdQCcCTTlgBJyTNIHmJGrOIUCAAAECBAgQIECAAAECBJZGYO301SoIjLDw4JdXOr+3XHU8rnn8/PW+18zH3rPz82qsMeMyt1y5/M9HL+eP1n9+/J3bK6U3LU2/7URvEGhBQKDZAqIuCBAgQIAAAQIECBAgQIAAAQIh8MGRS1VIGOFi7EXZdVv9+rtN1zx08ru+l4wq5HlWZvn5rmdXN53z5N6NwDL6r7cceJY+moLP+nl+J9CGgECzDUV9ECBAgAABAgQIECBAgAABAgR6vV7eezKCvl0fne7c5S/HLlchZVyzaYl4GUQOP5/ad6L37y9uFAiK5fKl5SXlEYLW24t/PbvpmnHdY+duP65+nt8JtCEg0GxDUR8ECBAgQIAAAQIECBAgQIAAgV6v9/T+k5uCvpjp2HXLFckjWHz9k9uL+JQxRNgZx8S/mGX52Bv/rH7PgeTDL/+jej+WqddbFAoq/ZTXqzdu1Q/zO4FOBASanbDqlAABAgQIECBAgAABAgQIENiOAjkgjKDvV3842jlDfVZoFPTp13L4GedFIZ8SSMZMz9LyzM0r128PKnMwGufft2utnOqVQOcCAs3OiV2AAAECBAgQIECAAAECBAgQ2C4C97/wRRUQRtAXhXe6bvX9LOP3fi2HnzGTMy8df/vQxn6fuWBQU1/1Ze6Pvnas6TDvEehEQKDZCatOCRAgQIAAAQIECBAgQIAAge0mcPPWT5vCzDLzMe9N2YVJveJ47H/Zr+388HQ1xphlmWds5pmdZez9Atm8F2cc+8yf+oeo/cbifQKTCgg0J5VzHgECBAgQIECAAAECBAgQIEAgCZy48H0VFpZAMF6biuqk07b84yOvHNt03dj/sl/LszkPfnmld+D4lercKBIULZaYl/HH0vOmduri5nsdtG9n0/neI7AVAYHmVvScS4AAAQIECBAgQIAAAQIECBD4RSACwhIE5tcPjlzq1CjvdxnXfWB3cwgZg8jVy2OW5fHz16sxl2XjUQSojL9fOJqPiWPz/pud3qzOCfR6PYGmrwEBAgQIECBAgAABAgQIECBAoAWB2IOyBIH5NSqCd9nytcrP/a4XoWU55szlG5tmY5YgNGaUlmMGLV8vx8RrBKMagWkJCDSnJe06BAgQIECAAAECBAgQIECAwFIL7PpoY3/KmNlYAr9BRXq2ChL7c5br5Nd++3bm2ZzlmLt3rFZ93Prxp17eH/PJvV/1HeK9z6+tn3fXs6u96zd/7HucDwi0LSDQbFtUfwQIECBAgAABAgQIECBAgMC2FMjFeXL18Mfe+GdnHv327Yz3m1pT9fKH9hytAs1YSv7no5er3weFsW9+er5336619UrpTdfyHoGuBASaXcnqlwABAgQIECBAgAABAgQIENhWAr/6w0Yw+PcT/6pCwbKUux9GVBp/8KUjvUmWpufZlHmGZrzf1MoxMbuytN+8dbwaa5wX1c/LcbnyeTneK4FZCwg0Z/0EXJ8AAQIECBAgQIAAAQIECBBYCoG8dPvmrZ969d+bbjKWeOfjyjLwpmOb3svhYwkh4zXer7dvv9so9pOrl+fK51HAKILV0tcf//ZNvRu/E5i5gEBz5o/AAAgQIECAAAECBAgQIECAAIFFF4ggsoSA97/wxfrt5KXcpy42LwHPVcbj/HEror/+yUb4WK4fr7EcvN5iDOWYvAw+QsvyfoSZ+feYPaoRmDcBgea8PRHjIUCAAAECBAgQIECAAAECBBZOYO301SoULGFh3lPz4JdXGu9p/9rG8u4IFQftWdnUQSwJL2FkDlD3HDh72+F5eXosMy8tz/Lc8cHXvWf+dKrqs2mmZznPK4FZCbQaaK6srPRm9a/pRmaF6roECBAgQIAAAQIECBAgQIDA9hKImZUlWHx6/8n1m9/54UbV834zHfMxcX5eCj6KYFyrXDcqkpefm4LRA8evNH5+6OR31fsRwuYl6LEXqEZg3gQiB2wrg7xjljcn0JylvmsTIECAAAECBAgQIECAAIHtLZCXaZd9J98+9G0VFO766HQj0COvHKuOKWHkmcs3Go9tevPXb24U9Ml7X/727S9vOzzPxMzjyUvRo7BR7rNfcaHbOvcGgSkKNOWAEXBO0gSak6g5hwABAgQIECBAgAABAgQIEFh4gTxTsuyDmWdExuzJeqsXBCqB5r7VC/VD+/6el5nnyuoRlNZbDjxL6BrHRAGjcu2ofp4DzX57f9b79juBaQoINKep7VoECBAgQIAAAQIECBAgQIDAUgrEvpklFIz9NKOduLBRhCdmPtZbvSBQOf93756oH9r39/t2rVXX7VfFvJwc+2qWa9RD09xP/vmbKzfL6V4JzI2AQPOXR3H//ff37rzzzvV/TzzxRPWAHnnkker9V199tXrfDwQIECBAgAABAgQIECBAgMD8C0RwF/tSxr6Q4yzlHvfOorJ5CQuj4nm06zd/rN67Z+fnt3WZCwLFGMv5ESiO0mKGZzknZlZGK7/Ha73lvTHLLNJyzMMv/2PTuaWfuIZGYN4EBJq9Xu+5557r5RAzgs3Dhw/3IsCMQDNa/B7vawQIECBAgAABAgQIECBAgMDiCESQWMK5u55d7STYzEu2796xugmnKegsB+SCQK9/cq6XxxqzN4e1mD1Z7u3Bl46sH56D0SvXb23qIhcNqu+NmT8rfcarRmAeBQSavd56cFkPNONhRZiZZ2XG7++///48PkdjIkCAAAECBAgQIECAAAECBBoEcjhXfm472By0tPzR1zaK/hw5e23TCHNBoKg0HoV8yhijoNCwFv2V42Pfy2i5z/r+l3lvzGPnNo8lh6ulzwd2Hx42BJ8TmImAQPMX9ry0PGZjRqsHmBF65oBzJk/MRQkQIECAAAECBAgQIECAAIGRBPKekhFilqCuvMZ7sex7q+3gl1eqvh9/Z3Pxn6ZiQXG9ekGgqzdu9XJV9KYq5fVx5qJDZd/N37y1UfW8PgszFxCq740ZM0SLS3mN2Z4agXkUEGj+8lRiOXmElbGXZgSZ0doMNM+fP98LbP8Y+A74DvgO+A74DvgO+A74DvgO+A74DvgO+A5M5zvw0ScbBXP+9/++2nvvb2u9x17eHGz+x2c/6332+dbG89/e3bjOf3lrddP/7f/7vRtL3p/Z+3n1WYylBIcPvPDzOfm9/2XHZ73P1waP68X3Nvoo1/3Pb2xc74/vr1XXi+/c//rfNu69fs9xbBlPeX34v2++F9/bwc+Dz3g+kZVN2sK63lZWVupvjfT7HSMd1dFBTTcy6qXqMy8jyCz7Z+YZmfWAc9T+HUeAAAECBAgQIECAAAECBAhMXyBmKJZwLmYulhb7U+a9LetLs8txo77u+uh0dZ36UvH3vrhYfRZFeUrLBYGe2rdR1TxXGK8vUS/nltc//u2bqu9XDp5bf/vFv25UMt/72eZl68UiXustKrPnz+Pnsoy9fqzfCcxaoCkH3HaBZgSVURiotJilGXtlxnvxWTRFgYqOVwIECBAgQIAAAQIECBAgsBgCeUl2DhNj9LE0vAR4sWR8K21QXzkofOyNf1aXyXtWvvnpxky1WDpexhWB5aC244Ovq2MjOI0WfTWdnyuuNy0lzwWGyvl1s0Fj8RmBaQoINFNYGcvO418uEBThZnlfQaBpfjVdiwABAgQIECBAgAABAgQIbE0gz46MADG3HCjWZzLm40b5+Vd/OFqFiFEgKLe8j2cuspOL90RBoNL2rV6o+ho2QzJXJi995HvOgWQOLGO8Ta0EmeX1mT9tzChtOt57BGYlINCclbzrEiBAgAABAgQIECBAgAABAp0K5EI39dmOuQBPLBnfSrt7x8belDdv/XRbV/XPmwoClZPOXL5RBZpxXlN/5diY8VnCx1hGHy0vs88Fipoqopd+ymvM3Cz9xWvdrBznlcCsBQSas34Crk+AAAECBAgQIECAAAECBAh0IpD3mIyZj7nl5egx03HSdunaD1UIGPtyNrVcXTz264zwsQSHD7505LZTcrD49xP/uu3z8kY+LmaCRosZoqXvR187Vg7dFHTmPTurA3q9Xg5Io4+yL2c+xs8E5kFAoDkPT8EYCBAgQIAAAQIECBAgQIAAgdYFYsl1CffKHpPlIjn467cEuxw76LXfHpn5nPoem/0KApVz8rijyE+/dtezGzNDyzE5YM17ZfZbil7Oi9e8f2e41c3ysX4mMEsBgeYs9V2bAAECBBdxU88AACAASURBVAgQIECAAAECBAgQ6EwgZiKWQDOWYueWi+Tcs/Pz/NFYP39w5FJ1jaf3n2w8t75fZ/49FwQqJ+c+8yzL8nm8Xr1xq7pu3pszPiv3HIFnabFPaHm/31LyXCE9jv3z0cvldK8E5kpAoDlXj8NgCBAgQIAAAQIECBAgQIAAgbYEoqhOCfFiD8l6iyXi5fOY2ThJy8va+wWF9f06+xUEKtfPsyxjfBFe1lvea/Phl/+x6eN8XxHcRsvjjL1Fm1oOPeO69RC46RzvEZiFgEBzFuquSYAAAQIECBAgQIAAAQIECHQukKuPR5XveovZjyXQbAo868c3/R6zMksfMbOyqeX9OmP5eS4S1BRWRh953804v95y8Z/fvv3lpo+b7jvPCu23lDyPM+5pUpNNg/ELgQ4EWg00V1ZWerP613QjHXjpkgABAgQIECBAgAABAgQIEFgQgVw0p8xUzEMfJYzMxzf9nAvpxH6aTS3v1xnL20sA2lQQqJyfA8j4ud7ysvTYczO3PDO1zLLM+3Ie/PL2gDTOz8WKYoxNIXC+jp8JzEogcsC2Msg7ZnUTcV2B5iz1XZsAAQIECBAgQIAAAQIECMyfQFPRnDzKPQfOVuHipBW98/LufsvW836dJcyM137VxmOMebZkzNast7yMPe4jtxxe/uXYz/tgNoWc+Zz4+cr1jX05Y3zxu0ZgHgWacsAIOCdpAs1J1JxDgAABAgQIECBAgAABAgQItC5w89ZPVVhZL5pTLjZK5e9ybNNrvkYsIx/UcvBZQs2mgkClj1z0J46vz5bMBXwi3Mxt98dnqnvft3ph/aO8vD723+zXynL4YffT73zvE5iGgEBzGsquQYAAAQIECBAgQIAAAQIECExVIALAEhz2W9odS8TLMbF0fNyWl5LHvpWDWg4UyzUPndxceb1+fuy3WY6NADO3PAuzXo08iv6U80qhorz8vt9M0ug/zr1v11pv0hmreYx+JtCVgECzK1n9EiBAgAABAgQIECBAgAABAjMTyPtBxnLrpvbtdxuhZ79ZnE3nlfdiL8oSHEb4OKjl/TrLOf0KApV+cv8xw/PWjz+Vj3q/eet4de2yT2b5MM88feZPP++vmffuLMd5JbCoAgLNRX1yxk2AAAECBAgQIECAAAECBAj0FchVwJ/c2z9sLEusI2SMJeTjtLyP5a6Pbi/ck/vK+3XGtfrNGs3nRIAZQWsJQMt+mHHMwy//o3q/voQ8Zn6Wc8q9l9/vfX4tX8LPBBZSQKC5kI/NoAkQIECAAAECBAgQIECAAIFBArEMu4R49Srg+bwouFOOO3Xx+/zR0J8jxCzn1vexrJ+cZ03GOYMKAuVzY8l4ucZv3/6y+ijvyVmv4H7s3LXqnJidmmeixtJzjcCiCwg0F/0JGj8BAgQIECBAgAABAgQIECBwm8D+tYtVqFfffzIfnPepjCXe47Rxzs37dUZAOaggUB5DhJG5WnspDlRCzqbiPXn/0AgwI6gtx0+yV2gej58JzIOAQHMenoIxECBAgAABAgQIECBAgAABAq0K5JmNpTBO0wV2frgxy3LvZ5urhTcdn9+LQkAlKIwCQYNaniUZ5wwrCJT7ysFphLO5r34zLsu4Yu/MvPw+9t7UCCy6gEBz0Z+g8RMgQIAAAQIECBAgQIAAAQK3Cez++EwVNsZy735tnH0w632Mu/9mOT5mXA4rCJSvVS8OdOTsxpLyfjMuo1J5CTVHXX6fr+lnAvMsINCc56djbAQIECBAgAABAgQIECBAgMBEArFvZgn0cjGdemcHjm9UKi8FdOrH9Pu99B/h4SgtlpnH3pevf3JulMOrY+rFgaJyebl2v704896gebbqsOJF1UX9QGCOBQSac/xwDI0AAQIECBAgQIAAAQIECBCYTCAv044l1/1aLBUv4WAsIR+11fepHPW8SY/LoWTeU3PHB183dhnFgMp9RTGh8vOg5feNHXmTwBwKCDTn8KEYEgECBAgQIECAAAECBAgQILA1gRzoDdrfMiqEl7Av9pscteUgNK7VdasXBypj7hdQPr3/ZHVfea/PfasXuh6q/gl0LiDQ7JzYBQgQIECAAAECBAgQIECAAIFpC0SxnBL6lcrg/cYQy8DLsZeu/dDvsE3v50I74y5V39TRGL/kWadlvP32B42l5eWY/PrBkUtjXNGhBOZTQKA5n8/FqAgQIECAAAECBAgQIECAAIEtCOSQMvagHNQefe1YFf5FwZ1RWgSDJSiM/Tqn0XJxoHLteK+p5SXq5dh4HbT8vqkf7xGYRwGB5jw+FWMiQIAAAQIECBAgQIAAAQIEtiRQQryoLD6s5eXZo85gjKXb5Rp7DpwddolWPq8XB4rr9wtgY+ZmGV9+PXZutMC2lQHrhEBHAgLNjmB1S4AAAQIECBAgQIAAAQIECMxG4OqNW1WYF0vPh7UIJEvo98rB0SqQ5xmQ41YtHzaeQZ/n68aY+y2nb5rNOej4Qdf0GYF5ExBoztsTMR4CBAgQIECAAAECBAgQIEBgSwK5AvnDL/9jaF95NuOoy8ejungJQfvtYzn0whMckIsDRbXzfi1mbpbx5debtwYvv+/Xn/cJzJNAq4HmyspKb1b/mm5knqCNhQABAgQIECBAgAABAgQIEJiOwNrpq1WYN0oF8nz8Y2/8c6RB5mXqfz/xr5HOaeugmKV57/NrvUFL3XOomwPNtsagHwKzFIgcsK0M8o5Z38gsr+/aBAgQIECAAAECBAgQIECAwHwIHDr5XRVo/u7dE0MHFbMeS+j3wO7hS9SjwwhKyzkRiM5bi/02y/jK6yjL7+ftPoyHQJNA08TGCDgnaQLNSdScQ4AAAQIECBAgQIAAAQIECLQqkJeQP/On0SqQR/GgEvyNsiw7lrKX4/vtY9nqTU3QWcziLGOM11/94egEvTiFwPwJCDTn75kYEQECBAgQIECAAAECBAgQILAFgb2ffVsFebE8e5T20J6j1TmnLn4/9JSY7VjCwus3fxx6/CwOePClI9UYY6yjLL+fxThdk8C4AgLNccUcT4AAAQIECBAgQIAAAQIECMy1QK4E/uan50ca6+PvfFWFf1EhfFgrYWa8zmvLy+JjnE/tG778fl7vxbgIZAGBZtbwMwECBAgQIECAAAECBAgQILDwApNUIN/54ekq0IwZnoNazMgsgeY870sZAWYZZ7yOWsF90L37jMA8CAg05+EpGAMBAgQIECBAgAABAgQIECDQmkAEdyXIG2W2ZVz47UMby9R3fXR64FhyBfF53pcyB7vhMery+4E370MCcyAg0JyDh2AIBAgQIECAAAECBAgQIECAQHsCean16tffjdTxgeNXqhD0yb1fDTwnqpqXwHSe96XMS+9jvK9/cm7gffmQwKIICDQX5UkZJwECBAgQIECAAAECBAgQIDCSwKOvHasCx1ErkJ+48H11zrBZl38/8a/q2Kf3nxxpTLM4aP/axWqcEWhG9XeNwDIICDSX4Sm6BwIECBAgQIAAAQIEpiIQ4UBUQh61yMhUBuUiBAjcJpArkF+69sNtnze9kffFvGfn502HVO9FMFhmaMay7nltedZpjHfU5ffzej/GRaAICDSLhFcCBAgQIECAAAECBAgMELh566feXc+urocY8Xr1xq0BR/uIAIFZCkQgWQLHccZx/wtfVOcNCkLjf9Qo/c/zvpR5aXyMd9Tl9+OYOZbALAQEmrNQd00CBAgQIECAAAECBBZOIIKAEmDE66GTo+3Lt3A3asAElkCg/K3e+/zaWHeTl6ofOXut77l7Dpyt/nuwb/VC3+Nm/UEuXhQmZy7fmPWQXJ9AKwICzVYYdUKAAAECBAgQIECAwLILRDGNEpLEq2Xny/7E3d+iCnz73c3qbzWWno/TYj/M8nf+wZFLfU/NVdQHHde3gyl9EDPLy/3E66BZp1MakssQaEVAoNkKo04IECBAgAABAgQIEFh2gcff+WpTMPDUvhPLfsvuj8BCCsQsxBLiPfbGP8e6hzzz8pWD/SuCRxX0co15X8Zdlt/fvWN1LAsHE5hnAYHmPD8dYyNAgAABAgQIECBAYG4EYulqCTDi9YHd4838mpsbMRACSy6Qt4f4zVvHx7rbXOwnZmH2a79+83j134Pj56/3O2wu3o8l8fftWusNCmjnYqAGQWAMAYHmGFgOJUCAAAECBAgQIEBgewqcuPB9FV7kUPPKdYWBtuc3wl3Ps0Cu7D0olGy6h1xEZ9DszlxFPfap1AgQmK6AQHO63q5GgAABAgQIECBAgMACCsQMpxxklp8PfnllAe/GkAkshsD1mz/2dn10uhfh4duHvh150HmW5c4PT498XhyY998cNAs7ZjyW/w6MdQEHEyDQioBAsxVGnRAgQIAAAQIECBAgsMwCuQBI2Y8uwow//u2bZb5t90ZgZgKxbDzPgoy/t1FnQuYCXpP8jcZekyWsjKI6Ta18Hv890AgQmL5Aq4HmyspKb1b/mm5k+pyuSIAAAQIECBAgQIDAMgo8+NKRKuCIGV8lzIhCQRoBAu0JxKzM/DdW/tbi9cW/nh3pQhFilvNidvW47eGX/1Gd37Q/ZlQKL/2PW0V93LE4ngCBZoHIAdvKIO9ovsR03hVoTsfZVQgQIECAAAECBAhsN4EcXsTMrbyfZiw71QgQaEegaVZmnhF9/wtf9G792DxjMo8gz6iO5efjtt+9e6IKLP989PJtp5+6uLGn7qB9Nm870RsECLQm0JQDRsA5SRNoTqLmHAIECBAgQIAAAQIE5logFxh59LVj62PNFc9jz715ajEj7aE9R3uTzEybp/swlu0lsOfA2SpELLMfn9p3ohf/g0LsZVne+8ux2wPGulScV46PkHTclmd4Ns0KzVXUf/v2l+N273gCBFoQEGi2gKgLAgQIECBAgAABAgSWVyCKkpRwZPfHZ9Zv9DdvHa/eGyVgmaZOCVtjNqlGYBEEYll3+RuL15j5nP+ucsA4SoD46zc3/j6PnL02NkFcu4znyb23byuRPx+3ivrYg3ECAQKNAgLNRhZvEiBAgAABAgQIECBA4GeBmJVZwo2YrRktzyYrIec8eF29casaa4w59iPUCMy7QA4gH3nlWO/K9VubhhyzoO96dqNQz7DiQL/6w9Hq72DYsZsu9MsveVuJ6Kve9q9drPqfp7//+jj9TmCZBQSay/x03RsBAgQIECBAgAABAlsSiArHOUgpQUtehh6zNeel5b39ItCcJMyZl3sxju0h8PcT/6rCwfjONhXhCYkowFX+h4WmZeBZK1dHnyTUj306y999vNb37cwzRl85eC5f2s8ECExJQKA5JWiXIUCAAAECBAgQIEBg8QTyXnmxL2VpMWOshCuxxHte2qGT31XjEmjOy1Mxjn4CERTmiuJP7z/Z79DewS+vVN/tYcWBShgZfwOTtvh7L3/jMWMzt7wNxSRFh3JffiZAYDIBgeZkbs4iQIAAAQIECBAgQGAbCLz+ybkq1KjvlRehSr/AY1Y0Ea6UMcXr2umrsxqK6xIYKpC/r7Hn65nLN/qeE+HnKMWBYlZ1+RuI4ydtsXdm6Sfv5xn95SrqZRuKSa/jPAIEJhMQaE7m5iwCBAgQIECAAAECBLaBQF7mGvvm5ZYDjw+OXMofzeznvBQ2wphJKjzPbPAuvK0EInjMAWXMehzW8ve7X3Gg2GahBJEPvnRkWJd9P49l7aWf+rLyXBTM31hfQh8Q6FRAoNkpr84JECBAgAABAgQIEFhkgVIxPIKN2J8ytwg5SuAxShiTz+3q5x0ffF2NKcZm9lhX0vrdqkCe/Rx/Z1HQalgbpThQrpgexYYmbX8+ulHp/HfvntjUTRQuKn/79qndROMXAlMTEGhOjdqFCBAgQIAAAQIECBBYJIFc6bhpn8y8p19UQp+HlmeURuBif795eCrGUBeI8DL/jwURbo7a8ne8qThQ3vc2ZlFP2nIwGvt85paLDpVCYflzPxMg0L2AQLN7Y1cgQIAAAQIECBAgQGABBfatXqhmYTUFIxHKlFlasf9fvRLyLG45F1iJsdWXyc9iTK5JoC6Qi+rEsvNYfj5qy/9DQlNxoDyzsr7v7ajXiOOiOnr++87nxt97+Sy/72cCBKYnINCcnrUrESBAgAABAgQIECCwQAK58Ee/GWSxR18JNmJG16xbLlQU44o9BzUC8yQQhX9yIDjuLOJhxYEixC9/k00zOMexyDMxy5YTuehQ/L1pBAjMRkCgORt3VyVAgAABAgQIECBAYM4FcljZr1r4U/tOVOHJrGdDRtBTgpzyKtCc8y/ZNhze0/tPVt/TmFE8yczmQcWB8mdb/f7n5e0xMzRaLjr00J6j2/AJumUC8yEg0JyP52AUBAgQIECAAAECBAjMkcClaz9UoUvMJuu3JPbNT89Xxz3zp1MzvYMctJRAc+eHwytHz3TQLr6tBGIZ913PbizX/vuJf010/1EcqHzH4zX+Xkvb/fGZ6rNxZ3+WPspr7iv+1qMdO3et6n8rRYfKNbwSIDCZgEBzMjdnESBAgAABAgQIECCwxAJRHbwEJoMK/sTMzXJcvXDItHlyMZQypq3sITjt8bve8gvkv6utzm6Mv8vyPf/gyKUKL28V8Zdjl6v3J/khL18vf0v57yxmaGsECMxGQKA5G3dXJUCAAAECBAgQIEBgjgVy0ZKYpdWv5cIhMfOs30zOfue3+X4uhlKCnt+9K3Bp01hfWxPY8cHXVQi51dnDsT9m+Z6XsDFGl5eJR/i4lXbk7MZszEdeObbeVcz6LNed9azsrdybcwksuoBAc9GfoPETIECAAAECBAgQINCqQBQtidljJbSIWWWD2q/+sHFsBCDRrly/1YvwJoqKbLUwyaBr58/y8vcydktis5CfuxLY+9m3638z/YpnlevmfWnLnpTls3FfD538rvobjb+z0uI7X77/Jy58X96e6PXqjVtVX/fs/Hy9j7cPfVu9t9U9OicalJMIEFgXaDXQXFlZ6c3qX9ONeMYECBAgQIAAAQIECBAYVSCCzJjplff4i2AkwslBLS9xjVBx3+qF3r3Pr1WhR+zBOY2WZ5WWQEegOQ357X2NmKWcq5bH/pZNLe/xGn9jcd5WWsyGztctVchzZfK45lZbVDIvf0+xV2cuOhThpkaAwGwEIgdsK4O8Yza38PNVBZqz1HdtAgQIECBAgAABAosr0C/IjBDjlYPnht5YzE4rgUcOWMp78TosFB16kREOiOXl+Zrx81b3KRzhsg7Z5gKxf2X+3vUrxBNBfzmuraA9z8aM/qPlAHKSCur1x/nbt7+sxh1FjGKZebmPfvda78PvBAi0L9CUA0bAOUkTaE6i5hwCBAgQIECAAAECBGYmEIFEfUZmhBVP7v2qd/z89ZHGlasel6Cj/rqVmWIxCyxmnQ2bDfbYG/+sgpZy/bwUd6SbcRCBMQXib6V83+K1376tUUCnHDfK/1AwyjBiiXvpsxToKb+3NTM69vosfcbfYL6PWPauESAwGwGB5mzcXZUAAQIECBAgQIAAgRkLxOyt2BevhBXxOk6QWYYfS19zKBpBSgQ2uQpzhJ6TtJg9WvqOfgcVHcpLbcs93bdrbZLLOofASAL15ebxvYvtFuot/tbyNgxlr9n6ceP+nov2RP95z8u2wvw8Azv2xc2zQif9ux73Ph1PgMDtAgLN2028Q4AAAQIECBAgQIDANhCIGZgl+ItlqqPOyGyiKTM9Y/ZWmY2ZZ65NWm05788ZYx00xnIvJQAtvzeN13sE2hCoLzcv37l6YFkPHtu4dvRRD0r/cuxy9Tf98Mv/aOUy8bdb7itmQeeCYeVvvZUL6YQAgbEEBJpjcTmYAAECBAgQIECAAIFlEdi/drEKKspy1TbvLYeRfz56eeyu8+zMEqj06yeKlZRjYmZanq059oWdQGBEgRza5/1j69W/cyGdfkvSR7zkbYflMTz+zsby97b26Yz9b8vfVsx4fmD34er3QTOmbxuoNwgQaFVAoPkL5/vvv9+78847q39F+ZFHHqnee/XVV8vbXgkQIECAAAECBAgQWHCBvDdeVCdvu+Wq45MUD8mBaAlU6kFRGXPexzNmkeVA0yyyorSYr1HsJmYFDttDddp3V19unkPL+A7mlvd3jf8hoc2Wl4TnLSTaDE4jyCx/g+W1rT0627TQF4HtJCDQ7PV6hw8fXg8t4zW3CDAj0IxWjsmf+5kAAQIECBAgQIAAgcUVeOSVY1VI0UVxjxzwRPGScVrT7MwIUvrNJD1w/Ep1LxHkxHLbErwINMeRn79jS0gXAVobVbvbusO83DwCy/iele9cbHsQ+1lGi+Azb4PQ9vfx1MXvq+uW68drVCNvq+X9cMs12tqjs60x6ofAdhMQaPZ6veeee279X/3hR5iZZ2XG7zGTUyNAgAABAgQIECBAYLEFIhjKS2RL+NLmXeWZY/1mVva7Xp6dmffs67cvYMziK0HL7o/PbCpcMmjfzX7X9/58CHz73UZIGM+37TBwK3eZl3qX2aP5uxr7WUbLYXt83kWLPXDL97+8jvs3N2hcUQyo9Fte438Q0QgQmJ2AQLPX6z3xxBPVsvJYdl5mZdYDzDguB5yze2yuTIAAAQIECBAgQIDAVgRyQaAHXzqyla76nhvLzEv4Mc5ssfrszFxQpd8y1z0HzlbXiuXzv3nrePX7pAWJ+t6YD6YmEDOHy3coXuflWdaXm0fwGi1vs1C+8zkMjG0eumj5fwAoXm1uIxGBbem3vLa1R2cXHvoksB0EBJq/BJo5qLz//vvXZ2IKNLfDn4B7JECAAAECBAgQ2I4CXRcECtODX24sA4/AZdSWw5mYBRct74kZgWe95XOicFD+vYvl9PXr+70bgTzzNoK0WOY9D62+3LyM6e8n/lUFf2VJdvwPBiUEjL+JLlr+Hw/KtSbZt7bf2PJ9lf7H+Zvu16/3CRCYXECg2bDkvMzEjEAzB531gHMc9vPnz/cC2z8GvgO+A74DvgO+A74DvgO+A74Ds/8O/J//4/MqZHnu//28k/93+t6/bhQS+T/+sDrSNT76ZK33H/7rZ9XY3vvb2vp5/+nljfG+8efbx/vwf1+tzvmff13r/ec3No5/6b3bj/cdnP13cJRn8H+9vfEcI0h7Zu98PMvHXt74vv23d3/+jsb9fPb5F73/+OzG9/etjzf+BuJ7fWi1G/f/79ON65TAsenvZBTzpmOa+v8vb432N93Un/e6+R5wXTzXyMombfG8621lZaX+1ki/3zHSUR0d1HQjo14qQssIK0uLZedRBCj21izvKwpUdLwSIECAAAECBAgQWHyBrgsChVAuVjLq8tQ8s7LMzoy+8lLepqW0ee/C2Gfxxb9uLEFvc6ba4j/5xbqDx9/5qgqqI6iL5duzbv2Wm5dx5e0O8vdy1L+B0s+4r/laYdX28vxSnKkEpm3u0TnuvTqeAIHe+v/YV3fYdoFmAERwGUFm/MuzMmP5eXlfQaD6V8XvBAgQIECAAAECBBZPYBoFgUIlV30uy28HadX3zszFfPLS46ZQK4ctcX+5wnpTADpoHD6bH4F6SBcB56xbv+XmZVzxfSuhX3595eC5ckgnr3mvzrhu2wWU8v8IEv3HthUaAQKzE2ia2LgtA83ZPQJXJkCAAAECBAgQIEBgmgLTKAgU93Pz1k9VsDNKoNlvdmb0tXb6atXXo69trq4cFdpLcBTVnqO9/sm56j0zydZJWvn/RCgXz7LrcK4M9q5nN5Z2xzP+1R+6qRJerjfKa1N183zeiQvfV9+98r2M1yhu1WXL1dTjepeu/dDq5fLfZ/Rfqri3ehGdESAwsoBAc2QqBxIgQIAAAQIECBAgsAwC0ygIVJxyoFPe6/eaZ1nm2Zlx/JXrG6HlfbvWNnWRl7bHLLJouUhKLD/Xti6w97ONStdRbT5mwnbZYsZu/v7Ez/c+v/nZd3n9pr6HLTcv5zyw+/CmsU9j3DnYj+fTdqvPPG17SXvb49UfgWUXEGgu+xN2fwQIECBAgAABAgQIbBLY+eHpKmzpejl2DnaGBWAlvKoHlmXw8X45JgLO0qKKeXm/LEnOgaZqzEVq8teozl2fLdn2kub66Joqa8dzjlBxVm3YcvMyrvpsxt+9e6J81OlrzEyO8HTPgfZD/PoM0PgfEjQCBGYnINCcnb0rEyBAgAABAgQIECAwA4G8F16EgV22WJ5cwsZBAdgo+23GUvPSVyxBLy2Hl2V/zRxyLmugGTNtYwn224e+LRSdvMZs2Tx7tjyDrmfoxX2Va+XXWNLdVotrxHc0gsBR2rDl5qWPPx+9vGnsy7DfZJ4JHc/j2+9ultv1SoDADARaDTRj881Z/Wu6kRl4uiQBAgQIECBAgAABAnMsMK2CQIXgsTf+WQU7sYS4X8v7DvarBp2LnkSRoNJyAaCyt2OEbSUEi6rTy9hiJl7cYxfLi4tX7MMY+5IWy/wasxW7bHkmcb5uzNxso+UiVDH7dJSZn2FdxjIo0MvLv+P4QWF+G/cyrT7K/Xf5nZvWvbgOgUUXiBywrQzyjlliCDRnqe/aBAgQIECAAAECBBZDYFoFgYpGhJMlABo0oy8HkGXZeOmjvOY9/HZ9dLq83ctBZ8zWjHbs3LXquv0C0qqDBfwhF1wK30Hh2qS3FwHfwy//o3KMWZqxdLo8zxIeT9r/sPN++/aX1bUefOlI9XNbsx3ry8LjOzOo5dB9lCJXEbRH8LdMRaliJmts/dD1sx/0HHxGgMDPAk05oCrnvh0ECBAgQIAAAQIECCylwDQLAgVgDo0GzazLS3T7LRGPfRxLmJZDz/i5vF+W0Ocl7KVQ0DI90Hx/ce9tLsMOp5jJm11jBmPYNi3v78o1h5jP/OlU9Yzb2B8yz84s350867fpnqKqdzk2f/+ajvUeAQIEuhYQaHYtrH8CBAgQIECAAAECBOZGIC/j7bogUNx0DjTL7MkmjBy09qtKnqte5xlyeRZhKVSSpGfI5gAAIABJREFUA798bNO1F/G9PKM1QrZBs18nub8IDUt4F69lVmTem7TLUC8C1XL9CFNHCbzHuc/8vSzXybN+m/rKJv2+o03neY8AAQJdCAg0u1DVJwECBAgQIECAAAECcykwzYJAAZD3txw0Ay4fN2g5a9nDL0KoWHYdLe/xmPdBLEHVMgaaebZg3Gfb+1lm5xze5cIwUZCoq5aXdz+052gvikCV57nVLQSaZmdG38P6zQWBImDVCBAgMEsBgeYs9V2bAAECBAgQIECAAIGpCUy7IFDcWISTJYgatJdgzI4rxw2ayZlnY8Z+oHkmX+zxmFvpL16XrUU4nO+vzUrnUQio9B1hcW55784oStRVO3B8Y3uBCBLzjNtYir6VlmdnPvrasepeY2/IQS0vgW97if+g6/qMAAECTQICzSYV7xEgQIAAAQIECBAgsHQC0y4IFIB5z8XdH5/pa5pDpgiz+rWn9m0UpYlZcjnoipl8uUVAVYK5/P4y/JxntMY9DgqLx73fPBsyqtTXW3bNM2Lrx23l91wAqnxvyrOMJeiTtvrszPibKNXio/8Ic5ta3Ge+fgTpGgECBGYpINCcpb5rEyBAgAABAgQIECAwNYG8T2UEg9NosRS6BEERWvZrv3lrtGroOciLn/NektFHbrHUvFz76o1b+aO5/Dlms8aYBy25LwPPAXDc4yDbcs6or/mZPb3/5G2n5VmyXc1UzJXry1YF+Xn2Cx5vG2ztjewWMz+jRWhbvif9CldFBfRyTNy/RoAAgVkLCDRn/QRcnwABAgQIECBAgACBqQhMuyBQ3FQOHAeFqHnpb8yi69dycZjoL/9eD/XyEuGYyTnPbe9n31aBWexfOazlCuQRtJVwbth5o3xeD43r5+S9JPsFgPVzxv09B9ylcn0OHiNgHLc1zc6MPkb5u8hL/H/37nT+x4Bx78/xBAhsLwGB5vZ63u6WAAECBAgQIECAwLYVmHZBoIA+cnZjZtugoiujzr7Ly+ZjplxemhxVqHOL65VZdYNC0nzOLH4++OWVXiyjLmON12EBbA6A4/hBtuPeU8zKLGNpKjaUA8BS/Xzcaww7Phd6+va7n8PoCBLLuKIo0ritaXZm9JHD5HooXq6R93iN75xGgACBWQsINGf9BFyfAAECBAgQIECAAIHOBWZREChuKu9xOWipbhT0KWHVIIxclCZmMuagqSxNLufnQDNmis5ji4A233sxiH0sB7UcAMc58XtbLc+EbBrH659sFHqqh8htjCHvV5kLPUW19eIzbhGkfrMzY7w5dO/3Hc3fpQigNQIECMxaQKA56yfg+gQIECBAgAABAgQIdC6QZzZutUr0OIONvQ5LCDUodCvHDKs0HdfOYV6edVoPmvKMvnkMNMMmz0QsBvEaS+kHtXxs/NxmxfE8pqa9Kgct8x805lE/y9/VHDDmmZSlUFC9zzgmFy2qO8Xv9eX5sb9qOa7fcv/cZ5kxWr+23wkQIDBNAYHmNLVdiwABAgQIECBAgACBmQjMoiBQudESFvUL3fIszkGhZ+mvvn9k6b++r2JeYjwsICx9T+s1ZiFGWFfGHjMRcwX3QTMQr1zfCODK+fHaRqvPgG3qM1dBb3Ope7lWLCcv95X3XT1w/Erj++W8eI1Aspzb7zUC03rLIXm90FEO5ft9h+v9+Z0AAQJdCwg0uxbWPwECBAgQIECAAAECMxfI+x5Oew/AvKS6CSICpBI+jRKQ5WXm5bx4rc8mzJWy3/viYtOlZ/JeLP/PoWzsnxmFb0aZgRgDPnVxwyvf/7B9N0e52fwsfvWHo42n5AC6i9m+eUl7LDMvLc/cjD1E662fSzGK72F9W4LSR34e9f05o/BR6SOW42sECBCYBwGB5jw8BWMgQIAAAQIECBAgQKBTgbw0u1SN7vSCqfM8+y1mF9ZbroQewdKwlitOl6ApQsF6y9W6+wVZ9XOm8Xssly7jjtdSWCfPQBxUSTt75X7qM1QnuZdYtl/6HPQsyjFN7uW6Mcs0As8IKMdpeWZtsYnz88zUB3bfvmdontk5aOxNY8n7c9b3Bc2Fp+J/GNAIECAwDwICzXl4CsZAgAABAgQIECBAgECnAnkpbuwZOM0WM/1KANY0i3DcPRnzkufSb9NS9Rxoxs/z0GIWaa5onmcg5uI0g2aqxmzTct/5tY2gOkLI0mfMhO3XckhdnxlbzsnfuabnXo6rv+YK7mGSW+4zZrrmlp93vz028/H55/wdrO+xmQPWmEWrESBAYB4EBJrz8BSMgQABAgQIECBAgACBzgRy1ehRiu60PZBcIbppFmHe3zMHfP3GkWfqlfCtaSlw7ndeAs28nLq+bDqKzZT7aQpoi0eeMViOj9c2ltXn5fyD9vHMldCbnmm+lxjbKM+13F8uwFOf0fvQnv7heN6D9IMjl0p3I73mpfb1ZfR5r9N6wDpS5w4iQIBABwICzQ5QdUmAAAECBAgQIECAwPwI5D0P++2L2OVoY8ZbCd6aqo3nmXWvHBxteXIOvaLvpiXaeSbjM3861eUtjtx3ntnYVKioOA1ayp2XR2eHNvZGzXtJ1qvG55vMFeTre07GcTFbtNxLvEbl9PqMytxf+TlXHG8qwPObt45X/da/S3kmcFPhn3KNptcYW545G/8jQGl5Vui0ZzeXMXglQIBAXaDVQHNlZaU3q39NN1K/Wb8TIECAAAECBAgQILD9BPKeixEITbvlJbtNIV6eFTjqLMO8LDkCs6YlxnlPyhjDrFsuLhNBZFQUr7ccePZbyp0980zJ+t6P9b5H+T2HgvVq3/n8HKo2zeRs2ue0KfjMfcbPMduzBKGx72u95XvPszBzdfY4v8m23lf99zwTs8w6zTM3B82arffldwIECHQtEDlgWxnkHV0PdlD/As1BOj4jQIAAAQIECBAgsH0F8v6Aswj2hgWWOaSKEHKUliuYR4DVNDsxB7mxHHnWLS+JbgpgY3w5qO03yzAv4Y+ZpyUAbOPZ5tmIg0LBYRXZ8zMv4/vt218OfQT5u9o067bfbN5cAT2WpU/S8qzTUkRqK4WGJhmDcwgQIDCqQFMOGAHnJE2gOYmacwgQIECAAAECBAgQ6FQgh0/j7GXY1qByCNVU8XrQMuJ+Y6jvI9k08zMHmoOK7PS7Rpvv14sBnbr4fWP3OfTst+Q7z6LMy+rHrexdH0CMsYSPsUR8UMuzX5vC4rx0vfQZr8OKA8Us03J8076n+X4j1C4tB6FN4ynHDXrN36kIZKPl8czib2fQeH1GgMD2FhBobu/n7+4JECBAgAABAgQILL1ADmWalgd3DZAD1aaQKs9KPHP5xkjDibCvBF/xGpXP6y3vHTrrQDMXAxo0ljyzscwSrN9XhI3l3nNl9KbCSPVzB/2eq8cP6yvPiKwXN4pr5OI9OYAdFgrmWZJNIXXemzMHuDHjtZg0fccG3Xf5LH+nyjPK+782jaec65UAAQLTFhBoTlvc9QgQIECAAAECBAgQmKpAXtKd9x2c1iDyrLqm4jyj7BtZH2sEnyXAitemmX850Ox6/8MIiuMa/cK0fI+DgrEcfPbrq9z3PTs/7+Vq4lu9x/hulL6f3n+yTr7p91xp/oHdhzd9Fr/kAjt5Nuew4kCxb2YZQ9nHMnceM1vL5xGUlpZnhI6yV2c5L79my9jjNFpUPC/XG7SnaO7HzwQIEJiGgEBzGsquQYAAAQIECBAgQIDAzAQmWdLd5mDzzLemfR4jmCuh0TjXLfs9RnjWVEE7KlWXfrca9g0bVxlLXK8eqI1SDKj0n0PFJqumkLbcY4xhKy0C1NJXvzA195/vOfvn0DECwfgsQs/Sd90n9xmVzctxTRXFc/GfXAU9B8ZbCR7z9XNo3u87lsfuZwIECExTQKA5TW3XIkCAAAECBAgQIEBg6gK5evOoS7rbHGTey7KpynoJsMqsuFGvHbMZ45xB4VvpO0LTrlqe2RfXi1As3ist74vZrxhQOXaYVa4CXpZFh0G5z0GFfMo1+r3GrMzSzygzefOy8jxDNgfYZVl4Dkv7FQfKsz4HfRfy/UZonYPrrYa6uWr8KwfPVR7xN6QRIEBgngQEmvP0NIyFAAECBAgQIECAAIHWBfKeixH+TLvlGXslhCtjaJpxWD5r4zUvfW6jv6Y+8r6OJRCM+4yZiaMWAyr9Zo+mat15tmcpfpOXRedgsfQ56msO85r2JK3302/mbyy/Lw6luE4EvPlZNI0z7+HZtC9nuX4O6GM2Zt5HdKvB484PT1djz65NFdfLeLwSIEBgFgICzVmouyYBAgQIECBAgAABAlMTKOHSVmevTTrgHNLVl35HIFXGVw87J71ePi8vRc7LovMxW/05iveUe8ivMYM074k5yv31W1Jdxpj3I43wLVr0W64b4d6kLQffEcQOa/32Zs2hYBSEKi3vc9lUHGj/2sXqPpr2Wi395EI9EfBm/60Gj7mAVTGN16iArhEgQGCeBASa8/Q0jIUAAQIECBAgQIAAgVYF8nLoepjY6oUGdJZDuvoY8hLrsjx5QFdjf5QDzaZZgWN32HBCrrCdl2HHjMQcEg4qBpS7rS+pzp/lpdtlqX1e0h4B3yQtP6NRg+88llieXVosKS9hYB5PXoreVBwoQs5yXgTB/VoOTCMEzZXhtxo85tmeZSzxGmPXCBAgME8CAs15ehrGQoAAAQIECBAgQIBAqwJNey62eoERO8vhUD4lQr7yWVMRnHzsJD/H0uXSf1eBZp55GBW981Lscu0IKUfd3zIvqY7l+rnlMC9ma0bb8cHX1T2W9/I5o/ycZ8rm6uGDzs2zRWMMpeUCQNl8WHGgHMwOKhyUZ73uOXB2k/dWg8coRFSeWX7Ne6KW+/RKgACBWQoINGep79oECBAgQIAAAQIECHQqkGfFlT0XO71gn85zyJWXfudlxk3LkPt0N/LbbS3HHnTBPCszAsgIv/IsywjGhhUDyv3nGY4xgzW3WFJdgrYS3uWZkoNmNuZ+6j/n78moM2Xz3qHlnGEzPfNYy300vR4/f70+xOr3egierXOAWp0w5g95Vm+MLVdTH7MrhxMgQKAzAYFmZ7Q6JkCAAAECBAgQIEBg1gJ5Fl3Zc3EWY8ohUQ6dcsCVly23NcY8e7IeDrZ1jVzspoS1MVMzB3X1mZaDrh37R5Zz6zMuc0Abs2+j5T0kJw2Fmwr5DBpjfJaLPZVZncNmetaLA5X7zK/hOah4VS4eFNct57ZVyT5/Z6LvKJakESBAYN4EBJrz9kSMhwABAgQIECBAgACB1gS6DgxHHWiuoH3m8o3qtLz/YT28qw7awg+5cE3ez3ELXW46Ne6lBGpRFTu3sI+QrVT6zp8N+nnQM2sKhuszFgf13e+z/Bwi3Byl5dmYZRZjDnKjeE9Ti9A1h8DFL17j/WGhbATi5Zzcz6DK6E3j6PdeXL/0H6+z/B8C+o3R+wQIEBBo+g4QIECAAAECBAgQILC0Am3sr9gGTp5ZmGdK5sAxwrC2W+6/i8A0QtISfsVS8TZanlWb96aMviMgLdcr18qFlWL/zklanpVYlrKP0k9e7h2zKvP+luMssx/lWvmYYpBf61b5+HF+zgFx9J8rtY/Tj2MJECDQpYBAs0tdfRMgQIAAAQIECBAgMFOBXGilixmKo95cDhbzOHIBnRx0jtrvsOOiaEwJvboINPNS7bZm8uWQNM9yzDMiI0gsLS/9fuSVY+XtsV7z0u1YNj5qywWM4ry8XD72R+2q5Zmq5fmOOrN02JjysvnoOyqfawQIEJg3AYHmvD0R4yFAgAABAgQIECBAoDWBvNR7UKGV1i7Yp6McaOZgMVchz0vR+3Qz9tuDlm+P3VnDCbnqeFsz+XKglgPKvNS67FkZQ7p07YcqtI2gb5J2947Vqo9Rq7HHdSJwLYFiBLH5+xZ7XXbV8nXK9aNIURst9kEtS9njNSqfawQIEJg3AYHmvD0R4yFAgAABAgQIECBAoDWBPJMtCrLMquVgMYrYlJbHF8Fc2y3PoIwxtN1yRfI883Qr14kArYR097/wRdVVXloeS/hzK8dHADduy4Fovt4o/eRAN2ZkxvllLF08zzKmXO29XO/K9faCxyhQFSHvsP08y3i8EiBAYNoCrQaaKysrvVn9a7qRaWO6HgECBAgQIECAAAEC8yVQZppF6DPLFgFRCZ5ysNi0J2Sb48z7UY5bnGeUcUQhoHJfbc4wzTMmyzj+cuxyda2Y8ZpbDhIHVQjP55Sfc9XwmPk4Tst7ZuZws62K4/3GUi/ck5fg9zvH+wQIEFgmgcgB28og75gljEBzlvquTYAAAQIECBAgQGD+BPJMvwd2T7YUua27ysFiLhZTwsCuAql83XoIuNV7i6XJZfyTzIwcdP0clMZS82gxs7VcLxvGZ3kPzHL8oP7zZx8cuVT1+/T+k/mjoT/nAjp5DHmp/NBOJjgglvcXi3itz1idoEunECBAYKEEmnLACDgnaQLNSdScQ4AAAQIECBAgQIBAJwJtFItpa2A5NCvBYt4TctK9H4eNLy/TLtcdds6on+e9Lh/ac3TU00Y6LleFL3tR5mX7b356flM/TcdvOmDAL7nfPHt2wCnVR3l2Zw4YY0l4l+3A8SubAs0uZt92OX59EyBAYKsCAs2tCjqfAAECBAgQIECAAIG5FMhhXuz1OMuWxxKV16PlQLCrGXb5um1fI4dquRp5G84RvpaAMGZBRsvv5cJK8VnMrCzHH/zyylhDyOdG8DxOy6F0uX68RnX5LlsUuMrXy/uydnldfRMgQGBeBASa8/IkjIMAAQIECBAgQIDANhGIvRAffvkfvZhVNu5+h+MQNc2KHOf8No89cvZaFUCVYDGHjY+/81Wbl6v66jI0jVmSJVSrLwGvBjDhD3mPyChsFC2MyvXCLre8f2U97Izjoo+YBdtU5CZXDC+zQXPfw34uY8qv4wajw65R/zwKAOXrxfdLI0CAwHYSEGhup6ftXgkQIECAAAECBAjMWCACzFyoJ0KmejjV1hBz4DbuUuK2xlD6yTP5IsyNlvdfbHs5eNN1Y4/HNtuOD76uQrW2ZwjmPSJLWProa8eq60VQm9uwZeO5yFB9rLmg0CSVyXOl+hIyHjvXfcBY7in+nmK/WI0AAQLbSUCguZ2etnslQIAAAQIECBAgMGOBWA5cQp/8GjPs2p6tGUFYuUYEZLNsEZSVsZT9MvevXazea5o52MZ4m67bRr/Rx2/eOl6N/9DJzTMmt3qNvJy97EeZg8OYoZhbtqzvJ5n3Uo1nEEFgLNmOdvPWRmGjeH+Slmd4lmc8jYAxAvsoJtXVd2cSC+cQIEBgWgICzWlJuw4BAgQIECBAgAABAuvLzEvoU39te7Zm3nMxlrnPupX7vff5tfWh5FmFrxw819nwynXbrvSeZzZ++93PlcjbuommJfrlPuK13uL5ls/rs11zOFqOiSrqEaDnJfmTzmCNwLX0G69dVayv37PfCRAgsJ0FBJrb+em7dwIECBAgQIAAAQJTFojQqIQ/Masuh47l/abXCAFf/2S80G8rla+7YLln5+fVvUf/MZOw3GvTvo9tjaFcI17bahEGln7jvtpuEZCW/iPozntGlhmu+Zp5P9KyR2n5PL43pa/8GkFknjE86T6meb/P6D+WxmsECBAg0K2AQLNbX70TIECAAAECBAgQIPCLQF7+HMFPWZYboVLMHsxhU9PPsVdgfanxINyH9myEp7GH5axbfcl0DnNjFmFXLc+kbOsaucp22RO0rb5LP+U7EM89Lxt/5JXbA8Mzl29U35/6ePIMyhxyR//RV7lOfal6Gcew17zfZ/RVnyE67HyfEyBAgMD4AgLN8c2cQYAAAQIECBAgQIDABAK5CE49lIpw85k/nVrf37AETE2vMatz1BZLf0sfsVfirFuenRoBa96DsqvCSHHPOUiNULmNlpd4P7XvRBtd3tZHHnf+7jTNpIzvT3nW9RmcEXCWz6JYTw44y/vxWqqp3zaQIW/Ul7SPO5N4SPc+JkCAAIEGAYFmA4q3CBAgQIAAAQIECBBoXyDPSBynkEku+NIUZjWN9NaPG8Veyp6VTcdN8708OzCCtVy1O2YYdtXqQWob18nLuMd5luNcO/vk5fn9ZkDmcDJfp1QDj89jqXz8iz008/Hxc8wUnqTl2arRzzzs1zrJfTiHAAECiyQg0Fykp2WsBAgQIECAAAECBBZYIM+4+/uJf418J3mpeoRTEUgNazEDsgRWEV7NQ3ty71fVmGJGZvZoa+Zk033mIDWK4LTRcjg9zqzZca4dMz/LM8z3EMWUmlr2LNsZ5KXqeeZmhJA56IzrTGqT9/eMfkoF9aYxeo8AAQIE2hEQaLbjqBcCBAgQIECAAAECBAYI5D0OI0gadwn4Y2/8swq3YvnxsLZ2+mp1fIRh89ByCBj3UC8S1NUYcxjY1tL2PHsyKpJ30fKszLwPaOxZ2dTy0vIy4zUvB6/P7t23eqH6jsQ+neN+J/MYSjga/YwSuOdz/UyAAAEC4wsINMc3cwYBAgQIECBAgAABAmMK5PBokoDxzU/PV+HT0/tPDr16DrJGOX5ohy0ckAO6qGpeZh/GXp9dtrj/cq22As28P+k4hZrGuc+8rL2MP177LeluCm5zH7s/PnPb5eO96HPSgkClw/h+hklXy+/LdbwSIECAwM8CAk3fBAIECBAgQIAAAQIEOhfIhVheOXhu7OvlGZ4xs3HYbLocoDYFWWMPoIUTYql0CeZ2fPB19XNeCt3CZW7rIs8M/eDIpds+H/eNXICny/1JY6zFK7/2C2XzfZbQM3/vIkTWCBAgQGA5BASay/Ec3QUBAgQIECBAgACBuRaI4KuEUpMuUc5Lig+d/G7g/ebwcF6qTsdS6WJQ3x9y4M1s8cP6zNAtdteLgkblPurV6rfadz4/gstynfwa+6M2tXyfZV/P/J2JcWsECBAgsBwCAs3leI7uggABAgQIECBAgMDcCuQq0DG7MiqQT9L2HDhbBVzP/OnUwC7i8xKCzcvMvLzMPFfZru/tOPDGJvgwh7tvH2ref3KcbmP/z2IbMyC7armwU7levPbbozLfZ/wcrextOei8rsavXwIECBDoTqDVQHNlZaU3q39NN9Idm54JECBAgAABAgQIEBhVIO9jGJW+J205GI0iMYNahIQlBOu3RHnQ+V18dvDLK9WYctAWS6W7bLHEv1iUoG8r18vBchv99RtLbCtQxl1eIxDv13JgvPPD071+Fc77ne99AgQIEFgcgcgB28og75jlbQs0Z6nv2gQIECBAgAABAgT6C/z27S+rYGqrMwRjv8kSbkUl834tlkKX405c+L7fYVN9v98S6q4LyeSgr40AMu9LOUrF+a0g5+JD8TwH7TeaA+MohJQLQ3U9C3Yr9+hcAgQIEBhfoCkHjIBzkibQnETNOQQIECBAgAABAgSWWCBm2cWsuhIuxqy5rbS8T+KgYj85+OyqCve495FnDBaPeJ2kSNI4186BZhuzQXNY3PW+lHkPzLCKSub9WgTcxTWOyzODB31X+vXnfQIECBCYXwGB5vw+GyMjQIAAAQIECBAgsPACeVbisGXio9xsDq1iH8p+rQRbdz272u+Qqb/fb0/ICBy7bHnmYhuBZi7wFBXPu2x5dm880yim1K9l31/94WgvzyTt2rjfmLxPgAABAt0ICDS7cdUrAQIECBAgQIAAAQK9Xi+WOJdwMZYBb7VFQaG8DDn21ay3S9d+qK45aIly/byuf2/aEzJsYml0ly2Hyltdeh2zXcvzjOfQdcvFneK6sTdmvxbFgsrYIjzPszu7nknab0zeJ0CAAIFuBASa3bjqlQABAgQIECBAgACBXq/36Gsbe1m2NUsuh1xNy7Vjz8wSbMX156mVceXXrosWHTl7rfIYtGR7FKc8Q3YatjkQD7Nhe4DGjNximwsv9auMPso9O4YAAQIE5k9AoDl/z8SICBAgQIAAAQIECCyFQMxIzAFTLAluo+Ul1DELr94OnfyuCrW2UlW93m8bvz+we6OoUQnezly+0UbXffvIS7G3GkLuX7tY2Uaw3HXL+3+G17BQPO+dWnznaZZu1176J0CAwHYREGhulyftPgkQIECAAAECBAhMWSAvdX5oz9HWrl4vNFQPSnMINo3QbZwbawrcYol8ly0HmlsN96IiewkKo+hO1+3vJ/5VXS+uG2H2oJYLFpVxbnWZ/aDr+YwAAQIEZiMg0JyNu6sSIECAAAECBAgQWHqBXGW6jWI0GSwXfHn70Lf5o/Wq4SXMGrZEedOJU/jlsTf+uSmgi3F23fLenVsNNKMoT7H9y7HLXQ+9l7cPiOsO2wvzN28dr8ZXxqnCeeePyQUIECAwdQGBZiJ/9dVXe3feeWcvXkt75JFH1t+rv18+90qAAAECBAgQIECAQLNAzIwroVIsVW6zfXDkUtV3VLTOy7Z3fXS6+qzt6271HmIPy2ISr9MorBNjztds6+emgkxb9amfH1XU83jrs3Hrx0dwno+Pn4ctU6/34XcCBAgQmH8BgWZ6Rvfff3/viSeeqALNCDYj0Ix2+PDh9WAzHe5HAgQIECBAgAABAgQGCNz7/FoVLp26+P2AI8f/KIq85KIvsVdnhFkRbObZm8OWKI9/5a2dUQ/ctjpjctTR5GdRD/wm+T28p1Vo556dn69/j+Kaw1peEl/ua9iszmF9+pwAAQIE5k9AoPnLM3nuuefWg8wcaEaYWZ+t+f7778/fUzQiAgQIECBAgAABAnMmkJcKR5jWRYul5iW0Kq8RepUALN6LCt/z1OqB5larjo96b7H8PwfAxWuS1zCO4HBabd/qhfWZrKNsH5C3OSj3Nq3gdVoerkOAAAECvZ5A85fZlzE7M1o90MwBZv7Ml4cAAQIECBAgQIAAgf4CEUKVQKnLSuOx7Dn6L9eqvw5botz/Drr5JEK5PEYFa9p1zgWhwnlaM2DbvQu9ESBAgMAwAYFmr7e+rLwElznQHvB9AAAgAElEQVS0jBma5f2AzJ8Ng61/fv78+fX0OMD9Y+A74DvgO+A74DvgO+A74Duw7N+B//zGz8uEI1Tase/zzv/fwO/9ba332Murm8LC//BfP+v8uuM+x2f2briETTiN24fj+//3462PN7Y5CN//9DJf35f+3xc2bHwHZvsdiKxs0hbPrt5WVlbqb430+x0jHdXRQU03MuqlouBP/V8sQbfkfFRBxxEgQIAAAQIECBDYLPDgS0eqcHHt9NXNH3b4W5mxGcurd354usMrTdZ1fQbhNJduTzbixTorthiIILP8U+F8sZ6f0RIgQGBUgaYccNsFmhkrz8IsoWZ8rihQVvIzAQIECBAgQIAAgf4Cl679UAVKESzevPVT/4O32Se5OnuEbq8cPLfNBLq93dhioISZ8arCebfeeidAgMCsBASaNfkcaMZHsbdmmb2Zl5/XTvMrAQIECBAgQIAAAQK/CBw4fqUKlR597RiXJLD69XeVjcAtwbT0Y4TnOdBU4bwlWN0QIEBgzgQEmnP2QAyHAAECBAgQIECAwKIL7ProdBUqWfK7+WnWl0RH+Ku1K1CquUc1dhXO27XVGwECBOZFoNVAM9aqz+pf043MC7JxECBAgAABAgQIENhOAjErs8ySE9htfvL1JdExY1NrV+DNT8/37tu11rM/abuueiNAgMA8CUQO2FYGubBFgebpgRgLAQIECBAgQIAAgUUWiCW/MTOuBJpXrt9a5Ntpfex5f9EwOnP5RuvX0CEBAgQIEFh2gaaJjdu6KNCyP3D3R4AAAQIECBAgQKBLgbxH5EN7jnZ5qYXtu4S98RoBp0aAAAECBAiMJyDQHM/L0QQIECBAgAABAgQIDBB4/ZNz1ezM3793asCR2/eje59fWzeKvR41AgQIECBAYHwBgeb4Zs4gQIAAAQIECBAgQKCPwOPvfFUFmvvXLvY5anu/HXs83v/CF71XDp7b3hDungABAgQITCgg0JwQzmkECBAgQIAAAQIECNwuUGYfxnLqUxe/v/0A7xAgQIAAAQIEtigg0NwioNMJECBAgAABAgQIEPhZ4MSF76vZmRFsagQIECBAgACBLgQEml2o6pMAAQIECBAgQIDANhTYt3qhCjSf3PvVNhRwywQIECBAgMA0BASa01B2DQIECBAgQIAAAQLbQCCKAJUK3lEcSCNAgAABAgQIdCEg0OxCVZ8ECBAgQIAAAQIEtqHAgy8dqQLNtdNXt6GAWyZAgAABAgSmISDQnIayaxAgQIAAAQIECBBYcoFL136owsy7d6z2bt76acnv2O0RIECAAAECsxIQaM5K3nUJECBAgAABAgQILJHAgeNXqkDz0deOLdGduRUCBAgQIEBg3gQEmvP2RIyHAAECBAgQIECAwAIK7ProdBVo7v74zALegSETIECAAAECiyIg0FyUJ2WcBAgQIECAAAECBOZYIGZlloJAMVtTI0CAAAECBAh0JSDQ7EpWvwQIECBAgAABAgS2icD1mz/27np2tQo0r1y/tU3u3G0SIECAAAECsxAQaM5C3TUJECBAgAABAgQILJFA3j/zoT1Hl+jO3AoBAgQIECAwjwICzXl8KsZEgAABAgQIECBAYIEEdnzwdTU7c+eHpxdo5IZKgAABAgQILKKAQHMRn5oxEyBAgAABAgQIEGhJ4M1Pz/f+/cXDvRf/enbiHh986UgVaB780v6ZE0M6kQABAgQIEBhJoNVAc2VlpTerf003MpKAgwgQIECAAAECBAhsU4FL137YtPflKwfPjS3xzZWbVZgZ+2jGfpoaAQIECBAgQKBLgcgB28og7+hyoMP6FmgOE/I5AQIECBAgQIAAgc0Cr39yrgojS4XyPx+9vPmgIb/tW71Q9fHrN48POdrHBAgQIECAAIGtCzTlgBFwTtIEmpOoOYcAAQIECBAgQIDAjARiqXkJMsvr3TtWe2unr448oqf2naj6mGSG58gXciABAgQIECBA4BcBgaavAgECBAgQIECAAIFtKPD3E/+qgsj7dq31ojp5CTXvf+GL3pnLN4aq3Prxp969z69V5x05e23oOQ4gQIAAAQIECGxVQKC5VUHnEyBAgAABAgQIEFhAgTyzcvfHZ9YDzAgyS6gZAefVG7cG3lkEmOX4CDY1AgQIECBAgMA0BASa01B2DQIECBAgQIAAAQJzJFAvBnTq4vfro4ul5rHkvISUsSdmzMLs1/74t2+qY3/37ol+h3mfAAECBAgQINCqgECzVU6dESBAgAABAgQIEJh/gVwMqF7IJ4oClUAzXn//3qm+N/TYG/+sjt2/drHvcT4gQIAAAQIECLQpINBsU1NfBAgQIECAAAECBBZAIBcDaqpqHsV9cqi5+vV3t93V9Zs/9u56dmM25zdXbt52jDcIECBAgAABAl0ICDS7UNUnAQIECBAgQIAAgTkVqBcDunmreUn54+98VYWaj7xy7La7OXD8SvV57LepESBAgAABAgSmJSDQnJa06xAgQIAAAQIECBCYA4F6MaB+Q4oq53kGZn0m544Pvq4CzZ0fnu7XjfcJECBAgAABAq0LCDRbJ9UhAQIECBAgQIAAgfkU6FcMqN9oc2j54EtHNhUIit/LsvSDX17p14X3CRAgQIAAAQKtCwg0WyfVIQECBAgQIECAAIH5FBhUDKhpxBGA3rPz8yq4fPvQt+uHxX6ZJcyMWZyxn6ZGgAABAgQIEJiWgEBzWtKuQ4AAAQIECBAgQGDGAsOKATUN749/+6YKL+/btda7euNWb9/qheq9epX0pj68R4AAAQIECBBoU0Cg2aamvggQIECAAAECBAjMqcCoxYDqw4/Zl/e/8EUVYO45cLaX9+GMiugaAQIECBAgQGCaAgLNaWq7FgECBAgQIECAAIEZCeQQcvfHZ8YaRZ6RefeO1d69z69VAeeRs9fG6svBBAgQIECAAIGtCgg0tyrofAIECBAgQIAAAQILIBBBZNn38tTF78ca8a0ff+rlIkClnwg2NQIECBAgQIDAtAUEmtMWdz0CBAgQIECAAAECUxaIALOEkLGP5iTtwPErVR+lr9+9e2KSrpxDgAABAgQIENiSgEBzS3xOJkCAAAECBAgQIDD/An85drkKIx9/56uJB/zYG/+s+olQc//axYn7ciIBAgQIECBAYFKBVgPNlZWV3qz+Nd3IpCjOI0CAAAECBAgQILBMArlS+bj7Z2aHtdNXNwWa31y5mT/2MwECBAgQIEBgKgKRA7aVQd4xlRH3uYhAsw+MtwkQIECAAAECBLa9QC4I9MGRS1vyePGvZ3v37Py8t5VgdEsDcDIBAgQIECCw7QWacsAIOCdpAs1J1JxDgAABAgQIECBAoGOBX/3haDWz8vj56x1fTfcECBAgQIAAgW4FBJrd+uqdAAECBAgQIECAwEwFbt76qQozY9/L+F0jQIAAAQIECCyygEBzkZ+esRMgQIAAAQIECBAYIhAzMktV8of2HB1ytI8JECBAgAABAvMvINCc/2dkhAQIECBAgAABAgQmFvjz0Y0K57GXpkaAAAECBAgQWHQBgeaiP0HjJ0CAAAECBAgQIDBAIIr3lBmaUe1cI0CAAAECBAgsuoBAc9GfoPETIECAAAECBAgQGCDw+DtfVYHmX45dHnCkjwgQIECAAAECiyEg0FyM52SUBAgQIECAAAECBCYS+PcXD1eB5okL30/Uh5MIECBAgAABAvMkINCcp6dhLAQIECBAgAABAgRaFLh+88cqzLx7x2qLPeuKAAECBAgQIDA7AYHm7OxdmQABAgQIECBAgECnAkfOXqsCzYdf/ken19I5AQIECBAgQGBaAgLNaUm7DgECBAgQIECAAIEpC+xbvVAFmr97V4XzKfO7HAECBAgQINCRgECzI1jdEiBAgAABAgQIEJi1wK6PTleB5pufnp/1cFyfAAECBAgQINCKgECzFUadECBAgAABAgQIEJg/gd+8dbwKNA9+eWX+BmhEBAgQIECAAIEJBASaE6A5hQABAgQIECBAgMAiCNy3a60KNL+5cnMRhmyMBAgQIECAAIGhAgLNoUQOIECAAAECBAgQILB4Aleu36rCzHt2fr54N2DEBAgQIECAAIE+AgLNPjDeJkCAAAECBAgQILDIAqtff1cFmo++dmyRb8XYCRAgQIAAAQKbBASamzj8QoAAAQIECBAgQGA5BN4+9G0VaO744OvluCl3QYAAAQIECBDo9XqtBporKyu9Wf1ruhFPmAABAgQIECBAgMB2FYgQ89+e+Wz9X4SbGgECBAgQIEBgWQQiB2wrg7xjligCzVnquzYBAgQIECBAgMC8CcQy8xJoHjr53bwNz3gIECBAgAABAhMLNOWAEXBO0gSak6g5hwABAgQIECBAgEAHAvc+v1HhPAoEaQQIECBAgACBZREQaC7Lk3QfBAgQIECAAAECBH4R+ObKzWp25n271rgQIECAAAECBJZKQKC5VI/TzRAgQIAAAQIECBDo9Q5+eaUKNH/95nEkBAgQIECAAIGlEhBoLtXjdDMECBAgQIAAAQIEer03Pz1fBZq7PjqNhAABAgQIECCwVAICzaV6nG6GAAECBAgQIECAQK/39P6TVaC5b/UCEgIECBAgQIDAUgkINJfqcboZAgQIECBAgAABAr3ewy//owo0j5y9hoQAAQIECBAgsFQCAs2lepxuhgABAgQIECBAYLsL3Lz1U+/uHatVoHn1hgrn2/074f4JECBAgMCyCQg0l+2Juh8CBAgQIECAAIFtLbD69XdVmPnQnqPb2sLNEyBAgAABAsspINBczufqrggQIECAAAECBLapwOufnKsCzd+/d2qbKrhtAgQIECBAYJkFBJq/PN3777+/d+edd67/e//996tn/sgjj1Tvv/rqq9X7fiBAgAABAgQIECAwjwKPv/NVFWjuX7s4j0M0JgIECBAgQIDAlgQEmr1eL4LKElbGa4Sb0eLnCDSjHT58eD3YXP/F/4cAAQIECBAgQIDAnArc+/xaFWieuvj9nI7SsAgQIECAAAECkwsINGt2EVyWQDPCzBJ0xmHxe569WTvVrwQIECBAgAABAgRmKnDiwvdVmBnBpkaAAAECBAgQWEYBgWbtqT733HO9J554Yv3deoAZ7+eAs3aqXwkQIECAAAECBAjMVGDf6oUq0Hxy71czHYuLEyBAgAABAgS6EhBoJtn6snKBZsLxIwECBAgQIECAwNwLRBGgf3vms/V/URxII0CAAAECBAgso4BAMz3VKAoUoWZpbS45P3/+fC+w/WPgO+A74DvgO+A74DvgO+A70NV34IEXVqtA83/+dc3/29P/+9t3wHfAd8B3wHfAd2BuvwORlU3a4v8tVW8rKyv1t0b6/Y6RjurooKYbGedSEWbW98eM5ecRakarz94cp2/HEiBAgAABAgQIEOha4NK1H6ow8+4dq72bt37q+pL6J0CAAAECBAjMRKApB5w40IwTZ/Wv6UZGFY29MSPQzP9KuBkFgsr75b1R+3UcAQIECBAgQIAAgWkJHDh+pQo0H33t2LQu6zoECBAgQIAAgakLRA7YVga50DM0py7vggQIECBAgAABAgRaFNj10ekq0Nz98ZkWe9YVAQIECBAgQGC+BJomNk48Q3OWt9Z0I7Mcj2sTIECAAAECBAgQmKZAzMosBYFitqZGgAABAgQIEFhWgaYcUKC5rE/bfREgQIAAAQIECCylQOyXedezGwWBrly/tZT36aYIECBAgAABAiEg0PQ9IECAAAECBAgQILDgAqtff1fNznxoz9EFvxvDJ0CAAAECBAgMFhBoDvbxKQECBAgQIECAAIG5F3j9k3NVoPn7907N/XgNkAABAgQIECCwFQGB5lb0nEuAAAECBAgQIEBgDgQef+erKtDcv3ZxDkZkCAQIECBAgACB7gQEmt3Z6pkAAQIECBAgQIDAVATufX6tCjRPXfx+Ktd0EQIECBAgQIDArAQEmrOSd10CBAgQIECAAAECLQicuPB9FWZGsKkRIECAAAECBJZdQKC57E/Y/REgQIAAAQIECCy1wL7VC1Wg+eTer5b6Xt0cAQIECBAgQCAEBJq+BwQIECBAgAABAgQWWCCKAP3bM5+t/4viQBoBAgQIECBAYNkFBJrL/oTdHwECBAgQIECAwFILPPjSkSrQXDt9danv1c0RIECAAAECBEJAoOl7QIAAAQIECBAgQGBBBS5d+6EKM+/esdq7eeunBb0TwyZAgAABAgQIjC4g0BzdypEECBAgQIAAAQIE5krgwPErVaD56GvH5mpsBkOAAAECBAgQ6EpAoNmVrH4JECBAgAABAgQIdCyw66PTVaC5++MzHV9N9wQIECBAgACB+RAQaM7HczAKAgQIECBAgAABAr23D33b+/cXD/de/OvZkTRiVmYpCBSzNTUCBAgQIECAwHYQEGhuh6fsHgkQIECAAAECBOZe4NaPP/ViH8wSUO5bvTBwzH8+erk6Ns65cv3WwON9SIAAAQIECBBYFgGB5rI8SfdBgAABAgQIECCw0ALHz1/fFFBGuBnvNbUzl2/07tn5eXX879490XSY9wgQIECAAAECSynQaqC5srLSm9W/phtZyifmpggQIECAAAECBJZSYP/axSqgLLM0H3zpSO/6zR833W9UMn/45X9Ux8YS9as3zM7chOQXAgQIECBAYKkFIgdsK4O8Y5ZSAs1Z6rs2AQIECBAgQIDAVgV2frhR4KcEmvFan32544OvqzDzrmdXe8fOXdvqpZ1PgAABAgQIEFgogaYcMALOSZpAcxI15xAgQIAAAQIECBDo9XqPvLJR4CdCzBxqlv006/tmRhEhjQABAgQIECCw3QQEmtvtibtfAgQIECBAgACBuROoFwSKJeQ51Iz9NP9y7PKmfTOf3PvV3N2HAREgQIAAAQIEpiEg0JyGsmsQIECAAAECBAgQGCCQCwLFvpnRYu/M+DnP1Cw/2zdzAKaPCBAgQIAAgaUXEGgu/SN2gwQIECBAgAABAvMukAsCPbVvo2J5BJ0xO7MEmfFq38x5f5rGR4AAAQIECHQtINDsWlj/BAgQIECAAAECBIYI5IJAb356ftPRsX9mDjTtm7mJxy8ECBAgQIDANhQQaG7Dh+6WCRAgQIAAAQIE5ksgFwQ6dPK72wa358DZ3r3Pr/Ve/OvZ2z7zBgECBAgQIEBguwkINLfbE3e/BAgQIECAAAECcyXQVBBorgZoMAQIECBAgACBORMQaM7ZAzEcAgQIECBAgACB7SXQVBBoewm4WwIECBAgQIDAeAICzfG8HE2AAAECBAgQIECgVYF+BYFavYjOCBAgQIAAAQJLJCDQXKKH6VYIECBAgAABAgQWT2BQQaDFuxsjJkCAAAECBAh0LyDQ7N7YFQgQIECAAAECBBZQ4IMjl3pRrGfXR6d712/+2NkdDCsI1NmFdUyAAAECBAgQWFABgeaCPjjDJkCAAAECBAgQ6E4gCvXcs/Pz3r8989n6v39/8XBv9evbq49vdQQKAm1V0PkECBAgQIDAdhQQaG7Hp+6eCRAgQIAAAQIEBgrkQj0l1IzXWB7e5mzNfJ0HXzoycEw+JECAAAECBAgQ+FlAoOmbQIAAAQIECBAgQKAmkAv15EAzfm5ztma+zlP7TtRG4VcCBAgQIECAAIEmAYFmk4r3CBAgQIAAAQIEtrVALtSz58DZ3u/fO1UtPy8BZxuzNfN13vz0/LY2d/MECBAgQIAAgVEFBJqjSjmOAAECBAgQIEBg2wg0Feo5+OWV3gO7D28KNrc6W7PpOtsG2Y0SIECAAAECBCYUaDXQXFlZ6c3qX9ONTGjiNAIECBAgQIAAgW0sMKhQz9Ubt1qbrTnoOtuY360TIECAAAECBIYKRA7YVgZ5x9CrdXiAQLNDXF0TIECAAAECBLaRwCiFetqYrTnKdbYRu1slQIAAAQIECIws0JQDRsA5SRNoTqLmHAIECBAgQIAAgbkSGLVQT7/ZmrHf5pnLN4be06jXGdqRAwgQIECAAAEC20xAoLnNHrjbJUCAAAECBAgQGCwwbqGeptmadz27ur40fVCwOe51Bo/apwQIECBAgACB7SMg0Nw+z9qdEiBAgAABAgQIjCAwSaGefrM1BwWbk1xnhOE7hAABAgQIECCw9AICzaV/xG6QAAECBAgQIEBgVIGtFuqJfTGf3PvVpkro//bMZ70INnd9dLoX/Ufb6nVGvR/HESBAgAABAgSWUUCguYxP1T0RIECAAAECBAhMJNBWoZ5+weav3zzeu3Tth15b15noJp1EgAABAgQIEFhwAYHmgj9AwydAgAABAgQIEGhPoO1CPRFcPv7O5hmbD+w+3Mv7Zz6170R7N6AnAgQIECBAgMA2EBBoboOH7BYJECBAgAABAgRGE8hB45ufnh/tpBGOiqA0lp3H8vP6vzavM8JQHEKAAAECBAgQWHgBgebCP0I3QIAAAQIECBAg0JZAl4V6jpy91rv/hS9uCzQPnfyureHrhwABAgQIECCwLQQEmtviMbtJAgQIECBAgACBYQLTKNQT+2c++tqxKtSMWZtRIV0jQIAAAQIECBAYXUCgObqVIwkQIECAAAECBJZYYFqFeiI4jaXtEWbuW72wxKJujQABAgQIECDQjYBAsxtXvRIgQIAAAQIECCyYQNsFgRbs9g2XAAECBAgQILAwAgLNhXlUBkqAAAECBAgQINClQFcFgbocs74JECBAgAABAttRQKC5HZ+6eyZAgAABAgQIELhNoMuCQLddzBsECBAgQIAAAQITCwg0J6ZzIgECBAgQIECAwLIITKMg0LJYuQ8CBAgQIECAwKwFBJqzfgKuT4AAAQIECBAgMHOBaRUEmvmNGgABAgQIECBAYAkEBJpL8BDdAgECBAgQIECAwGgCez/7tvfgS0d6rxw8t+kEBYE2cfiFAAECBAgQIDDXAq0GmisrK71Z/Wu6kbmWNzgCBAgQIECAAIGpCly69kPvrmdXe//2zGfr//5y7HJ1fQWBKgo/ECBAgAABAgTmXiBywLYyyDtmebcCzVnquzYBAgQIECBAYP4FXv/kXBVmRqh57/NrvW+/u7k+cAWB5v/5GSEBAgQIECBAoAg05YARcE7SBJqTqDmHAAECBAgQIEBgKgL//uLhTYFmhJq/fvN47+atn3p379iYuXn1xq2pjMdFCBAgQIAAAQIEJhMQaE7m5iwCBAgQIECAAIEFEvj7iX9VYWbMzMxLz3/37onqs9hfUyNAgAABAgQIEJhvAYHmfD8foyNAgAABAgQIEGhB4Kl9G6Hl7o/P9N789HwVYpY9NeM1jtMIECBAgAABAgTmW0CgOd/Px+gIECBAgAABAgS2KFAvBnTq4vfrPf7mreO3hZoRdGoECBAgQIAAAQLzLSDQnO/nY3QECBAgQIAAAQJbFMjFgGLPzNKiINB9u9Y2hZqHTn5XPvZKgAABAgQIECAwpwICzTl9MIZFgAABAgQIECDQjkAuBvTno5c3dXrg+JVNgaaCQJt4/EKAAAECBAgQmEsBgeZcPhaDIkCAAAECBAgQaEMgFwOK2ZhR0bze/vi3b9ZDzZ0fnq5/5HcCBAgQIECAAIE5FBBozuFDMSQCBAgQIECAAIF2BOrFgNrpVS8ECBAgQIAAAQKzFBBozlLftQkQIECAAAECBLYkEPtjPrTnaG/XR6d712/+uKmvfsWANh3kFwIECBAgQIAAgYUTEGgu3CMzYAIECBAgQIAAgRDY+9m3m/a/jL0yV7/eKOrTrxgQPQIECBAgQIAAgcUWEGgu9vMzegIECBAgQIDAthQ4+OWV3l3Prm4KNP/tmc+qvTBjtuagYkDbEs1NEyBAgAABAgSWRECguSQP0m0QIECAAAECBLaLwPHz13v37Py8CjMffvkfvQd2H65+j2AzCgCVgLNfMaDt4uU+CRAgQIAAAQLLJiDQHPJEn3jiid6dd965/u+5554bcrSPCRCYhcCZyzd6v3/v1PpMnHiN3zUCBAgQuF2g/Pfy3uc3wr4S+sV7s/5vaBlfzKzsN5bYF/P+F76owso4Nt67euPW+jnlfvLr7o/P3I7hHQIECBAgQIAAgYUVEGgOeHTvv/9+7/7776+OiGDz8OHD1e9+IEBgtgLl//CtLzmM3/v9H8KzHbGrEyBAYDYC/f57mUO/8vMs/hvab3z1scQy8piNWcYaszRPXfx+E2osRa/P1qwfs+kEvxAgQIAAAQIECCycgEBzwCOL2Zl5Vmb8/uqrrw44w0cECExDoN//4Vv+D9zyWv8/hKcxNtcgQIDAPAmM+t/L8t/N/DqN/4aOOr4ylt++/WUVZsZ7h05uFADK7jFb85k/nVrfY/PtQ9/mj/xMgAABAgQIECCwBAICzQEPsR5gRriZA84Bp/b96M9HL29aJpX/Dwc//7yRPwcOk3wHntz7Ve/A8Su9eJ3kfOf43vkO+A5sl+9A/Hcy9qCst3hvHv4bOup/z/evXazfgt8JECBAgAABAgS2iUCrgebKykpvVv+abmSrz7DNQPP8+fO9GOP/9n83V+PcLv9HlPsUGLT9HXjs5dXee39bW//7ir+x+Be/x/ttX0t/vr++A74Di/wdaPrvZfnvZn6d1X9Dm8bXbyxP/z+fb/rvfh6/n3/+/xdy4OA74DvgO+A74DvgOzDv34HIyiZtcW9tZZB3TDqINs6LG2m7WXLetqj+CBAgQIAAAQIECBAgQIAAAQIECGxNoCkHjIBzkrZ0gWbsl6ko0CRfBecQIECAAAECBAgQIECAAAECBAgQ6EZAoDnE9ZFHHulFdfP4pyDQECwfEyBAgAABAgQIECBAgAABAgQIEOhYQKDZMbDuCRAgQIAAAQIECBAgQIAAAQIECBBoT0Cg2Z6lnggQIECAAAECBAgQIECAAAECBAgQ6FhAoNkxsO4JECBAgAABAgQIECBAgAABAgQIEGhPQKDZnqWeCBAgQIAAAWOi9joAACAASURBVAIECBAgQIAAAQIECBDoWECg2TGw7gkQIECAAAECBAgQIECAAAECBAgQaE9AoNmepZ4IECBAgAABAgQIECBAgAABAgQIEOhYQKDZMbDuCRAgQIAAAQIECBAgQIAAAQIECBBoT0Cg2Z7lwJ7ef//93nPPPdf79a9/3XvkkUd6Tz/9dO/VV18deM6wDw8ePNiLfg8fPjzs0OrzODYfv3v37vVxxes333xTHTfKD3H9uKf4F+fH7221SW3iHsIk/o3bsmX0U+5rXJem60bfk/rEefF9GaeF36SG+Tpx7/Fs4/rxvY3vb7jk71A+fpSfJ3lGcU72e+edd6rv3rhjiePL9z7uZZLvSr/7jDHmcfY7run9OC9/B5uOaXqvfs1yb+O6NPUdfYT1pO3/b+8Okh7JbSwAzzW99NZL38O3663P0hNfVbwIDJuikFLKJdcAEWkySQJ4eACZqey/2+rmCh/8vVtfwYpLtu48c9l0XTkTxJ/1Wphcr+zPWvf078hx+HoFD10YcHIlz/RwUbmk/yoviaG24gnvdbzTh+XqmQu7eN6V7IF//etfP85crT39aizwvJIj/mpOa+1drbvkFkdiqXbf5QuuV7mRr1qDXSzw1xjuPHPhqba7mLLOc/qK8PdufcWfPSfHMLje3RPymhzFR6elE8ElHK9g4T8x0X+n1oInLdvsvSJiEuPVfZhzID6zpytfmXulVUevCp5dXRGLnFzlYGdf/Gzd+a7wSo7EUuPJufLK/qx1T9/9XXIlT9Xnq/uZjVrv7MjXK7xUPOmz/So/9K6+K1yt9eBcWzzgYH6frczs7+XqnTzXGtx7+Ovo6lO+7jq3nBWvPkMg/ZW/z+wBPNz1riCe+aD51/q7fUTB/f3vf/9RPIo5LxES+c9//rPtz8P2b3/7259+4CgENtnQdjcpG3kYscG/ls2rWP7xj3/8iIkeu1p4HLIdgUM8Lno1BmMdwaeL2Ny4gCNXF4v4xUMPLq3NLi7Xu4Jj1zMRAy7qBUty3X1wRp8enfqS9AxDneebLdjVLa7ZY7d7kHoIWO9Kn118470j/GZtbMAECzvd+NiBg63UrJaNWn8nTGoKfjXKVs2rfr0/2eEzEk5xzWb2aOYftdZZT09M7Ign9h7pdcdxzXZHxG1tvWBLDXX45Q8vLna6PKz47jhz5RkOeYYDHvficXXPFhykPtmQn3AlTx0JFn7psinf8HRt8CMO8bhgqTkx1hH4o4fn2IIle7Rjp3LJjnuxiTFnesfOozXiU0/P5K4zt/IAf7c+Kj5YkltcwK/Fa62jqrPr8w8PLmuO2OjuKTaSTzjowqLe5Co1vfNfx3K+0oPHvVZ+uhypN/7FxLeYIt08s8F3BAa26LOdms78oxZ/1tPDj7jY1Rp/V3Ds6gi/cNQrdWisI3zhAnbxdPbMzm7qgj0cufRxbK4jqTNY0k+eUovP7Mgjn0R9scV/sNTaOdmK/5pbGNju7iH26ciJSz81z343R4mHvdQZXbF1sdivtTbo4RYv7HTr/8QZ+x2Rg1qz+mJ06Xdiwt9VnR02WFIjzjz3OIEDP11RJ8lxOGXjCrdsJHY2kh91cxULbtQKPXa18KT+nsUFh3hSM7U+unnGp4vk2QZHri6W7Dt6qVuxicv1ruDa9UzEgMN6wSTHxmDqSPRTd91n6Wqbb7ZgV7e4zvngviM552BJn131g/eO8Ju1sQETLOx042MHDrZSs1o2av2dMKkp+NUoWzWv+vX+ZIfPSDjFNZvZo5l/1FpnPT0xsSOe2Huk1x3HNdsdEbe19YItNdThlz+8uNjp8rDiS13AxIZLn11zr8p80HyVuQt6Ev/ocFFMnUKyRrJt1mz0PAwcAsY6AouiJLXvHpbMnWwFS9aILf613QPDZqIrDgUtvmyQ7gOTr/hbebiy4fgLn3jI4WysiwV2PneX2IIzvO1a3OJFLHLh0k9uOrXCbnLrQcIvm3LzqA53WPjmdyc157v5OsavGFI34QG3eOnERCd6tc+PAzBz1e+uj4c8XPl3T+DDWUeylj7sagVP7ldsJ3u1ruAID3jHS0dgTk7zkIheaib3j1p+dzVrjI0uL/Jsbeo29YMvffw8E+viT1z62TvJ2zMb5umFl3W9mML1Olfv4RYT3OwFlzWp6br+Ub/mufbZrfeP9I3DkjPJvVwbYwM/eOuIOsMLvVfPXDzEX+WBzbq/TnjoywORV3o5+5P3k37m8JDcrC2bwZn1u1YtWJs6paOf/dOpFXaTS+vlik1tV58N54eYdpKc7+bWMb75FUetD2PmOlLPstqnC4uxZ8JfPcvkVs0QbcdG1oaX1Ef2Q63HEx55tZYEl5olcMTej4HD/7ABA4GpxpeaOaj/mLrjXYEhuYRBbLnUYfrPcJhPbuuZIA4Yw0/HDr+79ca6NZfzJPlJfbCBZ+PPpOa59umldp7ZMA9LziT3OOHfJZ5drKvdrHXGucSTOFZsq269z9lijO/wwEatv6qz9vmue4jNPFONh+tVb71fz9l6X3GuevU+55J8iMFl/7n0g6vqrH3rsp+TV1yIo6Mfe3U/Zyxtcp77R6188K0m1A291IdYjXUEFnGR2nfPZuZOtoIla3AT/9puntUZXXHYB+LLfujmma/4W3kQX+wF66OWv/CJh5zVxrpY+OJzd6VuHvnPePazWOTCpZ/cZF9m/aM2uc2ZgGu5wXdX+OZ3JzXnu/k6xq8YUjfJF27x0omp5rn2+blytuAhe5d/9wQ+nHUka+nDrlbw5H7FdrJX6wqO8IB3vHQE5uQUD1UvNfPMDr+7mjXGRpcXebY2dZv6wZc+fp6JdfEnLv3sneTtmQ3zdT/X9TXndbzbnw+aXabeWKeQHh3cikGRPJNaSLVPb70/2bKh4SE2enApJFiyaU82+KsHaQqbzhUs9cCgCwO7MK1zj/DUA6r2rV/vH9kw7sDiPzzQJe67WHDHDj7wUC9cx+YJh7kcYA5A/q9wGts5uHKvxSt+5blz+MBh7U7YysG2m69jFUvtW7PeV73axwEs+OA7LzTW5IFc1z/q14N0zW03z7u6CrdXHt7VX+3Dvt4/ikfseWDq15zINd6eCR6sFVetWf28HDyzkXk2qt9ufqPPZ43BuFqVb3uru4dwISc7UUcdXmqea5/N9X7nJ2PiwSOpey/nRdadWv7UVqTW2RUsa10l97ha5+JrbWtOa9+69X7Vzb3Y1QnR5zs5qc+TrH/Uwp180q9XrcNH+hmHAfZ3ztyVP9zKDXxsd0Sd1LOt6lx5hlQstc/eel991D4uYRcHniuu7pnLRvLMds2tuS4vu7qCx7Wbq3GkX/3Vvvn1Pjq79o4zN3v/3XcFuQkHeaZ385vYducHPsSZ95msPbXWBkNdZ6yLqeay9tlb76uP2scJLDjmWw1H7C9xdYS/PFutr+dJF8uuruCC6cqztfJX+3Ct949i4y/PEH0c4YrU58kj/YyrNxyKbb26WNjCLU5hIbs6jM9du+NWvuETG3sdEcu77woVS+3zv96fMMGc+hRHcMmTmlE7z4S/O87cNZcwsAvTOvcIU81p7Vu/3j+yYTy1Gh7oEvddLHeduezY/++8K+zOD7ziV5535+jKT86Rddw9W3x0pGKpfbrr/SN7ag5u+eBb7UbUc/Z4xh61cskGWXPbzfOursLtlXOu+qt92Nb7R/GIPc8Q/ZoTucbbM8GDteKyvl54rTaf2WKj+u3mN3b5Xv29cubaz7saN9blNphqOx80Kxsf6ucgtcmz2VJYiqsr1tqYkq6N2CjsdcTmsN7hk0uB6tdD6JktWOKXbvzDZbwjDpfVZzZvt6j55T8xBAf/+t2DFJbwIQa4jImlGw+f0V3jh6ViW+d392zBBMd6iOzW1zHrHx2WxneHSdVPHw/Jb2Iw5kDKQZ21j9q8uMqtmOI7+8J4R/jnV+1pxajv6trApfVs0Q+vMLHZEWtxAn8Vsanbbp6tDYa13rtYcBtO5AUG9SrOrg0xiAUvq+weYOua9R4/2TdsPqrDVc/9yZ8cd2sutYWT1K0Wnl2cOyw1z3AlDjjkP/c73ToWbvlNruRdX746kvqU1+Q2/sV45Zyzvop4YFtrsK6pfditTwzBYY2xdV9U3dpnwxUu6SZH3XjYS91X2/rsVWzr/O5ePuDBMf0rcuKvm+fkIlykdu0n9aIOOgJ/8sxG5JUX4NSsFq7kDdaOWA8/HLgNnpxVHRv1GVLXixHvnTxbU2Oo+TUHY0fuOnPFnxxVv8l5HXvWhx/PdE91uLNz8qfeOtyyKx78qr3Y1M9+2vlex2qe2Uu95zzv1lxyJMf40Lrg655PsSEWeaIb/2Lq2pEXsVRJPLUG6/zarzGs+YWrI3mG8AmTvOqL7wovOaOSm+p7xVbndn22+K9nxG7dbiz4d3Psyl9Hkgs5Tt0GE1xdSZ7xUvOds69jB27r1VcuOdLfnRWPbFY+6YqHwNU95+ozJH6S+26e+eU/MQQHe/rd53zOEbbEgAtjYunGk/h3PMJSsSXeUwsHPHCI74pY/+hcNb7bWzv7Ykl+E4Mx+7lb/9apF7kVU3xnXxjvCP/8sqUVo35sd2zg0nq26IdXmNjsiLU4Wc9nsanbbp6tDYa13rtY8gwRk7zAoF7F2bUhZrGwscrpDFzX5h4/2TdsPqrDrK/tyZ866dYcHsSPh9StfvZT9XmlPx80r7D1xlrJdngnedpu8uOWjXWTxq72iihqxZlrtfvMFn+KUhzaCLuuruw2E9u78a7NrGPjCi84qDzIl+uKjfi+q+Ubxzb7FVFbd+HGY61bnFzJMdx4XfHAeDXPbNCp1xVerOVXPDW37NbcP7P5qM7ZuMrNzteVs4G/ymPiuwPHDlt3DCYPziu8ysOV2E9Y2JLjWrtXbe/yLJ565p0w1Dl6tW6v5sf6xFPzza5Yu1J1o0N/N575bnuVXz7DAwxy9Qq3XXyddcFx9cy9EzdbtW7dX8mxOHf5fOXsTm2wl6vDY9bQTzyVo93eis6ufVTnMF3lZrUPC/tdsb7y+y1nLn7zI7Abi7ivxH6yi5dat/pXbVu/5hO/le8ThjqXek272q1rd31YEo/YIlew8Lnj4GrNxffaXjlzYYE9PCS+K/Gs/u+4x0V+8HftieFK7Ce7bOXZmnxftc3GmufY1V4RfKRmtavdZ7b4u+PM3dUF27vxZ5jWeTau8IKDyoN8ua7YWDG8e8+3ern6rqC27sKNx9Ss9pVnPF5XPDBezTMbdOp1lWN+E0cwaWvun9m0f1yrsLEbX9c9u79yNmQvx2biuwNHbL7SytGv/H0m/lq3+ldyvIt5PmjuWJmxX86AQ/ldsWHf3SAw3IEFjnexONSvHKSP+GMjD4pHax6NiwGv7xzGfOeB98hPZzw2Xo2Fjzxs3s2Nl8f6Y72Df7fm6o/RnQ0vV+/G803cvoJFXmuN2sPrS9KOuzqmriqPeRFhp9quOrs+G6lRbR7iV+rlLix84/MduaPW8XeVx0eY8VvzlFxfyRF+8ZI8sQfflRzBx0b8JtfwxO6jGNbxWmswxOa67nRPJ1y8k/c7sIRPOGCq+TrFUOdwS99LuHPSOXc1P/LAP1022GLzKr93YKmx1T7br/BTbeiL8125C8vVPO1wv/PeEnvyz8678g4WucXr1ZqrmOnekRs2XFfPp4pF/473FjXybp3g9urHpTWWb+L2V2LBZepC65x0XckRvXqW1WfJlfq/A4s6dyYmpjXvnXuYX3lerLbvqHU2xVL3L56u5ogdejVPeLoaZ2o1sSbX8F0R61MbqbtX8hb/4SM2r2ChEy7YuRoLX2KQb/quV54dbMDxDe8td2F5lAdxviq3ftD8448//vxV1y6QV0kZvV/PwPon3q8gygHyim7V6WKx0f0Jt/X+nJr/yBUs/kk1Gy59donDtPvi6OEEAxv+jNshGmGjezD7wRccYmCTvrY+AGN71/JlvSt9PMElvo7gwHpYPBxgcM+OKxw9s+WwZIMOTvQTT/dFjR6desHiMta1kx/m1U7wGOuInFR9fTyLT7+TI2tgidBNLFfyzEb8VW7Z6ub5TizJA47EpIVDvyNqJbhTt2x4qRBT9wUJh1krJ3hK3ro/vu7CkvqCn83uvql8pd7EBX9iq2ue9fEJg4u95OqZ3jpPDw425Aoe/GqNdwUOdeFSu+5TN3jqCP+xAxdbwVP318lWzjm6/IshdtnqCszR5Zs9LXzZo89s3YUlfuEPDq2cdetPTsTDhtjcZw+x1ZX4pcsGW2yy7b4jd2F55As217tir78rV7CoeT5zxtQ662KhIxfWq9WaE/Xi3OiIPRMs+qkz+ux05C4s6h8WOPApPhi0laMTJnXKhvrFiX5sdM/O7Ge6dOjnvGI3HJ1wmBMP3XoFj7GOiKHq68Pi0u/E5Lmz2hBH+O2el+JJHiq3sMhZR+izE4EjsVzJ8zdhgTvPdjzDpn71u9yq23D4q9+hYE99wNQ9S5JTLZ2rdVr100/d4hiX4Tnz3RYWMbnUrvvEifuO2GvZM3iBR661xjsCfz0D2IQp51321zNb/Cem2Aieur9OdnLOVf+xy1ZX8Cd+unyzp4WvG09qvvIZLJ0zLlj5VjP4lGfYkh/3HbEu9UbfPXvsst+VO7CcfKmjV8V3wLu+Qf7PqyDu0JsPmnew+J+1kUN913aL2qGw0zeWw70T1SMbxrtYHBLWO1AdeA4um9+9g8P1TOg5dDwgXHRygDoc2e9IDlBrHVz04CH6nYc5LHzDnwNdn4jVWEessz72wgNbie2ZnfijA3/lIfaf2TCPWzjY4zs8hPeOjejilb4Lty797stJHi6xoVVrue9gEXvyGT01B6P75Otky7rwmRxFT65SNycb5oJDv+aErdT0MxufwFJx8Y8ffp6J2FOrtU/Py0Tmntmp50ft46Xen+xU/7X/KhZ5lld50brvSvjM+cSGfNsPXal5zvlkP4qtu3/4giV+5YSNSDfPsFhL+BZPXjaDLTZPrVxm37CXfXMlz/Zt9PgSkzE26nl1wmGu7je67glbOOvIHVhynsQfPtUK0Xb3UM1zbKXFdad+a56jm7biytij9g4s3/TechcWNYZH9cames0+6p5zakLNk+y97Ae8d85ttZD6zxkFi/F67jzKb8bvwsI3TthTq/rE/jLWEfHAT6eeA4m1YyP++MelKwKH+Y7AIke4zCW/6XdsJA45jp48u9x3ngGJna3Y0Mexe/MdqXVVecBT6uiZHf7CJ7/JOT1nXGr4mZ1vwlL3bO3jpd6fYqrvKrVPRw11z//qr/ZfwUIn55Na0TfWkZrnnE9yLY5OzcZH8pzzSZ2pPTa7Agv8hB02ct4GW8cWLPErJ+KJZC/l/lEr/npuy1H4uJrn5ILv7JsreXYGRA9e/o2xUc/OR7FkvO59uu4JW9nrWfuoldPkxBoxOR9ydiXWR/rGa57XdfLGR0dqntf1wbWOr/d3YoFnd9X9vfp/dr/7DugD5ysyHzRfYe3/sY5Dx2a0SdarW9Q5GGzs1Qb73QfmHVj4Wv05zBwW3UNdDOthmRekKwcpG2xVEaNrN1fXpV+x1L759T46u7b6q31r1/udvrHKbe2vc4/0M17rqvbNr/fR2bXqTV7lhKyYdjrrmIdZ8pGH/xUMscc3LMl3l9Po11zWvvn1Pjq7tvqtfWvX+52+seqv9te5R/oZx0ke9DjOS0VeauypZ8J/fpjQZyfCdnKfsUet2LOWveQ6Z9cjvTp+F5a1vvCBK7jg7MgulznnanwnW2turcULjr04wtQRecjLuH6Noe6Jky15sJbo4wg+wna1+WPwwf/Ajc/UWGJwv/L+wMSPuPPDwJr63GAvNh/pZ5w/fsnq/z+JBY/hFpbK564Ggn9t5TZ7eJ1Tc8nXOlfv5dbanbDdzfNdWNQLPmCvlz3QzbO18FT99Lt5zjn0LpbVn7qTe9yuc7scGNudLWJ07eZ2dsS/5jK5/299h6r81b741/sdJ8bq+VH769wj/YzLa/KRZ1kXQ2xo1Zv6yLNxxVTXPurLq1w7J+Ha5f6RbsZrXdW++fU+Omtb/da+dev9qlvvq7/at2a9r3q1X/3VvjXrfdVb+/wlN/W5nvNiXb+754+u3DgH1E3EuRX7GXvU3oFlV1/wwZGz+JH/jO/4e+W9ZZdL/NgPlev43bXykGervj0IH6nP2Z1uHRO/9UQftgj7sZmxXSuPeW/Rz7uQtfUdZqdbx6KnXvAgZ8R994yhEyx0q/9dDVT/tc8fv2T138WCy3DLTuVzVwPVf/pyi4ud/Ir3ljuwOAfUmtpary63Oz7mg+aOlRn7jzDgkLDB81JUnV4p6vVBGTtXDq87sIjDZncAVYFPPDmc69yujxM6Vdh02NeHTZ1f+3lZzIGceQcJLJ2HFJ1gEVvF5DDqxlOxsJF8J6YVY7DWtnKbA9A8XZx34/Fwy0tVxe8h3OU2uPhmA0dX+Ih+WtjZYOtK3Udfix8YXGx1+aBrbWqLbuXBHJsdoRd99ioGc+u+2Nm8C4vcwK02csGgn/zv/K9jciIWcVWO3Hfqlj1xWx8bWljYq3tq9b3e34HlVF9dLLDX3FacxrO/6/jat46dneC1vgTu1mTMuuRHXsUg7/a58a4kPzlLYMve7v7o4jO1Bgc8xuDp7iHcwU0vMYRr9q5gEZMYxBKuY7/DS9a+iwUO8cOCHy1JrjpY8qzAAf1cyVvHhjX0gyE2jOG8W3N3YUmNrNiDax3f3dsrONjtudNeX23dgUWd4LJK8HWx1HeFaoddNrIX6tyujxMxVUneshfq3K5/NxY5qpiyJ3a+17HKrfqIXHlv4V/t4wGP4VKOjOc+tp+11uMZnm5+V5t802fnCh+rHbyKAU/d/MaG9fxrnQOVB2P4eiZ06FZb0THXPf+r/q/GIm68uGCpHNU6TpyPWvmNfuWIPfnvyB1Y4HDtxN6oed+tMWaNHO1ELN1nCBuP/Bnfnec7n8lP9i+72U/ddwWYkx/nrNyqV3vJeEfgrbkNT8l9Zw/xw6dYXHDAYwye7h4KFnqJIVyz1+WFLn7FgNfkPfY7vIRbNvjGUWpejF1e6FrPTq7Y69YcX/zTiw1taqgTjzV3YMEBv7s6f/VZAtt80OxmcdYNAw0GbNDdJnWY7MZ3Jm323UFHfze+s2HM2hyedY3DfTde16S/w2LMQ6Fr4xEWB3EeNPF3anfcivHKyxX7O5/i6eZnxUjPIX8Vx2qHfh6a61z3Xmwe/Ffq5GT7as09stV96D7SN/4KFjo4yfUKL+o8+mlPOB/N8R19LWxX5V0s79YovHJ5Ze/vYqR/R02wnRzHD7te1K7yW3MCHxtX+ZLjWmPOlatnJdx0+Icpwu4V3sND9U+/4ovtR+0dWPjE48on21dyxE54Ycv1Sg3hNPpaNq/gwNVdWB7x/t86Xus1MeBqN575tX1U52yw1RHrdnUuz7vxRzY/hSX1040Hvh2HV2t3t+fEePWcq3zRffe9Ba5336FwaT/7EHGXvHK+rL6v1tyqn/tfhUV9qL1c4rkqchP9tFdtWP8OFrqud0Qcd+SBjSt7/4QZn8lJ9sDV/UyfnQh89lLsZvzUJseJC9dsVLsn/cyteXLGuWI3604t3HRW/2xfsRMeqn/6V+ooPKx8XuXFejZywXQlP/iCPbzEziv1fAeWU/5enZsPmq8yN3rDwDAwDAwDw8AwMAwMA7+MAT/ervxI2QH1w+CVF/vV1h1Y/Fi48oNpxZB7P1zelW/Ccge335Tnu7D8bnm+o+bu4nZqbn+CTM39lZepub9yYuSO/czO71Zzd5wt3nvueG9h4913qLuw4OVVmQ+arzI3esPAMDAMDAPDwDAwDAwDv4wBfx3mR9M7Qv/dvzLj/w4s+cuJd+Kh+86/uhXf34TlDm6/Kc93Yfnd8nxHzd3F7dRcToL/207N/V8+3E3N/ZUTI3fsZ3Z+t5q7crb463Xxu/Tz8fFKzfmHpP6Vczb86+v1Q+h/GouPlomH7/oPcI2/KvNB81XmRm8YGAaGgWFgGBgGhoFh4KMM+NdIvfjuLi/pXuyfiZfmnb4x/z0nbUfuwOKF/hGW/LeyOlge2TDe/WHwTVju4Pab8nwXlt8tz3fU3F3cTs3tT5qpub/yMjX3V06M3LGf2fndau6us8U7jr8AdvlAnP/+5pUPmvnvouLZx0xc+zga3rvvUHdgYSN/Fap2xKMl3feWH4uX/5kPmgshczsMDAPDwDAwDAwDw8Aw8B0M5KXXS/d6+RjZeRn3Vw3W+kGw2vCvs3nB78gdWPwwzkv9isWPDBg7Yq0fKqsN990fBt+E5Q5uvynPd2H53fJ8R83dxe3U3P6kmZr7Ky9Tc3/lxMgd+5md363m7jhbPMvXdxN8+wh45b2FDbaq4Nu1m6vr0r8Ly/pukn2Fr3UuvjvtfNDssDRrhoFhYBgYBoaBYWAYGAZ+CQNevL3wrtJ9Gafnh4CPmqvsXtTXNfX+DixiYWeVK/+KXn4I+MuNVa78MPgmLHdw+015vgPL75jnO2ruDm7tm6m59fT4+X8g4qz8nc6Wqbm/5vmu+r+D29/xnLvjbLEP8VvF2ecfiq4fO+ua2vcXkezguAp83hXWj511Te3fgcVfrvJbJbm/8t5S9fXng+bKyNwPA8PAMDAMDAPDwDAwDAwDw8AwMAwMA8PAMDAMDAO/gAEf+3zAXMU/bNiNr+tyb+36QdOcj5m78ejV9i4suw+obO/Gq/9Tfz5ontiZuWFgGBgGhoFhYBgYBoaBYWAYGAaGgWFgGBgGhoFhYBj4Kgbmg+ZXpWPADAPDwDAwDAwDw8AwMAwMA8PAMDAMDAPDwDAwDAwDw8CJgfmgeWJn5oaBYWAYGAaGgWFgGBgGhoFhYBgYBoaBYWAYGAaGgWHgqxiYD5pflY4BMwwMA8PAMDAMDAPDwDAwDAwDw8AwMAwMA8PAMDAMDAMnBuaD5omdV/c1UgAABDlJREFUmRsGhoFhYBgYBoaBYWAYGAaGgWFgGBgGhoFhYBgYBoaBr2JgPmh+VToGzDAwDAwDw8AwMAwMA8PAMDAMDAPDwDAwDAwDw8AwMAycGJgPmid2Zm4YGAaGgWFgGBgGhoFhYBgYBoaBYWAYGAaGgWFgGBgGvoqBWz9o/vHHH3/+qmsXyFcxPWCGgWFgGBgGhoFhYBgYBoaBYWAYGAaGgWFgGBgGhoFh4G0GfAe86xvk/7yN5g0D80HzDfJGdRgYBoaBYWAYGAaGgWFgGBgGhoFhYBgYBoaBYWAY+C9hYPcd0AfOV+SXftD897///adg5hoOpgamBqYGpgamBqYGpgamBqYGpgamBqYGpgamBqYGpgamBn7fGvAdcJX/yg+aaxDfev8qud8az7fhGn4/m5Hhd/j9LAOftT71+1l+37U++fnJ4PDQr6Th6szV8DP8nBk4z079DD9nBs6zUz/Dz5mB8+zUz/BzZuA8+2r9/NK/0DyH9D2zr5L7PRF8N5Lh97P5GX6H388y8FnrU7+f5fdd65OfnwwOD/1KGq7OXA0/w8+ZgfPs1M/wc2bgPDv1M/ycGTjPTv0MP2cGzrOv1s980Dzz+mP2VXIbpmfJn3/++A/CDhGfY2Dq93Pcsjz8Dr+fZeC7rU/9/8zP8NCv0+HqzNXwM/ycGTjPTv0MP2cGzrNTP8PPmYHz7NTP8HNm4Dz7av3MB80zrz9mXyW3YXqWzAehj9fA1O9nKR5+h9/PMvDd1qf+f+ZneOjX6XB15mr4GX7ODJxnp36GnzMD59mpn+HnzMB5dupn+DkzcJ59tX7mg+aZ1x+zr5LbMD1L5oPmx2tg6vezFA+/w+9nGfhu61P/P/MzPPTrdLg6czX8DD9nBs6zUz/Dz5mB8+zUz/BzZuA8O/Uz/JwZOM++Wj/zQfPM64/ZV8ltmJ4l80Hz4zUw9ftZioff4fezDHy39an/n/kZHvp1OlyduRp+hp8zA+fZqZ/h58zAeXbqZ/g5M3CenfoZfs4MnGdfrZ/5oHnm9cfsq+Q2TM+S+aD58RqY+v0sxcPv8PtZBr7b+tT/z/wMD/06Ha7OXA0/w8+ZgfPs1M/wc2bgPDv1M/ycGTjPTv0MP2cGzrOv1s980Dzz+mP2VXIbpmfJfND8eA1M/X6W4uF3+P0sA99tfer/Z36Gh36dDldnroaf4efMwHl26mf4OTNwnp36GX7ODJxnp36GnzMD59lX62c+aJ55/TH7KrkN07NkPmh+vAamfj9L8fA7/H6Wge+2PvX/Mz/DQ79Oh6szV8PP8HNm4Dw79TP8nBk4z079DD9nBs6zUz/Dz5mB8+yr9TMfNM+8/ph9ldyG6VkyHzQ/XgNTv5+lePgdfj/LwHdbn/r/mZ/hoV+nw9WZq+Fn+DkzcJ6d+hl+zgycZ6d+hp8zA+fZqZ/h58zAefbV+vlfiXpBXu+D78UAAAAASUVORK5CYII=;" vertex="1" parent="1">
          <mxGeometry x="40" y="760" width="1271.94" height="720" as="geometry" />
        </mxCell>
        <mxCell id="HRLqc-G_0mREPKBpx3aI-47" value="&lt;b&gt;&lt;font style=&quot;font-size: 24px&quot;&gt;以[0, 众数]作为基准区间&lt;/font&gt;&lt;/b&gt;" style="text;html=1;strokeColor=none;fillColor=none;align=center;verticalAlign=middle;whiteSpace=wrap;rounded=0;" vertex="1" parent="1">
          <mxGeometry x="290" y="870" width="300" height="20" as="geometry" />
        </mxCell>
        <mxCell id="HRLqc-G_0mREPKBpx3aI-54" value="&lt;b&gt;&lt;font style=&quot;font-size: 24px&quot;&gt;向右扩取&lt;/font&gt;&lt;/b&gt;" style="html=1;shadow=0;dashed=0;align=center;verticalAlign=middle;shape=mxgraph.arrows2.arrow;dy=0.6;dx=40;notch=0;strokeColor=#000000;fillColor=none;" vertex="1" parent="1">
          <mxGeometry x="1311.94" y="1085" width="248.06" height="70" as="geometry" />
        </mxCell>
        <mxCell id="HRLqc-G_0mREPKBpx3aI-57" value="" style="shape=image;verticalLabelPosition=bottom;labelBackgroundColor=#ffffff;verticalAlign=top;aspect=fixed;imageAspect=0;image=data:image/png,iVBORw0KGgoAAAANSUhEUgAABR0AAALoCAYAAAD1BFLOAAAAAXNSR0IArs4c6QAAAARnQU1BAACxjwv8YQUAAAAJcEhZcwAADsMAAA7DAcdvqGQAAP+lSURBVHhe7P39zyT3md/77Z8QJwhiJMBZJCeGcZID+wfjGIgBA/YPRhwc4xgBFvAhFpY3UOQIYwsR5CPorEBAWWEBWbGoPUpkAbtakRQoK9TqgZREiyseWjwUqQdqubQomuSQQ42GHFIkxeHDUCKHpIa8o8999zVz9XVf3299q7qq76ru9wu4MNNV1dVVV1X3dH+mHn7rYE/8p//0n1Z/wxTo77To77To77To77yxfY7Qh3b0qo7+1NGfOvpTR3/q6E8d/amjP3X0p67UH0JHjIL+Tov+Tov+Tov+zhvb5wh9aEev6uhPHf2poz919KeO/tTRnzr6U0d/6kr9IXTEKOjvtOjvtOjvtOjvvLF9jtCHdvSqjv7U0Z86+lNHf+roTx39qaM/dfSnrtQfQkeMgv5Oi/5Oi/5Oi/7OG9vnyKR9eOLxg4Mf3HNUn/zYev2Tf5RXnM6er3mdMPaZOvpTR3/q6E8d/amjP3X0p47+1NGfulJ/CB0xCvo7Lfo7Lfq7oTtuPzj4P/72wcFv/88ODv6zv/Kb0p/ULEvb6L/43xwcfPqTq43H/m9G68PDPzk4+LN/d3Dwr//gKDz8a3813xablub9B79/cHDT9Udh5Baxz9TRnzr6U0d/6uhPHf2poz919KeO/tSV+kPoiFHQ32nR32nR3w0ocPzt/3keilAzrr9ycPCx/9fhJmT/PzK4DwoZP/yBoxAw7fUW6x/+3YODf3Xq4ODPb1st3DTYZ+roTx39qaM/dfSnjv7U0Z86+lNHf+pK/SF0xCjo77To77To7wb++v86Dz+o+ZfC4t9g/z/Sqw8KGnWU4d/5G3lvY/2tv34USv7Ld6+fMv31r149bTorP61eT/NQsJi9Rqz/8rePAkjNZ2TsM3X0p47+1NGfOvpTR3/q6E8d/amjP3Wl/hA6YhT0d1r0d1r0dwM+5NDppL94fjXiKvo7Iwqg/Db7DbbPkc4+tAaNCgUtXFS/L76ymsHINO8//cxRsPiP/0G+LFYKPXU05kgBJPtMHf2poz919KeO/tTRnzr6U0d/6uhPXak/hI4YBf2dFv2dFv3dwOF1HFdVCFfo78xcue7mb/78DbbPkWIfFNTVTp22QO+uO1dPOEEP/MVR2Pn3/3a+rCqFohuefs0+U0d/6uhPHf2poz919KeO/tTRnzr6U1fqD6EjRkF/p0V/p0V/N+DDjAL6OzNhm7F9jhzrQy1sHPnIwUnoLtc6+rh0ZOYG4SP7TB39qaM/dfSnjv7U0Z86+lNHf+roT12pP4SOGAX9nRb9nRb93YAPMQro78yEbcb2OXKlDzqN+l2/s94nq7kHjSV2anh2J22dmt1zndhn6uhPHf2poz919KeO/tTRnzr6U0d/6kr9IXTEKOjvtOjvtOjvBnx4UUB/ZyZsM7bPkUfv++HRtRh9f6x03cTzT66mXDBdc7UUPuqozsZ1ZJ+poz919KeO/tTRnzr6U0d/6uhPHf2pK/WH0BGjoL/Tor/Tor8b8KFFAf2dmbDN2D6/8fBPDt74O39zvTcqhZC7EDZGFj7G9dUdrxtOuWafqaM/dfSnjv7U0Z86+lNHf+roTx39qSv1h9ARo6C/06K/06K/G/CBRQH9nZmwzfZ++9x0/fEj/97zu0enJO86Bao6itOvu0qB5BtvrCY6jvd0Hf2poz919KeO/tTRnzr6U0d/6uhPXak/v/XZz372gKIoiqKGlA8qsvHU/IptdlSf///+fw6e+L/8vbV+XP7f/S8P7v6X/490+l2u26797w9e/z/8Z2u9eP7/9DcPbv7E/zudnqIoiqIoiqJaiiMdMQr6Oy36Oy36uwEXUpTQ35kJ22wvt4+O8Pv7f3utF4enV+uOz/tKp1zHu3XrdOvkiE/e03X0p47+1NGfOvpTR3/q6E8d/amjP3Wl/hA6YhT0d1r0d1r0dwM+oCigvzMTttnebZ+LrxwLHHWK8cMPPLCaYM998mPrvVHwGMJY3tN19KeO/tTRnzr6U0d/6uhPHf2poz91pf4QOjq/9Vv92lGavu985CRfewxZf+OyjLWOLfTcrmrVZ1rJpu87j4j+XpVN33ce0TY/H1qVnt81301eV8/tqmN8OFGwa/3tqj76TJ9N2/f1DoVt1rJ9ZKx1G7TMY9F1Cv3RfLqW45/9u8NRpc/Z1spkw0vTZjZ9/mA/uOcobLQ+/Z2/cXQk5ErrPrOv6E8d/amjP3X0p47+1NGfOvpTR3/qSv3ZwjfXeWjZQYZ8kR/rB0HLc/w0LX/fpqy/cVnicsbKxOHxOXG8KQ03XeO9PtNKNn3feUT096ps+r7ziKb4fPDT6++l8vzjlr9n4rSlyvjh2TTp8yyUUBXscn+j0vP7Ds/0eb2qsM1ato+0vJafpuXvW6e7Ufv1XwWOMmYfTDbtNp+/kQf+Yv0GO//w7165uUxrr/YV/amjP3X0p47+1NGfOvpTR3/q6E9dqT9b+uZ68mID9KW9b5lsnMr4v7ew6VueF6eNz2mZxxT69NfGe/6xn9aXjfPiY+OfV6pWQ6b1r1OqPujvEZvWv06p+mj5B6TvPP30pedmw21Y/NOU5mX8+NK0rcO7Hh/yAU7BrvZXWp/fd3hk0+nPruoUtlmf7dMy/zhtfE7LPCbxr/9gfd11GrHT0gfps/zZtBqWVWTD4nRZTebPb1vv2bt+53Bwa6/2Ff2poz919KeO/tTRnzr6U0d/6uhPXak/E35TnZeuHWTML+3xx0Bt3nFc17SlMqXhU8v6G1/fP66Nk9Kya3isTGm46RrvjTFtn3lk6O+RocvTpeUfEL1GrUw23I/34nD/vFimz3A/3qsN76pjfCBRsAv9NXF8VpnW4Zs+v0nYZn3/fay9psaVypSGTyqGZ//q1GrEVaU+xGXseuy1TpsN7zPtpP70M+u9++THmt7T+4z+1NGfOvpTR3/q6E8d/amjP3X0p67Uny1/cz05tR1EX+BrVWLj/DRx+pbnR7XniMZbef5x1zzGlvW3z/J1PTZ9puuqGj++9PcoztceZ9XXLvQ3m6arvDjMTxerr5Z/QPrO10/vly1WpjTeP64919g8shqNDyMKdqm/Q5Xm1/KaGh6nK1WTsM26/n3MdL1WaZn84655jEanBP+tv351nXW03uo0Ya+1D7V1Mhrmy4aVxHH+eWKPs9qKP/j9q/37a3/14LH/8D+uRiDT8pm3z+hPHf2poz919KeO/tTRnzr6U1fqz5a+rZ68YgM6vrSXxsXh9rg0POqarut58U8p/X0bsv5qGWKZ2jjxj/14+7uvKfj5xtfIXtOG1Z5nSsNrdq2/Xstr2DR+2tLzhixzyz8gfedbW9bavGxc/FNKf/dq09Se07eusCBCVbAL/dXjvuWVxsc/o2x817Sdwjar/ftY07Uc8U8p/X1S/rRqhY+6e3Witp8OXYdsfNcw+3s2LCoNn4Su6bjq46v/7X+zGohMy2fePqM/dfSnjv7U0Z86+lNHf+roT12pP1v8tnqysgZkX+yjbFwcFufjx2fTxmFSGuaH1/5uj+Of21Lrr/GPa+NEj628Ps9rrSgOa5nG+OH6e6n62qX+eja+azrjp7P5Z9VXyz8gfefrp4/PLc2r9Bz93R7HP6P4PK/0HNM1ffp8C3NUBbvaX+l6bGrDS+M8P409J6smYZvF7ePnVZqnH++nqf3dHsc/J6U7Lvubobgbx0Qt+6n0We7StHF4Np0fpr+Xamse/sn6vqM7XCPVui/tK/pTR3/q6E8d/amjP3X0p47+1JX6s8VvqycrNsB/UY9f4GNl/PA4jT0uPTcz1rRDXnsM2Q6mZYhl/N+l67HE51tFcVg2TUnL/EzXtH2e12VX+hvZc1vn4acrPWfI8rT2N6sSP95Pn1WUDTM2rjSNn6f9vVRRNk2sY3wIUbCL/a1Vpu/wyE+36bziNsu2jxn6WrXxNq55eTfxb//o6rrqSL2K2ActX9+KsmGeje96bmk+XfMf3Xt+92o/9Xekau8p0J8u9KeO/tTRnzr6U0d/6uhPXak/W/62enJqO0jtS3vLuDhNaXhNy7SaJivPHsfhU8v6W1o20d9jjaU079JwEx+bPsP9MP29VH3tQn8zNk3LtOKns9fIqq+W/mayabLliNNlzxP/XF+ePc6Gx+mzaWq6pk+fbwGEqmAX+mtK05vW55nS8MhPp7+XqknYZkP+fawNz8qzx3H4JPy1HHVDlIpaH7w+y12b1o/LpovjS7VVD/zF1X7qCNLCqer7rnVf2lf0p47+1NGfOvpTR3/q6E8d/akr9WfL31ZPTm0HqX1p7/pCXxrf94dAn+n9tPF59rjv628q629p2aQ2TvS4taI4zB6XhndpnU78tKXn9Zmf2cX+9p1e/DSl6VvmE7X0N1ObprasXfNueW5pHi3PLdH4rjrGAghVwa71t6syfYdHfrpN5xW32ZB/H7teq7a89rhrHhs7/+TV9VRAltw8xqv1weuz3KVpSz3x/LDW+WyFu7bj4V3BcUzrvrSv6E8d/amjP3X0p47+1NGfOvpTV+rPCXxbPRm1HURf2mtVYuOyaWrPy7ROr+n8tGO89hhif205s7LxXnycaZlG7HV8Gfu7H9Zl6LT6e6n62sX+xmn6Pkd/L1Vf2edDy3xq0/hx9nf9GSuKw0vTlGTP1Z+xWjRNZ+GDqmCX+hu1Tlt6zaHPL1WTsM1K/z7a/OJ8S8ONhvtx2XSl547q61+9up4NpwKX+hD1WfasF9nzu4bZ87LaOn9jHt3VGse07kv7iv7U0Z86+lNHf+roTx39qaM/daX+nMC31ZNR20FqX9pL4+Jw/9j+Xptv1Gda0fSl5/Sd1xj6vAGz5SsN66qMH55NW3peSZ/pW16n7+vLrvW3NE3Xc1tep+X1o6y/LfOpTWPj/DRx+q7nl8Z3Pc//KXH67Pka1lprLHxQFexKf+05LRXZsDiuNq3nh2XjpTT8mLDNSp8vpde0v3e9nsaXpul67igUiNl6dpxaLa2fsy3LXlv3TDatH1aaV5/XGI2ObrS+dlwnc1/1+Td7H9GfOvpTR3/q6E8d/amjP3X0p67UnxP4tnoyajtI7Ut71w8BY8PiuNq8vdbpRNN2vV6f+Y0h62+fZWtZ3tZpfNkwkw3rMnTa0vP6zM/sUn9r46T1uaXpuuafKfW3pUpsnJ8mTl96voZnz5fScJONL82jS9N0Fj6oCnapv1Gf6bJphwzLxktp+DFhm23y+VJblq7nlJ47Gn/Tk4Y7LWd9yEyx3Nk8/bDSa07ew4w/bf3v/I3VQHit+9K+oj919KeO/tTRnzr6U0d/6uhPXak/J/Bt9WTUdpDSl32rVqVpW+bROk02nQ2L41rmOZbY39JrZ8toZfyw1qqx8XG6rufa+No0kU3rn1uqPnahv/FxTWlaG2bja9VH9vnQMo9sGr8McXwcVxof2bBsemPPtfLiuJbxXXWFhQ+qgl3sb0t58bEXn5dNa8PidFl1Ctts6OeL8cNLy2DD4rhs2tH8439wdT0f/slqYFm2n2bGXGbNqzQ/G27T1Grrwj6Eda370r6iP3X0p47+1NGfOvpTR3/q6E9dqT8n8E31ZLCDTIv+Tov+Tov+bqAhfKC/MxO22c5uHx2FZ+upo/M6sJ+2+/Xf/M/X9iGsY1+qoz919KeO/tTRnzr6U0d/6uhPXak/v6URFEVRFDWkrgQPv6lsPDW/2pdtdunv/VdX1vPMn38rnYYaVu/87/9Xe7EPURRFURRFUZsVRzpiFPR3WvR3WvR3A6vg4bAK6O/MhG22s9vnn/yjq+s54jUd997FV6729W/99dVAeOxLdfSnjv7U0Z86+lNHf+roTx39qSv1h9ARo6C/06K/06K/G7DwQVVAf2cmbLOd3T7/6tTV9Rzx7tV7T9fHtL5y9+oU+1Id/amjP3X0p47+1NGfOvpTR3/qSv0hdMQo6O+06O+06O8GLHxQFdDfmQnbbGe3j4JGW08FkB3YTxv17Os+Yl+qoz919KeO/tTRnzr6U0d/6uhPXak/hI4YBf2dFv2dFv3dgIUPqgL6OzNhm+3s9nngL66up24q04H9tNG7fudqX//s360GwmNfqqM/dfSnjv7U0Z86+lNHf+roT12pP4SOGAX9nRb9nRb93YCFD6oC+jszYZvt7PZ5442Dg7/2V6+u6113rkbk2E8b/OL59f3nicdXI+CxL9XRnzr6U0d/6uhPHf2poz919Keu1B9Cx5Xf+q28FRreNS6bJo6z8krDl6jYX63bDqzfSav2t8R6n22DOM7KZONUO2rI54N//5bew6Xh0vLcrmlmwQcQBVl/W9Zt03UfOv84rDaPRQrbrGv7lNa/qy+1527NH/z+1XV9z++uBuZiH2z5Y0XZMInPs+qr9XlD5t3bJz92tZ//+B+sBiLq+jdl39GfOvpTR3/q6E8d/amjP3X0p67Uny18Q52H2g5S+kLvh8XxfaeXvvNbkrS/fp0Wvn4n7Vh/1U+rTDbcDys9z3SN3zF9Px+y96sfZs/JppM4vOuxlOZ14iyAUBXE/vZd3yHr3vX80nj7e9fzFy1ss67tI7EfViVx+hPjb3qiox71uKClD571oDRdNrxrnpGfvvZcjes7795012rdrdr6yanVRbV/U0B/utCfOvpTR3/q6E8d/amjP3Wl/kz8DXU+ajtI9mW968t7Nr72nJb5d73mnB3rb7YuC16/k1bcf0s97ep/17bYs201xudDn/d017R95nXiLIBQFcT+Tr3+m8y/9OdOCdus7/Yxpd70mXYr/DUIK0fntfQhM/Z0ps/0mrbv/Hv78Aeu9PHXf/M/Pzp9HanavymgP13oTx39qaM/dfSnjv7U0Z+6Un8m/oY6H8UGrL6kxy/rfriVFx9LNkxapy09fwmO9TdblwWv30krfsC19jROp8exvK7xO6bv50Omz3u6z7TS8vonxsIcVUHsb9f69+1PtMn8S3/ulLDNip8vTq1nUZ9pt0LXHfTXdvy3f7QasS7bT2NlSsO9lmkie469dmkefrrJ6HqYbr958k8+sxqBTMt7ap/Rnzr6U0d/6uhPHf2poz919Keu1J8Jv6HOS9YA/wU9flnX42yYZ9Nk03rZuDisax5zd6y/2boseP1OWvEDrqunGt+6Lfyw1ufsiL6fD1FpfOtwPc6mLQ2fFRdElMT+dq1/ts59+tD1/Np4/2cctjPCNit+vqyU1r/P8BPv4b/+g/X1/vPbViOu6tpPZei6DVl/PSc+r/Z4yGs00Snp/+VvX+3de363c5/Zd/Snjv7U0Z86+lNHf+roTx39qaM/daX+TPQNdX5iA/p8kTe1abLpTWmchlvZ46U6toNl67Lg9TtpxQ+41p62TNc1zQ5vv76fD94m46zscUlt3InzQU5Btv/W1j9b32xYSdfzW8frT//3nRG2WfHz5Tdq610alw0/8f7pVGCdWm3rrSMfH/iL1cgjtT6Yoes2ZP27XiuOH/Ianc4/eXDwd/7G1b7p7794vqlX+4z+1NGfOvpTR3/q6E8d/amjP3X0p67Unwm+oc5TbIC+nJfKxkd+WNd4kw0r6TPt3BzbwbJ1WfD6nbTiB1yfnnZNu+n4Bev7+WDi46hrvDfmvLbKwghVQXH/dfz6Zeu6aS/7zt8exz93Qthmpe3Ttc6l8dnwWfRPN0LxAZqO3lOottJ3PzVD+9Sl67X091KNQv36h393vV+rG/G09Gqf0Z86+lNHf+roTx39qaM/dfSnjv7Ulfoz0jfT+evaQeKX9OxLux/WNd5kw0r6TDs3x/qbrcuC1++kFfffUk+7+r/p+B3T9/NBWt6vQ9//Q1/vRFggoSro6q+Muf5dz2+Zvz2Of+6EsM2y7dOyvqVpsuGz6Z9CRn+q8N//24dH7knsQ+t6dK3b0HXv+1pDXyelI0P9DXh0ZKiu67jS8p7eZ/Snjv7U0Z86+lNHf+roTx39qaM/daX+jPgNdd66dpCWL/f+ccv0kg0zXfNbkrS/fp0Wvn4nrbj/lvqaDe/aHn3G75i+nw+t7/Xa+9qPGzr/WbBQQlWQ9be2/lIbr8fZc7za86U2PhuXzWOxwjaL2ydb19Zhxo+bXe9+cM/6jWX+1l8/HDZFH6Q0XsP7Prc2fde8munGOwpj/X5y0/WrkUe6PjP3Hf2poz919KeO/tTRnzr6U0d/6uhPXak/I31Dnb9iA1Zf+q2i1nHZeCkNN7XnLknxDah124H1O2nH+mt99RVNPX6H9P18iMOtTG2c1zKuNs0s+GCioKu/JaXxXc8zXdOVxsdhtXksUthmcftYX2KZ2jivNu7Eff2r6334Tf3i9z+wGnmVX8e4LnFcHG9qw0vjPJuuaz61aZr92b9bD2RVn/zYauRVxX/zcYj+1NGfOvpTR3/q6E8d/amjP3X0p67Unw2/nS4HO8i06O+06O+06O8GfDhRQH9nJmyzvd0+Ol3Yn2qt+if/6Mrp1ntFp1P/q1PrvVD4+KefWU2wjvd0Hf2poz919KeO/tTRnzr6U0d/6uhPXak/hI4YBf2dFv2dFv3dgA8pCujvzIRtttfbRwGjv6u1Sqdb//ltqwn2gG4OE0+n1g13wt29Pd7TdfSnjv7U0Z86+lNHf+roTx39qaM/daX+/JZGUBRFUdSQ8kFFNp6aX7HNjtcL/9371vqiuvT3/quDJ//kM+n0u1BPfOOWg1f/2//m2Hpr2KP3/TB9DkVRFEVRFEX1KY50xCjo77To77To7wZ8YFFAf2cmbDO2z5FzN37u+OnWKp1yrZvP7Aod2fie3z2+npXTqSP2mTr6U0d/6uhPHf2poz919KeO/tTRn7pSfwgdsRldE0unYcUfL12l5/zLdx/dEVN3ykQV+++06O8G/Pu6gP7OTNhmbJ8jh33Q6dZ/8PvHb6aiUvi45NOudbp0FjaqdD3H80+uJuzGPlNHf+roTx39qaM/dfSnjv7U0Z86+lNX6g+hIzYzJHDsU5r/hz+w98Ek+++06O8G9D797dX7tYD+zkzYZmyfI2t9qIWPOhpSIZ3+023udFSj1qP0b3XPsNGwz9TRnzr6U0d/6uhPHf2poz919KeO/tSV+kPoiM382z/Kf8hMUbrY/5/9u6O7bO4Z9t9p0d8N+PdoIbygvzOiz0+/zX6D7XMk7UMtfFTppjP6j7E5nX7dFTSqBoaNhn2mjv7U0Z86+lNHf+roTx39qaM/dfSnrtQfQkeMond/9aNI147SqV7ZNbRqpel1mtu//oOj0FM/9nb8SEj232nR3w38b/8X7v35V9zfqXlW2Ea/wf5/pNoHhY+f/Njxuzz7sn+bNN3Xv7qdf5cUHOqIS72m/j2tBY0WkG4QNhr2mTr6U0d/6uhPHf2poz919KeO/tTRn7pSfwgdMYrJ+qtrUOmIjNJRJrFap9ul0o9M/dBVn+zHroJY/UhGEz4fNvDf/z/z/ZKaf/3Of324Cdn/jzT3QWGiPmtrAZ+V/k2y/ySzz2ari6+sZlihafxzdLS/5qV5tvyH3URHYrLP1NGfOvpTR3/q6E8d/amjP3X0p47+1JX6Q+iIUUzeX/3w0k1nakeZUHn9w7979AM1VssP5m2UluOET0/k82FD//L/7rYpRzvOv36zjf6v/+fVxmP/N4P60HIqc2vZZ3M2rk9t4ZRv9pk6+lNHf+roTx39qaM/dfSnjv7U0Z+6Un8IHTGKrfZXR5nox5ROrbYjPggjd7O2FEjy+TAt+jtvbJ8jG/chnuq8jX+XFDDq30C9pu6sPcKp0y3YZ+roTx39qaM/dfSnjv7U0Z86+lNHf+pK/SF0xCjo77Sq/dWPTIVyOu1OPzx1mrV+hOrHaPYjdak14dE77L/Tor/zxvY5MkkfdOMefWbpGsYWRtoRjaquU6R1AzU/vf6jTfNRuHmCl9Bgn6mjP3X0p47+1NGfOvpTR3/q6E8d/akr9YfQEaOgv9Pa6f4OOT1x5ACS/Xda9Hfe2D5H6EM7elVHf+roTx39qaM/dfSnjv7U0Z86+lNX6g+hI0ZBf6e1t/0dEkhq2nf9ztHRQLpxg25G1IH9d1r0d97YPkfoQzt6VUd/6uhPHf2poz919KeO/tTRnzr6U1fqD6EjRkF/p0V/f2PTGzaU7mz+m/m98k9/5+hGRbpeKEbH/jtvbJ8j9KEdvaqjP3X0p47+1NGfOvpTR3/q6E8d/akr9YfQEaOgv9Oiv8GYd4wdWnptXUcTndh/543tc4Q+tKNXdfSnjv7U0Z86+lNHf+roTx39qaM/daX+EDpiFPR3WvS3Bx2taHeQ/ZfvProRQxYajlE6ehKd2H/nje1zhD60o1d19KeO/tTRnzr6U0d/6uhPHf2poz91pf4QOmIU9Hda9Hci//aP8jCxtXQzG3Ri/503ts8R+tCOXtXRnzr6U0d/6uhPHf2poz919KeO/tSV+kPoiFHQ32nR32nR32nR33lj+xyhD+3oVR39qaM/dfSnjv7U0Z86+lNHf+roT12pP4SOGAX9nRb9nRb9nRb9nTe2zxH60I5e1dGfOvpTR3/q6E8d/amjP3X0p47+1JX681saQVEURVEURVEURVEURVEUNVZxpCNGQX+nRX+nRX+nRX/nje1zhD60o1d19KeO/tTRnzr6U0d/6uhPHf2poz91pf4QOmIU9Hda9Hda9Hda9Hfe2D5H6EM7elVHf+roTx39qaM/dfSnjv7U0Z86+lNX6g+hI0ZBf6dFf6dFf6dFf+eN7XOEPrSjV3X0p47+1NGfOvpTR3/q6E8d/amjP3Wl/hA6YhT0d1r0d1r0d1r0d97YPkfoQzt6VUd/6uhPHf2poz919KeO/tTRnzr6U1fqD6EjRkF/p0V/p0V/p0V/543tc4Q+tKNXdfSnjv7U0Z86+lNHf+roTx39qaM/daX+EDpiFPR3WvR3WvR3WvR33tg+R+hDO3pVR3/q6E8d/amjP3X0p47+1NGfOvpTV+oPoSNGQX+nRX+nRX+nRX/nje1zhD60o1d19KeO/tTRnzr6U0d/6uhPHf2poz91pf4QOmIU9Hda9Hda9Hda9Hfe2D5H6EM7elVHf+roTx39qaM/dfSnjv7U0Z86+lNX6g+hI0ZBf6dFf6dFf6dFf+eN7XOEPrSjV3X0p47+1NGfOvpTR3/q6E8d/amjP3Wl/hA6YhT0d1r0d1r0d1r0d97YPkfoQzt6VUd/6uhPHf2poz919KeO/tTRnzr6U1fqD6EjRkF/p0V/p0V/p0V/543tc4Q+tKNXdfSnjv7U0Z86+lNHf+roTx39qaM/daX+EDpiFPR3WvR3WvR3WvR33tg+R+hDO3pVR3/q6E8d/amjP3X0p47+1NGfOvpTV+oPoSNGQX+nRX+nRX+nRX/nje1zhD60o1d19KeO/tTRnzr6U0d/6uhPHf2poz91pf4QOmIU9Hda9Hda9Hda9Hfe2D5H6EM7elVHf+roTx39qaM/dfSnjv7U0Z86+lNX6g+hI0ZBf6dFf6dFf6dFf+eN7XOEPrSjV3X0p47+1NGfOvpTR3/q6E8d/amjP3Wl/hA6YhT0d1r0d1r0d1r0d97YPkfoQzt6VUd/6uhPHf2poz919KeO/tTRnzr6U1fqD6EjRkF/p0V/p0V/p0V/543tc4Q+tKNXdfSnjv7U0Z86+lNHf+roTx39qaM/daX+/JZGUBRFURRFURRFURRFURRFjVUc6YhR0N9p0d9p0d9p0d95Y/scoQ/t6FUd/amjP3X0p47+1NGfOvpTR3/q6E9dqT8bh44/+9nPDh577DGKoiiKoiiKoiiKoiiKona4lANGk4WOekEAAAAAAAAAuy3LAQkdAQAAAAAAAAxG6AgAAAAAAABgVISOAAAAAAAAAEZF6AgAAAAAAABgVISOAAAAAAAAAEZF6AgAAAAAAABgVISOAAAAAAAAAEZF6AgAAAAAAABgVLMMHR9//PGDa6655uCGG25YDTly6623Hg5XnTp1ajX04PDvNvyee+5ZDQUAAAAAAABwEmYXOio0VIiowNGHjhquUDHSNNddd93h3+25AAAAAAAAAE7OLI90lBg6KljUkY6RQkZ/dKMe60hJAAAAAAAAACdjMaHjtddee+UUapUd3RhDRk3HKdYAAAAAAADAyVlU6OjDRAWPChsJHQEAAAAAAIB5WUzoGE+vtnBxzNOrL1y4cLiMFEVRFEVRFEVRFEVRFLXvpaxsKD0/KoaOGrFJZS9WEkNH/d1OqVaoaDeV0TAbbiEkAAAAAAAAgJOjHDDLB7PaypGOOprRX7vRwkVRoGjD4qnWVkOPcgQAAAAAAAAwjl5HOq7+HKzPkY4AAAAAAAAAlonQEQAAAAAAAMCoCB0BAAAAAAAAjIrQEQAAAAAAAMCoCB0BAAAAAAAAjIrQEQAAAAAAAMCoCB0BAAAAAAAAjIrQEQAAAAAAAMCoCB0BAAAAAAAAjIrQEQAAAAAAAMCoCB0BAAAAAAAAjIrQEQAAAAAAAMCoCB0BAAAAAAAAjIrQEQAAAAAAAMCoCB0BAAAAAAAAjIrQEQAAAAAAAMCoeoWOGrFJEToCAAAAAAAAu085YJYPZsWRjgAAAAAAAAA69TrScfXnYISOAAAAAAAAwO4jdAQAAAAAAAAwKkJHAAAAAAAAAKMidAQAAAAAAAAwKkJHAAAAAAAAAKMidAQAAAAAAAAwKkJHAAAAAAAAAKMidAQAAAAAAAAwKkJHAAAAAAAAAKMidAQAAAAAAAAwKkJHAAAAAAAAAKMidAQAAAAAAAAwKkJHAAAAAAAAAKMidAQAAAAAAAAwKkJHAAAAAAAAAKMidAQAAAAAAAAwql6ho0ZsUoSOAAAAAAAAwO5TDpjlg1lxpCMAAAAAAACATr2OdFz9ORihIwAAAAAAALD7CB0BAAAAAAAAjIrQEQAAAAAAAMCoCB0BAAAAAAAAjIrQEQAAAAAAAMCoCB0BAAAAAAAAjIrQEQAAAAAAAMCoCB0BAAAAAAAAjIrQEQAAAAAAAMCoCB0BAAAAAAAAjIrQEQAAAAAAAMCoCB0BAAAAAAAAjIrQEQAAAAAAAMCoCB0BAAAAAAAAjIrQEQAAAAAAAMCoCB0BAAAAAAAAjKpX6KgRmxShIwAAAAAAALD7lANm+WBWHOkIAAAAAAAAoFOvIx1Xfw5G6AgAAAAAAADsPkJHAAAAAAAAAKMidAQAAAAAAAAwKkJHAAAAAAAAAKMidAT23N2PvXzwoa88cXD7Qy+uhgAAAAAAAGyG0BHYc6e+8NjB73724YN33/joaggAAAAAAMBmCB2BPafA0QoAAAAAAGAMhI7AniN0BAAAAAAAYyN0BPYcoSMAAAAAABgboSOw53zo+Nqbl1dDAQAAAAAAhiN0BPacDx1/8epbq6EAAAAAAADDEToCe47QEQAAAAAAjG2WoePjjz9+cM011xzccMMNqyFXaZjG3XPPPashBwenTp06HBaHA+hG6AgAAAAAAMY2u9BRoaFCRIWLWeiocddee+2VcFHTXHfddYd/t+cCaEfoCAAAAAAAxjbLIx0lCx0VLipY9KGjQkb7u+ixjpQE0IbQEQAAAAAAjG0xoaOFjRJDRx8y+nEAuhE6AgAAAACAsfUKHTVik9okdPTh4lSh44ULFw6XkaL2qXzoeN+D+TQURVEURVEURVEURe1fKSsbSs/P8sGsTuxIR7uxTKxbb72V06uBDfnQ8ewLr6+GAgAAAAAADJflgAoYMyd+TUfjj2bUdR65kQwwnA8dH/n5r1ZDAQAAAAAAhptd6KijF+MRjVE8hdpPy1GOQD+EjgAAAAAAYGyzPdIRwHYQOgIAAAAAgLEROgJ7jtARAAAAAACMjdAR2GOX3nqb0BEAAAAAAIyO0BHYY7949S1CRwAAAAAAMDpCR2CPEToCAAAAAIApEDoCeyyGjt9/4uJqDAAAAAAAwHCEjsAei6Hj3Y+9vBoDAAAAAAAwHKEjsMcIHQEAAAAAwBQIHYE9RugIAAAAAACmQOgI7DFCRwAAAAAAMAVCR2CPEToCAAAAAIApEDoCe4zQEQAAAAAATIHQEdhjhI4AAAAAAGAKhI7AHouh4y0PvLAaAwAAAAAAMFyv0FEjNilCR2BeYuj41b/8xWoMAAAAAADAcMoBs3wwK450BHYMoSMAAAAAAJhCryMdV38ORugIzAuhIwAAAAAAmAKhI7Bgd51++eBDX3ni4M5HXloN6YfQEQAAAAAATIHQEViwU1947DAsfM/nT6+G9EPoCAAAAAAApkDoCCyYDwyHeOblN9bmQegIAAAAAADGQOgILJgPDId45Oe/WpsHoSMAAAAAABgDoSOwYD4wHCKGjn989zOrMQAAAAAAAMMROgIL5gPDIQgdAQAAAADAFAgdgQXzgeEQhI4AAAAAAGAKhI7AgvnA8K3L76yGtiN0BAAAAAAAUyB0BBbMB4a/ePWt1dB2hI4AAAAAAGAKhI7AgvnAkNARAAAAAADMBaEjsGA+MCR0BAAAAAAAc0HoCCyYDwzHCB0/c9fTqzEAAAAAAADDEToCC+YDwzFCxz+87dxqDAAAAAAAwHCEjsBCvfbm5bXAkNARAAAAAADMBaEjsFAKGX1gSOgIAAAAAADmolfoqBGbFKEjMB5CRwAAAAAAMFfKAbN8MCuOdARmhNARAAAAAADMVa8jHVd/DkboCIyH0BEAAAAAAMwVoSOwUISOAAAAAABgrggdgYUaI3R86On10PEjXz+7GgMAAAAAADAcoSOwUDF0PPP866sx7e5+7OW1ebz/5sdXYwAAAAAAAIYjdAQWKoaOOlW6L0JHAAAAAAAwBUJHYKEIHQEAAAAAwFwROgILRegIAAAAAADmitARWChCRwAAAAAAMFeEjsBCnbtwaS0wJHQEAAAAAABzQegILJRCRh8YEjoCAAAAAIC5IHQEFmqK0PG9N51ejQEAAAAAABiO0BFYqClCRxUAAAAAAMCmCB2BhSJ0BAAAAAAAc0XoCCwUoSMAAAAAAJgrQkdgoQgdAQAAAADAXBE6AgsVQ8cHz/9yNaYdoSMAAAAAAJhCr9BRIzYpQkdgPDF0VIDYF6EjAAAAAACYgnLALB/MiiMdgRkhdAQAAAAAAHPV60jH1Z+DEToC4yF0BAAAAAAAc0XoCCwUoSMAAAAAAJgrQkdgoe4/9+paWKgAUfWhrzxxcPtDL66mqvvqX/5ibR4qAAAAAACATRE6AgsVj1LU41NfeOzw7+++8dHVVHWEjgAAAAAAYAqEjsBCZaGjf9yC0BEAAAAAAEyB0BFYKEJHAAAAAAAwV4SOwEIROgIAAAAAgLkidAQWqit0fOX1X6+mLCN0BAAAAAAAUyB0BBaqK3T8xatvraYsI3QEAAAAAABTIHQEForQEQAAAAAAzBWhI7BQMWT8xo9fWHtM6AgAAAAAAE4KoSOwUDF0jAEioSMAAAAAADgphI7AQhE6AgAAAACAuSJ0BBaqNXS898wrBx/6yhMHtz/04uFjj9ARAAAAAABMYZah4+OPP35wzTXXHNxwww2rIUc0zErTmFOnTl0Zfs8996yGArtNIaIPC2OAeP6lNw6nO/WFxw4f/971jxw+9ggdAQAAAADAFGYXOio0VIiowNGHjvq7BYr6+7XXXnvl79ddd93h3+25wD6IgWF8/MjPf3U4nR92+e13DocZQkcAAAAAADCFXqGjRmxSrUc6SgwdPYWLFjoqZPRHN+qxPwoS2FVDQsd4nUdCRwAAAAAAMAXlgFk+mNVWr+lYCx11ZKONiyGjwkgfQgK7itARAAAAAADMVa8jHVd/DjZG6BhPoR4zdLxw4cLhMlLUEupP7nh0LSz8o3+//viOH50+nM4Pu/c/1ueh8uMpiqIoiqIoiqIoitrfUlY2lJ4fzTZ0tBvMeJxejX0Vj1L847ufWXucHelow8xnv7v+HBUAAAAAAMCmFhM6WuAYA0Wdas2NZLCPxggd43NUAAAAAAAAm5pd6Hjrrbcehou+RKdNx+EWQGbDgF03JHS87+zFg7tOv3zwoa88cXDnIy8ROgIAAAAAgEnM9khHAHUxdPz0d86vPb77sZcPp4vDTn3h6DqP7/n8aUJHAAAAAAAwCUJHYKFi6PiHt51be1wKHf1jQkcAAAAAADAFQkdgoVpCR51K7Yfd8sALa48JHQEAAAAAwBQIHYGFagkddQq1H9Z1HUgVAAAAAADApggdgYW66QfProWFWejoH6u+fP/za48JHQEAAAAAwBQIHYGFioFhDB2/8eP1U6lV8Tmf+PZTa49VAAAAAAAAmyJ0BBaqK3SMp1arup6jAgAAAAAA2BShI7BQLQFirDgNoSMAAAAAAJgCoSOwUENCx/ff/PjaY0JHAAAAAAAwBUJHYKEIHQEAAAAAwFwROgILNSR0fPeNj649JnQEAAAAAABTIHQEFiqGjvEoxpYidAQAAAAAAFPoFTpqxCZF6AiMh9ARAAAAAADMlXLALB/MiiMdgRmJoePvXf/I2uOWykLHD33liYM7H3np4O7HXj78++0Pvbh6RQAAAAAAgDa9jnRc/TkYoSMwnhg6DqkPfvmJdPh7Pn/64NQXHjv8u64DCQAAAAAA0AehI7BQY4SOrQUAAAAAANAHoSOwUJ+846k0IJyiLr319upVAQAAAAAAuhE6AguVXY9xqvrFq2+tXhUAAAAAAKAboSOwUISOAAAAAABgrggdgYUidAQAAAAAAHNF6Ags1DZDx+cuvrl6VQAAAAAAgG6EjsBCbTN0fOTnv1q9KgAAAAAAQDdCR2ChCB0BAAAAAMBcEToCC0XoCAAAAAAA5orQEVioltDxfV98PB3etwgdAQAAAABAH4SOwEK1hI7vv3mc0PHeM6+sXvXg4K7TLx986CtPHNz5yEurIQAAAAAAAOsIHYGFagkdP/rNn6XD+9bdj728etWDg1NfeOxw2Hs+f3o1BAAAAAAAYB2hI7BQLaHjWNd99KGjHw4AAAAAAJAhdAQW6sNf++laAJgVoSMAAAAAADgJhI7AQrVcr/HT3zmfDu9bt/3kwupV10PH1968vBoKAAAAAABwVa/QUSM2KUJHYDwtoePNP3o+Hd63vvqXvzh8zRd/9dba8F+8+tbhcAAAAAAAAE85YJYPZsWRjsCMtISOCguz4X3LQkeFjH44oSMAAAAAAMj0OtJx9edghI7AeE4idLzj4RfXhhM6AgAAAACADKEjsFDbDB2/+MPnDl/z1BceWxtO6AgAAAAAADKEjsBCtYSO33/iYjq8b/3x3c8cvmYcTugIAAAAAAAyhI7AQrWEjo/8/Ffp8L5VCh3PvvD64XAAAAAAAACP0BFYqDmEjpo/AAAAAABAROgILNQ2Q8fP3PX0wYu/Wr9ztYrQEQAAAAAAZAgdgYVqCR3PXbiUDu9bf3jbucPrN8bhhI4AAAAAACBD6AgsVEvo+Nqbl9PhfYvQEQAAAAAA9EHoCCzUez5/+lgI6Ov3rn/kcLpsXN9S6PjMy28cG07oCAAAAAAAMoSOwELFANCXAsev/uUvOqdrLYWO2fUhv//ExcPXAAAAAAAA8AgdgYWKAaAvCxwlG9+3PvClM2noePdjL69eBQAAAAAA4CpCR2ChYgDoa+zQUdePJHQEAAAAAACtCB2BhYoBoC8fOnZd+7GlFDred/biseGEjgAAAAAAIEPoCCxUDAB9+dDx9odePHjvTacPPvy1n6bTtpRCRwWMcTihIwAAAAAAyBA6AgsVA0BfPnQ0WWjYWu++8VFCRwAAAAAA0IzQEVioGAD6uuWBF1ZTXfXAk6+m07ZWFjpmrwMAAAAAANArdNSITYrQERhPDAB9ZUcgZjeC6VM6ejIbBgAAAAAAECkHzPLBrDjSEZiRGAD6InQEAAAAAAAnqdeRjqs/ByN0BMYTA0BfWej43MU302lbKwsddYOaOx95afUK67QMH/rKE4c3sgEAAAAAAPuF0BFYqBgA+spCx1+8+lY6bWt99rvPpMPf8/nTq1dYd+oLjx2O101oAAAAAADAfiF0BBYqhn++stDxxV9tFjr+4W3n0uGqTNd4AAAAAACwuwgdgYXyoV6sLHSUbNrWqoWOl956e/UKV/nxAAAAAABgvxA6AgvlQ71Y2w4ddep25Mfr2o6laz8CAAAAAIDdQ+gILJQP9WKVQkddfzGbvqU++OUn0uGqrtBRVbr2IwAAAAAA2D2EjsBCxVDPVyl0vO0nFw5v7JI9p6vef/Pj6XBVS+ioAgAAAAAA+4HQEVioLNSzKoWO8sjPf5U+p6tqR0k+8/Ibq7lflU0HAAAAAAD2A6EjsEAKFbNQz6oWOp5/6Y30OZuUgswomw4AAAAAAOwHQkdggbquzVgLHXUqdPacTao1dHztzcursQAAAAAAYJcROgILlAV6vuYaOmbXfgQAAAAAALuH0BFYAIWIH/rKEwe3P/Ti4eMs0PO17dDxoacJHQEAAAAAwFWEjsACnPrCY4ehne48/eKvukPD+85eXD3zuClCxyzkzKYjdAQAAAAAYD8QOgILEIM7/zir7HRnE5/fdX3IliJ0BAAAAAAAHqEjsAA+uHvu4ptrj7PqEzq+/+bH1x4PKUJHAAAAAADgzTJ0fPzxxw+uueaagxtuuGE15MipU6cOh6vuueee1dDycGBX+OBOgaJ/nFWf0PHaW86uPR5ShI4AAAAAAMDrFTpqxCbVEjoqNFSIqMDRh476+3XXXXf4d5tGSsOBXeKDuwfP/3LtcVZ9Qsc/vO3c2uOu+r3rHzk27Kt/+YvV3K+K06gIHQEAAAAA2A/KAbN8MKutnl4dQ0eFifHoRh0RWRoO7BIf3N3x8ItX/q4A8CNfP36kYp/Q8dPfOb/2uKs++OUnjg2LoeOlt94+No3q7Auvr6YAAAAAAAC7rNeRjqs/B9s0dPRh4rXXXnvlyMZsOLBLfHCngM/+/sd3P5Oebl0LHcVPq3n4x12VHRkZQ8cYbFp1LRcAAAAAANgNhI7AAvjgzoeON//o+Y1Dxy/f//za46765B1PHRtG6AgAAAAAALxFhY7ZadSl4UNcuHDhcBkpam7lg7v/4d8/euXvf3LHowd3/Oj02niVhmXzsfLTah7+cVf9m28en/4T33xkbf73Pbj+GlZdy0VRFEVRFEVRFEVR1HxKWdlQen40y9BRN4vJbhhTGg7sEh/c+dOhdYThpkc66s7T/nFXZadja5jHkY4AAAAAAOy32YWOt95668E111yzVsYP80czloYDu8IHdz70U2B4/qU31sar+oSO9555Ze1xV+mU7jjMh46a3we+dObYNCpCRwAAAAAA9sNsj3QEcJUP7j72ras3clHomB1V2Cd01LT+cVfp6Mr3fH79lG4fOp76Qn5qtYrQEQAAAACA/UDoCMxcDBX93aO//8TFjUPHM8+/vva4qxQ63vnISwfvvelq8Pjx259czXl93rEIHQEAAAAA2A+EjsDMxVDx/Tc/vhbibRo6Zs+vlY6uFL2GDVMQavy0sRSSAgAAAACA3UfoCMxcLRQcI3R89dLltcddZaGjv5Zka+hozwUAAAAAALuN0BGYuVroeO7CpcNp4nAFgjV2Tcbfu/6Rw8fx+bWyoxX9chE6AgAAAAAAj9ARmLla6KhxUhpeomsyvu+Ljx/c8sALh4/j82tlR1H65frQV544HCZ+2liEjgAAAAAA7AdCR2Dmpggdo/j8WmWho64zafy0sQgdAQAAAADYD4SOwMzVQse3Lr9zOE0cPmXoaKd0v/bm1WtBEjoCAAAAAACP0BGYuVroaN5946Nrw6cMHf28bRihIwAAAAAA8AgdgZkrhY66JqNR6OfHbRI6fuBLZw5vMPOuzz1yeIMYP06VhY66MY3x08YidAQAAAAAYD8QOgIzVwodP/atq3eMVlDox20SOn71L3+xGnpweP1GP05lp3SLH278sFh24xoAAAAAALDbeoWOGrFJEToC/ZVCx+vv/flqioNjRyRuEjrqztbm7Auvr41Tef60buOnjeUDTQAAAAAAsLuUA2b5YFYc6QicAN24JQvwbvvJhdUU44aO/hToGHi+96arp1GLP6371UuXD4f56WMROgIAAAAAsB96Hem4+nMwQkegv+wUZ9X9515dTXFw8Jm7nl4bt0noeN/Zi6uhx0NHncbtffhrP70yzl7TTx+L0BEAAAAAgP1A6AjMXCl0PP/SG6spDg7++O5n1sZtEjrq9UwMHXVEpeePsDzz/OuHw/z0sQgdAQAAAADYD4SOwMyVQkd/Q5cv/vC5tXFThY6fuvP8aswRPY7P89PHInQEAAAAAGA/EDoCM1cKHT2FeX7cJqGjf24MHT/73WdWY474IyzvPfPK4TA/fSxCRwAAAAAA9gOhIzBzLaGjbirjx40VOurmMH5cDA1v/tHzV8bZDWj89LEIHQEAAAAA2A+EjsDMZaHj+774+GrsEQV+fvwmoeOlt95eDT3ix93x8IuroUf8EZYWKPrpY+nISAAAAAAAsPsIHYGZy0LH99+8Hjrq1GY//vLbV6/32OI9nz99+Lzfu/6R1ZCr/HztFGpz1+mrYeeX73/+cJifPhahIwAAAAAA+4HQEZi5ltAxTtPXnY+8dHj05C0PvLAacpWfr17H80dYWqDop49F6AgAAAAAwH4gdARmbhuhY42f7/mX3lgNPeJf99PfObqztZ8+FqEjAAAAAAD7gdARmLmW0PG5i2+ujR+Tn++Lv1q/VuTpZ1+7Mu4Pbzt3OMxPH4vQEQAAAACA/UDoCMxcFjp+5OtnV2OP6MYxfvyYatd79K977S1Hy2SPsyJ0BAAAAABgPxA6AjMX70ytsqMKje447cePqXa9x1de//WV17SjL/1yxCJ0BAAAAABgPxA6AjPXEjqKH79N/nXfe9PRUZGl+sxdT6+edUTr9qGvPHFw+0MvroZ00x2z9RyFoQAAAAAAYJ4IHYGZaw0da6dBT8let6Xicp/6wmOHw99946OrId3sOXpdAAAAAAAwT4SOwMy1ho63/eTC4ZGGfY4aHINeV0FnXMas4nL7ca2GPAcAAAAAAGwXoSMwc1no+Kk7z6/GzseHv/bTY8sZqxY6xjtjl/jnAAAAAACAeeoVOmrEJkXoCPSjwFE3cfFBm2qON2RRoBiXM1YtdNSdsFv45wAAAAAAgHlSDpjlg1lxpCOwZXb9wlhzDB119GW2rL7GDh1fe/PyaigAAAAAAJiTXkc6rv4cjNAR6McHbL7mGDpqmbJl9VULHc++8PpqaJ1/TmtQCQAAAAAAtovQEZgxH7D5mmPoePOPnk+X1VctdHzk579aDS3TkY3+OYSOAAAAAADME6EjMGM+YPN10w+eXU0xH1/9y1+ky+rrI18/u5r6iB/XEjoqZPTPIXQEAAAAAGCeCB2BGfMBmy8FfHNz1+njd9mO9f6bH19NfcSPe+DJV1dDywgdAQAAAABYBkJHYMZ8wOZrjqGj7rSdLasvHzq+dfmdtXF6fhdCRwAAAAAAloHQEZgxH7D5mmPoqNOjs2X15UPHGCASOgIAAAAAsDsIHYEZ8wGbrzmGjqeffS1dVl+10FGnZ3chdAQAAAAAYBkIHYEZ8wGbr9t+cmE1xXzEQNDq965/5Mrfa6FjS5B67sKlteecfeH11RgAAAAAADAnhI7AjPmAzVfLqcjb9srrv06XVWGi/X3T0DGewt1yx2sAAAAAALB9hI7ATF166+21gM3XHENHyZaV0BEAAAAAgP1D6AjMVOl0ZdVcQ8f3fP70sWX1oeN7bzq9mvL4+n32u8+sxpQROgIAAAAAsAyEjsBMLTF01LUm/TUcVT50VJm4fn98N6EjAAAAAAC7gtARmKla6Pj9Jy6uppqfGDISOgIAAAAAsH8IHYEZuPfMKwcf+soTB3c+8tKVxx/40pm1gM3XnMO2oaHjJ7791GpM2f3nXl17DqEjAAAAAADzROgIzMCpLzx2GKLpmoj+camWFjq++8ZHrzw28ajFP7zt3GpMmU4r988hdAQAAAAAYJ4IHYEZ8EFafJzV0kJH3bXaHpsxQsc5n2YOAAAAAMA+6xU6asQmRegI5HyQFh9nteTQ8dVLlw+ni6HjtbecPRxeE0PHud5QBwAAAACAfaccMMsHs+JIR2AiPkh75fVfrz3O6vSzr62eOT9doaOu5SgxdNQ0XQgdAQAAAABYhl5HOq7+HIzQEcj5IK1212orC+7mKAsdP/L1s8eWndARAAAAAIDdRegIzIAP0nYxdNT1GuOyx9DxfV/sDh1vf+jFtecQOgIAAAAAME+EjsAJiyHjroWOd51+eS10tOtRxtBR1SXOm9ARAAAAAIB5InQETtiuh44KBj/2LUJHAAAAAAD2CaEjcMJiyPjMy2+sPc5qaaHjH9/9zJXHhI4AAAAAAOw+QkfghMXQMQvjYs2ZTqf2yxpDxweefPVwuu8/cXFtOlWXGDre8sALqzEAAAAAAGBOCB2BE7ZroaNCRr+sMXS0oxPjdKoPfeWJw5vFlMTQUY8BAAAAAMD8EDoCJ+zchUtrQVpX6Ph71z+yeuY8ZaHjTT94du1xNp3Vu2989HB8xs9HRegIAAAAAMA8EToCJyyGjLXQUYHj3IO2LHT0Ryh2hY6qEn/EpIrQEQAAAACAeSJ0BE5YDBnf98XH1x770rRz1xU6fuPHR9dhrIWOl99+53CaiNARAAAAAIBlIHQETljX6dS+diF0tKCwFjqW7s5N6AgAAAAAwDIQOgInbB9CR39Ha0JHAAAAAAB2H6EjcML2IXT0w758//PpdL4IHQEAAAAAWDZCR+CE1cK3WLsQOio4zKbzZaHjvWdeOfjQV544uP2hFw+nf+9Np9ems3kBAAAAAIB5IXQETlgtfIu11NDx+09cvPLYgkIFiX46X+cuXDqc5tQXHjt8/O4bH73yd1+EjgAAAAAAzBOhI3DC+oSOz7z8xupZ85WFjv4UcgsKdWq0n86XhavZOF+EjgAAAAAAzFOv0FEjNilCR+C4PqFj6VqHc9IVOn7yjqcOpyN0BAAAAABgdykHzPLBrE78SMdTp04dXHPNNYd13XXXrYYeHFx77bVXht96662rocA86U7OH/jSmYPbfnLh8PG+hY5/eNu5w+m6Qsc7Hi6ffm1F6AgAAAAAwDz1OtJx9edgm4SON9xww1rQqIDx8ccfPwwZFTqKHms4MGd2M5R3fe6Rg1cvXa5e2zDWEkLH+8+9urbMD57/5cH5l9648rg1dIw3jcmK0BEAAAAAgHlaTOiocDGGjqLA0R/dqMf33HPP6hEwPz4001GPtfAt1hJCR39Uo0qPtdz2uCV01F2rs+GxCB0BAAAAAJinxYSO4k+j1lGNNsyHjAomOcUac+ZDs49969zehY46tVxu+sGza9P5aj3l/DN3PX04LwAAAAAAMC+LCh0VNipQ1LUd7ZTqMUPHCxcuHC4jRU1ZPjT7p3/68MGf3PHo2rBa3fdgPs851R0/Wj8tWo+13Pb4X9z08OF0777hkbXpfH3p7raefPjPHjn2+hRFURRFURRFURRFjVPKyobS86NZho4xTFTYqMf2p4khJDA3MTjbhyMdxR6//+bHD69l6aeJdcsDL6TDY9mp2gAAAAAAYF4WEzoqTNTNZIyOdlS4qGEaJ9xIBksQg7N9Cx1PfeGxg7MvvL42Taybf/R8OjwWoSMAAAAAAPO0mNDRAkUrf1MZBZA2nKMcMXcxOPvEt586NqxUuxA6qu47e3HtcSzdICYbHovQEQAAAACAeVpM6Ajsiiw4i8NKteTQ8d03Xr1O420/ubA2TaxPf+d8OjwWoSMAAAAAAPNE6AhsWRacxWGleuX1X6/mMl+l0FHXcrRhN36vfOdqVa0n7/rc1RvQEDoCAAAAADBPhI7AlvkAzYKzOKxUS9ASOnadUl7riZ8PoSMAAAAAAPNE6Ahs0aW33l4L0Cw4i8NKtQQtoeMHvnRmbZpYH/rKE+lwlZ/PR75+9nDeAAAAAABgXggdgS3SNRl9gKb68Nd+emxYqZagJXTsKn/9x1h+Pvo7AAAAAACYH0JHYIuy0LFPLcEYoWOtCB0BAAAAAJg/Qkdgi/YhdDz97Gtry0zoCAAAAADA/iF0BLZok9Dx965/ZDWXeYvraKHjR7/5s7XhQ+uDX756vUdCRwAAAAAA5onQEdiioaHjuz73yMFX//IXq7nMWyl07HPDnFr5+RA6AgAAAAAwT71CR43YpAgdse+Gho53P/byag7zF9fx/EtvHA4ndAQAAAAAYH8oB8zywaw40hHY0D6GjnosY4WOn7nr6St/nzp0vOv0ywcf+soTB3c+8tJqCAAAAAAAaNHrSMfVn4MROmLfETqur9eQ+uO7n7ny9/fedPpw3lN5z+dPH76O/gQAAAAAAO0IHYEtGho6Pnj+l6s5zN82Q0fVVN66/M5WXgcAAAAAgF1E6Ahs0TMvv7EWZLWW3YxlCUqh4ye+/dTa8KG1rdAxrgcAAAAAAGhH6AhskcJDH2S11i6EjjEsHFrbCh1PP/vaVl4HAAAAAIBdROgIbBGh4/p6DSnN5903Pnrl8VTuP/fq2uteeuvt1RgAAAAAANCF0BHYoq7QUTcs0d2S43BCx6ul+eiu1fZ4KrpztX9dWw8AAAAAANCN0BHYoq7QsTQNoePV2lbo+NW//MXa6xI6AgAAAADQjtAR2KKW0DFeS1BF6Hi1vvjD59ZCx9YwUEcu6ijS2x96cTWk7vp7f772uoSOAAAAAAC0I3QEtqgWOr73ptOH08TQTkXoeLV0BOKQ0PHUFx47nP73rn9kNaTuU3eev/IafV4HAAAAAAAQOgJbVQsdFaTJK6//+ti4JYWOb11+Z23ZLaz78v3Prw0fWgod/XUvW8NAP48Wf3jbubXnEDoCAAAAANCO0BHYopbQUeK4JYWO4pfdwrp4jcShpfn4QHCq0NEfTakidAQAAAAAoB2hI7BFraGj7mLtx51/6Y3VmGXwyz6H0PHSW2+vzaPFu298dO05hI4AAAAAALQjdAS26KGn20LHWx54YW3c0gKvbNmnCh1bjgLVMvh5tPDTq567+OZqDAAAAAAA6ELoCGzR3Y+9fCzMsvKhYwzJCB2v1kmFjks7xR0AAAAAgJNE6Ahs0T6Gjq+9eflw2Jih4ye+/dSVx+/74uOHd8bWzWVuf+jFw9eKnnn5jbV5tPDTqwgdAQAAAABoR+gIbNE+ho7mtp9cWBs+tDQfhYzZOF2HMROvpdnCT68idAQAAAAAoF2v0FEjNilCR+y7Wuj40W/+bDXVboaOcd11sxwdpfixb109VbqlNJ9S6KjKEDoCAAAAALBdygGzfDArjnQENlQLHXWdQrMPoaOtbwwEu2pI6Bhv4NPCT68idAQAAAAAoF2vIx1Xfw5G6Ih91xo6Xnrr7bVxuxg66ghHqYWOOhoyDusKHXXNxw9++YnD07BNfG09rl0D8vLb76xNryJ0BAAAAACgHaEjsEWtoaP4cbsYOio4lFroqOtcxmGaz43fe/bY8Fjv+twjB69eOrqJTXztU1947PDP0jUg45GmKkJHAAAAAADaEToCW0ToeHX4JqFj652w7zr98uFr1PqeIXQEAAAAAGAzhI7YaQqddBrtnY+8tBpysoaGjq+9eXTE3lL4ZTdDQsePfP3ssWF9Qkc7hbs2fbZ/ZKHjvWdeWY0FAAAAAABdCB2x0+w0Wl0bcA6Gho5LY9di/L3rH1kNOX4zl5bQMbuzdZ/QUadYS9f0cf/IQke9LgAAAAAAaEPoiJ3mQ6M5qIVfdlSe8eOWRjdo0fUStb4mhos27rmLb64N95XdMEZHHLaGjippmd4jdAQAAAAAYDOEjthpPjSym4qcpFr4ZUf+GT9uF5RCxyzgs8r6pfnoztRxeKle/NVbB5/9bvlu11YeoSMAAAAAAJshdMTOeuvyO2uhkYKkk0boeHWdNgkda6epx9L8syMmY/nrZm4aOs7tWqIAAAAAAGwboSN2VgyOlhY6ZtdFXLIhoeM3fvzCsWFThY5+/zjz/OvHxvcJHed2LVEAAAAAALaN0BE7a+mhY3ZdxCWLoaOOBpRa6JiFi31Dx7MvvH7w8dufTMf58vtHXFZVn9DRPw8AAAAAgH1E6IidFcOs08++thpzcvqEjrtG4Z9fXwvxpg4dNb3uDJ6N80XoCAAAAADAeAgdsbNicKTHJ0lH9tkp01nteugYw8WW0PH+c68eG6bteN/Zi8eGl2qs0PGj3/zZ4XUadQRqF/88AAAAAAD2EaEjdtacQsdLb719eG1GvzyxCB2P1zMvv3FsmLZjFgqW6oEnXz0MC7NxvrpCRyud8t7FT//K679eDQUAAAAAYH8QOmJnxeDooadPLnS898wra8uS1Y3fe3Y19W6K4eKD53+ZDveVjesbOircfP/Nj6fjfJ27cOlweaRr/l38tD7MBAAAAABgXxA6Ymd9/4n1U3DjNfl0urOOgLvzkZdWQ6bzyTueWluWrHblhjElMUBUsCc6CtQP9/XW5XeODXvu4puThI6fuevpK/vD3EJH21dbTu0GAAAAAGAOCB2xsxQ2+fAnho6nvvDY4XBdZ3FqOiXXL0tW+xo6ih/+rs8dnYau09HjOJXm0yd07LqWZixNq1Oys3FWtSAxrucYoaPtq9YTAAAAAADmrlfoqBGbFKEjtqkrdPTjppQdrZcVoeNR6TRzBX/WDz9OpfnEO2HXqnbH8FLFfSfWtkNHPz8AAAAAAJZAOWCWD2bFkY5YFJ2K6sOaOx5ePzXVj5tSDKFKteuh4+W318PX8y+9sRqzvi1iSOfH2fjWnqpu/tHz6fBaaV/JhlvVgsS4bLVpW/n5AQAAAACwBL2OdFz9ORihI7YpHuEWQz0/bkqnn31t7bVKteuho/j19WFcabj4cTY+Bnu10l3Bs+G16jo6shYkxmWrTdvKz28fbPN6qzU64pVraQIAAADAMISO2FlzCR3vP1e/PqAVoeNR6YhIT9cx9OP1vBjs1epj3zqXDq/VmKGjP6JzKD+/fbDN663W2HLomqwAAAAAgH4IHbGz4mm1JxU66qgt/1qlInQ8qkhHmvnxLaGj3YxG9YEvnVkb11JdoaO/HmUUl602bSs/v30wl/Wdy3IAAAAAwBIROmJnxdNqdYMSz4977c3Lq6HjKwVY8Y7W8ZqTu8ivr++5Hx598o6n1sYr1Hv10uW1YbHef/Pj6d9bq+s6kLUg8dyFS83TtvLz2wdzWd+5LAcAAAAALBGhI3ZWDB312Cjw8uP8UXdju/7en6+9llUMw+LdtXeRX1+vNFy++MPn1sZfeuvtw+F+WCzf2xjutlTXdSBrQaLGtU7bxa5t6Oc3J7Z8Y1/zcC7rO5flAAAAAIAlInTEzqqFjvEU2ClDx0/deX7ttaz2MXTUNfq0rrpOo1caLrqZiO+T8cNiDTm60dcf3la/DuS2Qke7pqCvOaltt0349X3l9V+vhm7fXJYDAAAAAJaI0BE7KwZHJxU6lgKsfQwdb/vJhcOgKl6/sjRcHnp6PcQzflisITeP8TWX0NHPx2pOplguHcnq5zvle7PLXJYDAAAAAJaI0BE7KwZHCqLMNkPH0lF3+xg6DvHir9a3lfHDYnWdHt1VH/3mz9LhVrVttUnoeO+ZVw5PV9bRneLnYzUXpe2yqW2+N7vMZTkAAAAAYIkIHbGzYuiox2abwUbpmoIx2CJ0LNPpu+qRP43XTu3NatPQsev07KlCRzudWusmfj5Wc/HcxTcnWS5CRwAAAADYDYSO2Fkf/PL6DThOKnT0r+MrhqKEjmW6s/d7bzp9cMsDL6yGHJ2SXQp0481n+taYoWOf7eqfFx/74XMQ13Mscwkd37r8ziyWAwAAAACWitAROysGRzqy0JxE6BiXh9Bxc3E7WunakNnw1tokdNS41mkj/7x4h3WruXjgyVcnWa5tvjdr5rIcAAAAALBUhI7YWTE4etfnHjk8Ok7OXbi0Nm6KQOGu0y+vHW3ZFTrqhinoJwZDVjoyMhveWnMIHUvrNhdxPbW/++tRDvXMy2+szTe+N+11bn/oxdWQacT+T/EZAQAAAAC7jNARO0l3wLXrAPrS6bgSTw2dIlCI1xyMp3vH6w72ufYfrvI9tFIgVjr1eozK7rJt9iV0VIDvl8v2d7se5VDxvXn+pTdWY47YdS/99T2nEPsflwMAAAAAUEfoiJ304PlfrgUGvmQboaOfvyoe2RhPASZ0HMb30EpBX9fRipvUNkLHsy+8vvbYai5qp7BvIr434/vCj5tSDB15fwIAAABAP4SO2Ek3/+j5tcDAl0wdOupISz9/FaHjNHwPrRT0feBLZ9JxY9Q2Qse4j1rNxWe/W75D+Cbiesf3hR83JUJHAAAAANgMoSN20ke+fnYtMPCla8LFo+B0jccxxcBC9ck7nlp7TOg4Dt9DKwV9MeQdsz78tZ8eXldQ146Mxgod7z+3fqMWq7n4zF1Pp8un2sS+ho73nnlllGtiAgAAAMBc9AodNWKTInTEtuimMRYWxGsrxseqsQOF5y6+eew14jUcCR3HUdqeU4aOVtl1BXWDEz+N3byohX9eDC+t5qLW31de//Vqqv50QyU/r30JHe1alZteExMAAAAA5kI5YJYPZsWRjlgMHxYo9PEhZFZjBwqaX3yNGDrqiEv/eOpQY1fpyDALbHwva0fijVkv/mr91PwYJtdOxY788+YeOl57S/lo4k0uVxDX278v4mULprTt0NG/FgAAAADsgl5HOq7+HIzQEdsSf8B33VRkk0BB4WE8LVLzi68RrzMZw5XTz762ejb6ygKiGPJOVbp2pD+acWjoqKMD/fPmHjrW3lNThY5xO3fJ3put4nt4k8+IFv61AAAAAGAXLCp0vOeeew6uueaaK2WuvfbaK8NuvfXW1VDss/gDfsrQMTstUtdni68Rw6gYrmwS1Oy7LHT84g+fWxs2Zb37xkdXSzI8dIzrMPfQUeucLZ9qLqGjnXo/5JTlkwwd37r8zmooAAAAACzXYkLHxx9//DBU1J+eQkaFjmLTAP4HvEwZOvr5mCwwInScTgyjzr7w+rF+T11mrNAxXhvSai6yZbMaM3TUY9M3dOwzbRRDR78cU/CvxWcBAAAAgF2wmNDxhhtuOKxIgaM/ulGPdUQk9pv/AS/bDh11uq0frophyn1nL649JmgY7tVLl4/1MtsGU5YZK3QshaZzkS2b1Sb78liho44W9NNefrvf0YOEjgAAAACwmcWEjtddd92VU6hVdnRjDBk1HadYw/+Al22FjnZaZBYYxTDl3IVLa48JGjYTexn7rTtN+8djlyF0vLovaxvomoo6arNVXG8f9j3z8htr42piP/u+v7YZOioQ9a/Vd1kBAAAAYI4WFTr6MPHUqVOHYeOYoeOFCxcOl5Fafvkf8Hr8L266+jirO350+tg8WsvP574Hj4b929uPX+/uq/ccXV/OStPGx3HeVHvFXn4l9Pt9X5g2dLTt92++ub7tP/Pnjx5b1qzi/vCJb+bLmz33JCpbNqt7/+PRNP/8xqPH/+xz7cv9J3es9+9Ld1/tn96nfpx/XqxN31/xtfxyjF2bLitFURRFURRFUdRUpaxsKD0/WsTp1RYucno1Mv4HvHz0mz9bGxZr6JGOl956e20+doRSdufkeOTUpkdiYV3sZez3J+94au2x6l2fGy+ILG17PW4R94fS3bfnIls2K3s/+WE6Bb5F7UjHuE1rdDd4P23f91d8rSmPdIzbvu+yAgAAAMAcLSZ0tIDR2E1lFETacG4kA+N/wMsf3nZubVgsC0n6KoUFn7nr6bXhqhhiEDSMy/dSp7nHfmchnoKkOGxo2fYbK3TMQlLVHLz4q/VljWXvJz+sdf8eK3TM3m99xOcTOgIAAABAP4sJHUXhol3TMZ5qbcM5yhHif8DLWKHjnY+8dHiNOt2kREphQfZ68RqO8TpurUeCIed7Kc9dfHNt2B0PH78b9JxDx9I+OwX1oc+1F+OyxspCxzPPv344rMtYoeP9515dm1bvvxbWi9j/bYaOOkoTAAAAAJZuUaEj0Mr/gJeu0FEBRYt333h0vTn9KTEssOApez2Ne8/nj64Tp5uaiB+PzcTexm2TBYzZsKFl236JoeOpLxxdU9D26y5xWWNloWNrsP/Z7673zwJ+eejp9tAxbtvW17dexPLLMbbYz9ZlBQAAAIA5I3TETvI/4KUrdGw5iimeUioxLLDg6QNfOrM23MbpSMn3ffHxg1seeOFwOj8em1EopOBRR8pJvN7m+ZfW73ysitf926Rs2w8NHeNRfNsMHfvOP+73sbQusf/3nnll9ey62D/bnhKDxJq7Tg8LHf1zfPnlGFvsJ6EjAAAAgF1A6Iid5H/Ay9DQUcGFTrVUWJgdZfXMy+tBlo7S0vQ62s4PV+k6g5Efj/H5/r7y+q/XHqu6wrM+ZaFjvBbjvoaOcZrsPaZh8bTuPqFj7ZTweJr2nENHnXruX4vQEQAAAMAuIHTETvI/4GVo6GinWuoIOgWP/jnZzUpKZaf8RvGUYIwr9jeGwS2hY+sdri0oivva0NDxw1/76dpjqyn4+WfheBTD9lhal9jbLLSz95ff//uEjqrSKeFLCh3jtm9dVgAAAACYM0JH7CT/A16Gho5+mi/+8Lm1xwpVYliQlUKRUmCho7Rq47EZnXKtYMtOZ//gl59Y2zYxGPv0d84fCybff/Pja49LZUFR3Nc+9q1zh8O7xH2p9LpT8PNXT7p07fd6P8Xefvn+51fPvsqP142VpG/oqMpcf+/P16ZpPb3bP8cXoSMAAAAA9EPoiJ3kf8DLGKFjPG22JXRsvTEHtuPjtz+5tn1iMKbHN//o+bVhm4aOetwi7ku69qd/bDUFP/+pQsfsiE8/3l43bqOW0FHXW41ieFl6j0f+Ob62GTq23tgKAAAAAOaM0BE7yf+AlzFCR10/zj9WSNIVviiwwnzEo99iMPbqpcsHD57/5dqw0mnOscYOHUs1BT9/C/90ZGDpmoktoWM8BVtHkUZ+vL1u7J8P+/R3P87Knut96s7za9MsKXRsXVYAAAAAmLNeoaNGbFKEjtgW/wNexggds+sBxpvLxCJ0nJdv/PiFte2jbRiv+6i7Ltt1HDWsa9+x2rXQMbveomkJHeM0sQ/xxj4KKSX2T0eemj6hY5zPpqGjX46xEToCAAAA2EXKAbN8MCuOdMRi+B/w8olvr58aHasldIyloEPPy8ZZETrOy/efuLi2fXQdQd0gSKcy23UfRdeCVBipkCuGV6XatdDRD1MQ6w0JHa+95ezq2Uf0On58qX/+tOxS6Hj2hddXU1wV56Pt3EU30fHP8ZWdHj6WB558de21CB0BAAAA7IJeRzqu/hyM0BHb4n/AS7y+W6ypQscPfOnMak6YgzPPv762fVrE03RLZaFZvAbkLoSONszcd3Y9vI2VhY4xgB8zdLTnenE7tJweHZfJ15ShY/wcIXQEAAAAsAsIHbGT/A946Rs66qioeA3HWKeffa0zdGwNnLAd8ZTeFl37jpXtQ0NDx3gtyVKNRfu4QvEY5Gm/Fj8sho5d+73Gx9BRR44aXS9Sr+3H62g/ie+7uYSO2TUpxxL7afsSAAAAACwZoSN2kv8BL31DR911OpvOl4KOrvCF0HF+7Nqc2bUKM5uGjroRTYuufclqDP66lbEswMuGma5l1enp2fVOjV1H01epfz50/Ox3821hgaUX38Obho5T3ok+9vOu04SOAAAAAJaP0BE7yf+Al67gyN+h98VflYMHX4SOy6Sbybz3ptNr13Cs0Q1Esm0bqxSa6XGLrn3Jagy1oyrHCB0V8GXTmDhcVeqfDx1L72N7rhen2TR0VE0l9qplWQEAAABg7ggdsZP8D3jpCh39j/yuO1JbKYjR87JxVoSOy9e1ja1KodkcQ8dakJqFjrqGo9e1rOpZNo2Jw1UW/E8VOt74vWdXY8oIHQEAAABgPISO2En+B7z0CR11rbtsmlgtoeNn7np6NVcs1Ziho6bRNQv9kbUmC+myGsNHvn42nbcqCx1jqNe1rKXQUaFe6Uhiew8OCR1PfeGxYz2N09h8atugb+io06A1r5Y7Yxs9R8urU8x11K3EXvnPIwAAAABYKkJH7CT/A176hI5f/OFz6TSxWkJHH5hgmRQSZds2lgVz8XqFPnRU2KRh2fUku4I8qzGUrueoykLHGKp17fcaXwodS8GevQdj/z72ratHC9fex+rpW5ffWU1ZDh1r26ArdNSNiDxbVv3Zyq+ftsOrly4f66f1AgAAAACWjNARO8n/gJc+oeMn73gqnSbW/edePRYWxCJ0XL7WMNBCxzjch45+uMImb5uhYzZfK+3XcZoYgnXt9xpfCh2fu/jmseEqO/05DveXKPj47U8eG+/r/EtvrKY8Ph97L/phuqGO1xU6arznx7Xyz1Ep1I79jP0GAAAAgCUidMRO8j/gpU/oqNMls2li6YipD365Pi2h4/K1hoHahxRixeE6ok77iU6l9cNjgDWX0DELT2MIFkOyWLpjtx1R6EvrrCMp43BVFgqqfOiov8fxviwwfe3Ny8fGfeBLZ469t+M2KC2blZ8+busW2f6hIzljP2O/AQAAAGCJCB2xk/wPeOkTOiokyqYZUjpVG8vWFURZaR9SKJWNU8VTmk8/+9rqFY7MOXT87HfXw/Ou0LFUXaFjdr3HPqHjbT+5cDhdbTv40lGXXp/QMb6GH1eSLZf2i9jP6+/9+eoZAAAAALBchI7YSf4HvPQJHbPxQ8vPF8vUJ3QsnTqcle6S7s05dIxH7A4NHdXLB558NR2nU6ezUK5P6GhhXTafrLQ8Xp/QMW7rltCxtH/EfsZ+AwAAAMASETpiJ/kf8PLl+59fGxbLwkHdKCIbP7QIHZdPRyRm2zaWtnVrQKmycM/obsrZdLHGkM3XKgsddZ1Tr/VmS7HUn1K4qkAxC+X6hI5205lthI5x2pbQsTR/QkcAAAAAu4jQETvJfrzbHWrjj/pYFg62hhWtRei4fK37RN/Q8Y6HXzyc/71nXjm81mDX9UGtxpDN10qhYLxjtw/+pOvI4VJ9+jvn02s9qt570+nDm+7E4f61u663+r4vHt20p3WbKaTUPBX4ytShY7yup5VuouMfEzoCAAAA2AWEjthJ9uPd7hzcGjq2HtXWWnaNOSxXn9BRAWI2Livb50ohXKk29dbld9L5WilwfM/nT68N++g3f7Z69pGhoeOQ0k1pTBZKxpLWbWZl/znRFTr6u2PHbd0SOsa+WsV+EjoCAAAA2AWEjthJ9uO9b+jY50i1loqn0GJ5Wk+51z5UOnU4Kx3dJtm4Wm2qK5C7+UfHL0Vg7yOzzdDRv3ZL6Hj57XcOzl24lI6rlXS9/zXexG3tx5X46X194ttPrT0mdAQAAACwCwgdsZPsx3tr6HjTD44CoD6hUUsROu6GbNvGUlCkI1uzcVlZsJSNq9WmukLHLFBcUuio9RvynwfSJ3SM23qT0DFeq/JTd55fPQMAAAAAlqtX6KgRmxShI7bBhyqtoaNCFAWEfU917SpCx92QbdtY2oe69jNfdtOTbFytNtUVOmq54jA7/dhsM3R8942PHl538c5HXpo8dPz+ExfTcVY+WIzbWteTVF/8NSKNPgdq1+yMoWO8hiaAk6HLTWTvaQAAALRRDpjlg1lxpCMWYWjoOHbgqNJ137B8pWvx+dI+1OeuznadxGxcrTbVFTrqGorZcO/jtz+ZTjNlKfhs2Q667uLQ0LHrSGcfOta2dQxpuz5bCB2BebL3bnxPAwAAoE2vIx1Xfw5G6IhtaAkd9UNCPyLs8VRHbrWccon506m0urvyR75+Nt3OKu1DffYj2zezcbXaVFfoqCP2suGX3np7NYeDYyHZnErvuW2Ejl3b+tVLl1dTdm/juF8ROgLz4N+XAAAA6I/QETvHhyr6MS8xdFRg4AMGQke0ePD8L9PtrNI+9Jm7nr7y2P89K4WYko2rlZ3up9drPe3PnqNTlLtCx1J94EtnrrwWoeNB5/ZVn0023lc8bXyq0FHr1+dUUb/fAPvIvy8BAADQH6Ejdo4PVezHO6EjxlALs7QP+TDuvrMXD971uatH02Yl2fBaxVN1W077s9OS9efQ0FFlrzXn0FF9v//cq+m4Wkmf0LGrB6effe1wOh0hmo33ta3Q0fYdXSezhd9vgH3k35cAAADoj9ARO6c1dFQ44R/78WMVoeNu6RM6PvPyGwe3PPDCYWBTuqafZMP71uW33zmcV4mftrYOLaXThucUOipA86eEKzjsCg+zkq7nabzp6sFDTx+990shr98nthU6+tdo0Xd6YNfwHgAAANgMoSN2zrkLl678SLAf77omn//xoIDIhy+fvOOptfFj1XMX3zx8feyGWmCnfU2nINtjf3pt6UZGkg3vW/61Mn7aTUNHvZZugpONO4lSEOj7OzR0VHDbJ3T02zorm7YUOvqgMYaOejwF/xr+Gp2ZV17/9dr0wD7iPQAAALAZQkfsHB+qWOgYw4QYOnYdtTS0usIgLIvujJxtZ5X2IR8evfbm1RuJlELHty6/kw7vW7X97MVfrYdeQ0499qX3jr8J00mX3tu+vzq69Mv3P782TUuph31CxxgUxrrj4aPrJuqI12y8v0t4V+i46bUV7fn+Nbo+m2JYqhByW7iWJObCvwcAAADQH6Ejdg6hI6YSgxhf2od0qq899uKRtla1+fUphaEl8TW6grWpy/dojNL6+P4qgCydzl4r9Uk3WMnGWfnQsWs9tBySHVmq0NZ/5sRrf8bQcdNrK9rzfXV9NumalH2mH5NtP64liZPm3wMAAADoj9ARO8f/yP/47U8eDotBy80/er4YOioQ6Dp1srW2+UMd04sBnq8YXHuloK82vz6lfblEp/j7aU86dNTRa7pzt96b+nPTSxtoffw6DTnKUaVtUToi1UqvY7Lxvm783rOH02WhY7z+Z6wYOvpxQ/jnW3V9NsXl3uZnmX9d4CSxLwIAAGyG0BE7x/9Y1o97iUGLwoVS6Ki/d4UPVpquFhx1XTcNy1Lb1n4fincHLgV9tfn1qVroGMOj0rJsq6JSD7Kj87LS+vh10nvej28tLUdr6Bivd5iVffbohjJxnObTGjpuem3F0t2zddp3TdxP1J9t8a8LnCT2RQAAgM0QOmLnDAkd/TXVxgwdsVt0ncZsO6t8iBSPVHvgyfw6imOFjroTe0kMHa+/9+drj7ddUSkU+8jXz6bDY+kalb6/Q0NH3YCqNXRs2W4f+1Z+aQdVn9AxvpYe97nmYWlZa0G16DX89JrPtvjX3ea1JAEvfjYBAACgP0JH7JwhoaOvPqGjfpiXftTrNG3snmxbq6695WpIFkPH0r5W2nf6loVhmRh4xusHblJDbiiTya6P+Kk7zx8blpV66/vbGlbG0jy63ve6dqTE6x1mpTt8SxY6fv+Ji9XQ0R8pm11bsc81D+Pp9VZa35rYi64jI8cSb3y0zbAT8OLnMwAAAPojdMTO8T/ypw4dNd/Lb6/fgVjXqFNooHlg9/ht/b4v5ncwnlPomIVeY5TCy673iULJeM3GjI7Y89Oor61HLKq3vr/+qOU+pXl0rY+9p0vb05ftA1n/9fzP3PX0seG+THytvkFIaVk1vEbXve0z/Vji+hE64qQQOgIAAGyO0BE7x//IHxI66jnx1MJSWdjjh+nIIuwuv61v+sGza4+tPvjlJ1ZTHykdbdZ63cKu0pFvuvNyZqrQ0d5b2Tir7H1W4qfRqckx9CqV5u/7O/RITs2nK3T88Nd+erhtW46m1E1yJJunXqsrVDVx+8UgRNu9drp16XNO15qsicun+WwDoePyaB/V/lf6DFoqQkcAAIDNETpi5/gf6UNDx9agRtOJH8aP5N3mg8LSabY6WtaLP16nqNLp/DolOJt+09JdosX6kZ1qPTR01HUnuwJAK82/1t/WEFLzaX3N1pJsnrp+ZGvomF1b0T/WUdW2DbLTre8988ra9Fb22VUST2/fVuio07j96/J5On92un+8gdbSxfcaAAAA+iN0xM7xgaGOlorDVGOFjg+e/+Xh/P0wfiTvtlseeOEw3FHo9uql/MYyMXSM16mbqrQ80dhBmpXmKzq6yS4nkE1z9oXX14aV+GkUlLYebaz3ca2/pdOtddSiltseK5zzR1fqaEYdrajpbFjf0vbI+qLPiNbQMT6/9LllFZU+y7pCx3jNyW2FjnH9tnUtSQznt9cuIXQEAADYHKEjdo7/kW3BSBY6xjDEqk/oaD/E/TDutrpf/La3iqGjZNONXVngnYVeY1QWWsVp9NqtP9z9NLojdek9GK+jqaMG4/N9lUJHzd8Hf9ljKS1HS2ndP/vd4+FiS+hoAXJ2bUX/OJauMeuVjnS19SuJYetJhY7bel0M57dX9h8fS0XoCAAAsLleoaNGbFKEjpiCrmOm66zZnWV9SGCho65f5n886Gi1+IPCatPQEfvFb3srXZMwyqYbu848//rq1a7KQq8xSkcGRnEavTeHhI7nX3qjGK7prtD+seYfn++rFjr6a3Lq8diho7ZHFi6+dfmdztDR1itOp0DWP45lzxMdLWqnvsbSeukoVX126mY/+lOPNVzX54unyyvsbblmn/aLTa7vl4WONs/smpUtbJ2GLhPq/Pby+99Jq13rtEXrZxcAAADKlANm+WBWHOmIWbLrmenaba+9efnwh6X9SLDQMf6Q1Y/Q+IPCSs9pDRosdPTXtcN+ifuESkFRZPvIlGX7o9cVbg2t7LX86cqq7H1W4t/HCuVK18uMd322kCO+tlUMKa20bP4oUD32vdJjaf0syEo9iv23z4iu7WLrFa+t2LU89jwpBY4qrXsMFvW4tp9qvLZNjb3m0M/C+85eXHtN9XDTz9ddvebgXPjt5fe/k2bbXfvPEK2fXQAAACjrdaTj6s/BCB0xBf+jQEcB+SBh6tBRR2SJjqTQkUA6ghL7JdsvstBRR+Iq9NB1Av20CtlKgVnfyo4+jCHdkNKP9hhGZUdVxqMKs/dZifqj3tgRy6X3p66l6R9byKHnxRBNVQr3vv/ExbXPCr2H/bTWy01CR83j47c/eeWxtrV9JrWGjvHain1Cx2y81dAjYO0zr8RPO+RU27h+8bM7nj7ewj8f4/P99fvfSfPLNUT8DAIAAEB/hI5YtEtvvb32o0CnS44ROsbpSzWnH1g4Gdl+kYWOJoZNCur8PrtJab+OYmg1pCReWzDb9z/wpTNr02h5FDz5Ya10bVT/PCuFhf6xX44sYC2Fe3qPx88KP63GS1fIVys91/dfR2+artDRpo3XVuzaV3w/svFWpSNAu0r/sVPjpx3y+Rj7HT+Lh8zTP1//ZmBcvr9+Hz9pfrmGiHdSBwAAQH+Ejlg0/QD1Pwp0xJiuTWaPv/HjoyMPCR0xlWy/OKnQUfMRfy2zsUJH3andD8uOYsuOyhM/rA//PKvnLr659ti/B7MgrxTubSN01Dx9T/yydh1pqNfXdoxHb9ZOf1bZjXUkG29VO/W6VtfecvZw37IjUr3Yq+xo2IzfX+M89Dr+cctnrubhr+HY9/my6fUA94X66ftr75s58Ms1RPweAAAAgP4IHbFoMYCIZaFH/PGg4fHHkpWCgjh9qVp/wGJ3ZSGQhX+ZGIJ95OtnjwUrvnRKbjY8K516LLZM+lMhUZyub4mOELNlKV1bL4aOOipR/LA+Ym/1ujq91g/TdVxNFuR98YfPHRumslDPHpdCx64bt9RK20PBlT32nxd6PT9tLL1+V8CYlS33i7/KP9/Gquz6iDHItGXpYuup7Rv7Eh93nd4t8RqO/vmtn9n+PYSypYSOQ45w1br4eQAAAKA/QkcsWvxREGtI6KhxXfO18oEH9pOOhIpHo9VCx3hNQgV12uf8MF+aV5x/qRSa6UYffljp7s19yigcVQhj4WYUT2+2AMIP60Ovp+s86rqI+tOumVqaXxbkZcNUWjbfd02XhY6lzwIFsDFAjqXxvv99Qsd4x/3WsuUufb6NWVEcn11jNIr7a3x/xMe2fjV++vi4NXT0z0FZ3M+0386FX67W7e7F9z4AAAD6I3TEopUCAaupQ0dA4tF0CpRKYtjUFTpKbbwvBYK6rqkfNmbo2CWGcBYQ+WFjKM0vC/L83ex9adl8X2/83rNrR2rasmefBZpO4vUqY336O+fX+u9ly+qPalXA6se1li33HEJH9bdLXM64D5X2qRo/fTwyVtfp6xKvFYyyuP1atvkm7LR3O3W+xi/X0kLH7PR+9bZ13afEpQcAAEAfhI5YNB1J438UxLIfQPHHg4YPCR11xJk/FRCQGCD1DR0feLJ8Cq/Em6f0qdajJEulIKxVDF8tILL3TJ951ZTeg9lp6no/x2EqhU9+nMKtvqGjxHG+NJ0tq8rLQkd/I554hF9r2XLHm2BMUbrZjxfH194HRjce8c/51J3n1x7H0PG+s0en7Nf46ePnvPWnJj4nrieu2nboaKfOt/z765draaGjrac+P0y8bMBJyZYNAACghNARi1YKFKzsB1D88aDhtdAx/hC20tFHdoppyw9q7IcYIOlIkJIsdMyCLdX7vvj44XNK41Wbhoql+uQdTx2e0txnP4/rZgGPjszpO68azU8/vOP8ss+D0mnKev/7MLdP6KjTyE0c5yteT9OLvVLpNHL7ewzbWstOaa7tMy2lgNjflCurGOTE8aXT8L14zczYs098+6m1x/aZXuOnj5/ztl1rajcrwrrY35btswn/WjXxKOQh2zC+h7Ype91s2EmYy3IAAIBlIHTEotVuwKGyH0Dxx4N+6MYfS1Z6TmkckIn7Ye2HdwybdGRXKSD66Dd/dvicWoCkO7RnwzetlnAmin0YMo9NqO/+9W0Z4jCV3uN+XJ/QUdOaOM6XP7Vaf/ey0NEHjT6A7FOlz7y+pflk/fQVg5w43vepxN/MRxUvBxAf195bouvs+unjZ7lt15rYu7ieuEp3S/e9uuPhaU/99a9VE7f7kG0Y94Ntyl43G3YS5rIcAABgGQgdsWjZD3dfD57/5eF0Z194fW24fkyUrsemcfEHixWQieFMLRiJ+6yCmdJd2O2Iuvjj11dXMDS09J7pKy5Ly/XzxpSdpl7qnd7jflwMHbVNJHt+a+jor9HYEjrqupL2dx+29Tma1fa92j7jS0egZsN1xGTXvqUeahpd3y1bH13Tskt8XlfoaDcTKsnCJv+45UYnsXeaR9R1bcGu8UvRdf2+2Cttzyn514r8smb7QV9x3bYpe10/TDdgOil+OZagax8GAADTInTEovlryGU/nvWjQeIPEBvuh/lxcXorIBPDGQt+MvFoQAVYpf3NTk89/1L5+nzaX3WqcTauq0qBk2rIj/R4jdUh89hEDAlUpUslaNn89Aocfehoy54934eO/pqNVtn20KnKXhbS+X3DzyMGb7WyfU/XPszGxyrNW71pCR3t+m5ZqZ9drr/352vPiQFr7GVXqKVl8tPHI/Fq703Tsh/bdi9dW7DPtQfnzNazdP2++J47ydDRL2vcD7Jt2CWu2zb519XRu3HYkPUZi1+OJVzvlGtQAgBwsggdsWj68W9ffrMfz/rRIPEHiA33w/y4OL0VkIkhhR1hm4lBjvbhF3+V7286QkNK+6NK+6vCqiHXdqyFWWP8SN/2D+P4+qp4uq2Vfiz76UuhY9Z7BWUm633W1xjAZaFjKeT78Nd+mg7Pyo7m6QoMrUr7wJnnX++cR9fNanR9xi7xxjFd1XWdyLi94jrocZf4nOyIXT9ed7uO/Pgl61qP+J47ydDRj4v7gR253Ee8Huw2+de1z6Js2EmYy3K08ssLAAC2j9ARi6bTT+3LZLzhgEo/iCT+ALHhfpgfF6e3AjLxh7ftX5kYaNhRc36YlZ0KWtofVfZaCpuy8bWqhY4KQvuKfdj2D9LsNHWJw2y4P4K0T+gYg5W4TVtCx3jEqyrOx8ovV1fZspXmFau0D2i9SzfhsYrbO5bm3aXPuqn8UaaZuL1iH/S4S9w28f2skNGPz/ZzP36p4npm4j6gSwRMyb+Wp/9E8OPifhC3YYu472xL/E8o27+yYSdhLsvRyi8vAADYPkJHLJr/weqPerSyHxqlHyB+mB8Xp7cCMvGHd+0Hbvwhe9MPjn6k+2FWdnROaX9U2Wu1nk7rq3YE3RAx9Nv2D9KsTxKH2XA/vT5L/N2abdmzeXaFjh/40pm1xyrdDdyLz9GdyuMwq89+t/1O1mOFjrrmbdyvY2mZs+FWLacz1oLvrLpCx+x06vi4i3ronxPfz3GfyI6i8+M9vf4Y13psmY+m0T499LXieman0sZ9pGv7bMq/lheXNT7OPpN193qdeqvLTGQ9ivvOtmTrItmwqdl+ZjcIym7UZMbat8fmlxcAAGwfoSMWzYeOOu3Of7lU2Q+N0g8QP8xK08ajJqyATPzhnf3ANfGHrIVEdj0yK52ye/ntqzcL8ON82Q1f4jK0VOkos6HXoYvvs21f7yseIWTrkfVW/PLqVGAfgNmP6bhOqq7QMetrDGPic/Ta2Y1wVDEEq5UtW+tzSqGfDNmnYnXpez1SnY5dE5e59H6r8dcKVsX3cwzXs/e7H+/Z9eW03ptouWakn2bIjUda/hMh9nvK0FGfh/61vHjt1Xgd3GwbWX9UWR/jvrMt8TPH+p4Nm1rcz0rLJmPt22PzywsAALaP0BGL5o8oij8QVLoumcQvyvYDxA+zyr7gWwGZ+ONcP3hLSiGITunUETc6Ik5/xrv0+uf4sv017uMtFcOxj9/+ZPrarVpOx5yaf31bDx15ox/CH/vWucM/ree+ZwrfTjp0jAGOVfbZVipbNv2ZjY+VLauOYJTS8vSpGgVh2XNqpeWticusfcA/jtsuo23lnxMDq/gacbz48V5peF9+PjoqNeOnqX0mlcT1tPeEF/fNKUPH+F704rLqKEb/uGsbqeIlJeK6bUtcTz2O75VsW0zBv6b6ky2b8cPnxC/XkMuGAACAzfQKHTVikyJ0xNh8SHD/ueNHCdkX4vhF2X6A+GFW9pxsHJCp/RCL4g/ZlhBE/HN82WvFwK+lYuCU/TDvy8/vJPR5/bjdfFlfs2nsVEMTt2kW5N38o/UboMTn1ELHGKDUyq6pt0noqHBWSsvTp0qBmNT6X6oYOupmSzqlU6XrmsZljn2ovd80L52OHE8bj++L+Bqa3m7gI3G9PD/cH8ksti5+XiV+PravRn4a/fvYV1zP7HXifqwqna68qVpf43LEx3Ebih+v0qn5XpzHtsT11OM4zP5DtYVudNa6X0X+NdWfbNmMHz4nfrn88gIAgO1QDpjlg1lxpCNmx5+aF482U9kXzPhF2X6A+GFW9pxsHJCJ+1fth028OUdr6BhPEbbyr+XfDy0Vb76U/TDvy5azdtrnlPq+vl9/X3ZH4rhtVQojvBhO+BtcWcXtHJ9TCx1Lw7OyI83iKcKlykJHuzu3Tt2P4/pW7b0QT4ltKYUnnj9FVts+9qpP6Ojn5UuhrxfvVq/Sa5u4z3h+eOyNvb6fV4mfj/qY8dPoSOq+4npm2zLux1ZTvP9rfVVg68fF5co+2/x4ld24y8R5bEu8K7zWO657n8/qPvtV5F9T/YnL4Y+g9cOzfeWkzHW5AADYF72OdFz9ORihI8YWv0z6xzZM4ji78L8fZmXPycYBmZa72ZoYirSGATpNVD8a47VL/WvpSBYddVUKT2LFefX5IVtip4mf1M0E9Pr+FOoufv19mewUYIURXjzKOp6eq+oKHT/y9bPpf5xom/cJ/yx0zJYhqyx0tH0yfm4Oqdp7ITs6vasUznpxfJxnDB11U54SP52vuL3jtrMysW+eHx5748d18dPGsMz4aSxI7iOup8KwqNQL1dinstb6GrdzXK6W0LFrO29L/DdC7/+47n0+q/3z+vLPVT9qy+GHx337pOhI6zkuFwAA+4TQEYtmXyQVtGSnl9oXzPhF2Yb7YVamNg6I/H6iO3yWxB+U8YduC//87AYRrYFT/KHe54fsrvDr78uL4+I2i9s0639XoKHwL35OqRSyZcNLNUboaKfi9nndUtlnbSYendZSXaFjvIajTmv3j60/GT+dr7jtFMpm05nYN88Pj73x47r4abPPkHhTJTtlvo+4ntnnQ9yPfcXTlTdV62vcznG5smX341Xf+PH6tWzjPLYlfp7ocVz3bH1K/PP68s9Vf2rL4YfHffukxOWdy3IBALBPFhc63nrrrQfXXHPN4Z/m2muvPRwWh2O3+SOQ7Ieo/3Kpsi+YpS+efpiVqY0Dotb9JP6gzAKDLv75mexO7lkROubvc5UXx8VtFrdpdmpzfE4MNEqho+6qnQ0vlY6M1BGvraFjPMVeZadM9nndUmX7lJZP1070NwJrrXd9bv203Tg+7tOxD2OEjvE1rOz6lbFvnh9u/w4ZP67rKEE/bbzGqMRlsJsD9dHy+RD3Y186ArPPdSpLbB4xWPTido7LpVPFIz9epfetF+fhaZyWaYojuuPniR7H7ZltixL/vNp/iEWa1j9XR7DHPvvl8MPjvn1SYt/mslwAAOyTxYWOp06dOrjuuuuuhIv6U6GjPP7444fBI/aD/zJpoaN+kGZfMHXB/my4fqD74f46VHGcCiix/aXrWmbxB2UMNFp0vVYpFIkVpxtyh9ul8+9z+/yIfbXxVvEHf9ymWf/jdQFjoKHQMR6dZsPjD+eu0jrpTuTZuFhZOGlHz/Z93ayycCT7bO1TJjv1PfZ+itCxdL1M+3dFR/j54Sb+O+SPBHzl9V+vjbN5ZeIpo1rnKNt2fcX1zLalQjc/jS/1bZPrCRrbX+K/796n7jy/Ni6+v7LPWT9eFfeNOA/P1kuXchhb/DzR47g9s21R4p9X26+ibB+K5ZfDD+/zOlOK6zCX5QIAYJ8sKnS84YYbDkNGHzoqcPRHN+rxPffcs3qEXea/TOpoINF10fwXTH/qqR9uXzz1g0kBg4bpB43/8aZx8cYcQIntL1kA4MUflNmP4S5drxWDl1LpdDn/eB9/kNk1KHVarv6ugCP21fdIFX/wx22a9T8+54En1689qHBR/DDVp79z/tgP55bKTpvOKgsdzZDXjRXXW7Lp+pTJlk937/aPP3nH+pGcCmNL/HS+4lF6Wc9U9v6J+4OJy+t7E8fZvDJxWrtjuRenUfUV1zPblrXPmvj5MpSfhy8v7u/ZjWUiP15l70ET180rDR9D3H/0OG7PB8//cjV1N/+82n4VZftQLNsnYmie7SsnIa5Dn/UHAADjWEzoqKMYdZSjxNDRh4x+HHab/zJpPxZqp1/54X2+ePrnAZuKNwWJR8CNoTV0jEfy8IMs53ukij+oY0iQXfOv6zk6Ukv8MJWCn3hkW0vp1M9seKxa6BiPzBtSCle97OjEvmWnHsdAQRVDxhhGxWDJ89P5iiF0dndylb1/4rY1cXn9PhHH1d6LcVptwyjeAVnVV1zPuA9L7bMmHik5RG1/8T78tZ+ujdMNg/zjltAx3hm9NXQc+4Y59529uDZ/9T1u89b/rIqnSNf2qyi+Zla2T8Rps33lJMTl6rP+AABgHIsJHX24SOgI0Zda+yJpPyT1v//+C6bnh/f54umfB2xqGz/OWkNHXefMP+YHWc73SBW3mf8sUsUwVxVvqhGfY8GRH6bS9Tmz4V2la/hlw2PF0DFe+8+PG1IxHIn7/5Cy/TSblx25bhXDV/u3QssVr8nnp/MVQ8cYZFrZcsVta+Ly+v0ojrN5ZeK0ukmMrY9d3zEug0pHo/UR1zP+B4k+P2p3yo/71pBwLq6rL0+XWPHj4mtnIZ0fr9K6eK2hY21bDRE/P7QtYx+y9cnE52XLqu2qdddR3v5mOrXeW9k+HKf1+3b2XtuWuFz6Tz8AALBdiwkd7UYxvnS69ZinV1+4cOFwGall1B0/unpdsD/42qOHwx565LGDf/qnR8P+2eceXpveplXd9+D6vGrln5eNp6g+pX3P71Paj7PpNqkb/sP6ZQFK5d9Dqj7vi30qfZb4Pv1Pf7m+zf7H0Mcv3X28/7G3sff/5ptHn2HvvmE9NPuTO46G+2Fjll7XP/4XN5U/N4eUeuHnF/d/lT6z/2/Xrw+rlfUym1csrY9//OE/e+Twuf/8xqPH/t8JP50v2wZWmkc2nS1X3Lb2vLi8/r0fn/Mf/qL8uRDn8/u/WZ64PnF+Klu+1orrGbelvWap/rv/3/rz+76+Kq6rLz9d3H/ifh2XXeXHW/nx2u6lcX74kPWqVfz80LaM2zNbn6xi/7Jl9dtR78X/+J/y52ZlyxGn9fu2zV/byIZtq2rLRVEURVFUeykrG0rPj2Z9IxnxRzNa8CjcSGa/+CM5/OllLddly/63v8Q/D9hU7YiQscQjZeJRQFb+PaTq877YJ/FoudinuE3jEaSq+JzYe/sM09FAfrgd0eSHDS1dB1TXr/TD4iUp7KZcxo8bUvGIrNPPvrY2XtfS1Wm4pX00KztaKfYwqzhfbUvxw+yu036Y3+bx35LSXbftvRyXy2T7iYnPsXll4nziOuqIwqw3cR/sEtczbks/TqX9y5/WHK+J3Pf1Je4vvrw4bsiRjiovHuloR2rqTz987KPn4ue3jkSM2zNbn0zcV+IR1+LHq3Q9TIk3RMrKliO+jt9//fBtO/P8+uVMau8rAAAwjcWHjqJrPdrRj9xEZn/oi7h9kfShY4n/4tnnNDP/PGBTtR9nY4k/Wkung+pu1f7xkFBgH8TrBMY+ZdvUP1b5m1pJnMZ/hvnhFkz5YUNLYhgTg5WxQ8ePfvNnh6duKuxUoOrXW301fUJHe89kfY4V52vr54fZ9vTD/Hsoho6lZbXliu8/E/cTHxzFdbF5ZeJ8YpCssCjrTdxvu8T19MsrfpyNv/TW28eGW/V9faltYxNvYqIaGjr6U8Dje8MCu9j/2rYaIu4/ehz7oM90O2VZNzr64JeP/q5p/anMLcvqx6t0ur7Uem9lfY2v4/vth2v/2Ka4DmNvKwAA0G2RoSMg/ou5jq7o4r949qGjJvUcHZEDbCr+ONORPGPz7w1VFjrq2ndxWfQYx8UbYsQ+xT5mP9ajOM1NP7h6B2I/3H4k2+dQVvE6hqWSvqFj7XX7lpbT3yTDB62lowezsp5kfY7VEjrqaKg4zL+Hrr/354fjTTyCz8qWK77/TNxPfDATr0ds88rEo7diPfT0r47djETV9/0d19Mvr/hxfnypP0M+X+4/t36Xd18m9lUV93OdARH58VZ+GeN7Q32V+Hq1bTVE3H/0uLSv6z1l71H93a6xqW0gLcvqx6vsu07pNX3ZNo+v4/cVP9z3dxviOoy9rQAAQDdCRyyW/2Iej0TJ+C+efeiIAR1J0vIaQJf442yKH2HxR+snvr1+pJ7251seeGEry7ILdCRRrU+xj/GHbrw5i8Rp/OeLH26BmJYhHtFmld0tOyvpCh0/8vWzh9MZu1xF6Y7NWdVuYqMb49jf/X8WlY7GzcruiN0SisRS6BiPxrMgwg/z7yEfjoqfzgdsNp/4/jMxLPTBTHyOzSvTtd6aV5yfSne07iM+X/ugF8fb+sSg18r25T6y9bAy2SnY2X4e+fFW/r0d3xu2fvH9Hu/QvqnsdYfs6xJPkc72Kz/eSlpes9QTGy5+ePzsnFpch2z9AQDAtAgdsVgKA+2LZPaDIvJfPIGTcvntd9b2xSl+hMUf6vEHuL1m/KG47R+ES6EjnHyf4qnSsY/PXXxz7bFOMY7ij2H/GeaH+21SCgEkGx5L4lGbMeBQ+JeJ61irD3/tp+lw1ae/c/7K3/069wkdLdDwl9hoLQWocV2yU9j9e6gUOipc9e8tCzTi+8/E7edDvPgcHalYUtoPrHQH4jg/lS1fi+yU5fjvbBxv26UUOvZ5faPrC2bzUpmsH0NDR399xvjesDs7K7z1w229xxJfV/Pv2uZZKVyPz8u2gR9vpeuctrymrXuc1oa/9ublteHb/jemZf0BAMC0CB2xWP6LefaDIvJfPIGT5PfFKX6ExZAs/gC30CyGL/qBiOPijSOi2Mf4WEcJRvHHsP8M88PtJicSr8FpJdnwWBIDDR3x6h+PETrWAkR/FKRf5yGho/7MxndVXBfNJ87Lv4e0zLpmnkInvXdsuMI1/96yI97ivExtm8fn6LFRKOqv0xfnE0vBcpyfKgYumsbP18u2t5ZXQalOhc+OrtUp4tISOipM1JG7qngEpRf3V18mW9d4ur71Wq+rddZr+vFWfhnja6uvEvvvt1WU9VjLYNc5zdY9vq7m0bXNs9I21D7rh8V9QPx4Kz235TV1/UetX7zurfUk7kfaLrXtLVnPhorrkK2/jPmaAABgHaEjFst/Mbe7Ldb46x4BJ8n2W5V+lI0t/tDSaayl/d9PhzL1LeufxB/W8bFOKY7i0ZAWikhpW8X5Wok9p1R2nbYs0PCPS6FjDF5r9fHbn0yHx/LhQ5/Tt+3zPi57a8U+qid2LTyrLHBRD/3pqjF0tKBFwYUNU5k4T7/N43NsXmLLZvtDtmy+tExZb2LgEufrZacsK3RTD+w5cbzNvyt01BF4Nh9V9vom7q++jPaHOC4ug/Xav7f8eCvfI38nbpX6KrH/te8f8RqL4t+r+nuUvUfja7aU9vO4X+samZEfb6Xn1q6n2VXW7+wzK1tnr7Zf9hX75revl20nAAAwDkJHLNbNP7p6bTD/A63Erk3mf+gBJ8H2W5V+lI0t/tDSPq+AR0ds6cg2z0+HMh0xZNfCjPzRb6p4zcAslIg/xv2NLkrbKvsBrxI9x4cZVvrhruW2z70s0PCPS6Gj+OlqFY+sLZX/3G59jsrWJQvWWiqeHuuvM2lVCnl8OHjtLWfT0DH22GTvS5NtF+OHZ6fMxtI2jPNTxcDFj9N8vew1dL3POMyXzb8rdIw3zVHpshMZ3cQnTmtlsnUthY5+WFb++oxxn7T3RuyN346Rn0505LIfZsO9bF/ItkdXZZ8Xfr8ycRqVnjv0/aWyntQ+s0r8dP5I7yFi30rX3/TTAACAcfUKHTVikyJ0xJiyH3vAEkz9A2eTH8UYJvbRP7a73nrxx3jLZ1jXD/gYVqgUvnjxtNgYLHzqzvOrKY/z09WqNUD01y0cEjrGowNbK74/stcuhTz+NFKFULrruD22bRi3g6m9L+Nz/P7gh2sfKC2blU4TzfYFPc/z4zRfL+4XKn90YlY2/1LoaNvb/4ehVXx9U9svTDa/LHTMrlMZy/c9vrb6KrXtGPnpFOzqmpF+mEpHEXvxuqv6z4ch1y+NR1Or/PqZOI1KR7pm+0BrWU9Kn1m1MNFPV9ovWunSBH5+2fqLnwYAAIxLOWCWD2bFkY6YFf+DYOy7RwJTmvoHztAfxRgu9tE/1o//KP4YL/0Y9ko/4E0WNMXQMQYJ8bE+V0v8dLWqBUW+fAgWg5Za2f6crW9LxfeHv7mNVZwmq3hEoW4YpGvW6fqPfjoT53nj955djTm+LnZtOR3B6odrH4hBSiydKpr1RsGV58f5cEf7hL/2ZmvZ9iyFjraPZ0dM2uvrqGCFe3bqvULwOK2Vyfa3LHQsvX98aRlVWoY4D/VVFJ764Zq3eqvxOqpYy2zXB/TTad/QNRD9MJXvvcT10fzj+7Slsn3YtoEXp1FpGYbsA1a6mZR6EE9Rt4rr7Pnpsjuea9/Qe8z2kZrYt2z9xU8DAADG1etIx9WfgxE6Ykz+i7n92AGWwE6DHeOaVZl4NE3tmmNTL8u+8P0W39fs1NEYgJR+DEf+OVYmu7nHmKFjdvp2VjoyKxsey39uZyFZqRRk9H2OrxjGKDz0j1XZEWmxPvHtp5qWweg/x/xw3+t4GrHmK7rGnB+uZY/bLKtsueI+5sf5bWHXt+tbNo+u0DE7YlI3SRLbx/SnZNvGymTBZFwGhdrZdSpj6bOytv4S+6/9MXuO3vtxWFZThY5xf1PFfUDiNNuo1tDR75fG3hMt/2bFvmXrL36a2rIBAID+CB2xWP7HSPbFFJirqa8v2ifQ0tE4OjrHjqzCML7foqNwSteAlClCx/gDW6XPSS9OE28WUQsdtY+0BI/ZcmTlf9x3hXc+fLNl7HpOqeLd3XVtRv9YFbdPVlqOlmUwsS++11nQlN28pzV0zI4c1fM8P87/G+qH9yk7Ki3eOdrKXj8bp9eP10aVltAxmyaGjuqvXsMPy6pre0q2Hf3jvqWA28v2hZZtHit7TtwHJE6zjaoFe346HdXrxfdE1zUfYw+y9Rc/TW3ZAABAf4SOWCz/QyN+aQf22dBAC8P5freI2yie+lrin2NlspAhho7x1NwYxPggLNMSxmXLkZX/cZ8dpenLf97bMmbX8mupuHxZkNqynlqOKUPHGI6qdGpvS3/j/FR6nnntzfUbmvjra/rhfcq2Zyko1OuXrquo/TD2XNdALB01qTI6lTeOi6cGqx8tfevangq9su3oH/ctH/hKti+0LHus7DnZfy7FabZROuq0xE+ndfDie8J/hmRiD+L8jJ+ma54AAKAfQkcslv9hw5dE4Kr4451rnk7P97tF3EYxeCjxz7EyWcgQQ8cYMsbHujFKTVzurLLlyE4/9XdMzp7jy3/e67RmnQYbTz1ura7XUrWsp06rnTJ0jNdzVGkeLcufBWF6nonr58f54X1K85RS6KjAq9RXhZ7x9GcdMVk7RdnUgkkr9UP7TDbOV9f21PLH/mt/9I/71lShY3aZA80ritNso2qfd366uLzxPaFe2fUzM7Fvfj/3/DS2HwMAgHEQOmKx/MX6+ZIIXBV/2LcGWhjOjpbT9epaDN1G2VF5JruGW9/QMQslvLjcWcV5qnTdPX8tv3g9thgOxLDJB1k6Hbr1enlZtQQ4LeupXrUEWSa+rt82MajT6dHZKdIKXVqWPwsd/Y034vr5cX54n9I8pRQ6ql+l6ypqneKp/l1lWsJn9UOvn43z9fHbn0yHW2kd43xK69ta8T+F4jLo9Vq2eazsSGDNK4rTbKNKn3fxFPsv3//8asyR0g2nStd3jH3T44yfxvZjAAAwDkJHLJY/ukGnPAE4EgOF1kALw+lIG13DMftRn4nXJmvdRnqdGLiZLOzzwZbEaeLjruWP+1ZW2XJY6KPgURVfJ572HYOcz9z19NrjlspuWKJqCXCy9Yx3pdY6tMzLxGn9tonrq3598o7jR9C1vmYWOvqex/Xz4/zwPmVhTSmE02tk+4ZK69QS4Poy2bhY6kfL6filZbfSpVy0Hn5Y13Oy8v95oHX34vxat3msrn3AxGm2UTpNOhP3S62Dl70nrLLrO8a+xV5LDDptPwYAAOMgdMRi+dARwFW6W7L/EcU1T+fJbyOFMa3iD3OTBTo69dOL08THWSjhxX0rq3MXLh0bFsODKC5HDF5KRzjVqnTabcvdmbP1HBoGiQK1eJ1BzU9hq04PjUewql8a7oep9JqqODxWdsSe37YnFTqW+qVTgVvWy5foFP1sXCztC9lRwrFKy26lbRjD5yF3+/b7cwzC4jJoubuWK6s5h45Z+Cdxv/z0d86vxhzJ3hNWWVgY9ym9D6P4ms9dfHM1ZjvUi9op4gAALB2hIxbL/4AAsM7/iMp+jOHk+W1Uu7FCFH8kmyx0jGGfflD78fFxFkpEfvqstHzxlFeFLDVx2eN18voGUjoatOVaf1nZKfJxeAw+FWC0ho5Z4KUgqRRYabtlp5C3XkcyC6n8to37kOZr/PA+ZZ8zpYBMr++PZvT7iMZdf+/PrzxuKYnrsWmV7rw9dvltGIOwIQFjVtm1Jv0+YOI026jW0FG98GqXVcg+Q32fVdn6x9fUZ9E22WeA3g8AAOwiQkcslv+SCGCdf39YGIB5GbqN4o9kEwNEVQwd43PjY91FuoufPivNMwZ+2Y99L4aO8SitOx5+ce1xLB0RpaPQdISfTnPXUUNDQkeFGrasfriObosBhoKT1tAxG65rU2bDVdlRajY8LkdWXaFjPBrV9pN4qmmf0nOlFJoptPXL7rePrt2n637a45aSbJ9fQvk++O0iY4WOH/3mz44Ny24UFafZRrWGjnqPGJ0+7cfFyk7Zju+V2GuJr7nt0NG/NgAAu4jQEYtlX9L0wwXAOv9DhmuezpPfRvrh2yr+SDZxuKpv6FgKAzw/fVaaZ9/QMYZHCqH8465wT8+PhoSO/sgqP1xH4SmQ9cO0TN9/4uLasKxeef3X6fDa8pWuXafhMUjJqit0jCGv5ivZPtRaphSaaV/011X002lc37BN4nospfy+FN8bWVg4pLL9K34eSJxmG6X/RMjE/c9/v9NlQvy4WNlnV3yvZJ9D8TVPMnTMrksJAMDSETpicXQqkr+mkv9SCuCI/yGDefLbSD98W8Wb0JgsMDqp0DEGSNmPfS8uRzyysSt01POjMUNHhYtxGXTX4ZbQK66bVW35SuO0fDFIySoLrhScmrjctt6lZW0pUwoPtS+q7LGOTvXj+m4vWWro6Pel+N4Yst9mlc1nLqFj6fMg7n+6LIG572w94M+CzPhe0bUTVbU7uZ9k6Jh9jgEAsHSEjliceG0sBZAA1tn7RKeLYp7851jfH5v+uSaGkaoYMsQbb8Qf3C2hY3Z9Ql+aZwyeuk7bzpbDP1YQUHvdrH+l8KtWdsSf+NfT0YrxDttappbQS9eay4YPCR0VJraEjl2BU1xuzVfidogVb4Zj5T9nSnca1+v7U6j9emh4vA5oV0ncJkspv3/762nKWKGjLjMQhy0tdFSZeKRxrGyepfeK3tsmviahIwAA4yJ0xOL4L2gqO0IDwFU6kkMBge4Ki3nyn2N9f2z653p+uEqns0Z+fDz1tyV01I9//Wj/2LfOHQZF8dqEr715+dj1+brmG8PQLHTUdRoVbulGLx/5+vprZv0bEjr6UEbrqeDG3kMxqNPjOCyr0jS1cEnrmA3Xc+Kp51llAV4tdNR8JQt9fH34az9Nh/s77+p1smk03G+Tb/z4hSt/H3IDF/H7SVcYPqfyYWkMAscKHbOKryXZdLFq1x8dUkNCxxu/9+yxcb40PiqFjioTX1PvjW3yr9333wEAAJaA0BGLkl0bi9ARwBL5z7G+Ss/1w1XZj3s/Pj7WacR9nXl+/VprEoOnljDTTx9vdBKDgBgUKLSMNg0doxjU6RpzpUDRVwxQrWp34i2VAinf29Ldr7Py6zY0dIzb1corTaPTqX1oqRt/+PF9S/zRby1hXelIzW2X73/c5+YYOrYE3X0qCwglez+Z7G7cvrJ1qy23ifv8g+d/uRqzHf61sztwAwCwdISOWJTsB5E/HQ4AlsJ/jvVVeq4fruobOupHf1/xP4NE1w/0w/qGjvGzPi5XPDIyM3boGG92o2XMQpJYug5xNnxIKaj0oV6fgEpHAurUZ13TLgY4mq/GdR1xWDpyzPPL50vbwy9v141Bukr88vhrPZeqdKTmtsvvN9oW3pSho0pH72obaT/QEarZNLFqRwwOKa2jXVtR7w/tdwqQs/eTPl9E08dxvnTkdVTaF1V6/0r8rGn5rBpL1+fcmNTneD1LAAC2gdARi5JdG6v2IxEA5spOB/XXw2vlPwO9eFptFjrG1/XTD/3Ra0ft2TxjSKHTSbv45YrXp1RAFdm6lvo3dugYAwI9Pv/SG2vDsho7sPGB4Vh3Om6tUoDq1UJHv39m1yDtU/LFHz535bFCJz8+q9I02enoU5YP19QXb8hp4kOP4LT3bVeNvQ9baV39Z0cWOup9pv9k8MuabS+7LqnXEjrG19zV0NGOilbPAQDYpl6ho0ZsUoSO2FT2hZTQEcAS2bURs2Cwi/8M9OJRUtm8dXSTfrTbOD/90B+9uj6fv/5hDCla5ltbLgsIPB2xo9f01xP0xg4d49GVCs1iaJCVrquZDR9aPnyJ186cukpHJ3qloMdfh1PbTfz4WmVH/4l/rVrAZFWapiWwzGrItShV/qjZGDr66Vpr6qMj4/t5qspOudd7zF8DU+Fitr4aFtX2iTmGjlr/qfjXAQBgm5QDZvlgVhzpiBOXXRsru1ECAOwy/xnoxR/jLTcS8tOPdaRNPCJuyHz987PQscuQQO6mH+TXmjN+WmkJHVvCsKG1rTDIqrS+Xml9/c1xdCq0+PG1yk6dVujsjwps6UUpAB56CvzQax36PuomLZ6frrWmPuK19TTsTSu7Rql6pcvo2GMtSxb2WpDtTRk6ajo7RX2o+H5S+K1LAExxCrR/HQAAtqnXkY6rPwcjdMSmsh8GdlQMAOwLC1sU5HjxLrMtP6D99GPdyCD+B9FJhI5Dwr6uf0+s7zraUGJokNWURyMqVM6GW41x2nBcZx/0WXktfbej+0p36fal19X1JuPwuBwtoaOmyZb/1UuXm5Yllo78tOdpObN5Z+X3m3iEnp+utaY+4vW+sxfT4dso9crvxzrCuHQUczRl6GgBqb0vhih9fmwyzxI//7cuv7MaCgDA9AgdsSjZjwpCRwD7RkfX6Mie+PkXf4z3DR3th/im7j/36tp8dyV01Cnx/pTuUmjga8hp3r4UJOs1FUTEcTHcjTXGEXA66krXDNS6i/6MAZ3X0neFiOJPuc5Kr6Nt0jJPLWc23JfmpeWPYawMOUVZ21/Br8JGHfVo8+4KMP2p+mOEjkP29T4Vg7lt1jMvX71uqvosY4SO9pk0NHT0z7n89rAQr/b5MXSeJX7eY33OAwDQgtARi5KdGtX6BREAdt1cQsf4Q17XsOvLP3/IkTlThI5RS+i46R2TdZSZZKHY95+oH4HmT0sdWpkYZnr+5i6lstPYu653aZcHaNmWXQGsyt4PcVoZEtCW9suuAFPs7wp0PT9da4193dBYJxk6+n3cAtrsyFdVDOqGhI53PNx2urR/ztDPzXMXLq3Nx9fYweCU8wYAoIbQEYuSfYEkdASAI/HH+EmFjjpNe9P5+ucPsY3QUbL5+BpyBJ0vC0eyo7u6wqDPfrd/D2JlYpjpqYd+XFYWJj54/pfpeCvbf1uCzHh0bVY2vweeXJ9WhgS0JX1CR3ts/PDW0hGW2fCx6iRDRx8Q2/UvS+/t+Dnz6e+UTzsvhY5dnwE6olbXcvTP6fp806WB9Jx4rcZaX8cMBjWvPvO2ddzkepUAABhCRyxKdt0i/S84AOD4j/GTCh37/sjN2PXxhl7frCt01HzjabZThI6bXlfRwpFS6Fi7jmBLANhVmRhmei2vafulTjOunYps03XNU9uyFuBY2feFOK0MCWhLaqGj1lf86fL+iEk/bWv5YG6Tyk7hV7X0dqry1y3Ve0BKIXT8nCmdhq2y91Vct67PgOz9dv6lN1Zjc6XPslpfu+bZR9/PY1tefXYBALApQkcsSulHFwDgeHCio7+6+OmHhIOZvj9yM3YtQTsqrq/r7/352jL40o9pHcUTw6EhR/b459/4vWcPr7/oh/Up3ZwiBj/Wu+w/3XS9Ox3lptfUKctxfMt1DrsqE0NAryV01BGOphbQtYSOCvF0PcWWYKwUNEnLcvuyO3BnSteq1H5noZY/Ws4HTH761opHbg6t0raonQbcWkPDd79ddOSilLZV/JyZInT001rZvDIKlP20CtpNfG1ftXn21ffz2E8LAMCmCB2xKNm1scb8YgYASxZ/jLd8Pvrpx1L7ob0tpWBCZX2JIUvLkaGRf779mPfD+pSuzRevz2fzzI7c9OHBK6//+tj4M8+/fmxY38rEMNOr9d1Kd302tdDRQvPa6cM6LVp03dBsvC/b7nFa6RvQKtQuKYVd/tqm/nRu/58DfvrWipczGFql61rqWonZ8D4Vg6/W8vu9/i6l/SGGabXQ0d7r8bqoY4eOcb39Mup5fpyvls/uVrVlyPhpAQDYFKEjFiX7caL/gQcAzCd0lKnm26oWftm/G7pGnB++aehop8n6YVmVTonWMsfrHFpgmx25GcODbHwc1rcyurlNaZqW0NEvd9wGvmz/rZ0+bEFUy7rado/TSlynrqpd2qUUdvn19qcIK0QT3cTET99aY2xnVem6lpIN71NDl9EfIakjWqW0P+joU+0Pdj3CltAxziuGjroeo+ZrR0H7aa3sZk+ZGAj74LkWOn7i208dfOBLZ67sG5uIvdcy1fhpAQDYFKEjFiU7Pcd/iQeAfRaPAGoJHUvXG9vUVPNtVQu/7N+NGEoMCR2z9fTzzKoUtGmZ/XUO/Tyz9Yn//vkw064d6KcfUpkYlnhdoaMtl6kFQy2hoy4pIC2hlvXrxV8dDx3jOvltkIXEOrK0pCV09EdW2lGTQ07N1/K99ubldFzfyq5raftgHN63tO5DT7G2skDw3jOvpON9abnHCB3j+9tPa1X73Ig3OPKfyXGfy0r74auXLq+eMUw8Pd4vQ8ZPCwDApggdsSj+i5BV/NEFAPsq/oDu+nEpm147sUQBqEKUk7oDai38sn83xggds/75eWaVnSqtsnmodwo77MguaQkd9TyFIwoqdCSdxOf0rYxetzRNre9apxjqtISOtZDJ5heXKSvfLz9c4vPVP9t/bRvr6DMN63qvfOxb+Tr5oPKhp68GTppe/LQtpX5mR+BpH/CPWytuu9L8h5TUTqVvKXt/toR1qtpRtDav+Jmpa6N6flwMq61qnxs6UtJP6z+T42uXSvPYROxX178LflqdWg8AwCYIHbEo/ouQlb/rIwDss/gjtuvH5S6rhV/278Zn7np6bXgtPOjDzzOreN1Gqz7hhSqGjpn4nL6V0dGYpWlqfc+WN24DX3Yqai1k6hM6+u8LfrjU1qmvUqjs+QBLIaG/sUxrlULUbF9pqXhdy9L8fWXX2s5KdLpwNq61FD5LbX/wVQs5FXbrtOl40x9tO70PtT3iXbJLN9TRDaDUu0x8P9g6aBspyPbjSmWh9FCbhI5afjtd3Vh/Tuo/lAAAy0LoiEXxX4RUdroLAODg2F1s/fXD9k0p/PL/bsRwqOVu3y38PLOKp8Fb1UJHjYvTt4SOdnpoqbrGl9ipsvF06dK6lf69LgV0Klu/WshkYU8WOvp1i69v4/zy2zpt+t0iW6dsnhoWp+tTfvvb+mieOh3XTg/vU/G6ltn8Vf7vpe3ty9a9dlRrS1lYFm8EVKohp6tr2ylEzMb5o1NjlfaZeC1We4+XXiMrbctNjjjcJHS0fVTvDWPLXlpnAAA8QkcsRjwqoOUUJwDYJ/HHZUsotauyo730492OjJN4DbuuH+Ot/DyzygJEG14Srw2nagkiFMrVAo6uI+xK7JRj30+J66aASv9eK5zKZNcRtGoJHa1nWeioI7H0fSFud9HyaLn8cK2Thm16BFcMHbUM8fVFR9r56axaA0P//tYy+2XX9yP1Xttep4VrW5VO+7aqfX7Y/HXKv/97bdvobth+mTYNHXU3dsm29VhVC8FL71ur7C79n7rz/No09j7ww1pqk/9Aituo63POT+vL+GGbXm8SALD7CB2xGP5Lpk6ZAQCsq4UG+yYGBNkPbQVBXdMM4eeZVdxOVrUjLbPntIqnDvvqCoL6in3X/GviNvBl10CsHdlmdw7OgqiTEoMrC0ajj9/+5Np0Vq3XPuyrtN9ZxR7qBjVdavOM76faqfQtZZ9ntf1506qFjt/48QvpcKvs8za+vyx89sNaSkdZDhW3UdcR3X5aXxYw+mH7/G8MAKANoSMWw38Z7voRAwD7KIYz+/yDcM6h4/mX3kiH117/9LOvHZu+j/hcqzmHjsb/+x/LepYFUSdFNyPxy1EKHeOpt1alIyBj9dV1WvKQ61rGQMtX3J9rgV5L+aPqsvFj1Ke/s35koq+uo4Kzz9sYIOs6kbq2qB/WUv5mMvq79hEta8u1FeN7srQ/SpzWl62fH2ZHnwIAUELoiMV45uWrP9IIHQHguBjOEDpe7UUW6MXr0dVCvz66To/V5UKyaWqvnwVvffjr8PmaOnT85B1Prcbk4jaw5fTXi8vW3cr3LI47KTFILYU8pSPntE1K28v2myHX06v1USV9r2tZCtBVcX+ON2bpU3F5Sv3ZtPQ62fCWyt6/1k8rBa9d2yErfyf7uO5d2yq+J0v7o9QuxWD/nvhhY31mAgB2V6/QUSM2KUJHbEJfbOxLDqEjABznr32rstNT91FL6NgyzRDxjrixStPUXj8GFTrSqQ+FewpAYqgydeiokKUmTq/lVKhip6FK7XRaC0LED9c1DE9Ka+j4/SfWb9xipW1Suhan7nw+9LqT8fMhlvS9rmUtQIv7c+2o1lppeeI1vBXYaj9pPRV9G5W9f+M0OsV8SOio55lsfO3aivE9VtofxU8XKwsd7W7cAACUKAfM8sGsONIRJ0pf5uxLji6KDgA4zv8g3Gfxh3YWCMRpzl24tBqzGQVDfr6xStPUbhYRT8nUqblDxHXuus5eX3H+fUPHEj+Nr1LoqJumnJTW0FGnpvrprOw/VrNwyq/vEHF+voaoBWjxPRePam2tmqFB5hRl1xf14jTatrWelUo35ZFSAF/bL+J7rLQ/ip8uli7xEKepzQsAAOl1pOPqz8EIHbEJHzp2/YgBgH3lfxDus3i35yx0fODJ9Wk2DXTMg+d/uTbfWKVpul7fT6uj5IaI69wV2vQVA46uf6/j8pT4aXwphDF++NBQdgytoaOORPbTWVlgqhu5xHGb7qNxfr6GqAVouiyOF/eN1qqZU+io7RavsRinUejov8+2lh25W+p37dqKse86glYBcNR1rUktd9wn1f8+dD3KD3zpTPr6GU2vnuoIXADAMhE6YjH0P8j2JYfQEQBydr2v1muy7ar4wz4LHeM0Y4WOCsL8NRu1LeJ2idOoul7fXx9u6KnzcZ1POnSMy1Pi+1fax/18WkONKSgo8ctSu/Ow1sFPq/I9i+M23Ud97+L1Bofy8/AVl1Wn4mbTdVVN7PUcyvbL7HR2BW5xn28tKd0MKPt8MwpB4/Ta9lEp0LTSa8Rp/LUmu+gzz/b37PUztr/qTwDAMhE6YjH8DxlCRwDIKWwZes23XRJ/2MejriROs2mg4ynMU6io0t+1PeJ2iaebdgWJtm3j9e36iOs8dugYg6WxQkffv1If/Hx0pOtJicGr1rFE6xCDxylDR/VOgY+2e7we4lB+Hr7issZtbfXhr/30WA981Qw9enLqUsCWhXjqeakPXSWl59aurVh6j0fZ8vpSeB6n6fN9PH42tOg7PQBgfggdsRj+i6WuhQUAQEn8cZ6FNfGooWyaqfnX34a4zmOHjrHvN/3g2dWYXFyeTfj56K7KJ6VP6CgKbvz0tdBRR8+N5dpb1m9mNJSfh6/4fioFZgqzavthzVxDRx0BqKMa43AFvqUbCHWV1rV04xyNKyn1Nu5LXaGjXiNO8+nvnF89u5vuZO+fW9qX9To6pVqBvJ++drMcAMB8ETpiMfwXS32BAgCgpCV0jD+gs2mmVjpVeCpxnePRlrH6in3v+vc6Ls8mrJc6ulTXpzsp/vuKqit0/Ox3y6FjPAV/TPHO5UNZ32PF91Pt1ODaflgTez2XitvNl47WzYZ3VanPqtr7rBQ6xu1TCoWtstDRbnrUIp7OH1/fZHdtr00PAJg3Qkcshv/SROgIAKhpCR3jNdd0k4RtU9iiMGFb/67FdY433InVV9/QMS7PJuy0a/15kuKRbF2hYwyFfM8+8vVxjkbMxDuXD2Wnvn/xh8+tzS9eLiAGVlbqTy08rBl61OBYVTstvFTxiD+VTjHX50AtrKxV7dqKcf+yip+JQ0JHHS3byj9PVQoR43RWpekBAPNG6IjF8F+aNrmeFQBg951+9rWmH6x+mn3h17kraOirb+gofvpdEHugxzW10FGXk/HjxhSPsBxDbX66zqEfb6X36tDQsWv/nbriKcAtlR2xqPWX0unTXVW7tmIpdIx3vO7q5R0Pv3gsdNTytsjujF2643aczorQEQCWidARi+G/NNmXMwAAMvHHMaHjVX6du4KGvuL8CB03Cx0fPP/LtXFjiq87hq75+fFWem/OOXSMp6H7ar0jd+mUYSttZxkaOtaurRivGWoV98uuo0a1v5y7cGltmAJUo22oazH6m2WZ+HmsKr0v4nRWXe8jAMA8ETpiMfxpO4SOAICa1tDRjjra1jUV58Cvc1do01ecX0voaMujU0t3QeyBgpqaeD1D3zMdHWin3I69j8bXHUPX+8nG+5oydBx6urIvHeGXDVd1vb7Vp+48X10WzUeGho61ayu2ho61baDSfpmtr7FgNdv2hI4AsL8IHbEY/ksToSMAoKY1dLTrAGZH5+wqv85nX3h9rU+x+oqhREtfbXlaAsoliD0o7Xsmhj13nV7/jqP+KKwbuz/xdcfQ9X6y8f51pwodFfLF09P7lG58otOna69RG+dL32Hj9Tl9aT5Sm6ZWtWsrlkLH+85eXE1xZNPQ0Q9TWO7Fy12o4utL6RR8lfUIALAshI5YDP+lSRe+BwCgpDV03HexT7H6iqHEPv4n4fmX3ljrQd/QcVs9e+DJ9ZsIbZN/3VcvXT546OlyeFcTe23lvydm41vKQt7aeyTeCKlUCj9rAagFarVTuWtVu7ZiKXSM+5mC4mw6qxu/92xz6Bj3+ex52X5e67X2VwDA8hA6YjH8lyb+txMAUBN/vHYFP/uq9iNf1RehY/9976RCx7ittim+bhZKWdWU9l//PTEb31IWOtaOvpNseCzNK16f05ct79DQUac06/Rm1Z2PvHQ4L9MaOmoZs+msdLStrh0Zh9tRrX7YcxffPBxmsrvk9w0d5/BZomUoXbfS09HKmi5uCwDYR4SOWIyP3/7klS8e/sskAABR3+BnX9V+5A+5xqLCBj+POQQF29Z334tHHG6rZ3FbbVO89uOUoaN/rThdrfxp7jrVOo63Zc/GxVKg56/PGWvT0NFXvKbiJ+94Kp0uBmddoWOp7PX8sPg9Xfu0H6/Kgrva59EcPktq1630bJ/TnwCw7wgdsRj+ixihIwCg5q3L71z5N0P1yuu/Xo2BV/qRryDFjvTqI86P0LE7dIyBm93JeGrx1OBtitepjD3wVVPaf/33RIVbdp3JbNpS+X1XR6zFcNGWveXmL7o2pOjot2z8medfPxz/sW9tHjqqLr/9zuH8pBRkxvf3Jte/1Oerfxy/pyvA9eNV2edLaXuq5vBZ4pcnXrfS89MBwL4jdMRi+C9N8bQNAAAifvh10/X0fJ+shv7nHqHj5qHj0N4P4V/3JMUe+KophVSl74l+mnhDm1hx39VjP97oJi5+eFY2r9JRh7aPlE6F7lt+nyuFjh/88hOHZacAb/Lacfu974uPr51arIDRj1dloeMzL+fX6FR948dHwW0r9bzlVOg+/PLU3td+ulo4GU2xzABw0ggdsRgf/ebPmv6hBwBA/A8/lPk+WY0VOu7rjd98D3REYc1Jho52GuiQU+nHVLuLepfsOaXviba+qs9+tx6yxdDx+09cXBtvWk6Jtnl98YfPpeNtebcZOlrZqcKbvHZ2IyB/CnIWOqoXUS18zkLKmtZTofvwy1MKtuMRxH1+s9gy66haANgVvUJHjdikCB2xCX/6Sp9/wAEA+8n+zVChzPfJaqzQcZsB2pz4HnSJ11bcZs90mrOO+Osb6Iwt7je+umTPKX1P1GnOCh6/fP/zx075jddbjKe5x0DMfOaup9eGZ2Who47+y8bb8rYEfwrRdBq21qN0PUnd1du0hKI64nmT0FHrlw23o/yuv/fnx8bp9aIxQ0f/XK3fGPw8S+/TuC+X9sWMfx4A7ArlgFk+mBVHOuJE+dCRa3MBALrwA66N75PV0OAr/uDeZoA2J74HXWLPfGC0L2IPfHXJntPyPTEGZTF0i/tuDMRM1xGTKjviNzsiUGXBVEvw54/ALAWeftlbQke9fst0pSqFjrX16hs6Kijuwz/XlmNTfp6lz7b4nwh9Xts/b6ygFABOWq8jHVd/DkboiE340BEAgC7+BxzKfJ+shl47WT+w/XxKP8x3ne9Bl9izsQKSJYk98NVlyHMkBmXx1Oe478ZAzGSnDseyecVTb61sm9/0g2fT8b586FgKKf2yt9zoRjey2SR0LF0fU+ulozv9ae1WGqYjbb3YY18xpFQfdDqyyl8/0vjn2o16REe46rqJ2XNq4j5675lXDucRr8EY10HXqWzln7eNz4Fs+QFgbISOWAz/hQUAgC7278aY1/TaRVkgMPQHb/xh7sOPfdJn39vkGnC7Iu43dqpzS//i/tv6fo+hYwwP476rI1D9eKPgzA/Pys9LyxfH2zZvCTB1bUlTukbkfWevTtMSOmr5NgkdS6X5Zp8vVnFblY4EVcXQ0c9Xf/feuvzO2nN9/+158Tld4j6q/cfm5a/BqNfy0/nXronLvI3PAVv+1vcMAAxB6IjF8P8QAwDQRUdv6AgcjuKoU39iEDL0B2/8Yd76g3vX9N33fM+2ETbMTdxvdMRfa/90tJbulmzXOWy99l+8MUwMD+Np7nEZTQwvs/LvA92FOR4ZqMBJ+hw1KaXp/dGQLaGjjtrTnayzcZuUrouZDfd1+e2jdZdaL2PoGMd7cVtp/SQGe33Eecb9xTzw5Ktrw1s/A+P89Xhq/vX8dgCAMRE6YjHsH0V9sQQAAOMZ6wevbhzh53PuwqXVGNT4nr325v5dy02Bh+/BNgIXhUH+NeNRdnEZ4nvExJApq+xyBX686Rs6lo6y7Bs6avqW6XyVbmLjq+UoUN/nWuj4yTueWk11JI734rayfsThXXeW9+Jz47ay0C6uw9DQ8fSzr63GTMe/nt8OADCmRYWOp06dOrjmmmsO65577lkNPTi49tprrwy/9dZbV0OxS/z/TOpLEQAAGE/8wbvJD9Cx5rNPfM/2le+B3fV4SjF0jI/jvhvfIyY+L6vsfeDHm5bQ0Qf5pZBOd+nWUaI6ejE7nTuWXrdv6NgyfctNdqw3WhcdWJBNo9Lp3ya7NqYdLSpxW2n9REGeH55tF0/L9OGv/fTwaNo4z3hqu18PP1xhdos4/9awchP+9bp6scuGXucTQJvFhI4KEy1Q1J8KIO3vCh3l8ccfPwwesXv8P8SEjgAAjCv+4N3kB+hY89knXFtt+8FrDAtbAik/3sS7FWeVzSvb5go//PPs2pa+/Lx02nAcr1LI1hI2Wul09j7Tqz7wpTPpcF8fv/3JtcfZa9hp7LohTBzny4eO6kEc7/sSx9udr3UXcT882y6eLZO2lcJe/9x4Ex+bVzy6UyFki7jM2w4d9/Gu+cbei/oTwPgWdaSjUbhooaMCR390ox77oyCxG/w/xNfecnY1FAAAjGHMmxiMNZ99oqPSdLqqHZG1j/x+sw3ZkY3+cXaaux9v4lF3N37v2WMB2iuv/3o19VXZdT/jUXLZ0YT+PVU6yrJ0V+tSdZ0qnYWfLTee8Ucuah4K//x4lYVrcXgsHzpmQW+tL3Y9yBjqnn3h6l2tM37aOM/P3PX02mN7/Xi0amvoGOffeoTkJvzr2XbYR74PAMa3yNDxhhtuOLjuuusO/x5DRg33ISR2g/8i6L90AACAcfgfXv4HfF9jzQf7xe832xDvRu2/a6oypfHZ8GxYlxg66uY4/rHKn0Ycgyqr2mnKXRVvcqPKQsy+waZO+ZY43MKuODyWjqw02Xor7NMpsgpx4/hPf+f84fNiINgVtPlpdUdw/ziGrl2hY3YKr4bpFPhsmVvDShl6erB/va5e7DLfB8DoPWiXV8BmFhc6xlOoxwwdL1y4cLiM1Pzqjh9d/QL04T97JJ2GoiiKoqjh5X94PfRIPk1L+fnc92A+DUXFevcNR0fT/bPPPZyOH7u0b8Z9tWsZSuOz4UPW50t3rx9x+D/8++NHIPrpf/Dj4wHhpvWJbx4tt68b/sPx5fjjO7pvJONL66Zltr5Y3fq90wcPP7q+LbL6FzddXXf/u8Dqn/7p0Z/q9+0/XB9vvx3+KPRT87F5ZuWnjdtG8/SP7/7Lo3nF/tl6//Mbjx5r/W3+fh+J62TPaymbj593S/nX03bIptn1+oufrPc9m4baz8res/tcysqG0vOjWYeOChwVPBpOr94P/n//PvHt9bvXAQCAzdm/s6pN+Pns452YMUx2uvGU4pGNeqzr8dWWobSM2fO65pX5/hPrR9PFo+Z0VJwX1yErndZ884/WT2vWtevi6cE2XXxNVTwCU5VNp8pOxVY9eP6Xh8uso4b8tR0175b18Nd077pjeDyN2i7N9Kk7z68N13xK4mnzsQfxmpZ2pGA8AlR9Ej/M+GFxnfoc6eif14d/Xp/X2yVx3wMM+8V4FhU6KnCMgaJOtVbQKNxIZnf50NGuywIAAMYz1hfsseYDTCkLHU9adoqtf3z9vT9fTXlEd/n247PSzVPEDxNdZ9IPs3lnYWIW8t3x8IvHhqlK13r010/0r9EaOuo6mSb2JVa8a7YFlnHZakFbXKb4mvF6mxY6xjC3FDrG6+h+48cvrD1Wf1vE+fS587t/Xq0XuyxeHxQwfr+4/PbVy1qgv8WEjjptWoGiLwsgdVOZOAy7xf/PL6EjAADj81+wNzHWfIApxVBJR7adtBg6xrBP34cjPz4ruyuxH2b8MJt3PEpQFZdLVQr+sutQqnyo60NHXeuxJXRUma7Q8aPf/NnaY7srcQwK+4SO8QjGePMdCx1jsKl1jcGgjgCP849hr4WVXeJ8tI46yrbEX//RP8+uublv4r4NGL9f+M8v9LeoIx2xv/yXC/3vJQAAGJd+mOvfWZ36uImx5gNMzb5bquYgBiB67E9Fzu6C3XXnabvxTPa+9M+1eWeBnpYjvo6ms3n6Kt1gxlMoZsMVrsX1ttKp2v50bbtcg39+VtmNdCSugwK4kmdeXr/RUGm9rLQOkoWOMRjU4zgszn9o6KhSz0qXtrA7q8dt1/p6uybue4Dx+wWh42YIHbEI/gvQvv6jCADAlHTtOf0o3/TfWR1Box/9+3rkDJbD/6icgxiA6LFdG/LL9z+/mmqdjdfp0f65Via7HqU9179XS6FjdpSgnh+DvBu/9+zaYyvPv4bWK663yj6LPvL1s1eG2aniGu6nbSmdHhmH1T7r4jJ1hY73nnnl8Hm6fqQfroMlstDx9LOvrQ0bGjrG+VhZr6JsWlVp/9p18WhiQOI1XQkdN0PoiEXQFyR702/6YwgAAADwPyrnQKdC+2Xq+0PXP1dl1zLsIwsdz124VLyGYQwA42m7Vp5/DYVtWehop3v7m+Dc9INnD4cNCR3jkYuqPqFjvAlNLK2TxD5p/bLQMc4/nhKu8LZF1juV9SrKplVpOfdR3N8Byd6zGI7QEYvgv1wQOgIAAGBT/kflHGz6Q9c/VzVW6KjliKcNl0LH7Pkqzx9dpmWMQZ3K5q+7XtswHf2oG6zEG8W0VBbOadn9NQ69OH3pBjlWtdAxzkv91JGIflj2vIyWU8trN5qJ87H68Nd+ejg+yqZVLT10VP+1znE7diF0RCZ+Fus/XjBcr9BRIzYpQkcM5b/Q1K6/AgAAALSY2/VHNw0d46nOH/zyE6sx7fqGjvH6inq+vw6llZcFgLFs/robs7+uo+b96e/UjzrMKrsDt8JL2wf0p3ff2as3sVQp0PKPY1noGLdBKXSMfbZrLVqVQsC4z2bby8qu5+ll06l0JOeS+WtV9hH3X0DiZ7F9HmEY5YBZPpgVRzrixPhTK+wfdQAAAGCo7DqHJ2nT0DEeLaegsK8sxNJyxNOL7Ud4nF6PdSSeH6by+oSOEterKwDMStetjMNieOnF9cqOxvRlR9jF4R+//clj66ujprK7hPsqhY5+Gl13rjYfu3O5idep8zVkX5kTvy59xCN1AYmXYyB03EyvIx1Xfw5G6Iih9A+vvekJHQEAALBrNg0dP/ClM2vPHzN09N/FVaXQUddi/OQdT60NU3nPXXzz2PhY/kd+XK8hFcMlVTx689VLV+/4HNcrO3rTl+avO4DH4XoN9cQP07ply+PrY9/Kt52fRuFlbT7xZjJx//K1S6Gj345dYv8UzALxPwoIHTdD6IhF8F90dHoEAAAAsGv8D92+oWMM0RT+9VUKHePdsUuho4Z/8YfPrQ1TebXwy0p3ZTZxvYbUZ+56+tgwO1XZSuGmHfWa9aFWCq+y9dKyZz3qCh2zEDDOR7+PdKSuH+ZLpw57tb7r6NSpla6fOQa/LlpP9UqvVTqK2cbHI1j13D6mXCecHELHcRE6YhF86MibHgAAALvI/9DV9Qz7iOGcvj/3lYVtr715+VhIZt/H47USNVwBjB+m8mqn+Vr58GeM0LF1HnatxK5QMJamV1Aah5dCxxjixspCxxiSdpVew6uFjgrfpmbL3/e6i13i/qT1tNey7RnFa2ha9Q0dp1onnCy9R/1+ce+ZV1ZjMAShIxbBf1EgdAQAAMAu8j90+4pH8w0JHeOpwCqJIZyFM/HHuR4/9PT6MFUUx8fy4U92lGLf+ug3f5YOz0qn5w4JHWMvVHa0nR+m6fwBFVlpeaNsulrFU7Tjdep8bSN09K83phimxsfZKdN+vK+zL7y+mqKNfy52R3wv6z8OMByhIxbBh459/zEAAAAAlsD/0O0rBlm6EWNfWXAm8YYltdAxO5IxiuNj+dCxK6BrKX8H7K7Sa9/0g2fTcaVSuJgdPacwL85LPYo35ollIaD6rruQZ6esd5WO8vOnGGfb1kr9mZKO2vWvJ9kp0FpfnTKuXnadsmynNvsbjqrieural5Ef70vP7cM/N7tbeM2un5q95PWLd68ndNwMoSMWwYeO/ksIAAAAsCu6TguticGUjr7rKwumJJ4iXAod7VqM8cYr0btvfHRtfCz/fX9I4LZJaR1sO2xaCg/jvHSDF//bJisLHcdYDvVaaqGj6vLb/UKzPrQ9/WuJhbS2fAomfTjcdcqy9SYGyjoV1j/WkbeRH++rT+iYndbdhy1/13ou1ZLXL37eETpuhtARi6D/4bM3PaEjAAAAdpGO+tKRXqUbYNTEU4LHDB0VlPlh9n083onahvvv7qpIoZofH8t/389OdVao2TWPoZWdHj60smVUgNEaOmbjhpR0hY7allOJ+4nExw+e/+XaMBteEqe16gqM4lGXvvrcsFT7qH9un9+oOirSP3cXLXn94j7EjYI2Q+iIRfD/YGfX5QAAAAD2me5W7H8oDzk6JwZTCkCz4RawlIKXj9/+5NrwqCsw9OJ6mSyMHKNi4LBJxSM+VZp/1/qr76+8/ut03JDSdSq7QsfsiMCxxNcW/1i/7+Jp0qqaOK1VvIbmN378wuoZR+I+66vPe6YUuLeIy9D3plFL4NdvaeJnwJD/wMFVhI6YNb3h9T+l/h9sAAAAAOviD+U+AYqJ4ZAdcRfvzGwBSwxPbHi8O3N07S1n18bH8uJ6malCxyz8GrO0Pl2ho6plmtbSdonXqYula/BFOsIrXnexRusWp8/WV/xjLd9Hvn58nyjJrhtqFa8BqtPzpXQNSF993jOlID7KelJ6Pxk9R7+BhxzxPAdx+yyN+u+XX/8JoP/8OClang9/7aeLPeKS0BGzll2QGQAAAMC6eC073Ym6r1LoqFDED7eQpHRdOx1d5odHtdOL///tvd/Ldd11nvd36qAHPhX0RFB6IjAUQyhEgYDxSQoKKJgGFyRTSJEwDkTEoiAMpai1ZVlVrBhhW7brtLLjVsnXXu/33tb9Do35Y6259/M+z/fdFwz22mvNH2OOMebczx7PXGvX51nWcYm6A/JR8ogfrpkJCYTVMy0fLfilJlKq/NZ3f/mHh/RcvuqTEV15nXOptzijX/djPyNqPLpU//EeOj2qdInXEXWu/NGf9T922tlk9LgCoe/A1Ln6AzWvgeqft0b3Dw3i82d///P3JV4WxQOx9BZJ0jG8aupk/y9/89M/fEIIIYQQQgi/oCZBeH+V3aSj4+eVPCHh6ecro6QjX6rr7q6qk1gl0e5KvTX80cJupe78MwW/rOz1G//637+37C/w6zs/NOPluaW7npPUnX41CScZUW9tdqm/DE6s1WcojuTKbbQ8/9Hrjuabl9Ft1CQ3/XxNOvq1H//Vf3x/9u3QPcPzLTHaRU2cfgxch7dIko7hVeMTDPlH/+pH76+EEEIIIYQQxDOSjv/N//h/vDs/++GL7jy7vrrzggSXX5d0z25/6aTjI29r7uRr3/lJe/6ZQpJvZS/52vHrNTHWUcuPfrSlJhnZZenvJSNqTLjUHzHi1mZ08XMjuZJ0rPYczTcvIxvWpNaf/vWHiUW/9rESXSeM5uxbYZR0ZO5+DFyHt/j8zyQdw6vGJxjC82FCCCGEEEIIH1J3F/3op3/3/so+NVnALjHh553ufP0RlMroFuaO0a6pZyUdu9t8r8rsVl42UXTn78qOvtibO8bqeW7f1XF3R5mXVcKMXXr1eYPs3qzJPhLPo2Rf3en367/74e5EyYhZ0rEmjbk1te6sHIknHb/1vb9819boWX5d0hE7fOlf/tE/1KmPHyCWoT7ztCYs/ZqeSSn0bMr6fD/O8+xBxvuxn/33WpOO2KU+X7NjlHTkuYofA9dB8/AtkaRjeLV0Dwj+mA9wDSGEEEII4bVSEzx3vpzOko7ds+lgdF4JrXoe/tm/2U861nGJZyUdT4Xxzp5ZSeKiO39XTnZmUtefL1nxsrrNt/N3l2Qllka3Qdcfc6kJS8mIemuzS/e8zNHt21WIS0ECj3MkdXWruFOfKfq//Pj/+oe+VafGrpKL9RZwTzrW3aG06cjWvDo+7m7OvSTVP68F2a7atEKi1/V3eWm655++NZJ0DK+Wukgjb3F7eQghhBBCCM/mEV9OSSx5G/5oI5IsJGLqLiHed+f5MRnOf/33/+L9mV/Q7SQaJUrquMTO7cL1XLfb75FCUoPxzpKOpzrUJONJ0pFfEff69bmNXlaJMT83e24jPwBUk9iS3edmjriacGaHW3e+in50Bvw8uwgrNYarTtSpSVfZsMaHJx2778BOd77brLPzDM5nUW3xWtjVabQTG3lpajwk6bggScdwhW7BfYsP0g0hhBBCCOEl8L+b7/zqbf3725Mwj6RLOpL8GuHlRE1skLT09yRB/T3y6FubqyghMEs6nkrdFViTjlduD0dPr8+twZ489rLYt+5o1Hj9nAT/jJKOJDu781V0q3K9pfhq0rHb/djJKOnY/a7AKulInTp+zjGOGqv/67/fSzrWBDzvgfp+HqEd7Ea8sLNydFtxte0dVv65gtrCF+wKpk3aG+l/Bdepe36s+pkl8rtdr8+kxkN9/udb4FLSkQsnkqRjuAITyicYH6B3/ngKIYQQQgjh84CSQndvr6xfcJ+VdKy3piKzpGM3rppo+cff/JMPEm4kFWoCrj5L746ozZo4QsToh3JOhT5r23VH5yxhUoWkY00A0od2yfn5TnhW4qgcSTl2O3bXZjpWn5EwrP7v4ucRQgwJP49OP/v7D5NN9REBNdFGnVHStQp1RZd05Fx3Tee7nZxc0y3iEp8/4nTNgJV/rqC2JLznOZUcr26LXuHtynaO+plJV++ZVJ/7rti3AnnALj/YSXY6hhfFF2kWbZ79EUIIIYQQQujRLdDdLc071C+4z0o61gQNQgJshMblO51qQgddSXSR+ND3hl/97Q8Tao9IVvG8N5IT2NjPs6NMoItfG8mVW60ZF+Orbdf3V5KOJNm6XZn6wZN6vgqJX3Z+ddf4RerOzzNhjNVnVdjd1+2UfYR4DNZr9TFf1e7dWGfPnnTxpGPdeIMo0VVv19b57hmE9VEJEu2OFH7tzi3Z9ZftaaP65wper5MTvJ0ueejXR9LVeyY1Ht5q0rFCgrEjScfwovgfEv5fpxBCCCGEEMLjqUnHf/5vf/L+ymO5mnTsqEnHTtf6gyWrHxSpu+w6cfw8uyjFbtKR7zjd+Sqe6FglHbkl2d/PhLpd0lG3+9bzVfDjD//ib9trtH01yUvCtPqsCrZ4dtKRXY312te+82F81R2nPMPU3yO74/ekY41rRP6v13T+n3zrl+OoawfxWKoJQ7+2C3VqG3eTjvVX7zs5ub3Z2+HX1St+fSR3bHRC9SPv3xpJOoZXi08wPrRCCCGEEEIIz6MmEEgePINuB9iv/+6P31/do34Z73TlF4W9zGj3l2T0K8oujp//vR/8zfuz81+/dakJw1H/nmipbdc2uiTiSKjb3QrOc/Wgnq/Cjs/RczJJINbbe1dCneqzKsTo6NfPHyHoTIKxnuf5gnpGIkm++pzILhG6mxy9m3TU8/14DqGfR0Z2ZAeqno9Y57sn1NBp5zmK3GJf26j+2aXq04nrKHafS+ntdMk7vz6Srt4jqWOpPvfnf4rd8X8sknQMr5b/+Yd/8w+TK0nHEEIIIYQQnkv90v+spGOXWLn6935to9OVW0m1e5HXurOrys7OQ8efP8cuLbGbbKo74UgYcouxn9Nz8kRtuyYhryQdSQ7VpCVCYgrq+WcLz6d0n3WC3zudX0Lq8wZdOp+z+7ae68Rjt5sbSrTVZ2RSFmrMIKtdltSp810/2uo+oNzsdxXq7mHaqP7ZpSYwO+mSjvWZkiO8HdlOMGa/PpJa79FoLLxCjQdPUIvd8X8sknQMrxYmlCZXko4hhBBCCCE8l4+ZdKy3r66obYx05dmL7F7bSaTVZEndqadEgCCxQ5n6DM0uAVWF5zn69x2E3Z60RfKA5OFO2+xy8vdXEnK01e0aZPcj1PMnwpiUHBmJbm9Gr1HiEb8/64d6TqTz+a4vqCu6X6JWoqvGi877OUmnT5WaMFR73Q7hETX+Ov/sQl2v10lNOnbPlBzh5djg5NS1bySy0bPwvqDGQ5d09Ov1mZ2vgSQdw6vFF9X8iEwIIYQQQgjPpX7x/tb35rdW3qX+IAbiiZcd6rMEd3X1OlXq8wTrj7LwfoedZ/lxW3JNIu1stKht1zZ2d9ch2LxLTrHjEOr5EyFZ0z170IXrYrRjk2TRld2cktFt4I+S7lmUu3167Fd/Ikp0Vd9zfrRDbyfpWPtSP92zUEfUfmij+meXbuxV9Ivpoq5ZNSnpeDn6cnaTjjwa4pl4X/i22qTqXZ+DORv/xyJJx/Bq4L8kPPiYxRR8gvlCHEIIIYQQQng89Yt3/YL7KLov+PwQxxXu6up1qtQv+PWXlL/89R++b2VObacTfnimPttSuzFn1Lbr+51kk4SyXXl2Je483/KKkIxaPevSk66j3YyM907SEdt251cyu9XbpdvVuPujPv5dt4sdbIE/qk/YBTdKlu0kPGtykd23PMOxi3ueGajv6Q5x7GW7pPDu3K67JjtRYlR0z5Qc4eWwszOyY5VaDzhXn3+p3EbdqTzjL//vD3VApxoPK735hw59EyudPp0Pna7uKUk6hlcDDyJmorCw87Bk/wD0hTiEEEIIIYTweOoX2O4L9iOoX67v9HVXV69Tpd7KWBNJJFN2qImCTvjyTwLFz+1856lt896f6dYlEUdCgqHunnuW8KMn/NBFd03Crd5idGsybZAE667NZNT36rZv+tpJPHb61p2yI/Fx78SOhLLdrmFkJzHb6Yw9RuPlx3Mq//R3fvxBGXSq/tH3+xU7sVuTjt0zJUd4uZpUIz79+kgYX0V5DGwH7FDk2M/tUNe0LulY14iadMU+vh5w+/kVfWrdR5CkY3g1aKIgfAD6onPlPwQhhBBCCCGEe/jf5N0X7Efh/dzp6xFJx/rMxvoFviZldn9hu/7gh5ISLiRLatJxZwy1bZ6/R+KQZAHfn64kHekP6a49WvBX97xCF0+ojJKOlFkl87AFvzbt56qtEcrxPRP7EQs1HhCSd6P+PDnX6cvOwXquE+qKK/6gbDcuhFvku/Mud3aMVmob6NTZi+/3K7pb1KsQQw7t+vWalHS8nMcajOxYhfFV/DoJvjpHd6kJ5J2kY9W7ex5n1QcdO+rzMWcJ3Csk6RheDR7gbAf3D8xucocQQgghhBAei/9NXr/gPxLvB5klCzpq0nFXV69Tb1et13lOpL/35NCMmgjg1kt/j/CFviYZSA6sqG1Xu9UkzEz4jlWTGleFcVSdOvnZ3/+83eHq4gmV1a3YM+mSNTVekGq7LumFz0cJPI+P3V2NnXhc+XfglTDGke21s20md3TGh8DOUeZP7Yckbtcu3++B+BzdvtslbqsoZnU7c7VX9anj5RRr0mf1vFEJt4pr7LpV2a8TZ7Ut7Rh0vTuqL9l9WcfncwRqnGN/f88/N6o+6KgxoIuO6/NgZ8/yvEKSjuHV4AHOf438l9SYTCGEEEIIIYTn4n+Tz77An6Lb+O72VZNIu/W9Dru0/HZC8Pf1C/3OMxehJg+65xOSiLgzhtp2rVN1ngnPlKzPlbwifGdjHKNbfCWyLcySYSQ/xJXkm4v6quOC2ne1XdcnibAuIcXY666yu3KSdPRdbN1OzRPxnZwSYhbq/JWgP7dh1/O05fXwRf2l6XqrdieM2duov75ef5Xa8XIktdnx141xJoxP/VOXZLpf/9FP/+6X2qw2U4xWurld44H3Tv0nQ7UHidHqD+ar66LjKkqqnpKkY3g11CD34E/SMYQQQgghhOfjf4/XpMwj4Qut98Wunis8IulIMhA9+N6hL/O8J3nDjqH6vLj6hX9ETR7UHVy0D3Xn3x/92d++Oz+jS0w4V5KO1K3tzYRxoPt/+z/9u3ev7AyE6gsXEh4keMRsd51/56vJlio1gYgPuZ1ZiZI6LmA3l5+rtut2iTLmmsghqcTYr9hultzCnmI1bhfKur/rLeWSO8lIbFl/UAbB1zyfsZ6XzHao1l9aJvnl7NzuXeO7jnmWN/By+HWWNCa+8At28D6qf+qty91uWSUd/Vz3jMuaKCe+an/+/E+o1+uu3PpDP8hu3FL3ESTpGF4NXaBLHrW1N4QQQgghhDDG/wbnGYfPxPvSF/Nd2CXl9Xd19Tpf+85P3p/tqV/OZwkNp+78q4kBkl/Cz+/YoLZdn7tWkzIzYXxXEmcj/dgx1pVHfvgXHyZSZ88a9F1qNSntQhvg52qCpI4LSCL5uR3bkZyq/tOYePXzM8F2NekmIdkmal8zoazbaZS020nmVcHGXQKNxPhs3LO+8K+/r49EGCVNXWZxgVxJOnbj0zXH46ImVesu2FGitj4vsZtLNf6I4RoPVbc6hvoc0W6+7c553RJ/SpKO4dXQBbqEiRFCCCGEEEJ4Lv43+E4S7ATvi9sUr+L1d3X1OuxmnFF/WGbnmYuALl6vPmfNk0x+fucXfmvbddxXko4kj1a3RrvM9OvKI1W/2bPz/DvfbBzsUAU/93s/+PC22jouqLu+qm5dMoYkD7d9+znVq76YiZ7r113zeKi7KmdCQsqTUqO6JI+68zPBxt1OQM7Pdqt+6V/+UXseqQlDdpY6O8+YxB/decloTtddrPwoVJcgRGZJx5pUrbcmdzta8VG1C8lbPU9Sz3isMY+t6y7VqtvKHp3U3ZkjIYH5CJJ0DK+GLtAlSTqGEEIIIYTwfPxv8JqUeTS6RXb0jLMVd3T1OnzJn1GTSrvfSWq9LpkglLTYtUFtu477ynMGqVvbk5A88QTKSj8fh/xK/cosqbabdNSzNT3hwy5Cp44L+BEQP1dtV5PMCAmjukNPjGxXxW0n27h40vFKEgndfOedJyBdsFd3fibUufPMw5qEc6lj82ek0ldnmyor+2CDjqoXNh+NrbZBQlvXatJxR7p+iPU691e7OJGadNx5DmaV2dyqomT5CUk6hldDF+SSJB1DCCGEEEJ4Pv43eE3KPBq+ZH/xX/zhcsfhiDu6eh0SdDNqUmnnmYtQbzeuz2rz27qv2qC2XcfN9ya/7lKTOtStz5UkKUg5bttENxIjO/pRll1ZlCO5x3GXABolxhAfy2w3lnbIeZ+VOi7w5BFSbVf9jaBvtanoylch4eR26H7JnHNilFTj2Zg1eYWvvDx28OuSmc1HIhvTZvfDMBJ0mt0y71LH7sn33WT5atdm92NP9dZmZLYjs8at+39W74rU+GZe7/jJn/8Jd5KgzJvufCf1EQR3SNIxvBq6IJfUh8yGEEIIIYQQHo//Db5zu+/H5I6uXqc+b7Cy8xy2EbWev18l8FZ4W/W29FnSse5wIjEHfu7KGO9Qb1V28b5n46jPAhzhdYCksZ+rtuueuUgiqPpP1POdcMuw091e7mVGSUfthnQfUpbEnd6PbDaz+UjcxiOdEMrt3qJfk5d6NieMnq9YpUvauqBrZcdPLrOk42wn5xX51vf+8oP36LiTdPRdsTB7DuYoWbzTj+QRv61xKenIhRNJ0jHM6IJc4h9AIYQQQgghhOfgf4O/du7o6nV2vmN4+StJ2FrP35M4OsHbqlxJOgo/x46rZ1JvVXbxvmfj2N2Q4nWgJhU7/DpCgqbuLhX1x4w6+fLXf/i+9Kd0v+6spCO7C0dJLSWbfEcgCTbf6TayWd1puyNu41mSinJXk3oSPTNwNu4qq3K0yXMS2c0nutvmZzJLOj5KaiIXO+48z5NEoo9t9hzM0bXZL4xX8b7uQh6wyw92kp2O4al4cNet40k6hhBCCCGE8Hz0pV7PGXvN3NFVtxjv1rlrj1qPY8nqtu4VM51WSceu7t0x3mGkX+17Vo5k3w7duDiu55y6O0wJKJ2v9bxsJ3VnWrfrUEnH0c405B9/80/elXG71KTjn/71f2zboI6fn/WDVBvPko6Uq7eyXxES8vLTI4V8gv5JwG69rsxIdGu54BbjrtyJ8EM2/h4fzXaUuuA/MfPl6HmPu/0g9Vfh73Bpp+P719sk6RhmeHDXZzXUBwOHEEIIIYQQHg9JEXYLnd4C/BLc0VXPAdzdwUO5O8+drLr5d5vVbd0r+LVbxqBfvXVmCRKSnZ3N7o7xDnVXHM/gI+lUn8VXb9llx+Do+Y0j5Gu3k543OWqn7g7TrtRRrHnZTkguOdyOXMsw/lXijkQReNKR5/v5Mwaxbbe7jTqyBfrPdsehSx3jKOnot0d312mrPgORZKAnGf02Y67VZNyJKHnIa3dd4vogdSfynZ2ctc0q1Qf4yG+VX4norklGycVRP8QH4ols8jKnJOkYXg0e8HVhCCGEEEIIIYS3in+3eeZdXLMECYmNj83oVuVKHQc/vPES1CTZ6lZ4L4v86m//8IP3ShaKUXKRhGZ3XtIlHUkOefKKZ1R2P3RSk9wkcGsZSbfZZ5S082Rudx0f1oQl+np72nmKcFv0nQTfSLApba5+/KXa4xFJx5mNEZL8/h5dVztQXWCVqB49J9OTii6Ur+2i1ylJOoZXgwc8W6F1i/Vo63sIIYQQQgghvAW08+nZ321ee9IRlFyZ2aKO46V0rwmZVdLRk2ZIrd/9mnKtsyM87w98Jyt9eaIKuoQStnRGSaeRP7BBV57klOgSZsAOSz9HUta/67ug1yOTjjuCHv/83/7kg3OPSDpeeW7iHYG6G7jKaIfqyP96lAB4jJ6SpGN4NXjAA9u6+XD24A8hhBBCCCGEt4ZuzyUJ80zeQtIRW9Tbnit1RyS/PP0S1ITMKulYb5Ott65232W5pVi3snrZmagd92/VFbqEUk06Vh35zj27vb5LOpJUc6odaBNqXfQDxlMTj+hV/T4TfrmZfq48o5DkqBJq9M/uPnTxMt0zV/36SthdWdt8tIDveu1ktEN1tPPTY9X96cnlOyTpGF4NHvAhhBBCCCGEEK4xSzqyS+4t4brXxNmzqAm5VdKR5xp6+ZpsmtUf3f7aiRJC7t//+n/4wQdloHteX00a1V9JrreAV/wXsyX1lm0SgH6dpBXUpKP3xTMp/drXvvOTd+f93Ez4JXTRXe+ke55q3Y3ZJef9+kr48ZWXSDqufpW8SxYj9dZuiceqx/WPfvp378/eI0nH8GrwgA8hhBBCCCGEcA2e6+ffq1xeKnH3KFx3/RLxs6m75la7Q//Jt/7kg/I12TR7FmWXzBtJl3Sst2lDt+uvUnVc/UJxt6OuxlLdYckzDaEmxrwvjv2adlr6uZm4b7rrnXRzoCbndpOOo+dw/t4P/uZFko6jpKKk89tMPOnocc2PH52QpGN4NXjAhxBCCCGEEEK4jn+vcnlrSceXeg6mU5/Ft0o61l2DO7vmBLcSd8827IRbZWGWVIbuWYKVqqMSmiO65FXln/7Oh786rduoa13vi18S92tKesnvK3Hb7tTB1h0khr1c57Ou/XpLuYQf46k2frQQB95HTUAjf/CTn/3SuZmQLBUe156MvEOSjuHV4AEfQgghhBBCCOE6/r3K5a0lHfUczNGzBp9B3aE2SxpCV97fr55FSX0SRvzACs94JFnHa91B6YkfP+8CVR/aqtQdcrNna4L/eA3S/aJx3WH567/743fnqz28L5Jcfk3PUiSZRpKvez6li8czdfSczO6Xo0k41udQiqpj9xgC2q+JvX/0rz7Uj+dFKlarjV1GiWaSmN0P8mAL4sH7/+6P/sMHvq6/mo5gn3puJh7r3jbJ4ROSdAyvBg/4EEIIIYQQQgjX8e9VLuyOCnPqDrVV0pHEaC3v7+8memvCaDfpWPXnR00q9Zbn1U62qgvJtkp9PqWe3Vh/Ydn7IiHr17rnLfr1KiPb1nZXtwfv+qwbo7/3sc2SjvX5lxISllUXRPp4/zz/0ncj1lvVEXZc+vvR7eASj3WP61GydpckHcOroE7KEEIIIYQQQgjX8e9VLmFN/V66SjryYyZenh/d8Pd3n0VZE30kCoWfd4Gqv25zdmpiq/u1Zqfq0j0Dsu6w/K3v/tm787Wu91WTYl2yz69X4fb0jtouic8ZNTHa6QH1GZz1VvbdpGOXIESoU3eVIooh75/Epf9oUNcf+Pu6M7OK/2CMxzW7R0lC3iVJx/AqqM9ICCGEEEIIIYRwHX234nZM3a7JcVhTn+83SkCJbpec2/8uNVnnyc/63VkCVX8SU5WaZFslVutzJNlNWeGZk16GJCTwy9l+vvalW4ZHz1v0ui4r23q7P/9P//n92Z5q65HP/RmctF93le4kHalXd8dKSCpWXRBRnwHqv16OXTVmCXgs1uePVvFx17jmF6/vkqRjeBV4QCMhhBBCCCGEEK5DMoRkA4kfEhzsVFo9ty98Sk22jBJQoktYYfPTZ1HWdj1Zh39rggmBqj+34VZqInA1RvDyPE+wUpNsnoDz87UvnhdIfCpJWfG6lGPnJrGtnZQjsD022rk1mGSe9zN7DIHmFv3XMfsuTm7p9msI9dCru4Zwe3n1e31+5mi3IvXqNUBf7Ea/dTdqFfdN1WPknx2SdAwfnbroISGEEEIIIYQQwktyNelYE1b/z8/nu+p24ZZab7d73mH9Hg1V/1Hi08twO/IKL9/90Ertlx2Xws/v9OV43Wdyp5+adPTEcLUHomRml/9AiLWa7KvPz6w7SiXYtV6rjHZYSjx2a1yfkKRj+OjU7d2nQR1CCCGEEEIIIVxl9/l+zrNuYd/RQzse1XfV33ccOn7b7Q4qz+29XWL1D37ysw/69QTc1b6cOr5ncUfH+oM8s6RjbVfjkuj28nore31+Jslov8UaUdt+rRtHff6oS1f+UXGdpGP46HT/BQghhBBCCCGEEF6SutNsJ+moW9hPbqfu2NHjW9/7yw/6rvr7Lb8OtzWTaNu9bVZj5BeUO2q//IK04BZfngl4xz4nda+g25CvPIag5jFmSUf9mrfQbeXcLs743A9eD70qlPXkotfFTvi181OXd/ny1384jN1HPCYAknQMH536HwIkhBBCCCGEEEJ4SR55W+kprge35O5Q9e9uy34GO79E/VmjJvH8tnPs7teuPBPR63XPz7xLTQwj7H58NpeSjlw4kSQdQ0d9FgISQgghhBBCCCG8NK/le+ldPbzeSyb/vF9u9f2sM7sVvyb42Nm4i9frnp95l5qQRnx35rMgD9jlBzvJTsfwFNgy7IGv5xmEEEIIIYQQQggvyckzCB/JXT1U76W/V78Wu70UNbE4SzqOnq3Z4f571A8TCd2WLXmppGOFBGNHko7hKbDVWEFfn0kQQgghhBBCCCG8FHee7/cM7j5TT89BfOnv1VefE/nWqb9C/aik4+r5mSf86m//8AO9XOdnkaRj+Oj8s3/zp7cmYwghhBBCCCGEEMLHwBN4/PK0qEnHl9hRuAOJTNcrScfwmYf/Hmn7MDL6da0QQgghhBBCCCGE14In8Jyf/6f//MG115J0JN/ievGcx2eTpGP4qHA7tQf9a5mMIYQQQgghhBBCCCNmz7H0PMef/vXjfhDmBJKMeq7jSz17M0nH8NGoz0BAXmJ7bwghhBBCCCGEEMIJs+d/vtY8BzqTLP2t7z7+mZEdSTq+Mv71H/z1J//Vb/3g0k+qv2YYD5MQ8TFxnofi+kRE/s+//X/flwghhBBCCCGEEEJ4e3iew5/3+HnjM5F0/MpXvvLJF77whXfy1a9+9f3Zt4dvdeX1rQemj8fHVM9LPi8/rR9CCCGEEEIIIYTPLrNbrz9PvPmk47e//e1PvvjFL75/98m7xOP3v//99+/eFvWhnt/90X94f+VtUsejMXXnSUK+1PbeEEIIIYQQQgghhGfxO//bX727u/Prv//ZuIv1Lm8+6cguR9/dyPtvfOMb79+9LerPl3/tOz95f+VtUsejMXXn33qCNYQQQgghhBBCCCH8gs9E0tGTjCQg795i/Xs/+JtPvvgv/vCXEmKR58uP/+p1/JpTCCGEEEIIIYQQQjgnSUfjS/99Eo7Pkv/iv+vPI1z73v/+h+/iIxKJRCKRSCQSiUQikUgk8jrkpz/96fus2XWoX8nt1SGEEEIIIYQQQgghhNu8+aQjCcbPyg/JhBBCCCGEEEIIIYTwWeDNJx3hy1/+8rtkI5JdjiGEEEIIIYQQQgghfFw+E0nHEEIIIYQQQgghhBDC6yFJxxBCCCGEEEIIIYQQwkO5lHTkwokk6RhCCCGEEEIIIYQQwmcf8oBdfrCT7HQMIYQQQgghhBBCCCEsubTT8f3rbZJ0DCGEEEIIIYQQQgjhs0+SjiGEEEIIIYQQQgghhIeSpGMIIYQQQgghhBBCCOGhJOn4//ONb3zjk69+9auffPnLX34nHH/7299+f3UM9ZBH8fu///uf/MZv/Mb7d/f5zd/8zfdHY77//e9/MMZvfvOb2+OuUAf58z//8/dn7oEOO21IVwT7M5YdsK/a59XbuAr1Ne4dKI9f8C8x9mu/9mvv+t7RnXJ3/DLiEXGL3vhhBTZHBDbYHbdz1d4zdsZOf5RTjOzGJriOjF1t3NFd89RtOIPy9PWVr3zlXZzxis1XuqveVb/MINZ39R6xO3bKSXfGylh2xl25au8R9LszP+hPc+JKjNC+6+hr4h0f0pbbcAVl6Yt1jDjD1zvzinp3/DKD/k9B95VOXEd/lcNm2ODOWnrV3iNox+NghHRFsP9OHUA/11GxeteHjNltuEJrMD5GOKb+Curd8csI7JW/zdZt+DqE/XfjG/uqfV69jTtcGTdl8Mudv80eHWePam8nzrC5rwOa27s+cx4VZ7tjvxtn6CgYu9rw87swVo17B3Skr6t/m8FdHUc84m8zxoMfVqC3/MNYGcvuuJ2r9h5BOzt6U47YUozsroGUcdt6rN6ZW9RhzLv+oix9Xf3bTPF5R8cR9H/KztgVG/KP5vadtfSqvUdQf6cN+tPai9D3DtRzX6mNO3ML0JW+H+n/js990pEJ+cUvfvEfAlSLDOdWf2QyoZBf+ZVfeVf2irMoq/qSL33pS+/a4njV94wvfOEL74966Jsy6pcx0zfjpv/ZROEai5mgHrainVVd4Drl6J96vvjTxmzCMZGo47rywb3jK6C8fERf+uOS41V99KI+omONHR1WUJZ+6I8xszDQJ+2sPgDlK/q6uqDQNnVdaAfh+M6iDNiA+jNom/FRDhsxXmyucc9gnAjgM9lbsrIBfWM32c7jknMz5F/XVXG2shf9UA7Qkbq0oTVl5WvGjH6MkbLSn3ZWfctO6Ep/jINX3nNesd9B2ZO40DxyoU/F/WpdGEG7yAz5hr7Qm1fFmq9VHVyXbm5v2qPdFZShDsKx4nJnfuBr+Qs90JtX+l7Zi7rST/GKnRg39We+BvqRztSjvny26hs7UY6+0IP38j9jmEE5ymjc6H4F9KYfF/kMuQt1V7ooxhDGzHuNR2vVCMoKrSn0yetqrhFT9ME4KU+fgmN/36GYol/aUazR/2odpaz001h5xXccz6Bt+kVv2qA/t+Gqb8Uy/VEf4VhjmUFfsi9lV/PBoazqS9BXPlv1PQNbzKBvj2fGLJvT/2xucg1/CephK9pZ1QWuU47+qUeMC9qYzQ/52nUlRnZ8BZSXj+iLcdAOx6v6p3FGGerQH2NmLtMnOrkNOqiHUPZqnNG26kvQG+GYsdxlFWe0jc70g5/QHZtr3DNO44y+0U9x7uVXep/EGf1QDmhHPqMdzq98rc9ZRMcaOzrMIC6kK/1Rn1fec34VN7IVfRGfq5h26Ie6LtKd45W/RjAG6s+Qb+hLa5lizWOog3Hqc1X2o75kZQP6VpxxrPI7esu/Pic0ltW8RGfKgtrBB7RD/ZWvqY/OjJGYlO9pZ9U35SlHX7TDe/mf9magK/ohlF/1VcFW1HOR7shd0B+ZoRiTzXhPHd4rhkagt+aA25s25McRxBR9UEd+Fjt6o5tiCz1oi1f6Xs1LyslHGiuvtMXxCuqjN+Wphx6Mm9e7a8IOn/ukI0bvFi/OYfwZOIiJyiIip+FIAncFTqU8QUcbCMcEC8crp2sid8KYZqArixJokmkh5DzXR6AbfQA6MjlkPwX8DOzjfdOW6nBM+yOwj7evhZX+0WNWF9wufkz9lc3Qm740ZtlIfc/8hV6jRQAb0PYM6UYfjJ+44XUVI4DO6Ec/6IFQF+F49gFI+4qpKoyH1xlc11zAV+ghFOcjsK9szBjcRrS7+kDERvSNfyhL36qz42tvH12xBUK7ivcOxiS7+DEo3mfQPv3Ib7KR+p6BvTS3KporI1xX6Un/tLn6IwmwGXVoR4Ld6JPjmc2wNXU7kQ4z8Kfap0+tEZxb+Zo+0A80x4G62Hs1P1QGQU/05Txt0vYMb1/9ATqs6tKX7OLHgK/9fQX90JM+GTM2k/3o2+daB7ppXlc0V0ZIV/rTvKQOx9JhBjZifIoxBB/reAb10L0T2p3V5xp6Aj6jvNaInXntcUhd2Yh2scEMxQP2oR7xLZ9V31fka4Gu8i+vs7pAv7KLHwM6zGymWEJP6rqNOK+5NsLntcM5zZUR0lXzkvL0OYpbB5tRHv1oA+FY453FN2isnazWI3TVGo6ulNcasZrX6EYfIL/LftTTujgC+3jftKU6HNP+COzj7dMO5+gfPWZ1we3ix9Rf2Yx+7sYZemleV3yujJBd7sQZemEbytIGgg0RtTlDY+1kZTPKSEd85WvEal5zjfpwJ86wEX1TR58BWkt3fH03zlxvPwb08fcdiiWNWXNRfc/WBcpqblU0hhmyC30wfmzI66xPgd6MjTFL8DF9cizfddA+dTuhDV5noLfap7x8x7mVr7GZbIyuPhfpVzHTgd7YiDmkuSkfVd930Je3j+7UVbszm7nefgz42t930D79MGaPafU9g3GN1h6NYYTbRfNBcb5aiwDdGB/tSPCxjmdga/rrxOdaB20zNkBP9JDvduY116Wf5jjgY9qajZ2y1KcstiW+0YX31fcd3r76A7U7w/X2Y0CHmc3RFbvSJ2OWzlDn2qP53CcdR0HFudWiWB0NBDsOxKGzYAUcTxtMVBxOW6tAEwQ3gUGdKiu9CSp9AHKMDRRwq0WR9qWjH0N938F1yjmMBemuOeglvcF13ZngtM94wf2zu5hLt6rnSm9N8A4ttjOqP/EVY6XNVV1g4SUmNfYdWwH9UI+yjM+FtlZ9E5/6AOTYy68WRdex6lvfd3Q2o0/svTOv/YPbdeXaTG/6IZbwOfHlfsdmq8Xcdat6rvSmff1RV+H8zGaMqfoT/anHeFb2BspcsZXQ/MPmlHdZ6Q1avxDsrfK83/G1dKz6rvTnWrWZ5vrO/EA3dISq60pv+qYf6hHT7ndiTHO9w/WuY+jGVKF9/VFXQSfaGIFvqj8pT5uKgRmMl7Gio9bvla0EOku/Kqv1CL9SRsf0qfLovONrUfVd6d/ZjLGgz87ntfQG15VrK71pW2sWdpff8QO2xBYjXG8/hvq+g3jo/obi3MpmjKv6UzZD765dh3HRBvZlrDu2EtgJm1Gnykpv5q3+xuFYaxvs+Hrk2/q+g+uUcxiL5lu95qCX9AbXdcfXtK81y/2DH7DBDG+/9lXfV2if/jqIlzs2uxJnzEfKauwrfZ2TOKOe1lqOfZzoQxsjuKbyfgz1fUfVjfimT+y2sxbejTP6IZbwOX5xv2N/rXMj3Nd+DPV9hfbxVwfnVz7vbEYdxrCyN1DW/brSV8g31Ke8C2Na9a31C0FXjZP3O75WeT+G+r6CflU3zfUdvbnuf4tcsR3X6IcxEtPud2JMc32E26XaaGUz2qfPDnRa6V3twjxBf/w4szcwXsrShta9lb5C6zw2Rw+X1fygLv7RMX1SD/zvnRHuz+rb+r7SxaHW/9XnNaArdoM6J1a2o22tWdhIfqcdfI0tRjAm2cWPob5/NJ/7pCOOItgVIAjHOM0/3DpmAcn51R8cAh3U366zCSwCu+tjFazUYcz0pcWUY8bO+VWwel3Xl2urD279kaWJJpg0vlh0SG/shHCs8tRfLeZanBDqSn+ORwu1cL0pK7vTJvXreCroh48VYwjnqOsfbh0zf670FuhHn4wBH3G8g2xWUczMYFyysxZF+pbvZqAf9qIP2U1wvPI1fdCnozmzmh/Sm37kI/kXXWbzA1Qf3emLV8XZqq7r7WPe+UNJ46McdSXYnL5n69HMn7S7ilFBH/SHoMtsPjvERvUXaAwzsBl+QdQO56THDMYsm2Ej15dzK39Rt85BrQkjewp0pD7jo6zKa51bQT3K0Yb64xhRvI6Q3vTl+mOvlb01Puws/yDqe4bKdqDLbrxQjr5oazWfHXSu/gJst+pb4yPOKEsdjXvni4R8XPVd+Rq7dOsO46CtkT0F+smvtKPy1F/ND+KIMppfCGPgtZuvjuuNvWRf2uT8yt7oh22YJ+iMaK7zOmPmT86j2w7ooP5ocwetw10fq1iljs9ldOWYsXN+th5R1uu6vlxb+Zo1nnp17cDP6D2yJ0hv7IRwrPLUf+bfZqdxhn6UU4whnKPv1eceOo7a5/xOnKEnfTLmnfVXnMSZ/kahPmPVWiDfzWBclLkbZ/RBn47Gsjs/7sbZyd9mPj+wl+xOPepzfoTGR18eZ9iKuqs4mdllNT8EfdAfgi6juK1oblao777vwEfMLQQ98RHnpMcM7EM9+tD8FByvfI3O1Tby1UpvxQn9aC2Qf9FlFSvUow46qD+OkVmcgM8PH/POdwCNj/rUlajvGTN/ovNqLRS0Q1/0u5rPjuKjojHM0Pjwjcahca/iRL7hFdv5vODczNfMqS4eGAtjX+mNr2Ur+kJA69wMfMIcon8J9Xnt7FihX/SkL58ntLnS+4TPfdIRMDpGdlktKsAkXC0gu9AO/RKELwH9MbmkP+Olf59wV8GOO3ajTGc312cEfbCIVF1HbXZQlroS2tyh64MYcD1mUE7xhTCOnb7rB+cJ9MeC9Mg2Z9Cf2wd7MfZdm3fQ3o6vO79Qb8df+Fp+cl136grKuuzGZ9fHbqwAvpXuCO9XfXN994+KHRgDH17Y8SWgH+8LeyG7Nu/YsQftd2PEVztj13xwXUdtdlDWY6yLnY6uD87t2kxlPc527EWfu2PbgdjWH2ovAfbVPMQGml8n7NiNPrv5jy1X6wJ6ak1wXUdtdlDOY2zXh10f1N21GXU9xpCdvrHpThzvID/nb7O5PelDa4LrOmqzg7LUldTYGUG5Wpa2duOMvhRfCOPY6fuRcUZ/b/1vM+ruxJn3K7Bjd75CH6dxRj2XK/FZy2I312OG1mEJ73f6fmRMoOtb/9tsx2dc78a4G6OUkZ98Tuz6mv4p67JLV3Z3TaJfzQ/Jzt8Y1Nsptwsxm7/N1v7SuutzgtedGAX68Bjbrdf1wbnTubkiSccnsfth4hAAPnGucKVuDTYFPbJbn740Ptq6MsGpS3k++FiU+GP+dHG4MtmEJuvVenClLmV3bTuCvlQfu9Pe7uKg/vmDFnvzerqwUPfqBxR1GAdylat1Ge+dfgR+dd/qQ3zHh+hKeeIae+s/Ryf+hztzhDp355bsvRMnJ/0IX4do64q9KE897I1wfOJ/QJ+dsTvEzN3kBHXReWfclDudw/Qne9OWx/td8MNdnej/jg74ewfs6rbVnN6xI/UoeyUmK9RVn8hpfAJt3PUbY766hgPxvdMn7Xu5q39ngM8H2qPubtxTRusCcmc+V9Dlqs2oc+InxoDs4DFFfxr7bqxRx/VUvO76y32Mzrv1ZqDDVRgvcsffV+oyPh+j7LUbo4oNIfv5uRmK70d+7tHmVbsRM/R7x99X6qKXx+fVNYX69KXx0RZ1r8wvyj/yuws6+Jh2UNxcrQdX6lJ217Yj3LfYnfauzA/K57vLPvSndQFhrLv2ohz2zXeXa5x87lGeeo9cw6/4XLAe3P3ucoUkHZ8EwbMKHCY0W3BZSAk0bcPmdfWBwBZaQaB43dUEYlGhT0BH6tA/7dDuasJQhq25CMHNe+rznrZnUJ7+6IuymqzoTv270AYyg/6wt/TmeNdm+Eo+8bo7W5mxMeUQ6lxd4GhfNqcur9gPnZAZ+JLxKcbQhVfec37la8oxVsWpFjLaYSwzFFuIjtF9x2b4SrGkMVBXslpQ3T+0c2UBxsb0R330lK01z1agH3WxM7FC/6rL+xn0LXvThq8DnJtB29Rx2Y07+vFYkp+oh96r9Uj9UZaxXvnQxTf0RZ/YjDawO+doawVlKEtdxohwvFOfcdEftqW8+4fxELcjGKPGLWEMtMfxqm/6E5RVPV5nvgLGp76w1UzPDnwt+9AO73ml/6t/rDjUn+lC2/SDvdGdcQiO/X0HetKHi+YKMoO6sqvsxyv243gGY8JeCP2s/FNhDZCvZGv5YDW3ZuzYjD6xEcKx/MuYVjajbdlWwjgUKzPdGTP9AX3J35qvO589lKMv7M0rdbEbMkP9UU5zS+1d9Z2zYzPGja3R1/9WQIdV36drOOUAH9MfY8fmnN/57KEO/WAr2Vr2m3G6hs/AfjPUN+UYg2yGLojivQObeSxRnrq0wRhWc5O68gnj1vgZO8cziH/Fhnyr+jt9Y1d0pTx1EY5PbY4uxPkMxo3ujFP67toM/YRiS3VlyxGnawplsDHCfJD9eE/bMyhPf/RFWd5TF91XviYGKYPNpLPg2N93nKwp+Eo+8bqMXbYcgY0ph1Bn1VdFawB6U5dX7IdOPu868CXjU4yhC6+85/zO5wdjRTjWOrCzhiu2EB2j+47N8JViSWOgrmS2HoH7h3ZW5R3pim01t9CXtnZ8h370jZ2JFfpXO7yfQfuyN234OsC5GbRNHRd0Rjie6U4/HkvyE/XQe7UeqT/KMtZVXDn4hr7oE5u5vWlrBWUoS13GiHC8U59x0R+2pbz7h/EQCyMYo8YtYQy0x/GO7ndJ0vEAHFMdJ8F5M6cTMAQKQcuE8cWIib5akH0S05cmFn3S7gyCGqnHwJj8fYX20RW0oGpB0MIxg+ujxYt2ZwsE/biNXTRxZ8hO2Jfy8o8m7wz6UHl8ow8VfEbd2UJFPeqDbCR9dxY4fK3YwEb60OPcajGnj9ECwnmNo0N2QUeEttCb8z6mEbIT5d0/6K12RlBW5et8oN/ZhxDILvSBvRgHr7M+Be0rRrERugrsrzjo4JrmR4U2V/MaPSmHjRgjfWusK18rrqmPHghjRjjejVH5SzGHHxRzI6irPijPOBir7DgDvb19xaXihHZn+PxwOIceM9BR8wNdGYd00ZhGYCfaR1fKIRwrRlax5v6kHZWnrsdch+aHxwn9ctzZwpF/hcclr5p3I7AXtumEccxshn0oh47oga3Rm/ca0wzap3/ZG8GOOp5Bvyrjx7Azr6kDihNsiL47azh6q5zHpewxA59SphPpMEIxSt+am9ThvI9pBPFAGcpKsJVifhZr7k8/Bnzo7zt8XtOn5iXnVmshemvdBOozZtljpjdl3MYutMPrDNqnDWyErbETqO8ZqnO6hvsxKGZncJ1ygH/QQ6zmB3rLP0B9zmFnt8EI+h7Jytf0g7/pS3UE57k+wu2Ef9BVsUF8+pg6qKux+TGsbEb72AmwO+OUf6/OD4dzqzijfdmqCnVnerudsC/jlB7yxQz3p+YK0KfHXAc2kV38GFY2o310BexM31ojrs6PCu1qHB3YhfrYiXLElexWx9EhO9GOzyfOrXxNvyrv80FxsrumyEb0j76zesJjlPFqPnFuNa/pQ/OjwvnZvJZd0BGhLfTmvI9phOxEeY0X0FvtjKCsytOGzwf69c+lDtmFPrAX4+B11qegr7ufez4/Kvh+Na9pn3L0gQ7YSbqsfK24pj56IIwZ4Xg3Rhkn7Wic+EExN4K66oPyjIOxjua6g97evuJScUK7M3x+OJxDjxnoqPmhuSldNKYRigd0pRzCMf7neCfW7pKk4wGaWHKai5w3gmuaKH4M9X2HT+I6oVcTnPY1MRmDTxoCmeAbQTBqYeKYvjROBf6Muig6q0mqieILk4QxaKEfcWIzn8R+DPV9hWvVLixw6Mx4VnpTBl9pIVN53q/0rouis7JZpzc+QAfardcqbpdqo/q+gl7SzY+hvu+odsFW1EH3ld7+gcOxl1/Na9mng7hf9d3pTZ/UXfka0JvymsM7tgL3tR9Dfd/B9WoXdEYX7DH7owH9/I9LjqXzjv7Mj659zl2Z14J5gXTXKvibcuiMr3ZsJVy3qudK784u9E28ao0cQTmt4eDr9o7++BWfUrbKan50eitO3O8jsLF8I5/vzAugbewDtEG/QJuMB1+OYEzVLlfWcHSkH+B15vvKyedep/eVNRxo3/1KHR3PoAz9MF5sja4CP8z+zoCTzz109DlwRX/apzz9Uc5lx2Yz3670hrtrOHpjM/xLbGIzQVuK/RFcl8049nG6/TrQ72QNJzbos9obWdnM26991fcV2tc4/Rjq+w7all2vrin4RDbjWPEOO2sh5e9+7p2s4Vw7sdnJ/KD9u2sKvmBsOqYvjdM/A0fQvvxbkS1HdHFIW+iz4+sTmzEu6ebHUN9XuFbtcuVz72QNx5fuX4fzs747va987rldqo3q+wp6STc/hvq+o9oFW1EH3Xf0vvu5J/t0EKurvju96Z+6K1/D3c89xiTd/Bjq+47OLpqb2KNbYwX6nXzunazhnd7MC6S7VsHflENnfLVjq0eQpOMhOLj7INpxuiYkAeZt8OG2ClYCkj6QGpwE8grapxw68Eo7HCME4AyVY0IqUGmPc7MPfSDQ6U8fGhK1uQI7UbeidmYwuVTXy+5+CKEfr+jvvuUc4xoxm8zY2j8kOtAbWyMaP+eIE/3BO0ILP/3LRgj1GMdsQQXq1viWD0djEvoQQQfFOaj+LM7QkfHSB6/uL45XcTZbsOt4KuiNfuiu+Y29sDnnV1BHOks4R90dXytGhXy488ENlKdP6uysJUCMyqfUc99ybRVnlPc54XB+Fmdco2/GLhurLWyx8jX+UX3Zm2N8wOsMj1GHfrH3aEwVdFB/q3khTtZwjbMDe6709tjw+aVYX4F9unk0iwNAN/qr6yVtYYPRmCr0wRgof2VeMDb6l6Avr3XOVehv5Ffa3ZnX0lc+B8X+CuzT6Uh7K5vRb/XV7hou0BPbIbS3Oy/QjX6oo/44Ruqcq2gOIxo/56THDK3h9E89jtUf7c0+r4Hr6FiZxYFAR/nKfbPzd4ZAV+qiA2Nd+Vho3PTj6wvnVmNWXfpEf2xO34yH8zNO13DGS7+0U1nNb19T6FP90ibnZ7HKNXTFRvTv/uHaKs7ogzKKU4Q2eFUMjJDN1Df9caw5s/IX/pHNqYNwTN+8rpCPK+gwsxmgL3UZg7exE6sel9W3jGeF7IMObj9Ec3yEymEjtzfnVjGKP+gPu8neqovM8Bh1sB02oJ0Z+FPx5GV31hTZh1f0d99ybhZnslEHtt753GPcCGNlDJwjTnbmlvR2e1OPcXRrhUPdGt/y4WhMgnFRHx0U56D6szhDR8ZLH7y6vzhexdlsvavjqZx+7lFHOkvUzo6vFaNCPlyt4YLy9EmdnbUEiFH5VPEiuLaKM8r7nHA4P4szrtE3Y0c4VlvYYuVr/Kn6sjfH+IDXGR6jDv1i79GYKuig/lbz4hEk6fgRIVjqIsA5ArUG0hVWi4OgDwLTZRfKajLSDpNltSAKjVGTDNnV+ZRujOiy+gCbsdKd8Z6OjzjxWEHnK3GCb9zevN+pS5nugwp7rT7AgDK1H2xxJdYq1F3pvhuLIxif64jO2G03Tqjr9r4SY51tGO9Vm9EfH0CPsMXK19hnJ55G0IfWBB9nFz8d1Hd7IzvxCaM+0OPKmChLv6s/FnZYrRfovDu+DnTVmuDxgR2RZzLqg/Fc7Rvdr/6hRB/4VrJjR+x1uoZrDfF1m9cTP+4w6gM7XO0be/FH/JV69O/2RnahH+/ryuce9bQWeFxd6f8uXR9XPgME5e+s4W5rZMdeoLkhrnzuUeZkDT+BvquO9Hvy2Ud7HnszKOv23q2nuSH7KGbdfjPoVzEu2e37BPSt/XBud26O2F1jZTeXXSirWKEdbLYbJxqj23tXZ/pUvw527M5XujHeWVOcle6Md3d8Ixifxwo6X4kTfOP25v1OXcp0cwF7decrlKn9YIsrsVah7kr3kzUL0Fu28tjY1Ztybu8rMdb1wXiv2oz+8t1lzagP9LgyJsrS7yO+u6xI0jG8GnY/TDqYZLsTtYNF4y4nerPgnHyon+iNve7ajPGe6H2y0J/oDScfZHf0RlfiE19fhTonsU3dqx9A4kRv+lPfdzjRG07+Y8cH7117U+/kg/tEb+L6bmyf6H0So6dxchKjb2Vu0b7ryBqkP0536tOPoB3V9fMjaN/70B/XvK7Gfao3ddUHr6q7E+MnelNvV8cO6u7YtoN6Ozp2nOp9sn6c6C1oQ7rL37ttUs9trljb8QPtU079aI7s2oLyHueKtR0/nOgN1Fd/V+oB42WMqnv1bxvZCUEHt8GKE73B1xLGsGNrcaI3elKPf7zwWc1n5m6coCN1SaZQl1f637W5fEVdhONdu53ojX7oSR3qagfars1P9B5B/St+c9Cb+LkL47kyT5wTvQE/3OVEb+qd2uwu2OuuzU71vromOnf0Jjbvxgh6Uvfu3KJP6l5ZS+9wKenIhRNJ0jHM4APp7oThgwy5y+72744TvalH/bus9GYh0vZ2tnG7jXZsxh9G1EU41gK8ozeLGH1Sl+3bvvivbHaqNx9y0pu+fBHn3IwTvYE/yqiLvdCTtqjH6+rDhD8qqMvY6Vf6U3f1wY3N0Jc6lKUe72mr24ZfOdEbm1AO0TF90j/tzXiE3tRxkd2QGYzT6yHSnePZuPlwrnWpR32OV0m8E72JDa+HYDOE41msPEJv2cVjdMfXxLf+cEYP2Vqy8jV9CPSUzryu5seJ3tSjvkBX2Zq+V/PjRG/sJf00t4hb2qHd2R+J6KW+sS11qUd9zvva1sGYpR91GDev6MPxjBO9gfIqg63Qhfoc08aME73RFf0Q+lr5p+JxhQ1WMT96+/QAAAwjSURBVO1IV8aOruiyy6ne1EEUIyv/OCd6A3XQmzbQm1d0wI8+7zrQ09dN1Ucn9NmZm5RHmA+813i0Vo2gL/qgX8YgnXnl/IxTvdFN9qZP6vKK/qu6mo+uq3ywEzfqh7rql1fGsYr3E71pm3JuJ+mNLitO9CY26I+6jIH36EBd2piBr6UrdbA/r7zn/Gqu0Sd6Uwf/IBzvjPtEb5B9qENd2qAt2uT9jBO9Z9AGcgdsz3juQt2r65s40RtYL+6yozfxSB8Ix5oTOzbDt6pLWZ/LK73phzijHHHlNtqx2Yne6Emf1CUuPaZXNjvVm7lEXdqgX47pk7aw5wz0ohyiY9phDNhgBWuf7IWe1Fffq3X4BPKAXX6wk+x0DMfwQUNgd6LJM4JJ2NVD9ME2o6snYfLNONGbCdzVQ/SBPqPWcVnpzaJGORZH9GCBoU/erxZFLcb8QYRQFjtznvHS7gwWNf1hwYJKeS2GHM9sdqI3oDd9Up64QW8t4iubneiNrvRFv/qDlmNgTJyboQWfsrSjvuSLGWqf/tATEZzn+ohTvdW+2pF/aIP3nB9xojdgF/yFrST4WMczaF8+lTB2+uRYNuiQT1QW4Zj6HM/GDCd60w92JT5VnhhFOJ59iTnVW/YC9w+2ot1Z3z53qUd9QburP7R87tKXdEUf7DHjRG/qKS7pU3MFGI/WhxEnervN/BiIH39fcb39GLS2zXCb+TEoXkac6A1uMz/G7v6+40RvrskushE+Qt9ZjAjpho+JC/zN62pegezEGPW5hb4cK95GnOotO1GWOujNPKGtFSd6AzZTOeppPnFu5Wv69c9rymu8O/OD/oA6jFlr0O78kH3oy+fyKs5O9AZfs7AT74F1baU3ftU4AV2JT4R2Zj6jjI8T3bWO8/pMvSnjay124hztoNPM3qd6u68rst8I93VFY5jh88Nx+4040dvnR8XtN+JEb+IT3TvBjzN/MaauHsJ4eJ2BT2o9CXrP4uxEb+jqSVZr4Yne2IwyzE0EPdGX89SjjRnUJSbwLTagrtaYld6a+9SlP+Y4fuI9eqx8faI3May5if6U1xrD8cxmJ3oDelOPdtBZfWlMM9CbepT1uKJvjX+E6lCWdqQz0OZqXp9waafj+9fbJOkYtBgxuaoQ+LyO0ERkYah1meyrCU4ZJlOti6wWxRO9mcyUQb9aV4vWjBO9u4WPsaAPC+3MZrRfddNitaN3t2AzFqS75pzoDdUu8gFtrGx2orfbzI+hvu9w3aqeV3xd7VffV0715jrl6jHU9xXXrepZ33fgW/lGX2ZWtnJo3+fwSl+H+UB5YhI9qMf7HU71Zh1Eb+Yi7NhKnOhNuZGt6vuK61j1re87TubHid5co0w9hvq+40Rv2tcfiKxfxIzQH54jqKM/bIkx2hE7f1ziD5WhX/oH2qUt2h1xojdgU5WhHc0R+lz9QX6qd/UnfdMO/V6JUaBP6tDvKk4oV9tHH8aiv31GnOpNXdpwsBtrjNu/40RvoAx2kn/UFu9X84MY0ZdGjtUWrP5WIA4Yn47pSzbQF9AZjE9j49jL+2dKx4negK4qX+20shl6uk+ufP5xTTYDtxPXVjY70RubyGbgduJ1ZrNTvfGv1pEKMTuzGf719c/h/MrXxEY3/zi3stmJ3swJynTQ5spmJ3prncdP6Oiyshlxha8pU+vii5XejE22qbKa1yd6A2XwWa2LrGx2ojfXql3k/x2bVd3kA3TamdfVLtSj/motPNWb69Uu+ADprjkneoPbpdpoZTPXreq50ptrlKnHUN8/miQdw4vDZGZiVlYTBahH/Uo3+StaBLsPwdUEhxO9WQTpu7IzwU/0pg6LL/07jIO6K5vRbx2zPlRXevOhS330d7Ajfc9sdqo3C36NE9lxZbMTvUE2YwxuO/6QuKK3l9358HSboaP0ZBycf6bebjO1AYqVakvnVG9BOXRA15WPK+jAOBHa2O1TMGZ0xX8rP1VO9MZG1KP+jp8qd/SmHP3xim/dVpyrc9ZBP/qjHK+uL8fE+QzsQ12k2gpdZlDnrt6U1ZqnNgTXsP2ME70B21COvl0PZDa3gLmpOq4H52ZjBtpmbPhKQl1e6/racaI3uqms2pDevj51nOiNPynbQbvYc0b1r7PSG3v5nHBYozxmK6d6U3fUPue1pnec6A2sP/ITNsJHnMOHq7lF+x5bsoNibxXjijH69rqcW61HmluURWd0R1905/yMU73pg3qUpx4CaneG9KYuenOs+YgddmzGOKlPeV5B459xorfK0IZsrNhiHCt/neiNTeiPfqgnoU1kBraljPwroU/aZFwz0E/jVl2OGQOvM070BurJVhLFzGpNOdEbqE9fFbU1g3F349M8W0G/9F+hrmJuxIneipUuJmafLeJEb/qtdRU/K5vhzzpmjWWlN2MlJuq6gy7UXdnsRG9imPpa/wRjoe+ZzU71dpt52Z3ve643/SleNO46nopsRj23ndbHZ5GkYwifcVhUtCA5LE7deYeFqy6oQL3ufIUy3eLHQr5aFE/0hu7Dgj5XH7xwojfXq204xwfJqi50+lF3Z8ydzdClfiB3nOrd2YwPxh17n+hdoc7qA3sEuvKhW+2wA2Pnw3rnj+mOE72x3eiPzRWnejurLyEzdubWjJO+T+pi+zvxInb7xjbYyOUKte4VWzNGr3tlvKd605fXrevEjDt6o+9JPNyZgwL97sbSqd7UvRITzoneorbB587uZ49iTGVphzWNcztQTnFFG9Td9aNiTGBH6u/E6ane6svtxOuOL9RX1XWnb/rAPtR1O9HOzrhP9KZ96lHfdaWu2hpxqjf11bfkypxT3xLer3QW6Od1kR17wane2Nnr0taOveBE7/CyECedb/Dhjs+6tYM2d9YU+uhiin5XsXaqN2W6eYje3XnnRG/obLM7vzq9mdc79u5sxjn6Xo35hCQdQwghhBBCCCGEC1xJHlZIEOwkRkaQJLjLid4kRa4kLisnep/Y7FTv+Po68fV13qqvVyTpGEIIIYQQQgghXIA7FEgy3EG7/+6yc8vtiBO9qXf3zgw40fvEZqd6x9fXia+v81Z9vSJJxxBCCCGEEEIIocDjR/gy3gnPUJt9yWfnUVcP0fMSZ3T1JKvkxIne7NTq6iE8E47XGbWOy0rvE5ud6h1ffyjxdc/n1dcnJOkYQgghhBBCCCEUSDCQSODLfBW+qPM6gi/5JAK4bbHW5VnMq+QEZXjWdK2L7CR07urNLZqUQb9al9s/V8mJE71PbHaqd3z9Yd34uufz6usTknQMIYQQQgghhBAaSBLwZb/Cl/TZl3ygHvUrfPFfJSeUJOB5a5VVcgJO9CaxQt8V6q2SE6d6n9jsRG+Ir39BfD3m8+jrE5J0DCGEEEIIIYQQQgghPJQkHUMIIYQQQgghhBBCCA8lSccQQgghhBBCCCGEEMJDSdIxhBBCCCGEEEIIIYTwUJJ0DCGEEEIIIYQQQgghPJQkHUMIIYQQQgghhBBCCA8lSccQQgghhBBCCCGEEMJDSdIxhBBCCCGEEEIIIYTwUC4lHblwIkk6hhBCCCGEEEIIIYTw2Yc8YJcf7CQ7HUMIIYQQQgghhBBCCEsu7XR8/3qbP/7jP37XYSQSiUQikUgkEolEIpFIJBL57Ap5wMrTko5vhZEBwmOIfZ9L7PtcYt/nEvu+buKfT4kd9omt5sQ+c2KfObHPnNhnTuwzJ/aZE/vMiX3mjOyTpGN4CLHvc4l9n0vs+1xi39dN/PMpscM+sdWc2GdO7DMn9pkT+8yJfebEPnNinzmxz5yRfZJ0DA8h9n0use9ziX2fS+z7uol/PiV22Ce2mhP7zIl95sQ+c2KfObHPnNhnTuwzJ/aZM7JPko7hIcS+zyX2fS6x73OJfV838c+nxA77xFZzYp85sc+c2GdO7DMn9pkT+8yJfebEPnNG9knSMTyE2Pe5xL7PJfZ9LrHv6yb++ZTYYZ/Yak7sMyf2mRP7zIl95sQ+c2KfObHPnNhnzsg+STqGhxD7PpfY97nEvs8l9n3dxD+fEjvsE1vNiX3mxD5zYp85sc+c2GdO7DMn9pkT+8wZ2SdJx/AQYt/nEvs+l9j3ucS+r5v451Nih31iqzmxz5zYZ07sMyf2mRP7zIl95sQ+c2KfOb19Pvnk/wPaGrKsX1pAYAAAAABJRU5ErkJggg==;" vertex="1" parent="1">
          <mxGeometry x="1560" y="760" width="1266.77" height="720" as="geometry" />
        </mxCell>
        <mxCell id="HRLqc-G_0mREPKBpx3aI-58" value="&lt;b&gt;&lt;font style=&quot;font-size: 24px&quot;&gt;至数据量的90%&lt;/font&gt;&lt;/b&gt;" style="text;html=1;strokeColor=none;fillColor=none;align=center;verticalAlign=middle;whiteSpace=wrap;rounded=0;" vertex="1" parent="1">
          <mxGeometry x="1860" y="870" width="300" height="20" as="geometry" />
        </mxCell>
        <mxCell id="HRLqc-G_0mREPKBpx3aI-59" value="&lt;b&gt;&lt;font style=&quot;font-size: 24px&quot;&gt;以此平均值作为该小阶段的平均耗时&lt;/font&gt;&lt;/b&gt;" style="text;html=1;strokeColor=none;fillColor=none;align=center;verticalAlign=middle;whiteSpace=wrap;rounded=0;" vertex="1" parent="1">
          <mxGeometry x="2200" y="820" width="390" height="20" as="geometry" />
        </mxCell>
      </root>
    </mxGraphModel>
  </diagram>
</mxfile>
